<svg class="marketing__img-marketing" xmlns="http://www.w3.org/2000/svg" width="530px" height="467px" fill-rule="evenodd" clip-rule="evenodd" viewBox="0 0 530 467" xmlns:xlink="http://www.w3.org/1999/xlink">
                      <g id="Слой_x0020_1">
                        <path fill="#99B9FA" d="M119.34 274.91l237.12 0 0 -158.86 -237.12 0 0 158.86zm198.06 -39.5l37.26 0 0 37.26 -37.26 0 0 -37.26zm-38.98 0l37.25 0 0 37.26 -37.25 0 0 -37.26zm-38.72 0l37.26 0 0 37.26 -37.26 0 0 -37.26zm-38.72 0l37.26 0 0 37.26 -37.26 0 0 -37.26zm-39.34 0l37.25 0 0 37.26 -37.25 0 0 -37.26zm-40.18 0l37.25 0 0 37.26 -37.25 0 0 -37.26zm195.94 -38.89l37.26 0 0 37.26 -37.26 0 0 -37.26zm-38.98 0l37.25 0 0 37.26 -37.25 0 0 -37.26zm-38.72 0l37.26 0 0 37.26 -37.26 0 0 -37.26zm-38.72 0l37.26 0 0 37.26 -37.26 0 0 -37.26zm-39.34 0l37.25 0 0 37.26 -37.25 0 0 -37.26zm-40.18 0l37.25 0 0 37.26 -37.25 0 0 -37.26zm195.94 -38.73l37.26 0 0 37.25 -37.26 0 0 -37.25zm-38.98 0l37.25 0 0 37.25 -37.25 0 0 -37.25zm-38.72 0l37.26 0 0 37.25 -37.26 0 0 -37.25zm-38.72 0l37.26 0 0 37.25 -37.26 0 0 -37.25zm-39.34 0l37.25 0 0 37.25 -37.25 0 0 -37.25zm-40.18 0l37.25 0 0 37.25 -37.25 0 0 -37.25zm195.94 -39.09l37.26 0 0 37.25 -37.26 0 0 -37.25zm-38.98 0l37.25 0 0 37.25 -37.25 0 0 -37.25zm-38.72 0l37.26 0 0 37.25 -37.26 0 0 -37.25zm-38.72 0l37.26 0 0 37.25 -37.26 0 0 -37.25zm-39.34 0l37.25 0 0 37.25 -37.25 0 0 -37.25zm-40.18 0l37.25 0 0 37.25 -37.25 0 0 -37.25z"/>
                        <line fill="none" x1="107.01" y1="185.64" x2="309.52" y2= "185.64" />
                        <line fill="none" x1="107.64" y1="207.15" x2="310.15" y2= "207.15" />
                        <line fill="none" x1="107.01" y1="228.51" x2="309.52" y2= "228.51" />
                        <line fill="none" x1="107.01" y1="249.87" x2="309.52" y2= "249.87" />
                        <line fill="none" x1="107.01" y1="271.07" x2="309.52" y2= "271.07" />
                        <line fill="none" x1="145.89" y1="161.56" x2="145.89" y2= "317.04" />
                        <line fill="none" x1="186.99" y1="161.56" x2="186.99" y2= "317.04" />
                        <line fill="none" x1="228.29" y1="161.56" x2="228.29" y2= "317.04" />
                        <line fill="none" x1="242.44" y1="165.07" x2="242.44" y2= "291.96" />
                        <line fill="none" x1="275.98" y1="165.07" x2="275.98" y2= "291.96" />
                        <polyline class="marketing__img-up" fill="none" stroke="#009933" stroke-width="6.25" stroke-miterlimit="22.9256" points="145.77,250.06 171.6,211.41 193.5,233.5 212.02,201.3 245.58,223.99 268.46,186.43 286.57,195.17 315.4,155.33 "/>
                        <polygon class="marketing__img-arr" fill="#009933" points="309.1,150.9 325,143.34 321.93,160.41 "/>
                        <polygon fill="#99B9FA" points="117.62,278.1 362.54,278.11 362.5,273.59 379.04,280.99 362.4,287.85 362.37,283.77 110.59,284.67 "/>
                        <polygon fill="#99B9FA" points="110.59,284.67 111.01,108.7 106.49,108.69 113.93,96.71 120.75,108.87 116.66,108.87 117.62,278.1 "/>
                        <path fill="#FF6600" d="M174.51 197.43c0.04,1.9 0.96,4.83 -0.66,9.07 -0.56,1.49 -2.34,2.17 -2.34,3.77 0.04,13.85 -0.21,27.72 0.17,41.56l-49.9 -0.14c0.26,-10.96 -0.2,-22.95 -0.87,-32.69 -1.78,14.75 -3.14,29.55 -5.86,44.24l-9.89 -0.43c-1.48,-19.45 -2.14,-38.6 2.57,-58.68 2.04,-6.6 5.12,-14.33 11.74,-15.76 4.88,-0.15 9.55,-0.15 14.31,0.03 8.56,0.31 17.28,-0.12 25.85,0.01l11.17 0.17c1.31,0.51 2.14,1.62 2.51,2.38l1.2 6.47 0 0 0 0z"/>
                        <path fill="black" d="M126.92 162.05c-1.12,-0.1 -2.3,-10.81 -3.24,-16.25 -0.26,-1.45 -0.49,-2.94 -0.36,-4.4 0.2,-2.18 0.55,-4.39 1.35,-6.43 0.65,-1.64 1.67,-3.18 2.93,-4.42 1,-0.97 2.4,-1.4 3.65,-2.01 0.93,-0.46 1.06,-1.92 1.81,-2.52 2.69,-2.16 4.24,-3.24 6.68,-3.77 6.16,-1.34 10.16,-1.43 15.07,-0.28 4.26,0.99 8.56,3.35 11.19,6.85 1.69,2.25 2.86,4.84 3.58,8.12 0.58,2.66 1.11,6.27 0.93,8.96 -0.33,5.08 -1.46,14.3 -1.98,14.57 -0.87,0.46 -1.15,-8.83 -3.38,-12.96 -1.6,-2.95 -4.51,-6.85 -7.86,-7.04 -4.89,-0.27 -9.24,-0.93 -14.03,-1.53 -1.96,-0.25 -5.17,-0.72 -7.49,-1.48 -1.93,-0.63 -3.31,-1.83 -3.87,-1.06 -2.36,3.22 -2.75,7.78 -3.64,11.78 -0.69,3.13 -0.89,13.91 -1.34,13.87l0 0 0 0z"/>
                        <path fill="#FDB87D" d="M146.77 128.41c12.2,0 22.09,12.58 22.09,28.09 0,7.36 -1.64,14.88 -5.29,19.89 -4.03,5.54 -10.39,8.2 -16.8,8.2 -5.64,0 -11.55,-2.05 -15.46,-6.47 -4.54,-5.15 -6.64,-13.28 -6.64,-21.62 0,-15.51 9.89,-28.09 22.1,-28.09l0 0z"/>
                        <path fill="#582B0E" d="M136.66 153.11c1.92,0 3.47,1.49 3.47,3.33 0,1.84 -1.55,3.33 -3.47,3.33 -1.92,0 -3.48,-1.49 -3.48,-3.33 0,-1.84 1.56,-3.33 3.48,-3.33z"/>
                        <path fill="white" d="M139.07 155.25c0,-0.66 -0.57,-1.2 -1.28,-1.2 -0.71,0 -1.28,0.54 -1.28,1.2 0,0.66 0.57,1.19 1.28,1.19 0.71,0 1.28,-0.53 1.28,-1.19z"/>
                        <path fill="#582B0E" d="M156.66 153.17c1.92,0 3.47,1.49 3.47,3.33 0,1.84 -1.55,3.33 -3.47,3.33 -1.92,0 -3.47,-1.49 -3.47,-3.33 0,-1.84 1.55,-3.33 3.47,-3.33z"/>
                        <path fill="white" d="M159.08 155.3c0,-0.65 -0.58,-1.19 -1.29,-1.19 -0.71,0 -1.28,0.54 -1.28,1.19 0,0.67 0.57,1.2 1.28,1.2 0.71,0 1.29,-0.53 1.29,-1.2z"/>
                        <path fill="#E2A974" d="M130.34 135.08l34.91 5.74 1.5 12.29c-2.62,-4.28 -3.97,-9.32 -8.98,-10.89 -1.36,-0.42 -3.37,-0.04 -5.04,-0.11 -9.58,-0.45 -14.71,-1.64 -17.94,-3.31 -1.9,-0.99 -2.18,-0.29 -2.65,0.4 -1.46,2.15 -2.04,6.45 -3.74,8.66l1.94 -12.78 0 0 0 0z"/>
                        <path fill="#582B0E" d="M142.47 153.64c0.47,0.65 -0.97,1.41 -1.46,0.91 -3.33,-3.83 -5.37,-2.59 -9.11,-0.91 2.68,-3.04 7.68,-3.99 10.57,0l0 0 0 0z"/>
                        <path fill="#582B0E" d="M151.03 153.61c-0.47,0.65 0.97,1.41 1.46,0.91 3.34,-3.83 5.37,-2.59 9.11,-0.91 -2.68,-3.03 -7.68,-3.99 -10.57,0z"/>
                        <path fill="white" d="M146.57 173.89c3.39,0.05 5.81,-1.38 8.06,-3.91 -5.08,1.59 -10.45,1.29 -15.53,0.07 1.87,2.35 4.46,3.79 7.47,3.84l0 0z"/>
                        <path fill="#F24848" d="M146.71 177.39c3.39,0.06 6.78,-2.61 7.74,-7.22 -4.76,5.2 -11.48,4.74 -15.35,-0.12 0.79,5.53 4.6,7.3 7.61,7.34z"/>
                        <path fill="#F2B479" d="M120.62 149.98c0.48,-1.4 2.86,-1.54 4.45,-0.88l0.12 14.41c-2.48,-0.46 -3.67,-3.31 -4.46,-5.53 -0.87,-2.46 -1.09,-5.15 -0.11,-8l0 0 0 0z"/>
                        <path fill="#F2B479" d="M172.77 150.01c-0.48,-1.4 -1.78,-1.56 -3.37,-0.89l-1.2 14.43c2.48,-0.47 3.66,-3.32 4.45,-5.54 0.87,-2.46 1.1,-5.15 0.12,-8z"/>
                        <path fill="#E2A974" d="M122.03 151.14c0.27,-1 2.02,-1.55 2.9,-1.07l-0.06 10.86c-1.37,-0.33 -2.33,-2.46 -2.77,-4.06 -0.48,-1.76 -0.61,-3.69 -0.07,-5.73l0 0z"/>
                        <path fill="#E2A974" d="M171.35 151.17c-0.26,-1 -1.19,-1.09 -2.07,-0.61l-0.77 10.4c1.38,-0.33 2.34,-2.47 2.78,-4.06 0.48,-1.76 0.6,-3.69 0.06,-5.73l0 0 0 0z"/>
                        <path fill="#E2A974" d="M167.4 156.45l1.3 4.03c-0.56,7.04 -2.18,14.09 -8.17,19.26 -8.41,6.91 -21.04,6.41 -28.79,-1.08 4.36,1.45 28.13,14.88 35.66,-22.21l0 0z"/>
                        <path fill="#582B0E" d="M143.26 138.94c4.79,0.6 9.14,1.26 14.03,1.53 3.35,0.19 6.26,4.09 7.86,7.04 2.23,4.13 2.51,13.42 3.38,12.96 0.52,-0.27 1.65,-9.49 1.98,-14.57 0.18,-2.69 -0.35,-6.3 -0.93,-8.96 -0.72,-3.28 -1.89,-5.87 -3.58,-8.12 -2.63,-3.5 -6.93,-5.86 -11.19,-6.85 -4.91,-1.15 -8.91,-1.06 -15.07,0.28 -2.44,0.53 -3.99,1.61 -6.68,3.77 -0.75,0.6 -0.88,2.06 -1.81,2.52 -1.25,0.61 -2.65,1.04 -3.65,2.01 -1.26,1.24 -2.28,2.78 -2.93,4.42 -0.8,2.04 -1.15,4.25 -1.35,6.43 -0.13,1.46 0.1,2.95 0.36,4.4 0.94,5.44 2.12,16.15 3.24,16.25 0.45,0.04 0.65,-10.74 1.34,-13.87 0.89,-4 1.28,-8.56 3.64,-11.78 0.56,-0.77 1.94,0.43 3.87,1.06 2.32,0.76 5.53,1.23 7.49,1.48l0 0 0 0z"/>
                        <path fill="#F2B479" d="M138.11 182.9c5.37,2.15 11.63,2.08 17.27,-0.03l0.08 2.55c-2.44,3.81 -7.12,11.6 -8.89,11.6 -1.63,-0.01 -6.03,-7.69 -8.61,-11.59l0.15 -2.53 0 0 0 0z"/>
                        <path fill="#E2A974" d="M139.86 183.41c4.82,1.66 10.51,1.06 15.53,-0.56l0.07 2.57c-2.03,3.21 -4.08,6.34 -6.36,9.46 -0.84,1.16 -6.76,-6.33 -9.03,-9.76l-0.21 -1.71z"/>
                        <path fill="#003399" d="M142.63 200.47l3.97 -3.16c1.37,1.06 2.74,2.1 4.11,3.16 -0.41,1.19 -1.06,2.31 -1.03,3.86l2.4 38.92 -5.2 5.7 -5.55 -5.93c0.83,-12.91 1.65,-25.81 2.48,-38.72 -0.04,-1.39 -0.38,-2.55 -1.18,-3.83l0 0 0 0z"/>
                        <polygon fill="white" points="157.1,215.12 167.24,215.24 167.15,224.52 157.43,224.64 157.16,216.77 "/>
                        <g class="marketing__img-hand">
                          <path fill="#FF6600" d="M172.02 210.8c1.88,0.74 9.78,7.74 21.44,5.53 4.89,-1.03 9.63,-4 10.87,-6.08 5.22,-8.71 10.26,-19.65 15.72,-29.55 0.49,-1.43 -0.27,-2.15 -1.14,-2.71l-8.64 -2.25c-0.99,-0.59 -1.74,-0.56 -2.32,-0.07 -4.84,7.27 -9.68,14.54 -14.51,21.81 -3.72,4.24 -5.82,1.92 -9.61,-0.65 -4.56,-3.05 -7.99,-7.16 -14.13,-7.97l-6.97 5.25c-3.15,2.38 -2.25,6.07 -0.11,10.2 1.23,2.39 9.3,6.26 9.4,6.49l0 0 0 0z"/>
                          <path fill="#F2B479" d="M210.02 152.9c0.41,-1.18 1.99,-1.7 2.91,-1.2 1.32,0.7 2.02,6.61 2.69,6.78 0.59,0.14 -0.66,-5.81 0.04,-7.2 0.51,-1.02 0.98,-1.29 1.95,-1.36 0.53,-0.04 1.14,0.17 1.5,1.54 0.28,1.11 0.11,7.44 0.53,7.49 0.37,0.04 0.44,-7.51 3.32,-7.06 1.39,0.22 1.04,1.99 1.05,3.2 0,2.2 -0.92,6.51 -0.56,6.56 0.53,0.09 1.22,-4.96 1.92,-5.83 0.56,-0.69 1.65,-0.83 2.36,-0.39 0.99,0.62 1.57,2.23 0.56,4.4 -0.8,1.76 -1.8,3.28 -2.42,5.29 -0.3,1.52 -0.61,3.05 -0.92,4.57 -0.76,3.87 -3.35,6.16 -5.76,8.02 -1.14,0.44 -1.39,1.08 -1.91,1.32 -2.13,-0.44 -3.99,-1.2 -6.13,-1.65 -1.21,-1.9 -1.97,-4.19 -3.63,-5.72 -1.66,-1.53 -4.45,-1.5 -6,-3.15 -0.99,-1.05 -1.86,-3.1 -0.95,-4.22 0.9,-1.11 2.98,-0.44 4.31,0.1 2.1,0.85 3.44,3.14 5.58,3.88 0.62,0.22 1.21,-0.84 1.27,-1.49 0.21,-1.99 -0.33,-4 -0.5,-6 -0.4,-2.62 -1.85,-6.03 -1.21,-7.88l0 0 0 0z"/>
                        </g>
                        <path fill="#F2B479" d="M105.16 262.81c3.35,0.02 6.53,0.4 9.89,0.43 2.19,3.66 3.86,8.2 4.99,12.73 0.01,1.62 -0.99,2.42 -1.74,1.96 -1.1,-0.69 -2.13,-5.04 -2.25,-3.62 -0.15,1.79 0.13,3.49 -0.03,5.31 -0.23,1.61 0.26,3.03 -1.71,2.86 -2.47,-0.21 -0.63,-2.06 -1.73,-2.23 -0.57,-0.09 -0.01,1.09 -1.7,0.61 -1.92,-0.55 -0.72,-1.92 -1.56,-2.15 -0.6,-0.16 -0.41,0.73 -1.42,0.43 -1.81,-0.54 -0.68,-1.67 -1.29,-2.02 -0.41,-0.24 -0.47,0.69 -1.34,0.5 -0.79,-0.18 -1.2,-1.02 -1.19,-1.88 0,-4.28 0.22,-8.57 1.07,-12.93l0 0 0.01 0z"/>
                        <path fill="#CCCCCC" d="M146.6 197.44c-0.18,0.15 -0.34,0.32 -0.54,0.49 -2.44,2.14 -6.35,5.88 -6.89,5.35 -1.81,-1.77 -3.61,-9.95 -5.41,-14.92 1.55,-0.86 2.89,-1.83 4.2,-2.93 2.54,3.98 4.97,7.9 8,11.28 0.21,0.24 0.42,0.32 0.65,0.31 0.19,-0.02 0.78,-0.33 1.07,-0.6 1.3,-1.19 2.27,-2.71 3.29,-4.17 1.53,-2.21 3,-4.48 4.49,-6.82 1.31,1.11 2.65,2.08 4.19,2.94 -1.8,4.97 -3.6,13.15 -5.41,14.92 -0.54,0.53 -4.45,-3.13 -6.9,-5.26 -0.21,-0.19 -0.56,-0.43 -0.74,-0.59l0 0z"/>
                        <path fill="#0C1E28" d="M121.92 256.25l49.59 0.14 -2.4 104.83c-3.88,3.45 -9.8,1.89 -13.84,-0.78 -1.46,-21.89 -2.91,-43.78 -4.37,-65.67 -0.19,-2.66 -0.82,-5.16 -3.52,-5.23 -3.54,-0.08 -3.48,2.61 -3.72,5.22l-5.53 65.33c-4.33,4.06 -10.38,4.24 -13.63,1.6l-2.58 -105.44 0 0 0 0z"/>
                        <polygon fill="#582B0E" points="121.78,251.69 171.68,251.83 171.5,256.4 121.92,256.29 "/>
                        <polygon fill="#0C1E28" points="167.56,256.4 169.4,256.4 169.4,251.81 167.56,251.81 "/>
                        <polygon fill="#0C1E28" points="156.32,256.38 157.87,256.38 157.87,251.79 156.32,251.79 "/>
                        <polygon fill="#0C1E28" points="134.6,256.32 136.47,256.32 136.47,251.73 134.6,251.73 "/>
                        <polygon fill="#0C1E28" points="124.2,256.3 126.01,256.3 126.01,251.7 124.2,251.7 "/>
                        <path fill="#999999" d="M141.35 250.33l10.74 0c0.55,0 0.99,0.45 0.99,0.99l0 5.32c0,0.55 -0.44,0.99 -0.99,0.99l-10.74 0c-0.55,0 -1,-0.44 -1,-0.99l0 -5.32c0,-0.54 0.45,-0.99 1,-0.99z"/>
                        <path fill="#CCCCCC" d="M148.67 253.88c0,-0.98 -0.83,-1.77 -1.85,-1.77 -1.02,0 -1.85,0.79 -1.85,1.77 0,0.97 0.83,1.76 1.85,1.76 1.02,0 1.85,-0.79 1.85,-1.76z"/>
                        <path fill="#582B0E" d="M115.27 369.66c3.42,-2.35 7.06,-3.5 9.23,-8 1.93,1.03 4.28,1.98 6.82,1.54 2.26,-0.4 4.87,-1.22 6.81,-3.14 0.18,0.88 0.3,1.82 0.23,2.73 -0.03,1.14 -0.26,2.23 -0.49,3.39 -0.65,0.79 -2.78,1.32 -4.23,1.21 -0.79,0.42 -1.41,1.02 -1.77,1.82 -4.05,2.95 -8.3,4.86 -13.74,4.59 -1.15,-0.17 -2.1,-0.9 -2.81,-1.95 -0.44,-0.66 -0.28,-1.45 -0.05,-2.19l0 0z"/>
                        <path fill="#69411E" d="M116.34 368.96c2.81,-1.82 5.46,-2.81 7.64,-6.33 1.08,2.56 1.09,5.15 -0.64,6.5 -1.74,1.36 -4.54,2 -7.24,1.36 -0.57,-0.14 0.46,-0.87 0.24,-1.53l0 0z"/>
                        <path fill="#582B0E" d="M178.19 369.99c-3.43,-2.34 -6.91,-4.26 -9.08,-8.77 -1.94,1.03 -4.83,2.08 -7.37,1.64 -2.25,-0.4 -4.29,-1.24 -6.41,-2.46 -0.18,0.88 -0.3,1.81 -0.24,2.72 0.04,1.15 0.26,2.24 0.5,3.39 0.65,0.8 2.77,1.32 4.22,1.22 0.8,0.41 1.42,1.02 1.77,1.82 4.06,2.94 8.3,4.85 13.74,4.59 1.16,-0.17 2.1,-0.9 2.81,-1.95 0.44,-0.66 0.29,-1.45 0.06,-2.2l0 0 0 0z"/>
                        <path fill="#69411E" d="M177.12 369.3c-2.7,-1.9 -5.08,-3.24 -7.29,-6.75 -1.09,2.56 -1.44,5.57 0.28,6.92 1.74,1.36 4.54,2 7.24,1.36 0.58,-0.14 -0.46,-0.88 -0.23,-1.53l0 0z"/>
                        <path fill="#CCCCFF" fill-rule="nonzero" d="M139.43 442.81c3.44,0.19 8.9,0.48 12.05,1.46 5.99,2.43 9.9,4.88 16.55,6.49 18.28,4.1 31.01,5.82 50.07,6.17 3.95,0.02 7.84,-0.06 11.8,-0.24 24.69,-1.41 44.11,-5.12 67.17,-14.2 5.63,-2.33 11.01,-4.78 16.39,-7.63 9.9,-5.3 19.29,-11.48 28.16,-18.35 3.91,-2.38 21.83,-14.48 24.07,-14.84 -0.39,6.44 -20.8,22.38 -25.17,25.6 -13.25,9.25 -25.76,15.86 -40.77,21.99 -13.35,5.09 -25.55,8.55 -39.61,10.89 -14.43,2.34 -27.42,3.19 -42.08,3.23 -13.56,-0.16 -24.78,-1.08 -38.11,-2.86 -8.03,-1.02 -15.73,-2.33 -23.7,-3.58 -4.06,-0.62 -11.63,-2.67 -14.26,-6.05 -1.61,-2.16 -2.99,-4.51 -4.16,-6.94 -0.16,-1.12 0.67,-1.31 1.6,-1.14l0 0z"/>
                        <path fill="#CCCCFF" fill-rule="nonzero" d="M425.34 186.79c-2.26,-3.77 -5.48,-9.1 -6.91,-13.13 -2.26,-8.02 -3.25,-14.08 -6.73,-22.05 -13.12,-28.78 -24.79,-46.53 -47.66,-69.28 -0.03,-0.04 -0.42,-0.39 -0.48,-0.45 -19.23,-17.65 -36.54,-28.64 -60.58,-38.98 -14.33,-5.7 -27.37,-9.68 -42.46,-12.6 -14.68,-2.67 -27.86,-3.95 -42.77,-4.4 -1.76,-0.03 -3.5,-0.04 -5.26,-0.01 -6.43,-0.46 -34.45,-0.12 -36.63,-0.86 5.75,-5.58 35.19,-7.07 42.17,-7.11 1.51,0.04 3.03,0.1 4.54,0.18 30.01,1.51 55.24,7 83.17,18.26 11.47,4.97 21.52,10.15 31.98,16.92 11.45,7.5 20.79,14.96 30.81,24.36 17.98,17.76 29.21,32.75 41.62,54.44 5.36,9.26 9.94,18.49 14.76,28 2.25,4.47 5.94,13.66 5.02,18.71 -0.59,3 -1.5,5.94 -2.65,8.78 -0.85,0.99 -1.54,0.06 -1.94,-0.78l0 0z"/>
                        <path fill="#99CC99" fill-rule="nonzero" d="M433.13 201.62c1.16,2.01 2.01,4.2 2.63,6.43 0.75,2.87 1.46,6.22 1.79,9.16 0.24,2.18 0.15,5.78 -1.02,7.67 -0.91,1.48 -1.6,2.65 -3.51,2.16 -2.31,-0.61 -2.47,-1.37 -3.27,-3.7 -1.09,-3.32 -0.32,-6.47 -0.15,-9.87 0.13,-2.64 0.26,-4.93 0.74,-7.52 0.28,-1.51 0.89,-2.5 1.57,-3.82 0.27,-0.42 0.75,-0.55 1.22,-0.51l0 0zm0.02 1.24c0,0.01 0,0.01 0,0.01l0 -0.01z"/>
                        <path fill="none" fill-rule="nonzero" d="M433 201.6c1.02,7.74 0.23,17.65 0.35,25.57"/>
                        <path fill="#CCCCFF" fill-rule="nonzero" d="M108.69 435.28c-2.31,-0.21 -4.59,-0.78 -6.78,-1.56 -2.77,-1.04 -5.93,-2.39 -8.53,-3.83 -1.92,-1.05 -4.82,-3.21 -5.69,-5.25 -0.68,-1.59 -1.24,-2.82 0.27,-4.1 1.82,-1.54 2.54,-1.23 4.91,-0.54 3.34,1.02 5.48,3.47 8.16,5.57 2.08,1.63 3.88,3.05 5.72,4.93 1.08,1.11 1.54,2.17 2.23,3.49 0.18,0.46 0.01,0.93 -0.29,1.29l0 0zm-1.03 -0.7c0,-0.01 0,-0.01 0,-0.01l0 0.01z"/>
                        <path fill="none" fill-rule="nonzero" d="M108.78 435.18c-6.93,-3.62 -14.57,-9.98 -21.13,-14.45"/>
                        <path fill="#A9BBCF" d="M378.56 15.05l-5.63 0c-0.22,0 -0.4,0.18 -0.4,0.4l0 3.24c0,0.24 0.19,0.44 0.43,0.44l5.65 0c0.21,0 0.38,-0.17 0.38,-0.39l0 -3.26c0,-0.24 -0.2,-0.43 -0.43,-0.43z"/>
                        <path fill="#A9BBCF" d="M357.82 15.01l-5.62 0c-0.23,0 -0.41,0.18 -0.41,0.4l0 3.24c0,0.24 0.2,0.43 0.43,0.43l5.65 0c0.21,0 0.38,-0.17 0.38,-0.38l0 -3.26c0,-0.24 -0.19,-0.43 -0.43,-0.43z"/>
                        <path fill="#A9BBCF" d="M368 15.13l-6.61 0c-0.22,0 -0.4,0.19 -0.4,0.41l0 3.24c0,0.24 0.19,0.43 0.43,0.43l6.63 0c0.21,0 0.38,-0.17 0.38,-0.38l0 -3.26c0,-0.24 -0.19,-0.44 -0.43,-0.44z"/>
                        <path fill="#A9BBCF" d="M370 2.89l-18.12 0c-0.31,0 -0.57,0.26 -0.57,0.58l0 4.63c0,0.34 0.28,0.62 0.62,0.62l18.14 0c0.31,0 0.55,-0.25 0.55,-0.55l0 -4.66c0,-0.34 -0.28,-0.62 -0.62,-0.62l0 0z"/>
                        <path fill="#C6BFCF" d="M33.15 130.64l-5.62 0c-0.22,0 -0.4,0.18 -0.4,0.4l0 3.24c0,0.24 0.19,0.44 0.43,0.44l5.64 0c0.21,0 0.38,-0.18 0.38,-0.39l0 -3.26c0,-0.24 -0.19,-0.43 -0.43,-0.43z"/>
                        <path fill="#C6BFCF" d="M12.41 130.59l-5.62 0c-0.22,0 -0.4,0.19 -0.4,0.41l0 3.24c0,0.24 0.19,0.43 0.43,0.43l5.64 0c0.21,0 0.39,-0.17 0.39,-0.38l0 -3.26c0,-0.24 -0.2,-0.44 -0.44,-0.44z"/>
                        <path fill="#C6BFCF" d="M22.6 130.72l-6.62 0c-0.22,0 -0.4,0.18 -0.4,0.41l0 3.24c0,0.23 0.2,0.43 0.43,0.43l6.64 0c0.21,0 0.38,-0.17 0.38,-0.38l0 -3.27c0,-0.23 -0.19,-0.43 -0.43,-0.43z"/>
                        <path fill="#C6BFCF" d="M24.6 118.48l-18.12 0c-0.32,0 -0.58,0.26 -0.58,0.58l0 4.63c0,0.34 0.28,0.62 0.62,0.62l18.15 0c0.3,0 0.54,-0.25 0.54,-0.55l0 -4.66c0,-0.34 -0.27,-0.62 -0.61,-0.62l0 0z"/>
                        <path fill="#C6BFCF" d="M213 412l-5.63 0c-0.22,0 -0.4,0.18 -0.4,0.4l0 3.25c0,0.23 0.19,0.43 0.43,0.43l5.65 0c0.21,0 0.38,-0.17 0.38,-0.38l0 -3.27c0,-0.23 -0.2,-0.43 -0.43,-0.43l0 0z"/>
                        <path fill="#C6BFCF" d="M192.26 411.96l-5.63 0c-0.22,0 -0.4,0.18 -0.4,0.4l0 3.24c0,0.24 0.2,0.44 0.44,0.44l5.64 0c0.21,0 0.38,-0.18 0.38,-0.39l0 -3.26c0,-0.24 -0.19,-0.43 -0.43,-0.43l0 0z"/>
                        <path fill="#C6BFCF" d="M202.44 412.08l-6.61 0c-0.22,0 -0.4,0.19 -0.4,0.41l0 3.24c0,0.24 0.19,0.43 0.43,0.43l6.63 0c0.21,0 0.38,-0.17 0.38,-0.38l0 -3.26c0,-0.24 -0.19,-0.44 -0.43,-0.44l0 0z"/>
                        <path fill="#C6BFCF" d="M204.44 399.84l-18.12 0c-0.31,0 -0.57,0.26 -0.57,0.58l0 4.63c0,0.34 0.27,0.62 0.62,0.62l18.14 0c0.3,0 0.55,-0.24 0.55,-0.54l0 -4.67c0,-0.34 -0.28,-0.62 -0.62,-0.62l0 0z"/>
                        <path fill="#CCCCFF" d="M381.81 377.26c1.49,-3.16 4.22,-4.93 6.67,-7.28 1.91,-1.84 3.57,-3.41 5.7,-4.97 1.25,-0.91 2.37,-1.22 3.77,-1.71 0.48,-0.12 0.92,0.12 1.24,0.46 -1.16,4.85 -4.53,10.45 -7.49,14.39 -1.32,1.75 -3.86,4.31 -6.01,4.88 -1.68,0.45 -2.98,0.84 -4.04,-0.84 -1.26,-2.02 -0.86,-2.69 0.16,-4.93l0 0z"/>
                        <path fill="#CCCCFF" d="M433.02 227.04c-2.31,-0.61 -2.47,-1.37 -3.27,-3.7 -1.09,-3.32 -0.32,-6.47 -0.15,-9.87 0.13,-2.64 0.26,-4.93 0.74,-7.52 0.28,-1.51 0.89,-2.5 1.57,-3.82 0.27,-0.42 0.75,-0.55 1.22,-0.51 2.49,4.31 3.87,10.71 4.42,15.59 0.24,2.18 0.15,5.78 -1.02,7.67 -0.91,1.48 -1.59,2.65 -3.51,2.16l0 0z"/>
                        <path fill="#CCCCFF" d="M162.76 25.93c-2.22,3.11 -6.24,6.13 -9.47,8.07 -1.44,0.86 -3.99,1.95 -5.68,1.74 -1.32,-0.16 -2.36,-0.26 -2.62,-1.76 -0.32,-1.79 0.16,-2.15 1.53,-3.45 1.97,-1.83 4.42,-2.3 6.84,-3.26 1.88,-0.76 3.52,-1.4 5.48,-1.89 1.15,-0.29 2.04,-0.19 3.18,-0.13 0.37,0.05 0.61,0.34 0.74,0.68z"/>
                        <path fill="#C6BFCF" d="M33.15 130.64l-5.62 0c-0.22,0 -0.4,0.18 -0.4,0.4l0 3.24c0,0.24 0.19,0.44 0.43,0.44l5.64 0c0.21,0 0.38,-0.18 0.38,-0.39l0 -3.26c0,-0.24 -0.19,-0.43 -0.43,-0.43z"/>
                        <path fill="#C6BFCF" d="M12.41 130.59l-5.62 0c-0.22,0 -0.4,0.19 -0.4,0.41l0 3.24c0,0.24 0.19,0.43 0.43,0.43l5.64 0c0.21,0 0.39,-0.17 0.39,-0.38l0 -3.26c0,-0.24 -0.2,-0.44 -0.44,-0.44z"/>
                        <path fill="#C6BFCF" d="M22.6 130.72l-6.62 0c-0.22,0 -0.4,0.18 -0.4,0.41l0 3.24c0,0.23 0.2,0.43 0.43,0.43l6.64 0c0.21,0 0.38,-0.17 0.38,-0.38l0 -3.27c0,-0.23 -0.19,-0.43 -0.43,-0.43z"/>
                        <path fill="#C6BFCF" d="M24.6 118.48l-18.12 0c-0.32,0 -0.58,0.26 -0.58,0.58l0 4.63c0,0.34 0.28,0.62 0.62,0.62l18.15 0c0.3,0 0.54,-0.25 0.54,-0.55l0 -4.66c0,-0.34 -0.27,-0.62 -0.61,-0.62l0 0z"/>
                        <path fill="#2491FC" d="M243.75 67.2l-5.62 0c-0.22,0 -0.41,0.19 -0.41,0.41l0 3.24c0,0.24 0.2,0.43 0.44,0.43l5.64 0c0.21,0 0.38,-0.17 0.38,-0.38l0 -3.26c0,-0.24 -0.19,-0.44 -0.43,-0.44z"/>
                        <path fill="#2491FC" d="M223.01 67.16l-5.62 0c-0.22,0 -0.4,0.18 -0.4,0.4l0 3.24c0,0.24 0.19,0.44 0.43,0.44l5.64 0c0.21,0 0.39,-0.17 0.39,-0.38l0 -3.27c0,-0.24 -0.2,-0.43 -0.44,-0.43z"/>
                        <path fill="#2491FC" d="M233.2 67.29l-6.62 0c-0.22,0 -0.4,0.18 -0.4,0.4l0 3.24c0,0.24 0.2,0.43 0.43,0.43l6.64 0c0.21,0 0.38,-0.17 0.38,-0.38l0 -3.26c0,-0.24 -0.2,-0.43 -0.43,-0.43l0 0z"/>
                        <path fill="#2491FC" d="M235.2 55.05l-18.12 0c-0.32,0 -0.58,0.26 -0.58,0.57l0 4.64c0,0.34 0.28,0.61 0.62,0.61l18.15 0c0.3,0 0.54,-0.24 0.54,-0.54l0 -4.67c0,-0.34 -0.27,-0.61 -0.61,-0.61l0 0z"/>
                        <polygon fill="#81E8B4" points="462.82,119.17 451.24,108.78 440.85,120.37 452.43,130.76 "/>
                        <polygon fill="#81E8B4" points="519.74,150.29 504.23,156.78 510.71,172.29 526.22,165.8 "/>
                        <polygon fill="#FF9DC3" points="501.14,223.63 489.03,214.11 479.51,226.22 491.62,235.74 "/>
                        <polygon fill="#F5D69D" points="69.74,379.54 59.56,369.16 49.17,379.34 59.36,389.73 "/>
                        <polygon fill="#8DC184" points="37.34,47.72 22.45,47.72 22.45,58.75 37.34,58.75 "/>
                        <polygon fill="#CEBADA" points="112.19,64.28 100.26,57.13 93.11,69.06 105.03,76.21 "/>
                      </g>
                    </svg>