<svg xmlns="http://www.w3.org/2000/svg" xml:space="preserve" width="530px" height="467px" fill-rule="evenodd" clip-rule="evenodd" viewBox="0 0 530 467"
 xmlns:xlink="http://www.w3.org/1999/xlink">
 <g id="Слой_x0020_1">
  <g id="_1931343895536">
   <path fill="#1A334D" d="M141.07 198.57c4.85,3.36 12.45,2.59 17.21,0.2 4.05,0.13 6.66,0.66 11.24,0.48 1.51,0.03 8.74,-3.81 14.3,-7.85 11.61,-9.37 17.65,-21.28 19.59,-33.95l8.26 5.22c1.08,16.43 -12.01,38.83 -30.89,55.05 1.47,10.72 3.75,36.86 3.47,43.74 10.25,3.36 22.19,10.66 23.4,21.93 0.15,5.36 -2.97,10.34 -6.55,15.63 -6.15,9.06 -13.94,20.17 -21.65,27.63l-4.63 -8.43c18.23,-19.21 12.62,-38.35 -2.93,-38.13 -26.91,0.37 -38.87,51.06 -56,70.48l-5.28 -5.96 21.96 -80.58 -2.27 -8.9 -14.91 4.57c-3.26,8.35 -6.08,15.99 -7.68,21.32l-7.68 -25.92c5.7,-4.44 10.19,-9.31 13.62,-16.61 3.06,-6.52 -2.92,-16.55 -5.94,-24.54 -7.03,-18.57 -18.46,-42.71 -16.82,-60.98 3.19,-0.65 6.39,-1.31 9.58,-1.97 5.57,16.67 10.61,28.06 18.88,37.71 6.48,7.2 12.61,11.33 21.72,9.86l0 0z"/>
   <path fill="#ECB89E" d="M127.91 179.71c0.9,-2.17 2.34,-4.6 5.48,-8.26 2.76,-3.22 7.34,-5.4 10.34,-5.23 4.98,0.29 8.32,1.91 10.85,3.85 4.72,3.64 6.12,8.65 6.51,9.89 0.07,0.23 -0.03,0.96 0.61,0.95 3.67,-0.04 2.67,5.19 0.54,6.69 -0.48,0.33 -0.4,0.3 -0.57,0.77 -1.22,3.44 -2.61,8.32 -2.37,9.22 -8.37,4.77 -17.04,2.82 -18.89,1.08 0,-0.37 -0.78,0.18 -4.16,-0.55 -1.87,-0.4 -4.85,-2.01 -6.53,-4.36 -4.79,0.82 -5.11,-2.34 -5.46,-4.15 -0.46,-2.39 0.91,-4.5 2.91,-4.16 -0.58,-3.26 0.51,-5.19 0.74,-5.74l0 0z"/>
   <path fill="#CCCCFF" fill-rule="nonzero" d="M142.77 441.51c3.41,0.19 8.83,0.48 11.95,1.45 5.95,2.41 9.83,4.84 16.42,6.44 18.13,4.06 30.77,5.77 49.67,6.12 3.93,0.01 7.79,-0.06 11.71,-0.24 24.49,-1.4 43.75,-5.08 66.63,-14.08 5.59,-2.32 10.92,-4.75 16.27,-7.57 9.82,-5.26 19.13,-11.39 27.93,-18.21 3.88,-2.37 21.66,-14.36 23.87,-14.73 -0.38,6.4 -20.62,22.21 -24.96,25.41 -13.14,9.17 -25.56,15.73 -40.44,21.81 -13.25,5.05 -25.35,8.48 -39.3,10.81 -14.32,2.31 -27.2,3.16 -41.75,3.2 -13.45,-0.16 -24.58,-1.07 -37.8,-2.84 -7.97,-1.02 -15.6,-2.31 -23.51,-3.55 -4.03,-0.62 -11.54,-2.65 -14.15,-6.01 -1.6,-2.14 -2.96,-4.47 -4.12,-6.88 -0.16,-1.11 0.66,-1.3 1.58,-1.13l0 0z"/>
   <path fill="#CCCCFF" fill-rule="nonzero" d="M426.41 187.53c-2.25,-3.74 -5.45,-9.03 -6.86,-13.02 -2.25,-7.96 -3.23,-13.97 -6.68,-21.87 -13.01,-28.56 -24.6,-46.17 -47.28,-68.74 -0.03,-0.03 -0.41,-0.38 -0.48,-0.44 -19.08,-17.51 -36.25,-28.41 -60.1,-38.67 -14.21,-5.65 -27.15,-9.6 -42.11,-12.5 -14.57,-2.65 -27.64,-3.92 -42.43,-4.36 -1.75,-0.04 -3.48,-0.04 -5.22,-0.01 -6.38,-0.46 -34.18,-0.12 -36.33,-0.86 5.7,-5.53 34.9,-7.01 41.82,-7.05 1.51,0.04 3.01,0.1 4.51,0.17 29.76,1.51 54.79,6.95 82.51,18.12 11.38,4.94 21.34,10.07 31.72,16.79 11.36,7.43 20.63,14.84 30.56,24.17 17.85,17.62 28.98,32.48 41.29,54 5.32,9.18 9.87,18.34 14.64,27.78 2.24,4.43 5.9,13.54 4.99,18.56 -0.59,2.98 -1.5,5.89 -2.63,8.7 -0.85,0.99 -1.53,0.07 -1.92,-0.77l0 0z"/>
   <g id="_2311809734656">
    <g>
     <path fill="#99CC99" fill-rule="nonzero" d="M434.13 202.24c1.15,2 1.99,4.17 2.61,6.38 0.74,2.85 1.45,6.17 1.77,9.09 0.24,2.16 0.15,5.74 -1.01,7.61 -0.91,1.47 -1.58,2.63 -3.48,2.14 -2.29,-0.6 -2.46,-1.36 -3.25,-3.67 -1.08,-3.3 -0.31,-6.42 -0.14,-9.79 0.13,-2.62 0.25,-4.89 0.73,-7.46 0.28,-1.5 0.88,-2.49 1.56,-3.79 0.26,-0.41 0.74,-0.55 1.21,-0.51l0 0zm0.02 1.24c0,0 0,0 0,0.01l0 -0.01z"/>
    </g>
   </g>
   <path fill="none" fill-rule="nonzero" d="M434 202.23c1.02,7.68 0.23,17.5 0.35,25.36"/>
   <g>
    <g>
     <path fill="#CCCCFF" fill-rule="nonzero" d="M112.28 434.04c-2.3,-0.21 -4.56,-0.78 -6.73,-1.55 -2.75,-1.03 -5.88,-2.37 -8.46,-3.79 -1.91,-1.05 -4.78,-3.19 -5.64,-5.21 -0.68,-1.59 -1.24,-2.81 0.26,-4.08 1.81,-1.52 2.53,-1.21 4.87,-0.53 3.32,1.02 5.44,3.45 8.1,5.53 2.06,1.61 3.85,3.02 5.68,4.89 1.07,1.1 1.52,2.15 2.2,3.46 0.19,0.45 0.02,0.92 -0.28,1.28l0 0zm-1.02 -0.7c0,0 -0.01,0 -0.01,0l0.01 0z"/>
    </g>
   </g>
   <path fill="none" fill-rule="nonzero" d="M112.36 433.94c-6.86,-3.59 -14.45,-9.9 -20.95,-14.33"/>
   <path fill="#A9BBCF" d="M379.99 17.16l-5.58 0c-0.22,0 -0.4,0.18 -0.4,0.4l0 3.22c0,0.24 0.19,0.43 0.43,0.43l5.6 0c0.21,0 0.38,-0.17 0.38,-0.38l0 -3.24c0,-0.24 -0.19,-0.43 -0.43,-0.43z"/>
   <path fill="#A9BBCF" d="M359.42 17.12l-5.58 0c-0.22,0 -0.4,0.18 -0.4,0.4l0 3.21c0,0.24 0.19,0.43 0.43,0.43l5.6 0c0.21,0 0.38,-0.17 0.38,-0.38l0 -3.23c0,-0.24 -0.2,-0.43 -0.43,-0.43z"/>
   <path fill="#A9BBCF" d="M369.52 17.24l-6.56 0c-0.22,0 -0.4,0.19 -0.4,0.4l0 3.22c0,0.24 0.19,0.43 0.43,0.43l6.58 0c0.21,0 0.38,-0.17 0.38,-0.38l0 -3.23c0,-0.24 -0.19,-0.44 -0.43,-0.44z"/>
   <path fill="#A9BBCF" d="M371.5 5.1l-17.97 0c-0.31,0 -0.57,0.26 -0.57,0.57l0 4.6c0,0.34 0.27,0.61 0.61,0.61l18.01 0c0.29,0 0.54,-0.24 0.54,-0.54l0 -4.62c0,-0.34 -0.28,-0.62 -0.62,-0.62l0 0z"/>
   <path fill="#C6BFCF" d="M37.34 131.83l-5.58 0c-0.22,0 -0.4,0.18 -0.4,0.4l0 3.22c0,0.23 0.2,0.42 0.43,0.42l5.6 0c0.21,0 0.38,-0.17 0.38,-0.37l0 -3.24c0,-0.24 -0.19,-0.43 -0.43,-0.43z"/>
   <path fill="#C6BFCF" d="M16.77 131.79l-5.58 0c-0.22,0 -0.4,0.18 -0.4,0.4l0 3.21c0,0.24 0.19,0.43 0.43,0.43l5.6 0c0.21,0 0.38,-0.17 0.38,-0.38l0 -3.23c0,-0.24 -0.2,-0.43 -0.43,-0.43z"/>
   <path fill="#C6BFCF" d="M26.87 131.91l-6.56 0c-0.22,0 -0.4,0.18 -0.4,0.4l0 3.22c0,0.23 0.19,0.43 0.43,0.43l6.58 0c0.21,0 0.38,-0.17 0.38,-0.38l0 -3.24c0,-0.23 -0.19,-0.43 -0.43,-0.43z"/>
   <path fill="#C6BFCF" d="M28.85 119.77l-17.97 0c-0.31,0 -0.57,0.26 -0.57,0.57l0 4.6c0,0.33 0.28,0.61 0.61,0.61l18 0c0.3,0 0.55,-0.24 0.55,-0.54l0 -4.63c0,-0.34 -0.28,-0.61 -0.62,-0.61l0 0z"/>
   <path fill="#C6BFCF" d="M215.75 410.95l-5.58 0c-0.22,0 -0.4,0.18 -0.4,0.4l0 3.21c0,0.24 0.2,0.43 0.43,0.43l5.6 0c0.21,0 0.38,-0.17 0.38,-0.38l0 -3.23c0,-0.24 -0.19,-0.43 -0.43,-0.43l0 0z"/>
   <path fill="#C6BFCF" d="M195.18 410.91l-5.58 0c-0.22,0 -0.4,0.17 -0.4,0.39l0 3.22c0,0.24 0.19,0.43 0.43,0.43l5.6 0c0.21,0 0.38,-0.17 0.38,-0.38l0 -3.24c0,-0.23 -0.2,-0.42 -0.43,-0.42l0 0z"/>
   <path fill="#C6BFCF" d="M205.28 411.03l-6.56 0c-0.22,0 -0.4,0.18 -0.4,0.4l0 3.22c0,0.23 0.19,0.42 0.43,0.42l6.58 0c0.21,0 0.38,-0.17 0.38,-0.38l0 -3.23c0,-0.24 -0.19,-0.43 -0.43,-0.43l0 0z"/>
   <path fill="#C6BFCF" d="M207.27 398.89l-17.98 0c-0.31,0 -0.57,0.25 -0.57,0.57l0 4.6c0,0.33 0.28,0.61 0.61,0.61l18.01 0c0.29,0 0.54,-0.24 0.54,-0.54l0 -4.63c0,-0.34 -0.28,-0.61 -0.61,-0.61l0 0z"/>
   <path fill="#CCCCFF" d="M383.22 376.49c1.47,-3.14 4.18,-4.89 6.62,-7.23 1.89,-1.82 3.53,-3.39 5.65,-4.93 1.24,-0.9 2.35,-1.2 3.74,-1.7 0.47,-0.11 0.91,0.12 1.23,0.46 -1.15,4.81 -4.5,10.37 -7.43,14.27 -1.31,1.74 -3.83,4.28 -5.96,4.85 -1.67,0.44 -2.96,0.83 -4.01,-0.84 -1.25,-2 -0.85,-2.66 0.16,-4.88l0 0z"/>
   <path fill="#CCCCFF" d="M434.02 227.46c-2.29,-0.6 -2.46,-1.36 -3.25,-3.67 -1.08,-3.3 -0.31,-6.42 -0.14,-9.79 0.13,-2.62 0.25,-4.89 0.73,-7.46 0.28,-1.5 0.88,-2.49 1.56,-3.79 0.26,-0.41 0.74,-0.55 1.21,-0.51 2.46,4.28 3.84,10.62 4.38,15.47 0.24,2.16 0.15,5.74 -1.01,7.61 -0.9,1.47 -1.58,2.63 -3.48,2.14l0 0z"/>
   <path fill="#CCCCFF" d="M165.92 27.96c-2.21,3.08 -6.19,6.07 -9.4,8 -1.43,0.86 -3.95,1.93 -5.63,1.73 -1.31,-0.17 -2.34,-0.26 -2.61,-1.74 -0.31,-1.79 0.17,-2.14 1.52,-3.43 1.96,-1.81 4.39,-2.28 6.79,-3.24 1.87,-0.75 3.49,-1.38 5.44,-1.87 1.14,-0.29 2.02,-0.19 3.15,-0.13 0.37,0.05 0.61,0.34 0.74,0.68z"/>
   <path fill="#C6BFCF" d="M37.34 131.83l-5.58 0c-0.22,0 -0.4,0.18 -0.4,0.4l0 3.22c0,0.23 0.2,0.42 0.43,0.42l5.6 0c0.21,0 0.38,-0.17 0.38,-0.37l0 -3.24c0,-0.24 -0.19,-0.43 -0.43,-0.43z"/>
   <path fill="#C6BFCF" d="M16.77 131.79l-5.58 0c-0.22,0 -0.4,0.18 -0.4,0.4l0 3.21c0,0.24 0.19,0.43 0.43,0.43l5.6 0c0.21,0 0.38,-0.17 0.38,-0.38l0 -3.23c0,-0.24 -0.2,-0.43 -0.43,-0.43z"/>
   <path fill="#C6BFCF" d="M26.87 131.91l-6.56 0c-0.22,0 -0.4,0.18 -0.4,0.4l0 3.22c0,0.23 0.19,0.43 0.43,0.43l6.58 0c0.21,0 0.38,-0.17 0.38,-0.38l0 -3.24c0,-0.23 -0.19,-0.43 -0.43,-0.43z"/>
   <path fill="#C6BFCF" d="M28.85 119.77l-17.97 0c-0.31,0 -0.57,0.26 -0.57,0.57l0 4.6c0,0.33 0.28,0.61 0.61,0.61l18 0c0.3,0 0.55,-0.24 0.55,-0.54l0 -4.63c0,-0.34 -0.28,-0.61 -0.62,-0.61l0 0z"/>
   <path fill="#2491FC" d="M246.26 68.9l-5.58 0c-0.22,0 -0.4,0.18 -0.4,0.4l0 3.22c0,0.23 0.2,0.42 0.43,0.42l5.6 0c0.21,0 0.38,-0.17 0.38,-0.37l0 -3.24c0,-0.24 -0.19,-0.43 -0.43,-0.43z"/>
   <path fill="#2491FC" d="M225.69 68.86l-5.58 0c-0.22,0 -0.4,0.18 -0.4,0.4l0 3.21c0,0.24 0.19,0.43 0.43,0.43l5.6 0c0.21,0 0.38,-0.17 0.38,-0.38l0 -3.23c0,-0.24 -0.2,-0.43 -0.43,-0.43z"/>
   <path fill="#2491FC" d="M235.79 68.98l-6.56 0c-0.22,0 -0.4,0.18 -0.4,0.4l0 3.22c0,0.23 0.19,0.43 0.43,0.43l6.58 0c0.21,0 0.38,-0.17 0.38,-0.38l0 -3.24c0,-0.23 -0.19,-0.43 -0.43,-0.43l0 0z"/>
   <path fill="#2491FC" d="M237.78 56.84l-17.98 0c-0.31,0 -0.57,0.26 -0.57,0.57l0 4.6c0,0.34 0.28,0.61 0.61,0.61l18.01 0c0.29,0 0.54,-0.24 0.54,-0.54l0 -4.63c0,-0.33 -0.28,-0.61 -0.61,-0.61l0 0z"/>
   <path fill="#C8E3FE" d="M276.92 316.4c22.42,0 40.59,1.95 40.59,4.36 0,2.41 -18.17,4.37 -40.59,4.37 -22.41,0 -40.59,-1.96 -40.59,-4.37 0,-2.41 18.18,-4.36 40.59,-4.36z"/>
   <polygon fill="#716657" points="273.73,142.41 276.87,142.46 276.89,214.03 294.54,196.7 294.55,180.81 297.49,180.65 297.61,193.1 317.8,173.22 320.45,176.09 276.89,220 276.91,285.09 288.4,273.93 288.28,256.71 291.51,257.37 291.84,270.58 316.35,246.76 319.11,249.05 305.97,262.37 311.55,262.88 311.56,266.57 301.73,266.67 276.91,291.8 276.92,322.73 273.5,323.06 273.58,258.52 240.49,225.11 228.13,224.59 227.86,221.65 236.92,221.5 218.14,202.54 220.91,199.32 255.88,234.35 256.16,220.93 259.19,221.76 259.65,238.13 273.59,252.09 273.68,177.35 257.92,161.76 260.22,159.19 273.69,172.66 "/>
   <path fill="#9999FF" d="M322.44 103.38c-0.03,0 -0.07,0.01 -0.08,0.04 -0.15,0.59 -0.21,1.46 -0.3,2.09 -0.19,1.26 -0.67,3.28 -1.54,4.21 -0.79,0.83 -2.18,1.31 -3.28,1.5 -0.6,0.1 -1.21,0.22 -1.81,0.29 -0.35,0.04 -0.7,0.09 -1.04,0.14 -0.09,0.02 -0.19,0.03 -0.28,0.06 -0.03,0 -0.09,0.03 -0.08,0.07 0,0.03 0.07,0.06 0.09,0.07 0.16,0.04 0.32,0.05 0.48,0.07 1.79,0.24 4.45,0.49 5.79,1.78 0.43,0.41 0.76,0.92 0.98,1.48 0.31,0.8 0.5,1.68 0.63,2.53 0.1,0.6 0.18,1.21 0.26,1.81 0.02,0.16 0.05,0.32 0.08,0.47 0.01,0.05 0.02,0.18 0.08,0.18 0.01,0 0.03,0 0.05,-0.02 0.06,-0.11 0.06,-0.27 0.08,-0.4 0.25,-1.62 0.36,-3.31 1.04,-4.83 0.25,-0.57 0.65,-1.05 1.12,-1.45 0.87,-0.74 2.56,-1.09 3.69,-1.28 0.74,-0.13 1.53,-0.18 2.25,-0.33 0.04,-0.01 0.1,-0.02 0.14,-0.04 0.03,-0.01 0.03,-0.02 0.03,-0.05 0,-0.02 -0.02,-0.05 -0.05,-0.05 -0.39,-0.1 -0.93,-0.15 -1.34,-0.21 -0.74,-0.1 -1.48,-0.21 -2.22,-0.38 -0.61,-0.13 -1.24,-0.33 -1.8,-0.61 -0.39,-0.2 -0.75,-0.47 -1.06,-0.78 -0.49,-0.49 -0.86,-1.22 -1.06,-1.88 -0.33,-1.11 -0.51,-2.3 -0.65,-3.44 -0.04,-0.29 -0.07,-0.73 -0.15,-1 -0.01,-0.03 -0.02,-0.04 -0.05,-0.04l0 0z"/>
   <path fill="#9999FF" d="M231.78 127.66c-0.03,0 -0.06,0.01 -0.07,0.04 -0.16,0.6 -0.22,1.47 -0.31,2.09 -0.19,1.27 -0.66,3.28 -1.54,4.21 -0.79,0.83 -2.18,1.31 -3.28,1.5 -0.6,0.1 -1.21,0.22 -1.81,0.29 -0.35,0.04 -0.69,0.09 -1.03,0.15 -0.1,0.01 -0.2,0.03 -0.29,0.05 -0.03,0.01 -0.08,0.03 -0.08,0.07 0,0.03 0.07,0.06 0.1,0.07 0.16,0.04 0.31,0.05 0.47,0.08 1.79,0.24 4.45,0.48 5.79,1.77 0.43,0.41 0.76,0.93 0.98,1.48 0.31,0.81 0.5,1.68 0.63,2.54 0.1,0.6 0.18,1.2 0.27,1.8 0.02,0.16 0.04,0.32 0.07,0.47 0.01,0.05 0.02,0.18 0.08,0.18 0.01,0 0.03,0 0.05,-0.02 0.06,-0.11 0.07,-0.27 0.08,-0.39 0.25,-1.63 0.36,-3.31 1.04,-4.84 0.25,-0.56 0.65,-1.05 1.12,-1.45 0.88,-0.74 2.56,-1.08 3.69,-1.28 0.74,-0.13 1.53,-0.18 2.25,-0.32 0.05,-0.01 0.1,-0.03 0.14,-0.05 0.03,0 0.03,-0.02 0.03,-0.04 0,-0.02 -0.02,-0.05 -0.04,-0.06 -0.4,-0.1 -0.94,-0.14 -1.35,-0.2 -0.74,-0.1 -1.48,-0.22 -2.21,-0.38 -0.62,-0.14 -1.25,-0.33 -1.81,-0.62 -0.38,-0.2 -0.75,-0.47 -1.06,-0.77 -0.49,-0.49 -0.86,-1.23 -1.06,-1.89 -0.33,-1.11 -0.51,-2.29 -0.65,-3.44 -0.04,-0.29 -0.07,-0.73 -0.15,-1 -0.01,-0.02 -0.02,-0.04 -0.05,-0.04l0 0z"/>
   <path fill="#9999FF" d="M334.79 193.73c-0.03,0 -0.07,0.02 -0.08,0.05 -0.15,0.59 -0.21,1.46 -0.3,2.08 -0.19,1.27 -0.66,3.28 -1.55,4.21 -0.78,0.84 -2.17,1.31 -3.27,1.5 -0.6,0.1 -1.21,0.23 -1.81,0.3 -0.35,0.04 -0.7,0.08 -1.04,0.14 -0.09,0.01 -0.19,0.03 -0.28,0.05 -0.03,0.01 -0.09,0.04 -0.08,0.07 0,0.03 0.07,0.07 0.09,0.07 0.16,0.04 0.32,0.06 0.48,0.08 1.79,0.24 4.45,0.48 5.79,1.77 0.43,0.41 0.76,0.93 0.97,1.48 0.32,0.81 0.51,1.68 0.64,2.54 0.09,0.6 0.18,1.2 0.26,1.81 0.02,0.15 0.05,0.31 0.08,0.47 0.01,0.05 0.02,0.18 0.08,0.17 0.01,0 0.03,0 0.05,-0.02 0.06,-0.11 0.06,-0.27 0.08,-0.39 0.25,-1.63 0.36,-3.31 1.04,-4.84 0.25,-0.56 0.65,-1.05 1.12,-1.44 0.87,-0.74 2.56,-1.09 3.69,-1.29 0.73,-0.13 1.53,-0.18 2.25,-0.32 0.04,-0.01 0.1,-0.02 0.14,-0.04 0.03,-0.01 0.03,-0.02 0.03,-0.05 0,-0.02 -0.03,-0.05 -0.04,-0.06 -0.4,-0.1 -0.94,-0.14 -1.35,-0.2 -0.74,-0.1 -1.48,-0.22 -2.22,-0.38 -0.61,-0.14 -1.24,-0.33 -1.8,-0.62 -0.39,-0.2 -0.75,-0.46 -1.06,-0.77 -0.49,-0.49 -0.86,-1.23 -1.06,-1.89 -0.33,-1.11 -0.51,-2.29 -0.66,-3.44 -0.03,-0.29 -0.06,-0.73 -0.14,-0.99 -0.01,-0.03 -0.02,-0.05 -0.05,-0.05l0 0z"/>
   <path fill="#9999FF" d="M244.32 258.82c-0.02,0 -0.06,0.01 -0.07,0.05 -0.15,0.59 -0.21,1.46 -0.31,2.08 -0.19,1.27 -0.66,3.28 -1.54,4.21 -0.78,0.84 -2.17,1.31 -3.28,1.5 -0.6,0.11 -1.2,0.23 -1.81,0.3 -0.34,0.04 -0.69,0.08 -1.03,0.14 -0.09,0.01 -0.19,0.03 -0.28,0.05 -0.03,0.01 -0.09,0.04 -0.09,0.07 0.01,0.03 0.08,0.06 0.1,0.07 0.16,0.04 0.32,0.06 0.48,0.08 1.78,0.24 4.44,0.48 5.79,1.77 0.42,0.41 0.76,0.93 0.97,1.48 0.32,0.81 0.5,1.68 0.64,2.54 0.09,0.6 0.17,1.2 0.26,1.81 0.02,0.15 0.04,0.31 0.07,0.47 0.01,0.05 0.02,0.17 0.09,0.17 0,0 0.03,0 0.04,-0.02 0.06,-0.11 0.07,-0.27 0.09,-0.39 0.24,-1.63 0.36,-3.31 1.03,-4.84 0.26,-0.56 0.66,-1.05 1.13,-1.44 0.87,-0.75 2.56,-1.1 3.69,-1.29 0.73,-0.13 1.53,-0.18 2.24,-0.32 0.05,-0.01 0.1,-0.03 0.15,-0.04 0.02,-0.01 0.03,-0.02 0.03,-0.05 0,-0.02 -0.03,-0.05 -0.05,-0.06 -0.39,-0.1 -0.93,-0.14 -1.34,-0.2 -0.75,-0.1 -1.49,-0.22 -2.22,-0.38 -0.61,-0.14 -1.25,-0.33 -1.8,-0.62 -0.39,-0.2 -0.76,-0.47 -1.06,-0.77 -0.5,-0.49 -0.86,-1.23 -1.06,-1.89 -0.33,-1.11 -0.51,-2.29 -0.66,-3.44 -0.03,-0.29 -0.06,-0.73 -0.15,-0.99 -0.01,-0.03 -0.02,-0.05 -0.05,-0.05l0 0z"/>
   <path fill="#ECB89E" d="M83.27 125.32c-0.12,-0.43 1.17,-0.82 1.59,-0.45 1.84,1.91 3.08,4.73 4.38,7.38 0.02,0.05 0.09,0.09 0.2,0.1 0.13,-2.84 0.04,-5.67 -0.11,-8.51 0.01,-0.47 0.82,-0.66 1.14,-0.27 1.21,1.63 2.03,4.2 1.96,7.81 0,0.06 0.08,0.11 0.15,0.12 0.78,-2.61 1.31,-5.25 1.77,-7.9 0.07,-0.34 0.3,-0.46 0.64,-0.1 1.56,1.72 1.18,5.81 0.71,8.9 -0.01,0.09 0.07,0.14 0.13,0.19 0.86,-2.04 1.56,-4.02 2.19,-6.14 0.08,-0.24 0.27,-0.4 0.36,-0.24 1.36,2.75 0.39,5.63 -0.72,8.8 -0.1,0.33 -0.05,0.51 0.26,0.88 3.8,4.45 1.78,8.7 0.48,12.77 -1.93,0.4 -3.82,1.05 -5.76,1.45 -0.66,-2.02 -1.33,-5.95 -2.06,-6.32 -3.03,-1.89 -6.25,-3.61 -9.1,-5.67 1.87,-1.36 5.15,-0.33 6.89,0.83 0.47,0.03 0.49,0 0.31,-0.51 -1.55,-4.4 -3.44,-8.75 -5.41,-13.12l0 0z"/>
   <path fill="#ECB89E" d="M204.33 140.73c7.67,0.39 10.66,3.16 11.36,8.94 0.05,0.45 0.06,0.83 -0.07,1.19 -1.29,2.74 -2.5,5.47 -3.58,8.32 -2.02,-0.68 -4.04,-1.35 -6.07,-2.03 -0.27,-0.64 -0.62,-1.16 -1.2,-1.41 -2.25,-1.53 -3.38,-4.14 -3.94,-7.04 -0.08,-0.69 0.13,-1.03 0.52,-0.87 0.2,0.09 0.47,-0.02 0.58,-0.25 0.31,-0.2 0.94,-0.64 1.3,-0.8 0.28,-0.13 0.43,-0.24 0.42,-0.56 0.02,-1.86 0.45,-3.66 0.68,-5.49z"/>
   <path fill="#2E4F75" d="M125.97 202.3l15.49 -3.71c-7.07,18.18 -15.15,36.12 -22.95,53.95 3.55,-10.73 2.72,-22.16 2.32,-34.72l7.6 2.98 -2.46 -18.5 0 0z"/>
   <path fill="white" d="M125.39 236.87l14.51 -34.6 12.63 -3.32 2.86 -0.27 6.66 2.94c0.72,0.58 13.91,14.42 17.38,44.62 0.47,4.01 -0.42,12.5 -0.42,12.95 -3.14,0 -43.3,4.84 -46.44,4.84 0,-1.72 -7.18,-25.44 -7.18,-27.16l0 0z"/>
   <polygon fill="#6699FF" stroke="#CCCCCC" stroke-width="0.24" stroke-miterlimit="22.9256" points="139.73,198.53 152.52,198.95 150.38,208.73 138.86,201.62 "/>
   <path fill="#CA9D86" d="M127.86 184.19c0.28,-0.37 1.03,-0.52 1.48,-0.52 0.11,0.02 0.2,0.13 0.2,0.26 -0.13,0.31 -0.37,0.61 -0.64,0.8 0.06,0.1 0.13,0.19 0.19,0.28 0.08,0.12 0.16,0.24 0.24,0.36 0.1,0.2 0.1,0.44 0.03,0.74 -0.12,0.14 -0.37,0.02 -0.47,-0.25 0.02,-0.47 -0.23,-0.59 -0.54,-0.32 -0.19,0.1 -0.34,-0.12 -0.23,-0.31 0.1,-0.11 0.21,-0.23 0.32,-0.35 0.09,-0.11 -0.09,-0.3 -0.21,-0.28 -0.26,0.11 -0.38,0.25 -0.52,0.47 -0.14,-0.17 -0.43,0.07 -0.5,-0.21 0.27,-0.19 0.46,-0.42 0.65,-0.67l0 0z"/>
   <path fill="#CA9D86" d="M139.49 174.9c1.84,-1.27 3.68,-2.24 6.09,-2.81 0.27,-0.03 0.23,0.28 -0.04,0.34 -2.14,0.5 -4.11,1.47 -5.9,2.76 -0.17,0.06 -0.28,-0.12 -0.15,-0.29l0 0z"/>
   <path fill="#6E5747" d="M151.53 167.31c0.52,0.38 0.63,1.08 -0.2,0.86 -1.91,-0.34 -2.19,-2.27 -4.95,0.88 -0.2,0.25 -0.95,-0.02 -0.61,-0.64 1.78,-2.58 4.02,-2.16 5.76,-1.1z"/>
   <polygon fill="#E6E6E6" points="92.07,150.29 99.36,148.51 100.14,152.21 92.15,152.94 "/>
   <path fill="#CA9D86" d="M202 147.56c2.24,-2.06 5.2,-0.71 5.74,2.1 0.08,0.5 -0.27,0.74 -0.51,0.89 -0.3,0.18 -0.99,0.26 -0.94,-0.33 2.98,-2.02 -3.02,-4.11 -4.04,-1.92 -0.29,-0.06 -0.59,-0.44 -0.25,-0.74l0 0z"/>
   <polygon fill="#E6E6E6" points="204.66,155.38 212.17,158.84 211.14,162.55 204.82,158.62 "/>
   <path fill="#342717" d="M138.01 172.84c0.26,0.31 0.21,0.5 -0.23,0.55 -2.16,0.01 -1.95,0.49 -2.69,2.27 -0.11,0.18 -0.8,0.31 -0.73,-0.25 0.21,-1.8 1.87,-3.33 3.65,-2.57z"/>
   <path fill="#342717" d="M151.42 170.89c0.3,0.32 0.2,0.72 -0.24,0.53 -1.36,-0.34 -2.94,-0.94 -4.33,-0.41 -0.43,0.14 -0.55,-0.66 0.15,-0.85 0.7,-0.2 3.52,-0.17 4.42,0.73l0 0z"/>
   <path fill="#CA9D86" d="M140.77 174.89c2.07,-0.64 3.05,-1.55 5.4,-2.15 0.27,-0.03 0.23,0.28 -0.04,0.34 -1.24,0.28 -3.1,1.42 -5.2,2.1 -0.17,0.06 -0.29,-0.12 -0.16,-0.29l0 0z"/>
   <path fill="#CA9D86" d="M129.78 176.71c-2.58,-1.6 -2.07,-6.4 -0.43,-9.41 0.25,-0.48 0.6,-0.26 0.45,0.26 -0.98,2.79 -1.72,6.7 0.14,8.85 -0.03,0.12 -0.01,0.05 -0.16,0.3l0 0z"/>
   <path fill="#CA9D86" d="M130.81 175.11c-1.82,-1.92 -0.29,-7.02 2.55,-9.12 0.53,-0.38 0.85,-0.18 0.45,0.26 -1.93,1.65 -4.17,6.14 -2.84,8.56 -0.06,0.11 -0.08,0.13 -0.16,0.3l0 0z"/>
   <path fill="#CA9D86" d="M132.12 173.17c-1.82,-1.92 1.47,-4.81 4.31,-6.91 0.53,-0.38 0.85,-0.18 0.45,0.26 -1.94,1.66 -5.94,3.93 -4.6,6.36 -0.06,0.1 -0.08,0.13 -0.16,0.29z"/>
   <path fill="#CA9D86" d="M134.11 171.09c-1.1,-1.88 3.63,-4.93 5.64,-4.71 0.42,0.04 0.96,0.2 0.45,0.26 -1.74,0.44 -5.06,1.44 -5.86,4.3 -0.1,0.08 -0.11,0.07 -0.23,0.15z"/>
   <path fill="#CA9D86" d="M126.54 185.06c0.32,-0.67 0.78,-1.2 1.26,-1.56 0.3,-0.15 0.44,0.02 0.33,0.17 -0.59,0.38 -1.01,0.93 -1.38,1.59 -0.11,0.11 -0.24,0.1 -0.21,-0.2z"/>
   <path fill="#CA9D86" d="M126.15 187.98c1.34,-0.15 2.85,1.87 2.34,3.14 -0.14,0.36 -0.45,0.33 -0.54,0.13 -0.05,-0.22 -0.3,-0.96 -0.57,-0.99 -0.2,-0.02 -0.41,0.68 -0.53,0.45 -0.15,-0.28 0.46,-0.61 0.37,-1.03 -0.13,-0.58 -0.97,-1.24 -1.34,-1.26 -0.08,-0.13 0.01,-0.32 0.27,-0.44z"/>
   <path fill="#CA9D86" d="M152.33 192.58c0.16,-1.42 1.79,-2.17 2.58,-0.38 0.38,0.86 -0.14,2.24 -1.33,2.55 -0.47,0.11 -0.51,-0.23 -0.14,-0.36 0.65,-0.23 1.11,-0.99 0.99,-1.61 -0.11,-0.53 -0.31,-0.96 -0.82,-0.94 -0.49,0.02 -0.77,0.43 -0.73,0.88 0.04,0.43 0.51,0.36 0.76,0.06 0.2,-0.23 0.48,0.28 -0.2,0.64 -0.84,0.28 -1.17,-0.31 -1.11,-0.84l0 0z"/>
   <path fill="#CA9D86" d="M161.9 181.76c-0.47,0.49 -0.57,3.3 -0.21,3.8 0.2,0.32 0.56,0 0.52,-0.22 -0.09,-0.2 -0.27,-0.82 -0.08,-1 0.15,-0.14 0.48,0.19 0.44,-0.07 -0.05,-0.32 -0.31,-0.16 -0.39,-0.58 -0.12,-0.67 -0.09,-1.5 0.19,-1.74 -0.01,-0.14 -0.19,-0.24 -0.47,-0.19l0 0z"/>
   <g>
    <path fill="white" d="M156.47 175.61c-4.02,5.37 -15.29,5.45 -22.38,4.02 1.81,-0.78 3.57,-1.08 7.58,-2.61 4.81,-1.83 12.22,-2.4 14.8,-1.41z"/>
    <path fill="#B32323" d="M156.58 175.39c0.77,4.08 1.96,8.33 0.77,10.72 -1.64,3.28 -6.56,4.72 -10.11,4.65 -8.64,-0.17 -11.92,-5.82 -13.96,-11.36 3.13,0.84 9.35,1.38 14.64,0.55 4.19,-0.66 7.52,-2.61 8.66,-4.56l0 0z"/>
   </g>
   <polygon fill="#DFDFDF" points="139.73,198.53 152.52,198.95 150.38,208.73 138.86,201.62 "/>
   <path fill="#2E4F75" d="M174.16 201.38l-13.11 -2.56 -0.09 1.36c5.65,7.2 9.65,14.94 11.99,20.28 3.18,7.25 3.99,14.05 6.32,24.44 -0.63,-10.86 -0.53,-17.76 -1.51,-27.36l-3.62 -0.83 0.02 -15.33 0 0z"/>
   <polygon fill="#DFDFDF" points="158.48,197.31 162.92,199.07 160.28,206.85 155.39,198.68 "/>
   <path fill="#342717" d="M110.98 345.04l4.09 4.61 -9.32 18.67c-4.42,5.03 -5.55,5.64 -5.99,-0.09 -0.26,-3.97 -0.17,-8.03 0.13,-11.76l11.1 -11.43 -0.01 0z"/>
   <path fill="#342717" d="M174.89 318.35l4.28 7.8c-2.88,6.81 -2.03,20.16 -2.28,28.76 -2.02,-1.51 -9.41,-13.66 -9.87,-16.77 0.1,-1.9 3.44,-8.08 0.22,-9.43l0.01 -6.6c2.55,-1.26 5.31,-2.2 7.64,-3.76l0 0z"/>
   <path fill="#007E99" d="M152.52 198.95l2.87 -0.27 2.99 4.76c0.12,0.92 -0.05,1.74 -0.35,2.56 -0.09,0.42 0.08,0.85 0.37,1.23 9.43,19.26 20.08,27.87 35.34,15.67l14.41 1.51 -13.94 17.19c-19.44,-1 -35.78,-11.04 -40.82,-34.36 -0.03,-0.39 -0.08,-0.62 -0.27,-0.74 -0.49,-0.44 -1.29,-0.92 -1.3,-1.49l-0.29 -1.54 0.99 -4.52 0 0z"/>
   <path fill="#FFC549" stroke="#6E5747" stroke-width="1.1" stroke-miterlimit="22.9256" d="M211.08 174.95c8.79,0 15.92,7.24 15.92,16.18 0,8.93 -7.13,16.18 -15.92,16.18 -8.79,0 -15.92,-7.25 -15.92,-16.18 0,-8.94 7.13,-16.18 15.92,-16.18zm4.72 17.94c-0.09,-0.29 -0.2,-0.55 -0.32,-0.76 -0.12,-0.22 -0.3,-0.43 -0.53,-0.64 -0.23,-0.2 -0.43,-0.37 -0.62,-0.5 -0.18,-0.12 -0.43,-0.26 -0.75,-0.42 -0.32,-0.16 -0.57,-0.27 -0.76,-0.35 -0.18,-0.08 -0.45,-0.18 -0.81,-0.31 -0.31,-0.12 -0.54,-0.22 -0.7,-0.28 -0.15,-0.06 -0.35,-0.15 -0.6,-0.27 -0.25,-0.11 -0.43,-0.22 -0.56,-0.31 -0.12,-0.09 -0.25,-0.2 -0.39,-0.33 -0.14,-0.13 -0.24,-0.26 -0.3,-0.41 -0.05,-0.15 -0.08,-0.31 -0.08,-0.48 0,-0.45 0.2,-0.82 0.6,-1.11 0.4,-0.28 0.91,-0.43 1.54,-0.43 0.28,0 0.57,0.04 0.86,0.12 0.29,0.07 0.53,0.16 0.74,0.26 0.21,0.09 0.4,0.2 0.59,0.32 0.18,0.11 0.31,0.2 0.38,0.26 0.08,0.06 0.13,0.1 0.15,0.12 0.09,0.07 0.18,0.09 0.27,0.07 0.1,-0.01 0.17,-0.06 0.23,-0.16l0.81 -1.46c0.08,-0.13 0.06,-0.25 -0.05,-0.37 -0.04,-0.04 -0.09,-0.09 -0.15,-0.15 -0.06,-0.05 -0.19,-0.14 -0.39,-0.29 -0.2,-0.13 -0.41,-0.26 -0.64,-0.37 -0.22,-0.11 -0.51,-0.22 -0.86,-0.33 -0.36,-0.12 -0.73,-0.19 -1.11,-0.23l0 -1.76c0,-0.09 -0.03,-0.17 -0.09,-0.23 -0.06,-0.06 -0.13,-0.09 -0.23,-0.09l-1.34 0c-0.09,0 -0.16,0.03 -0.23,0.1 -0.06,0.06 -0.09,0.13 -0.09,0.22l0 1.8c-1.05,0.2 -1.9,0.64 -2.55,1.33 -0.65,0.7 -0.98,1.5 -0.98,2.42 0,0.27 0.03,0.53 0.09,0.78 0.06,0.24 0.12,0.46 0.21,0.66 0.08,0.2 0.2,0.39 0.35,0.58 0.15,0.19 0.3,0.35 0.44,0.49 0.13,0.14 0.31,0.28 0.53,0.42 0.22,0.15 0.41,0.27 0.56,0.36 0.16,0.09 0.37,0.19 0.63,0.31 0.26,0.11 0.46,0.2 0.61,0.26 0.15,0.06 0.36,0.15 0.62,0.25 0.35,0.14 0.62,0.25 0.79,0.33 0.18,0.07 0.4,0.18 0.66,0.32 0.27,0.13 0.46,0.26 0.59,0.37 0.12,0.11 0.23,0.25 0.33,0.42 0.1,0.16 0.15,0.34 0.15,0.53 0,0.52 -0.2,0.93 -0.61,1.22 -0.41,0.28 -0.89,0.42 -1.42,0.42 -0.25,0 -0.5,-0.02 -0.74,-0.08 -0.87,-0.17 -1.68,-0.58 -2.43,-1.24l-0.02 -0.02c-0.06,-0.07 -0.14,-0.11 -0.24,-0.09 -0.11,0.01 -0.18,0.05 -0.23,0.12l-1.03 1.35c-0.1,0.13 -0.09,0.26 0.02,0.41 0.04,0.04 0.09,0.09 0.18,0.17 0.08,0.08 0.24,0.21 0.46,0.38 0.23,0.17 0.48,0.33 0.74,0.48 0.27,0.15 0.6,0.3 1.01,0.44 0.41,0.15 0.84,0.25 1.28,0.31l0 1.75c0,0.09 0.03,0.16 0.09,0.22 0.07,0.07 0.14,0.1 0.23,0.1l1.34 0c0.1,0 0.17,-0.03 0.23,-0.09 0.06,-0.06 0.09,-0.14 0.09,-0.23l0 -1.75c1.06,-0.17 1.92,-0.63 2.58,-1.36 0.67,-0.74 1,-1.61 1,-2.63 0,-0.33 -0.05,-0.65 -0.13,-0.94l0 0z"/>
   <path fill="#6E5747" d="M137.31 169.75c0.52,0.38 0.15,0.51 -0.29,0.56 -2.33,0.17 -3.25,1.07 -4.52,3.39 -0.23,0.39 -0.57,0.35 -0.42,-0.41 0.35,-1.87 3.49,-4.6 5.23,-3.54z"/>
   <path fill="#FFC549" stroke="#6E5747" stroke-width="1.1" stroke-miterlimit="22.9256" d="M275.36 112.41c8.79,0 15.92,7.24 15.92,16.18 0,8.93 -7.13,16.17 -15.92,16.17 -8.8,0 -15.92,-7.24 -15.92,-16.17 0,-8.94 7.12,-16.18 15.92,-16.18zm4.71 17.94c-0.09,-0.29 -0.19,-0.55 -0.31,-0.77 -0.13,-0.21 -0.3,-0.42 -0.53,-0.63 -0.23,-0.21 -0.44,-0.37 -0.62,-0.5 -0.18,-0.12 -0.43,-0.27 -0.75,-0.42 -0.32,-0.16 -0.58,-0.27 -0.76,-0.35 -0.19,-0.08 -0.46,-0.18 -0.81,-0.31 -0.31,-0.13 -0.55,-0.22 -0.7,-0.28 -0.15,-0.06 -0.35,-0.15 -0.6,-0.27 -0.25,-0.12 -0.44,-0.22 -0.56,-0.31 -0.13,-0.09 -0.26,-0.2 -0.4,-0.33 -0.14,-0.13 -0.23,-0.26 -0.29,-0.41 -0.06,-0.15 -0.09,-0.31 -0.09,-0.48 0,-0.45 0.2,-0.82 0.6,-1.11 0.4,-0.28 0.92,-0.43 1.55,-0.43 0.28,0 0.56,0.04 0.85,0.12 0.29,0.07 0.54,0.16 0.75,0.26 0.2,0.09 0.4,0.2 0.58,0.32 0.18,0.11 0.31,0.2 0.39,0.26 0.08,0.06 0.12,0.1 0.15,0.12 0.08,0.07 0.17,0.09 0.26,0.07 0.1,-0.01 0.18,-0.06 0.23,-0.16l0.81 -1.46c0.08,-0.13 0.06,-0.26 -0.05,-0.38 -0.04,-0.04 -0.09,-0.08 -0.15,-0.14 -0.06,-0.05 -0.19,-0.15 -0.39,-0.29 -0.2,-0.14 -0.41,-0.26 -0.63,-0.37 -0.22,-0.11 -0.51,-0.22 -0.87,-0.33 -0.35,-0.12 -0.72,-0.2 -1.1,-0.24l0 -1.75c0,-0.09 -0.03,-0.17 -0.09,-0.23 -0.06,-0.06 -0.14,-0.09 -0.23,-0.09l-1.35 0c-0.09,0 -0.16,0.03 -0.22,0.1 -0.07,0.06 -0.1,0.13 -0.1,0.22l0 1.79c-1.04,0.2 -1.89,0.65 -2.54,1.34 -0.66,0.7 -0.98,1.5 -0.98,2.42 0,0.27 0.03,0.53 0.08,0.78 0.06,0.24 0.13,0.46 0.21,0.66 0.09,0.2 0.2,0.39 0.36,0.58 0.15,0.19 0.3,0.35 0.43,0.49 0.14,0.13 0.32,0.28 0.53,0.42 0.23,0.15 0.41,0.27 0.57,0.36 0.16,0.09 0.36,0.19 0.62,0.31 0.26,0.11 0.47,0.2 0.62,0.26 0.15,0.06 0.35,0.15 0.61,0.25 0.36,0.14 0.63,0.25 0.8,0.33 0.17,0.07 0.39,0.18 0.66,0.31 0.26,0.14 0.46,0.27 0.58,0.38 0.12,0.11 0.24,0.25 0.34,0.42 0.1,0.16 0.15,0.34 0.15,0.53 0,0.52 -0.21,0.93 -0.62,1.21 -0.41,0.29 -0.88,0.43 -1.42,0.43 -0.25,0 -0.49,-0.02 -0.74,-0.08 -0.86,-0.17 -1.67,-0.58 -2.42,-1.24l-0.02 -0.02c-0.06,-0.08 -0.15,-0.11 -0.24,-0.09 -0.11,0.01 -0.19,0.05 -0.23,0.12l-1.03 1.34c-0.1,0.14 -0.09,0.27 0.02,0.41 0.03,0.04 0.09,0.1 0.17,0.18 0.09,0.08 0.24,0.21 0.47,0.38 0.22,0.17 0.47,0.33 0.74,0.48 0.26,0.15 0.6,0.29 1.01,0.44 0.41,0.15 0.83,0.25 1.27,0.31l0 1.75c0,0.08 0.03,0.16 0.1,0.22 0.06,0.06 0.14,0.1 0.22,0.1l1.35 0c0.09,0 0.17,-0.03 0.23,-0.09 0.06,-0.06 0.09,-0.14 0.09,-0.23l0 -1.75c1.06,-0.17 1.92,-0.63 2.58,-1.36 0.66,-0.74 0.99,-1.61 0.99,-2.63 0,-0.34 -0.04,-0.65 -0.13,-0.94l0 0z"/>
   <path fill="#FFC549" stroke="#6E5747" stroke-width="1.1" stroke-miterlimit="22.9256" d="M327.87 147.83c8.79,0 15.92,7.25 15.92,16.18 0,8.94 -7.13,16.18 -15.92,16.18 -8.79,0 -15.92,-7.24 -15.92,-16.18 0,-8.93 7.13,-16.18 15.92,-16.18zm4.71 17.95c-0.08,-0.29 -0.19,-0.55 -0.31,-0.77 -0.12,-0.21 -0.3,-0.42 -0.53,-0.63 -0.23,-0.21 -0.43,-0.37 -0.62,-0.5 -0.18,-0.12 -0.43,-0.27 -0.75,-0.42 -0.32,-0.16 -0.57,-0.28 -0.76,-0.35 -0.19,-0.08 -0.45,-0.18 -0.81,-0.32 -0.31,-0.12 -0.54,-0.21 -0.7,-0.27 -0.15,-0.06 -0.35,-0.15 -0.6,-0.27 -0.25,-0.12 -0.44,-0.22 -0.56,-0.31 -0.12,-0.09 -0.25,-0.2 -0.39,-0.33 -0.14,-0.13 -0.24,-0.27 -0.3,-0.41 -0.05,-0.15 -0.08,-0.31 -0.08,-0.48 0,-0.46 0.2,-0.83 0.6,-1.11 0.4,-0.29 0.91,-0.43 1.54,-0.43 0.28,0 0.57,0.04 0.86,0.11 0.29,0.08 0.53,0.17 0.74,0.26 0.21,0.1 0.4,0.21 0.58,0.32 0.19,0.12 0.32,0.21 0.39,0.27 0.08,0.06 0.13,0.1 0.15,0.12 0.09,0.07 0.18,0.09 0.27,0.07 0.1,-0.01 0.17,-0.06 0.23,-0.16l0.8 -1.46c0.09,-0.13 0.07,-0.26 -0.04,-0.38 -0.04,-0.04 -0.09,-0.09 -0.16,-0.14 -0.05,-0.05 -0.18,-0.15 -0.38,-0.29 -0.2,-0.14 -0.42,-0.26 -0.64,-0.37 -0.22,-0.11 -0.51,-0.22 -0.87,-0.34 -0.35,-0.11 -0.72,-0.19 -1.1,-0.23l0 -1.75c0,-0.1 -0.03,-0.17 -0.09,-0.23 -0.06,-0.06 -0.14,-0.09 -0.23,-0.09l-1.35 0c-0.08,0 -0.16,0.03 -0.22,0.09 -0.06,0.07 -0.1,0.14 -0.1,0.23l0 1.79c-1.04,0.2 -1.89,0.65 -2.54,1.34 -0.65,0.69 -0.98,1.5 -0.98,2.42 0,0.27 0.03,0.53 0.09,0.78 0.05,0.24 0.12,0.46 0.21,0.66 0.08,0.2 0.2,0.39 0.35,0.58 0.15,0.19 0.3,0.35 0.44,0.49 0.13,0.13 0.31,0.28 0.53,0.42 0.22,0.15 0.41,0.26 0.56,0.36 0.16,0.09 0.37,0.19 0.63,0.31 0.26,0.11 0.46,0.2 0.61,0.26 0.15,0.06 0.35,0.14 0.62,0.25 0.35,0.14 0.62,0.25 0.79,0.32 0.18,0.08 0.4,0.19 0.66,0.32 0.27,0.14 0.46,0.26 0.59,0.38 0.12,0.11 0.23,0.25 0.33,0.42 0.1,0.16 0.15,0.34 0.15,0.53 0,0.52 -0.2,0.93 -0.61,1.21 -0.41,0.29 -0.89,0.43 -1.43,0.43 -0.24,0 -0.49,-0.02 -0.73,-0.08 -0.87,-0.17 -1.68,-0.59 -2.43,-1.25l-0.02 -0.02c-0.06,-0.07 -0.14,-0.1 -0.24,-0.08 -0.11,0.01 -0.18,0.05 -0.23,0.12l-1.03 1.34c-0.1,0.14 -0.09,0.27 0.02,0.41 0.03,0.04 0.09,0.1 0.18,0.18 0.08,0.08 0.24,0.21 0.46,0.38 0.23,0.17 0.47,0.32 0.74,0.47 0.27,0.16 0.6,0.3 1.01,0.45 0.41,0.15 0.84,0.25 1.28,0.31l0 1.74c0,0.09 0.03,0.17 0.09,0.23 0.06,0.06 0.14,0.09 0.22,0.09l1.35 0c0.1,0 0.17,-0.03 0.23,-0.08 0.06,-0.07 0.09,-0.14 0.09,-0.24l0 -1.74c1.06,-0.17 1.92,-0.63 2.58,-1.36 0.66,-0.74 1,-1.62 1,-2.63 0,-0.34 -0.05,-0.65 -0.14,-0.94l0 0z"/>
   <path fill="#FFC549" stroke="#6E5747" stroke-width="1.1" stroke-miterlimit="22.9256" d="M325.97 220.09c8.8,0 15.93,7.25 15.93,16.18 0,8.94 -7.13,16.18 -15.93,16.18 -8.79,0 -15.92,-7.24 -15.92,-16.18 0,-8.93 7.13,-16.18 15.92,-16.18zm4.72 17.95c-0.09,-0.3 -0.19,-0.55 -0.32,-0.77 -0.12,-0.21 -0.29,-0.42 -0.53,-0.63 -0.22,-0.21 -0.43,-0.37 -0.61,-0.5 -0.19,-0.13 -0.44,-0.27 -0.76,-0.42 -0.32,-0.16 -0.57,-0.28 -0.76,-0.35 -0.18,-0.08 -0.45,-0.18 -0.81,-0.32 -0.31,-0.12 -0.54,-0.21 -0.69,-0.27 -0.15,-0.06 -0.36,-0.15 -0.61,-0.27 -0.25,-0.12 -0.43,-0.22 -0.55,-0.31 -0.13,-0.09 -0.26,-0.2 -0.4,-0.33 -0.14,-0.13 -0.24,-0.27 -0.29,-0.41 -0.06,-0.15 -0.09,-0.31 -0.09,-0.48 0,-0.46 0.2,-0.83 0.6,-1.11 0.4,-0.29 0.91,-0.43 1.55,-0.43 0.28,0 0.56,0.04 0.85,0.11 0.29,0.08 0.54,0.17 0.74,0.26 0.21,0.1 0.41,0.21 0.59,0.32 0.18,0.12 0.31,0.21 0.39,0.27 0.07,0.06 0.12,0.1 0.14,0.12 0.09,0.06 0.18,0.09 0.27,0.07 0.1,-0.01 0.18,-0.06 0.23,-0.16l0.81 -1.46c0.08,-0.13 0.06,-0.26 -0.05,-0.38 -0.04,-0.04 -0.09,-0.09 -0.15,-0.14 -0.06,-0.05 -0.19,-0.15 -0.39,-0.29 -0.2,-0.14 -0.41,-0.26 -0.63,-0.37 -0.22,-0.11 -0.51,-0.23 -0.87,-0.34 -0.36,-0.11 -0.72,-0.19 -1.1,-0.23l0 -1.75c0,-0.1 -0.03,-0.17 -0.09,-0.23 -0.06,-0.06 -0.14,-0.09 -0.23,-0.09l-1.35 0c-0.09,0 -0.16,0.03 -0.23,0.09 -0.06,0.07 -0.09,0.14 -0.09,0.23l0 1.79c-1.05,0.2 -1.89,0.65 -2.55,1.34 -0.65,0.69 -0.97,1.5 -0.97,2.42 0,0.27 0.02,0.53 0.08,0.77 0.06,0.25 0.13,0.47 0.21,0.67 0.08,0.19 0.2,0.39 0.36,0.58 0.15,0.19 0.29,0.35 0.43,0.49 0.14,0.13 0.31,0.28 0.53,0.42 0.22,0.15 0.41,0.26 0.57,0.35 0.15,0.09 0.36,0.2 0.62,0.31 0.26,0.12 0.47,0.21 0.61,0.27 0.15,0.06 0.36,0.14 0.62,0.25 0.36,0.14 0.62,0.25 0.8,0.32 0.17,0.08 0.39,0.19 0.65,0.32 0.27,0.14 0.47,0.26 0.59,0.38 0.12,0.11 0.23,0.25 0.33,0.42 0.1,0.16 0.15,0.34 0.15,0.53 0,0.52 -0.2,0.93 -0.61,1.21 -0.41,0.29 -0.88,0.43 -1.42,0.43 -0.25,0 -0.49,-0.02 -0.74,-0.08 -0.87,-0.17 -1.68,-0.59 -2.43,-1.25l-0.02 -0.02c-0.06,-0.07 -0.14,-0.1 -0.24,-0.08 -0.1,0.01 -0.18,0.05 -0.23,0.12l-1.02 1.34c-0.1,0.14 -0.1,0.27 0.02,0.41 0.03,0.04 0.09,0.1 0.17,0.18 0.08,0.08 0.24,0.2 0.46,0.37 0.23,0.17 0.48,0.33 0.74,0.48 0.27,0.16 0.61,0.3 1.02,0.45 0.41,0.15 0.83,0.25 1.27,0.31l0 1.74c0,0.09 0.03,0.17 0.09,0.23 0.07,0.06 0.14,0.09 0.23,0.09l1.35 0c0.09,0 0.17,-0.03 0.23,-0.09 0.06,-0.06 0.09,-0.13 0.09,-0.23l0 -1.74c1.06,-0.18 1.91,-0.63 2.58,-1.37 0.66,-0.73 0.99,-1.61 0.99,-2.62 0,-0.34 -0.04,-0.65 -0.13,-0.94l0 0z"/>
   <rect fill="#81E8B4" transform="matrix(0.570898 0.561244 -0.637081 0.648038 454.623 109.503)" width="17.36" height="15.3"/>
   <rect fill="#81E8B4" transform="matrix(0.605011 0.52429 -0.595134 0.686762 513.395 156.322)" width="17.36" height="15.3"/>
   <rect fill="#FF9DC3" transform="matrix(0.581652 0.55009 -0.624421 0.660247 491.575 214.494)" width="17.36" height="15.3"/>
   <rect fill="#F5D69D" transform="matrix(0.613049 -0.514868 0.584439 0.695886 48.8636 379.48)" width="17.36" height="15.3"/>
   <rect fill="#8DC184" x="29.27" y="51.83" width="13.9" height="9.06"/>
   <rect fill="#CEBADA" transform="matrix(0.543626 -0.587698 0.667109 0.617083 102.708 65.7486)" width="17.36" height="15.3"/>
   <ellipse fill="#FFC549" stroke="#B3B3B3" stroke-width="0.62" stroke-miterlimit="22.9256" cx="255.41" cy="156.91" rx="6.25" ry="6.34"/>
   <ellipse fill="#FFC549" stroke="#B3B3B3" stroke-width="0.62" stroke-miterlimit="22.9256" cx="296.14" cy="175.76" rx="6.25" ry="6.34"/>
   <ellipse fill="#FFC549" stroke="#B3B3B3" stroke-width="0.62" stroke-miterlimit="22.9256" cx="223.15" cy="223.38" rx="6.25" ry="6.34"/>
   <ellipse fill="#FFC549" stroke="#B3B3B3" stroke-width="0.62" stroke-miterlimit="22.9256" cx="257.71" cy="216.39" rx="6.25" ry="6.34"/>
   <ellipse fill="#FFC549" stroke="#B3B3B3" stroke-width="0.62" stroke-miterlimit="22.9256" cx="289.9" cy="251.33" rx="6.25" ry="6.34"/>
   <ellipse fill="#FFC549" stroke="#B3B3B3" stroke-width="0.62" stroke-miterlimit="22.9256" cx="316.74" cy="264.38" rx="6.25" ry="6.34"/>
  </g>
 </g>
</svg>
