<svg xmlns="http://www.w3.org/2000/svg" xml:space="preserve" width="220px" height="100px" fill-rule="evenodd" clip-rule="evenodd" viewBox="0 0 220 100" xmlns:xlink="http://www.w3.org/1999/xlink">
    <path fill="#21368C" fill-rule="nonzero" d="M69.28 41.49l0 -12.69 4.48 0 0 13.13c0,0.87 0.24,1.51 1.21,1.51 0.88,0 1.22,-0.54 1.22,-1.51l0 -13.13 4.47 0 0 12.69c0,2.97 -1.51,5.25 -5.69,5.25 -3.5,0.05 -5.69,-1.65 -5.69,-5.25zm31.07 4.91l0 -13.08 -4.28 0c0,0 0,13.08 0,13.08l4.28 0zm0 -14.39l0 -3.16 -4.28 0c0,0 0,3.16 0,3.16l4.28 0zm6.46 14.39c0.44,0 2.38,0 2.38,0l0 -2.67c0,0 -0.33,0 -0.63,0 -0.68,0 -1.16,-0.39 -1.16,-1.12l0 -6.56 1.79 0 0 -2.68 -1.79 0 0 -3.74 -4.23 0 0 3.74 -1.22 0 0 2.68 1.22 0 0 7.05c0.05,2.04 1.36,3.3 3.64,3.3zm8.66 0.39c-3.02,0 -4.87,-1.51 -4.87,-4.47l0 -4.91c0,-2.97 1.85,-4.47 4.87,-4.47 3.3,0 4.81,1.79 4.81,4.47l0 3.35 -5.74 0 0 2.34c0,0.48 0.39,0.92 0.93,0.92 0.48,0 0.92,-0.39 0.92,-0.92l0 -1.22 3.89 0 0 0.49c-0.05,2.62 -1.56,4.42 -4.81,4.42zm-0.93 -8.7l1.85 0 0 -1.51c0,-0.53 -0.44,-0.92 -0.92,-0.92 -0.54,0 -0.93,0.39 -0.93,0.92 0,0.2 0,0.88 0,1.51zm18.14 8.26l-3.6 0 -0.1 -1.02 -0.1 0c-0.24,0.34 -1.07,1.41 -2.96,1.41 -2.14,0 -3.31,-1.51 -3.31,-3.69l0 -6.57c0,-2.23 1.32,-3.64 3.26,-3.64 1.56,0 2.33,0.68 2.62,0.92l0.05 0 0 -4.96 4.14 0 0 17.55zm-4.09 -9.72c0,-0.68 -0.48,-0.97 -0.92,-0.97 -0.49,0 -0.93,0.29 -0.93,1.02 0,0.68 0,6.22 0,6.22 0,0.68 0.44,1.02 0.93,1.02 0.44,0 0.92,-0.29 0.92,-0.97l0 -6.32zm-35.15 -0.29c0,-1.9 -1.11,-3.45 -3.3,-3.45 -1.7,0 -2.72,1.07 -3.11,1.6l-0.1 0 -0.1 -1.17 -3.74 0 0 13.08 4.23 0 0 -9.19c0,-0.68 0.49,-0.97 0.92,-1.02 0.49,0 0.93,0.34 0.93,1.02 0,0.68 0,9.14 0,9.14l4.23 0c0.04,0 0.04,-8.6 0.04,-10.01zm-13.51 13.8l-10.65 0 0 3.5 2.97 0 0 14 4.67 0 0 -14 3.06 0 0 -3.5 -0.05 0zm61.84 17.55l4.32 0 0 -17.5 -4.32 0 0 17.5zm31.98 -14.39l4.28 0 0 -3.16 -4.28 0 0 3.16zm0 14.39l4.28 0 0 -13.07 -4.28 0 0 13.07zm-77.24 -13.46c-3.02,0 -5.11,1.51 -5.11,4.47l0 4.91c0,2.97 2.09,4.47 5.11,4.47 3.3,0 5.1,-1.8 5.1,-4.47l0 -0.97 -4.23 0 0 1.7c0,0.53 -0.39,0.87 -0.87,0.87 -0.54,0 -0.88,-0.38 -0.88,-0.87 0,0 0,-5.74 0,-6.37 0,-0.49 0.34,-0.87 0.88,-0.87 0.48,0 0.87,0.34 0.87,0.87l0 1.56 4.23 0 0 -0.83c0,-2.67 -1.8,-4.47 -5.1,-4.47zm-7.39 4.47l0 3.35 -5.74 0 0 2.34c0,0.48 0.39,0.92 0.93,0.92 0.48,0 0.92,-0.39 0.92,-0.92l0 -1.22 3.89 0 0 0.49c-0.05,2.62 -1.56,4.42 -4.81,4.42 -3.02,0 -4.87,-1.5 -4.87,-4.47l0 -4.91c0,-2.96 1.85,-4.47 4.87,-4.47 3.3,0 4.81,1.8 4.81,4.47zm-3.94 -0.78c0,-0.53 -0.44,-0.92 -0.92,-0.92 -0.54,0 -0.93,0.44 -0.93,0.92 0,0.15 0,0.88 0,1.51l1.85 0 0 -1.51zm105.01 0.78l0 3.35 -5.74 0 0 2.34c0,0.48 0.39,0.92 0.92,0.92 0.49,0 0.93,-0.39 0.93,-0.92l0 -1.22 3.89 0 0 0.49c-0.05,2.62 -1.56,4.42 -4.82,4.42 -3.01,0 -4.86,-1.5 -4.86,-4.47l0 -4.91c0,-2.96 1.85,-4.47 4.86,-4.47 3.31,0 4.82,1.8 4.82,4.47zm-3.94 -0.78c0,-0.53 -0.44,-0.92 -0.93,-0.92 -0.53,0 -0.92,0.39 -0.92,0.92 0,0.15 0,0.88 0,1.51l1.85 0c0,-0.63 0,-1.31 0,-1.51zm12.73 2.04c-1.45,-0.73 -2.91,-1.26 -2.91,-2.18 0,-0.44 0.29,-0.88 1.07,-0.88 0.77,0 1.07,0.58 1.07,1.12 0,0.15 0,0.78 0,0.78l3.84 0 0 -0.34c0,-3.06 -2.19,-4.23 -4.91,-4.23 -2.53,0 -4.86,1.17 -4.86,3.94 0,2.18 1.16,3.2 3.45,4.13 1.7,0.68 2.53,1.26 2.53,2.09 0,0.58 -0.44,1.07 -1.12,1.07 -0.88,0 -1.22,-0.54 -1.22,-1.17 0,-0.19 0,-1.07 0,-1.07l-3.89 0 0 0.49c0,2.77 1.8,4.42 5.11,4.42 3.01,0 5.3,-1.36 5.3,-4.18 -0.05,-2.24 -1.61,-3.11 -3.46,-3.99zm-31.55 -5.34l3.6 0 0 13.02c0,2.68 -1.31,4.48 -5.01,4.48 -3.2,0 -4.95,-1.41 -5,-3.89l4.13 0 0 0.24c0,0.49 0.34,0.88 0.87,0.88 0.49,0 0.88,-0.34 0.88,-0.88l0 -2.14 -0.05 0c-0.44,0.39 -1.31,0.88 -2.62,0.88 -2.09,0 -3.26,-1.36 -3.26,-3.55 0,-1.41 0,-5.79 0,-5.79 0,-2.09 1.17,-3.64 3.3,-3.64 1.95,0 2.73,1.12 2.92,1.41l0.1 0 0.14 -1.02zm-0.48 3.4c0,-0.68 -0.54,-0.97 -0.93,-0.97 -0.48,0 -0.87,0.29 -0.87,1.02 0,0 0,4.96 0,5.64 0,0.68 0.44,1.02 0.92,1.02 0.44,0 0.93,-0.29 0.93,-0.97l0 -5.74 -0.05 0zm-27.52 0.73l0 4.91c0,2.67 -1.75,4.47 -5.05,4.47 -3.02,0 -5.06,-1.51 -5.06,-4.47l0 -4.91c0,-2.97 2.04,-4.47 5.06,-4.47 3.3,0 5.05,1.8 5.05,4.47zm-4.08 -0.73c0,-0.54 -0.49,-0.92 -0.97,-0.92 -0.54,0 -0.98,0.38 -0.98,0.92 0,0.63 0,6.37 0,6.37 0,0.48 0.44,0.92 0.98,0.92 0.48,0 0.97,-0.39 0.97,-0.92 0,0 0,-5.5 0,-6.37zm23.24 0.68l0 4.91c0,2.67 -1.75,4.47 -5.06,4.47 -3.01,0 -5.06,-1.5 -5.06,-4.47l0 -4.91c0,-2.96 2.05,-4.47 5.06,-4.47 3.36,0 5.06,1.8 5.06,4.47zm-4.09 -0.73c0,-0.53 -0.48,-0.92 -0.97,-0.92 -0.53,0 -0.97,0.39 -0.97,0.92 0,0.63 0,6.37 0,6.37 0,0.49 0.44,0.92 0.97,0.92 0.49,0 0.97,-0.39 0.97,-0.92l0 -6.37zm-43.75 -3.79c-1.31,0 -2.28,0.68 -2.72,1.17l-0.05 0 0 -5.25 -4.23 0 0 17.5 4.23 0c0,0 0,-8.71 0,-9.19 0,-0.68 0.49,-1.02 0.92,-1.02 0.49,0 0.93,0.34 0.93,1.02 0,0.68 0,9.14 0,9.14l4.23 0c0,0 0,-8.56 0,-10.02 -0.05,-1.75 -1.02,-3.35 -3.31,-3.35zm12.98 0c-1.7,0 -2.72,1.07 -3.11,1.6l-0.1 0 -0.1 -1.16 0 0 -3.74 0 0 13.07 4.23 0c0,0 0,-8.7 0,-9.18 0,-0.69 0.49,-1.03 0.92,-1.03 0.49,0 0.93,0.34 0.93,1.03 0,0.68 0,9.13 0,9.13l4.23 0c0,0 0,-8.6 0,-10.01 0,-1.89 -1.12,-3.45 -3.26,-3.45zm-80.89 -7.24l12.78 -3.07c-0.05,-0.39 -0.19,-1.02 -0.34,-1.41l-12.73 3.26c0.14,0.39 0.24,0.78 0.29,1.22zm-8.12 9.52c-4.57,0 -8.26,-3.69 -8.26,-8.26 0,-4.18 3.11,-7.63 7.09,-8.17l-3.35 -12.78c-0.73,0.09 -1.61,0.34 -2.24,0.58l3.31 11.96 -0.2 0.05 -6.12 -10.79c-0.73,0.34 -1.56,0.82 -2.19,1.26l6.08 10.06 -0.15 0.1 -8.36 -8.31c-0.63,0.48 -1.36,1.21 -1.8,1.84l8.07 7.68 -0.1 0.15 -9.67 -5.59c-0.54,0.68 -1.07,1.65 -1.41,2.43l9.24 5.11 -0.05 0.19 -10.21 -2.72c-0.34,0.87 -0.63,1.94 -0.78,2.87l9.67 2.38 -0.04 0.19 -10.02 0c-0.05,0.49 -0.09,1.07 -0.09,1.56 0,0.48 0.04,1.07 0.09,1.51l9.43 -0.1 0 0.19 -9.14 2.29c0.15,1.07 0.44,2.14 0.83,3.16l8.51 -2.34 0.05 0.2 -7.68 4.28c0.43,1.02 1.02,1.99 1.7,2.96l7 -4.03 0.09 0.14 -5.73 5.54c0.73,0.93 1.55,1.75 2.48,2.48l5.2 -5.15 0.15 0.1 -3.7 6.32c0.97,0.73 2.04,1.31 3.16,1.84l3.35 -5.73 0.2 0.05 -1.75 6.41c1.12,0.44 2.38,0.78 3.69,0.98l1.61 -5.94 0.19 0.05 0.05 6.18c0.58,0.05 1.22,0.1 1.8,0.1 0.73,0 1.46,-0.05 2.14,-0.15l0 -5.69 0.19 -0.05 1.56 5.5c1.46,-0.25 2.87,-0.64 4.03,-1.17l0 0 -1.41 -5.06 0.2 -0.04 2.77 4.42c1.36,-0.63 2.67,-1.46 3.79,-2.38l-2.53 -4.04 0.15 -0.09 3.6 3.15c1.21,-1.02 2.28,-2.33 3.11,-3.54l-3.31 -2.92 0.1 -0.15 3.99 1.8c0.87,-1.36 1.6,-2.96 2.04,-4.57l-3.65 -1.7 0.05 -0.19 3.99 0.48c0.43,-1.6 0.63,-3.3 0.58,-5.05l-13.13 0c-0.04,4.47 -3.74,8.16 -8.26,8.16zm7.54 -11.52l11.56 -6.27c-0.19,-0.39 -0.48,-1.02 -0.72,-1.36l-11.38 6.56c0.19,0.29 0.39,0.68 0.54,1.07zm-7.54 -4.96c0.34,0 0.68,0 1.02,0.05l0.1 -13.17c-0.34,-0.05 -0.83,-0.05 -1.17,-0.05 -0.34,0 -0.78,0 -1.07,0.05l0.1 13.22c0.34,-0.1 0.68,-0.1 1.02,-0.1zm6.61 -12.1c-0.58,-0.24 -1.41,-0.44 -2.04,-0.58l-3.36 12.73c0.64,0.1 1.27,0.25 1.85,0.49l3.55 -12.64zm-1.7 13.76l6.81 -11.28c-0.49,-0.34 -1.22,-0.78 -1.75,-1.07l-6.62 11.37c0.59,0.3 1.12,0.59 1.56,0.98zm1.56 1.5l9.57 -9.04c-0.34,-0.44 -0.87,-1.02 -1.31,-1.36l-9.38 9.19c0.39,0.39 0.78,0.78 1.12,1.21z"/>
</svg>
