<?xml version="1.0" encoding="UTF-8"?>
<!DOCTYPE svg PUBLIC "-//W3C//DTD SVG 1.1//EN" "http://www.w3.org/Graphics/SVG/1.1/DTD/svg11.dtd">
<!-- Creator: CorelDRAW 2020 (64-Bit) -->
<svg xmlns="http://www.w3.org/2000/svg" xml:space="preserve" width="81px" height="51px" version="1.1" shape-rendering="geometricPrecision" text-rendering="geometricPrecision" image-rendering="optimizeQuality" fill-rule="evenodd" clip-rule="evenodd"
viewBox="0 0 81 51"
 xmlns:xlink="http://www.w3.org/1999/xlink"
 xmlns:xodm="http://www.corel.com/coreldraw/odm/2003">
 <g id="Слой_x0020_1">
  <metadata id="CorelCorpID_0Corel-Layer"/>
  <polygon fill="#383637" points="5.3,0.83 75.58,0.83 75.58,15.06 66.48,15.09 66.46,17.19 75.58,17.18 75.58,31.99 66.44,31.9 66.41,33.05 80.38,33.21 80.38,37.12 70.31,37.04 70.35,51.29 65.32,51.29 65.38,37.22 14.44,37.22 14.52,51.29 9.47,51.29 9.45,37.09 -0.46,37.01 -0.46,33.15 13.42,33.21 13.41,31.99 5.3,31.94 5.3,17.31 13.39,17.32 13.4,15.03 5.3,15.06 "/>
  <rect fill="#FFB836" x="9.51" y="5.04" width="61.1" height="5.84"/>
  <rect fill="#FFB836" x="9.51" y="22.28" width="61.1" height="4.7"/>
  <rect fill="white" x="18.57" y="15" width="43.73" height="2.15"/>
  <rect fill="white" x="18.57" y="31.94" width="43.73" height="1.37"/>
 </g>
</svg>
