<?xml version="1.0" encoding="UTF-8"?>
<!DOCTYPE svg PUBLIC "-//W3C//DTD SVG 1.1//EN" "http://www.w3.org/Graphics/SVG/1.1/DTD/svg11.dtd">
<!-- Creator: CorelDRAW 2020 (64-Bit) -->
<svg xmlns="http://www.w3.org/2000/svg" xml:space="preserve" width="173px" height="105px" version="1.1" shape-rendering="geometricPrecision" text-rendering="geometricPrecision" image-rendering="optimizeQuality" fill-rule="evenodd" clip-rule="evenodd"
viewBox="0 0 173 105"
 xmlns:xlink="http://www.w3.org/1999/xlink"
 xmlns:xodm="http://www.corel.com/coreldraw/odm/2003">
 <g id="Слой_x0020_1">
  <metadata id="CorelCorpID_0Corel-Layer"/>
  <path fill="#43556B" d="M-0.39 90.54l14.11 -0.01c4.47,21.86 38.42,18.54 38.59,-2.94l63.55 0.13c2.57,23.76 36.33,22.54 37.58,2.87l5.26 -0.05c7.29,-0.07 13.27,-5.96 13.27,-13.27l0 -28.98c0,-23.25 -19.02,-42.27 -42.26,-42.27l-2.2 0 -0.64 -5.55 -18.64 0 -0.68 5.55 -87.25 0c-11.38,0 -20.69,9.32 -20.69,20.69l0 63.84 0 -0.01z"/>
  <path fill="#BEDEFF" d="M157.7 78.23l9.68 0c-0.3,4.67 -4.3,7.82 -9.68,9.02l0 -9.02z"/>
  <rect fill="#BEDEFF" x="5.07" y="78.38" width="5.18" height="8.45"/>
  <circle fill="white" cx="33.03" cy="85.36" r="10.15"/>
  <circle fill="white" cx="134.93" cy="85.36" r="10.15"/>
  <path fill="#CCCCCC" stroke="#CCCCCC" stroke-width="0.36" stroke-miterlimit="22.9256" d="M30.78 99.32l4.59 0c0.46,-0.01 0.83,0.37 0.83,0.82l0 0.01c0,0.45 -0.37,0.82 -0.83,0.82l-4.59 0.01c-0.45,-0.01 -0.83,-0.38 -0.83,-0.84l0 0.01c0,-0.46 0.38,-0.84 0.83,-0.84z"/>
  <path fill="#CCCCCC" stroke="#CCCCCC" stroke-width="0.36" stroke-miterlimit="22.9256" d="M132.56 99.32l4.59 0c0.46,-0.01 0.83,0.37 0.83,0.82l0 0.01c0,0.45 -0.37,0.82 -0.83,0.82l-4.59 0.01c-0.46,-0.01 -0.83,-0.38 -0.83,-0.84l0 0.01c0,-0.46 0.37,-0.84 0.83,-0.84z"/>
  <path fill="#CCCCCC" stroke="#CCCCCC" stroke-width="0.36" stroke-miterlimit="22.9256" d="M4.7 69.47l0 -4.58c-0.01,-0.47 0.37,-0.84 0.82,-0.84l0.01 0.01c0.45,-0.01 0.82,0.36 0.82,0.82l0.01 4.59c-0.01,0.45 -0.38,0.83 -0.84,0.83l0.01 0c-0.46,0 -0.84,-0.38 -0.84,-0.83z"/>
  <path fill="#BEDEFF" d="M23.88 16.14l26.93 0c4.89,0 8.89,4 8.89,8.89l0 19.53c0,4.89 -4,8.89 -8.89,8.89l-26.93 0c-4.89,0 -8.89,-4 -8.89,-8.89l0 -19.53c0,-4.89 4,-8.89 8.89,-8.89zm53 0l21.17 0c4.89,0 8.89,4 8.89,8.89l0 19.53c0,4.89 -4,8.89 -8.89,8.89l-21.17 0c-4.89,0 -8.89,-4 -8.89,-8.89l0 -19.53c0,-4.89 4,-8.89 8.89,-8.89zm36 -0.49l15.02 0c18.81,0 33.99,17.3 33.99,35.79l0 2.2 -49.01 0 0 -37.99zm-7.7 38.62l0 12.51c-3.06,0.39 -5.87,-2.96 -5.37,-6.01 0.53,-3.24 2.26,-5.36 5.37,-6.5l0 0zm-93.76 6.64l0.01 13.46c4.77,-15.13 39.4,-21.33 45.72,8.32l53.91 0.02c5.42,-27.92 36.96,-26.12 44.76,-9.06l11.84 0 0 -24.29c0,-21.5 -19.12,-39.09 -40.84,-39.09l-102.21 0c-13.46,0 -19.33,7.4 -19.33,19.14l0 31.64 6.15 -0.14 -0.01 0z"/>
  <path fill="white" d="M27.12 20.63l20.45 0c3.72,0 6.75,3.02 6.75,6.75l0 14.81c0,3.72 -3.03,6.74 -6.75,6.74l-20.45 0.01c-3.72,-0.01 -6.74,-3.03 -6.74,-6.75l0 -14.81c0,-3.73 3.02,-6.75 6.74,-6.75z"/>
  <path fill="white" d="M78.29 20.92l18.16 0c3.31,0 6,3.02 6,6.75l0 14.81c0,3.72 -2.69,6.74 -6,6.74l-18.16 0.01c-3.32,-0.01 -6,-3.03 -6,-6.75l0 -14.81c0,-3.73 2.68,-6.75 6,-6.75z"/>
  <path fill="white" d="M118.06 20.63l12.48 0c11.41,0 26.03,14.09 26.03,27.31l0 1.68 -38.51 0 0 -28.99z"/>
  <path fill="#04D16A" fill-rule="nonzero" d="M36.45 23.18c-0.1,0.04 -0.19,0.12 -0.23,0.2 -0.04,0.07 -0.05,0.37 -0.05,1.31l0 1.21 -0.2 0.04c-0.19,0.04 -0.36,0.09 -0.72,0.21 -0.34,0.11 -0.48,0.16 -0.76,0.3 -1.59,0.77 -2.67,2.18 -2.87,3.73 -0.03,0.31 -0.02,1.11 0.02,1.38 0.04,0.19 0.18,0.7 0.27,0.94 0.17,0.48 0.48,0.92 1.03,1.47 0.57,0.58 1.52,1.18 2.59,1.62 0.17,0.07 0.36,0.16 0.44,0.19 0.07,0.03 0.42,0.17 0.78,0.32 0.35,0.14 0.69,0.28 0.75,0.3 0.06,0.03 0.17,0.07 0.24,0.1 0.32,0.13 1.24,0.6 1.44,0.73 0.39,0.25 0.71,0.64 0.85,1.03 0.13,0.35 0.09,0.9 -0.1,1.31 -0.28,0.58 -1.01,1.05 -1.88,1.21 -0.24,0.04 -0.97,0.05 -1.22,0.01 -0.28,-0.05 -0.35,-0.07 -0.6,-0.13 -0.96,-0.24 -1.86,-0.71 -2.72,-1.42 -0.29,-0.25 -0.34,-0.28 -0.46,-0.28 -0.08,0.01 -0.17,0.03 -0.22,0.07 -0.12,0.09 -1.5,1.88 -1.52,1.99 -0.06,0.25 0.15,0.52 0.84,1.03 1.08,0.8 2.1,1.27 3.47,1.59 0.02,0 0.13,0.02 0.23,0.04 0.1,0.01 0.19,0.03 0.21,0.03 0.01,0 0.04,0.01 0.07,0.01 0.03,0 0.04,0.22 0.04,1.15 0,0.63 0.01,1.18 0.02,1.24 0.01,0.05 0.07,0.13 0.12,0.19l0.11 0.1 1 0.01c0.9,0 1.01,0 1.12,-0.05 0.21,-0.11 0.21,-0.13 0.21,-1.44l0.01 -1.19 0.21 -0.04c0.51,-0.1 1.11,-0.31 1.54,-0.52 0.21,-0.11 0.74,-0.43 0.79,-0.48 0.01,-0.01 0.09,-0.08 0.18,-0.14 0.27,-0.22 0.72,-0.68 0.96,-1 0.26,-0.35 0.61,-1.04 0.73,-1.45 0.15,-0.51 0.22,-1 0.23,-1.51 0,-0.25 -0.04,-0.75 -0.06,-0.78 -0.01,-0.01 -0.02,-0.09 -0.03,-0.17 -0.04,-0.24 -0.27,-0.89 -0.42,-1.18 -0.31,-0.58 -0.9,-1.18 -1.71,-1.71 -0.29,-0.19 -1.29,-0.69 -1.76,-0.88 -0.16,-0.07 -0.36,-0.15 -0.44,-0.18 -0.08,-0.04 -0.15,-0.07 -0.17,-0.07 -0.01,0 -0.11,-0.04 -0.22,-0.08 -0.11,-0.04 -0.44,-0.17 -0.73,-0.28 -1.34,-0.53 -1.96,-0.87 -2.47,-1.36 -0.35,-0.34 -0.47,-0.61 -0.49,-1.09 -0.02,-0.36 0.02,-0.53 0.17,-0.83 0.28,-0.59 1.04,-1.07 1.88,-1.2 0.27,-0.04 1.09,-0.04 1.36,0 0.35,0.06 0.92,0.22 1.26,0.36 0.42,0.18 1.19,0.63 1.36,0.78 0.02,0.03 0.05,0.05 0.06,0.05 0.02,0 0.07,0.04 0.13,0.09 0.14,0.13 0.22,0.17 0.37,0.17 0.16,0 0.31,-0.09 0.39,-0.25 0.04,-0.07 0.1,-0.2 0.15,-0.28 0.05,-0.08 0.14,-0.25 0.21,-0.37 0.06,-0.12 0.25,-0.46 0.42,-0.76 0.37,-0.68 0.38,-0.72 0.13,-0.98 -0.33,-0.33 -0.99,-0.77 -1.56,-1.04 -0.49,-0.23 -1.3,-0.5 -1.78,-0.59 -0.05,-0.01 -0.11,-0.02 -0.14,-0.03 -0.03,-0.01 -0.13,-0.02 -0.22,-0.04 -0.09,-0.01 -0.2,-0.02 -0.25,-0.03l-0.08 -0.02 -0.01 -1.2c0,-1.12 0,-1.21 -0.06,-1.3 -0.12,-0.18 -0.19,-0.19 -1.24,-0.18 -0.52,0 -0.97,0.01 -1,0.02l0 0 0 0z"/>
 </g>
</svg>
