<?xml version="1.0" encoding="UTF-8"?>
<!DOCTYPE svg PUBLIC "-//W3C//DTD SVG 1.1//EN" "http://www.w3.org/Graphics/SVG/1.1/DTD/svg11.dtd">
<!-- Creator: CorelDRAW 2020 (64-Bit) -->
<svg xmlns="http://www.w3.org/2000/svg" xml:space="preserve" width="304px" height="282px" version="1.1" shape-rendering="geometricPrecision" text-rendering="geometricPrecision" image-rendering="optimizeQuality" fill-rule="evenodd" clip-rule="evenodd"
viewBox="0 0 304 282"
 xmlns:xlink="http://www.w3.org/1999/xlink"
 xmlns:xodm="http://www.corel.com/coreldraw/odm/2003">
 <g id="Слой_x0020_1">
  <metadata id="CorelCorpID_0Corel-Layer"/>
  <ellipse fill="white" stroke="#43556B" stroke-width="2" stroke-miterlimit="22.9256" cx="47.2" cy="90.35" rx="35.38" ry="32.98"/>
  <circle fill="#009FD7" cx="47.3" cy="44.37" r="24.98"/>
  <polygon fill="#43556B" points="0.29,81.85 98.27,81.85 98.27,281.74 0.26,281.74 "/>
  <path fill="white" d="M4.32 86.85l88.95 0 0 190.89 -88.89 0 -0.06 -190.89zm14.99 9.99l10 0 0 21.99 -10 0 0 -21.99zm0 24.99l10 0 0 20.99 -10 0 0 -20.99zm0 23.99l10 0 0 20.98 -10 0 0 -20.98zm0 23.98l10 0 0 21.99 -10 0 0 -21.99zm0 23.99l10 0 0 21.99 -10 0 0 -21.99zm0 24.98l10 0 0 20.99 -10 0 0 -20.99zm12 -121.93l9.99 0 0 21.99 -9.99 0 0 -21.99zm0 24.99l9.99 0 0 20.99 -9.99 0 0 -20.99zm0 23.99l9.99 0 0 20.98 -9.99 0 0 -20.98zm0 23.98l9.99 0 0 21.99 -9.99 0 0 -21.99zm0 23.99l9.99 0 0 21.99 -9.99 0 0 -21.99zm0 24.98l9.99 0 0 20.99 -9.99 0 0 -20.99zm3 -69.96l1 0 0 14 -1 0 0 -14zm0 -23.98l1 0 0 13.99 -1 0 0 -13.99zm0 -24.99l1 0 0 13.99 -1 0 0 -13.99zm0 72.96l1 0 0 15.99 -1 0 0 -15.99zm0 23.99l1 0 0 15.99 -1 0 0 -15.99zm0 24.98l1 0 0 14.99 -1 0 0 -14.99zm8.99 -124.93l10 0 0 21.99 -10 0 0 -21.99zm3 3l1 0 0 13.99 -1 0 0 -13.99zm8.99 -3l10 0 0 21.99 -10 0 0 -21.99zm3 3l1 0 0 13.99 -1 0 0 -13.99zm8 -3l10.99 0 0 21.99 -10.99 0 0 -21.99zm2.99 3l1 0 0 13.99 -1 0 0 -13.99z"/>
  <polygon fill="white" points="58.29,99.84 59.29,99.84 59.29,113.83 58.29,113.83 "/>
  <polygon fill="#43556B" points="41.3,112.97 123.25,112.97 123.25,278.74 41.3,278.74 18.31,278.74 18.31,254.75 41.3,254.98 "/>
  <polygon fill="white" points="46.8,117.33 59.79,117.33 59.79,277.24 46.8,277.24 "/>
  <rect fill="#43556B" x="49.8" y="132.32" width="8.99" height="12.99"/>
  <rect fill="#43556B" x="49.8" y="149.31" width="8.99" height="12.99"/>
  <rect fill="#43556B" x="49.8" y="167.3" width="8.99" height="12.99"/>
  <rect fill="#43556B" x="49.8" y="184.29" width="8.99" height="12.99"/>
  <rect fill="#43556B" x="49.8" y="201.28" width="8.99" height="12.99"/>
  <rect fill="#43556B" x="49.8" y="218.27" width="8.99" height="12.99"/>
  <rect fill="#43556B" x="49.8" y="236.26" width="8.99" height="12.99"/>
  <polygon fill="white" points="65.79,117.33 78.78,117.33 78.78,132.4 68.79,132.32 68.79,145.31 78.78,145.36 78.78,150.32 68.79,150.31 68.79,162.31 78.78,162.42 78.78,167.22 68.79,167.3 68.79,179.3 78.78,179.38 78.78,184.34 68.79,184.29 68.79,196.29 78.78,196.46 78.78,201.26 68.79,201.28 68.79,213.27 78.78,213.29 78.78,218.35 68.79,218.27 68.79,231.26 78.78,231.25 78.78,236.4 68.79,236.26 68.79,248.26 78.78,248.37 78.78,277.24 65.79,277.24 "/>
  <rect fill="white" x="72.28" y="136.82" width="1" height="4"/>
  <rect fill="white" x="72.28" y="153.81" width="1" height="4"/>
  <rect fill="white" x="72.28" y="171.8" width="1" height="3"/>
  <rect fill="white" x="72.28" y="188.79" width="1" height="3"/>
  <rect fill="white" x="72.28" y="205.78" width="1" height="3"/>
  <rect fill="white" x="72.28" y="222.77" width="1" height="4"/>
  <rect fill="white" x="72.28" y="240.76" width="1" height="3"/>
  <polygon fill="white" points="83.78,117.33 96.77,117.33 96.77,277.24 83.78,277.24 "/>
  <rect fill="#43556B" x="86.77" y="132.32" width="8.99" height="12.99"/>
  <rect fill="#43556B" x="86.77" y="149.31" width="8.99" height="12.99"/>
  <rect fill="#43556B" x="86.77" y="167.3" width="8.99" height="12.99"/>
  <rect fill="#43556B" x="86.77" y="184.29" width="8.99" height="12.99"/>
  <rect fill="#43556B" x="86.77" y="201.28" width="8.99" height="12.99"/>
  <rect fill="#43556B" x="86.77" y="218.27" width="8.99" height="12.99"/>
  <rect fill="#43556B" x="86.77" y="236.26" width="8.99" height="12.99"/>
  <rect fill="white" x="91.27" y="136.82" width="1" height="4"/>
  <rect fill="#43556B" x="91.27" y="153.81" width="1" height="4"/>
  <rect fill="white" x="91.27" y="171.8" width="1" height="3"/>
  <rect fill="white" x="91.27" y="188.79" width="1" height="3"/>
  <rect fill="white" x="91.27" y="205.78" width="1" height="3"/>
  <rect fill="white" x="91.27" y="222.77" width="1" height="4"/>
  <rect fill="white" x="91.27" y="240.76" width="1" height="3"/>
  <polygon fill="white" points="102.77,117.33 117.76,117.33 117.76,277.24 102.77,277.24 "/>
  <rect fill="#43556B" x="105.76" y="132.32" width="8.99" height="12.99"/>
  <rect fill="#43556B" x="105.76" y="149.31" width="8.99" height="12.99"/>
  <rect fill="#43556B" x="105.76" y="167.3" width="8.99" height="12.99"/>
  <rect fill="#43556B" x="105.76" y="184.29" width="8.99" height="12.99"/>
  <rect fill="#43556B" x="105.76" y="201.28" width="8.99" height="12.99"/>
  <rect fill="#43556B" x="105.76" y="218.27" width="8.99" height="12.99"/>
  <rect fill="#43556B" x="105.76" y="236.26" width="8.99" height="12.99"/>
  <rect fill="white" x="90.27" y="153.81" width="1" height="4"/>
  <rect fill="white" x="22.31" y="258.75" width="18.99" height="18.99"/>
  <rect fill="#43556B" x="123.25" y="138.91" width="53.97" height="138.92"/>
  <polygon fill="white" points="123.75,142.41 173.72,142.41 173.22,273.83 124.25,273.83 124.25,261.85 163.73,261.34 163.73,249.35 123.75,249.35 123.75,245.35 163.73,245.35 163.73,233.35 123.75,233.35 123.77,229.37 163.73,229.36 163.73,217.36 123.75,217.36 123.77,213.37 163.73,213.37 163.73,201.37 123.75,201.37 123.78,197.37 163.73,197.37 163.73,185.38 123.75,185.38 123.79,181.42 163.73,181.38 163.73,169.39 123.75,169.39 123.82,165.36 163.73,165.39 163.73,153.4 123.75,153.4 "/>
  <rect fill="white" x="123.75" y="158.4" width="34.98" height="3"/>
  <rect fill="white" x="123.75" y="174.39" width="34.98" height="3"/>
  <rect fill="white" x="123.75" y="189.88" width="34.98" height="3"/>
  <rect fill="white" x="123.75" y="206.37" width="34.98" height="3"/>
  <rect fill="white" x="123.75" y="222.36" width="34.98" height="3"/>
  <rect fill="white" x="123.75" y="238.35" width="34.98" height="3"/>
  <rect fill="white" x="123.75" y="254.34" width="34.98" height="3"/>
  <path fill="#43556B" d="M179.46 2.28l8.15 0.03 0.28 25.75c4.28,2.23 6.26,5.93 5.86,10.8 13.47,4.1 23.39,14.28 26.12,25.2l-72.32 0.2c2.56,-11.05 10.86,-22.09 26.69,-25.23 -0.41,-3.75 0.54,-7.8 5.16,-10.67l0.06 -26.08z"/>
  <path fill="white" d="M187.4 34.23c1.05,1.41 1.97,5.27 1.7,8.46 11.49,1.43 23.71,14.2 25.52,21.39l-61.34 0.16c1.68,-7.26 13.31,-19.57 25.77,-21.44 -0.26,-2.47 -0.56,-5.32 1.29,-8.63l7.06 0.06 0 0z"/>
  <polygon fill="#FFC65E" stroke="#43556B" stroke-width="0.8" stroke-miterlimit="22.9256" points="138.76,64.15 228.94,64.15 228.94,279.26 175.75,279.22 175.03,140.45 138.96,140.29 "/>
  <rect fill="white" stroke="#43556B" stroke-width="1.2" stroke-miterlimit="22.9256" x="177.52" y="242.86" width="33.99" height="10.54"/>
  <rect fill="white" stroke="#43556B" stroke-width="1.6" stroke-miterlimit="22.9256" x="175.69" y="257.5" width="23.6" height="21.73"/>
  <polygon fill="#43556B" points="202.1,73.26 213.09,73.26 213.09,95.24 202.1,95.24 "/>
  <polygon fill="white" points="204.17,76.26 205.17,76.26 205.17,90.25 204.17,90.25 "/>
  <polygon fill="#43556B" points="190.17,73.26 200.17,73.26 200.17,95.24 190.17,95.24 "/>
  <polygon fill="#43556B" points="178.18,73.26 188.18,73.26 188.18,95.24 178.18,95.24 "/>
  <polygon fill="white" points="181.18,76.26 182.18,76.26 182.18,90.25 181.18,90.25 "/>
  <polygon fill="#43556B" points="166.18,73.32 176.17,73.32 176.17,95.3 166.18,95.3 "/>
  <polygon fill="#43556B" points="178.3,146.21 188.3,146.21 188.3,168.21 178.3,168.21 "/>
  <polygon fill="#43556B" points="178.29,98.24 188.28,98.24 188.28,119.23 178.29,119.23 "/>
  <polygon fill="#43556B" points="166.19,122.23 176.18,122.23 176.18,138.91 166.19,138.91 "/>
  <polygon fill="#43556B" points="154.19,122.23 164.19,122.23 164.19,138.91 154.19,138.91 "/>
  <polygon fill="#43556B" points="154.19,98.24 164.19,98.24 164.19,119.23 154.19,119.23 "/>
  <polygon fill="#43556B" points="154.19,73.26 164.19,73.26 164.19,95.24 154.19,95.24 "/>
  <polygon fill="#43556B" points="178.22,195.19 188.21,195.19 188.21,216.18 178.22,216.18 "/>
  <polygon fill="#43556B" points="178.32,170.25 188.31,170.25 188.31,192.24 178.32,192.24 "/>
  <polygon fill="#43556B" points="166.27,98.19 176.26,98.19 176.26,119.19 166.27,119.19 "/>
  <polygon fill="#43556B" points="178.17,122.19 188.17,122.19 188.17,143.18 178.17,143.18 "/>
  <polygon fill="#43556B" points="178.34,218.56 188.34,218.56 188.34,239.55 178.34,239.55 "/>
  <polygon fill="#43556B" points="190.09,195.19 200.09,195.19 200.09,216.18 190.09,216.18 "/>
  <polygon fill="#43556B" points="189.94,170.2 199.95,170.2 199.95,192.19 189.94,192.19 "/>
  <polygon fill="#43556B" points="189.91,98.24 199.9,98.24 199.9,119.23 189.91,119.23 "/>
  <polygon fill="#43556B" points="189.99,146.21 199.99,146.21 199.99,168.21 189.99,168.21 "/>
  <polygon fill="#43556B" points="190.04,122.18 200.04,122.18 200.04,143.18 190.04,143.18 "/>
  <polygon fill="#43556B" points="190.07,218.63 200.07,218.63 200.07,239.62 190.07,239.62 "/>
  <polygon fill="#43556B" points="201.71,195.19 213.09,195.19 213.09,216.18 201.71,216.18 "/>
  <polygon fill="#43556B" points="201.71,170.2 213.09,170.2 213.09,192.19 201.71,192.19 "/>
  <polygon fill="#43556B" points="201.71,98.24 213.09,98.24 213.09,119.23 201.71,119.23 "/>
  <polygon fill="#43556B" points="201.71,146.21 213.09,146.21 213.09,168.21 201.71,168.21 "/>
  <polygon fill="#43556B" points="201.71,122.23 213.09,122.23 213.09,143.22 201.71,143.22 "/>
  <polygon fill="#43556B" points="201.71,218.58 213.09,218.58 213.09,239.57 201.71,239.57 "/>
  <polygon fill="white" points="169.55,76.26 170.55,76.26 170.55,90.25 169.55,90.25 "/>
  <polygon fill="white" points="204.17,101.65 205.17,101.65 205.17,115.64 204.17,115.64 "/>
  <polygon fill="white" points="181.18,101.65 182.18,101.65 182.18,115.64 181.18,115.64 "/>
  <polygon fill="white" points="169.55,101.65 170.55,101.65 170.55,115.64 169.55,115.64 "/>
  <polygon fill="white" points="204.17,125.59 205.17,125.59 205.17,139.58 204.17,139.58 "/>
  <polygon fill="white" points="181.18,125.59 182.18,125.59 182.18,139.58 181.18,139.58 "/>
  <polygon fill="white" points="169.55,125.59 170.55,125.59 170.55,138.91 169.55,138.91 "/>
  <polygon fill="white" points="204.17,150.38 205.17,150.38 205.17,164.38 204.17,164.38 "/>
  <polygon fill="white" points="181.18,150.38 182.18,150.38 182.18,164.38 181.18,164.38 "/>
  <polygon fill="white" points="204.17,174.78 205.17,174.78 205.17,188.77 204.17,188.77 "/>
  <polygon fill="white" points="181.18,174.78 182.18,174.78 182.18,188.77 181.18,188.77 "/>
  <polygon fill="white" points="204.17,198.55 205.17,198.55 205.17,212.54 204.17,212.54 "/>
  <polygon fill="white" points="181.18,198.55 182.18,198.55 182.18,212.54 181.18,212.54 "/>
  <polygon fill="white" points="204.17,221.74 205.17,221.74 205.17,235.73 204.17,235.73 "/>
  <polygon fill="white" points="181.18,221.74 182.18,221.74 182.18,235.73 181.18,235.73 "/>
  <path fill="#43556B" d="M292.35 128.07l-63.92 13.56 0 -103.26c2.29,-31.8 60.85,-32.29 63.92,0l0 89.7z"/>
  <path fill="white" d="M288.04 128.9l-55.29 11.82 0 -101.23c1.98,-27.51 52.63,-27.94 55.29,0l0 89.41z"/>
  <circle fill="#009FD7" cx="260.47" cy="25.43" r="24.98"/>
  <rect fill="#43556B" x="240.51" y="60.54" width="9.28" height="4.2"/>
  <rect fill="#43556B" x="254.03" y="60.54" width="12.05" height="4.2"/>
  <rect fill="#43556B" x="270.43" y="60.54" width="9.28" height="4.2"/>
  <rect fill="#43556B" x="240.51" y="71.22" width="9.28" height="4.2"/>
  <rect fill="#43556B" x="254.03" y="71.22" width="12.05" height="4.2"/>
  <rect fill="#43556B" x="270.43" y="71.22" width="9.28" height="4.2"/>
  <rect fill="#43556B" x="240.51" y="81.76" width="9.28" height="4.2"/>
  <rect fill="#43556B" x="254.03" y="81.76" width="12.05" height="4.2"/>
  <rect fill="#43556B" x="270.43" y="81.76" width="9.28" height="4.2"/>
  <rect fill="#43556B" x="240.51" y="91.72" width="9.28" height="4.2"/>
  <rect fill="#43556B" x="254.03" y="91.72" width="12.05" height="4.2"/>
  <rect fill="#43556B" x="270.43" y="91.72" width="9.28" height="4.2"/>
  <rect fill="#43556B" x="240.51" y="102.06" width="9.28" height="4.2"/>
  <rect fill="#43556B" x="254.03" y="102.06" width="12.05" height="4.2"/>
  <rect fill="#43556B" x="270.43" y="102.06" width="9.28" height="4.2"/>
  <rect fill="#43556B" x="240.51" y="112.61" width="9.28" height="4.2"/>
  <rect fill="#43556B" x="254.03" y="112.61" width="12.05" height="4.2"/>
  <rect fill="#43556B" x="270.43" y="112.61" width="9.28" height="4.2"/>
  <polygon fill="#43556B" points="228.12,141.71 303.18,125.78 303.18,277.74 228.12,277.96 "/>
  <polygon fill="#00D3FF" points="232.91,145.08 298.39,131.13 298.3,275.53 232.91,275.48 "/>
  <rect fill="#43556B" x="242.57" y="154.6" width="46.06" height="13.17"/>
  <rect fill="white" x="247.06" y="159.09" width="36.8" height="4.2"/>
  <rect fill="#43556B" x="242.57" y="170.85" width="46.06" height="13.17"/>
  <rect fill="white" x="247.06" y="175.34" width="36.8" height="4.2"/>
  <rect fill="#43556B" x="242.57" y="186.46" width="46.06" height="13.17"/>
  <rect fill="white" x="247.06" y="190.96" width="36.8" height="4.2"/>
  <rect fill="#43556B" x="242.57" y="202.67" width="46.06" height="13.17"/>
  <rect fill="white" x="247.06" y="207.16" width="36.8" height="4.2"/>
  <rect fill="#43556B" x="242.57" y="218.87" width="46.06" height="13.17"/>
  <rect fill="white" x="247.06" y="223.36" width="36.8" height="4.2"/>
  <rect fill="#43556B" x="242.57" y="234.87" width="46.06" height="13.17"/>
  <rect fill="white" x="247.06" y="239.36" width="36.8" height="4.2"/>
  <rect fill="#43556B" x="242.57" y="250.29" width="46.06" height="13.17"/>
  <rect fill="white" x="247.06" y="254.78" width="36.8" height="4.2"/>
  <rect fill="#43556B" x="240.51" y="122.56" width="9.28" height="4.2"/>
  <rect fill="#43556B" x="254.03" y="122.56" width="12.05" height="4.2"/>
  <rect fill="#43556B" x="270.43" y="122.56" width="9.28" height="4.2"/>
  <rect fill="#43556B" x="240.51" y="132.43" width="9.28" height="4.2"/>
  <rect fill="#43556B" x="254.03" y="132.43" width="12.05" height="4.2"/>
  <path fill="white" fill-rule="nonzero" d="M46.12 29.12c-0.14,0.06 -0.25,0.16 -0.31,0.27 -0.04,0.09 -0.06,0.47 -0.06,1.71l0 1.6 -0.26 0.06c-0.25,0.04 -0.48,0.11 -0.95,0.26 -0.44,0.15 -0.63,0.22 -1,0.4 -2.08,1.02 -3.51,2.87 -3.77,4.91 -0.04,0.4 -0.03,1.46 0.03,1.81 0.04,0.25 0.23,0.92 0.35,1.23 0.22,0.64 0.63,1.22 1.35,1.94 0.76,0.75 2.01,1.54 3.41,2.13 0.22,0.09 0.48,0.2 0.57,0.25 0.1,0.04 0.56,0.22 1.03,0.41 0.46,0.19 0.91,0.37 0.99,0.4 0.08,0.03 0.22,0.09 0.31,0.13 0.42,0.18 1.63,0.79 1.89,0.96 0.52,0.34 0.94,0.84 1.13,1.35 0.17,0.46 0.11,1.19 -0.14,1.73 -0.36,0.76 -1.32,1.38 -2.46,1.59 -0.33,0.06 -1.29,0.06 -1.62,0.01 -0.35,-0.07 -0.45,-0.09 -0.78,-0.17 -1.26,-0.32 -2.45,-0.94 -3.58,-1.87 -0.38,-0.32 -0.45,-0.36 -0.6,-0.36 -0.1,0.01 -0.23,0.04 -0.29,0.09 -0.16,0.11 -1.97,2.47 -2,2.61 -0.08,0.34 0.2,0.69 1.11,1.36 1.41,1.05 2.75,1.67 4.55,2.08 0.04,0.01 0.18,0.03 0.31,0.05 0.13,0.02 0.25,0.04 0.27,0.05 0.02,0 0.06,0.01 0.09,0.01 0.05,0 0.06,0.29 0.06,1.51 -0.01,0.83 0.01,1.56 0.02,1.63 0.02,0.07 0.1,0.18 0.17,0.25l0.14 0.13 1.31 0.01c1.19,0.01 1.34,0.01 1.48,-0.06 0.27,-0.14 0.28,-0.17 0.28,-1.9l0 -1.55 0.29 -0.06c0.66,-0.13 1.46,-0.4 2.01,-0.68 0.28,-0.14 0.98,-0.56 1.04,-0.63 0.01,-0.01 0.12,-0.1 0.24,-0.19 0.36,-0.28 0.94,-0.89 1.26,-1.31 0.34,-0.46 0.8,-1.37 0.96,-1.91 0.2,-0.66 0.3,-1.3 0.3,-1.99 0,-0.32 -0.04,-0.97 -0.07,-1.02 -0.01,-0.01 -0.03,-0.11 -0.05,-0.22 -0.05,-0.31 -0.35,-1.17 -0.54,-1.55 -0.41,-0.77 -1.19,-1.55 -2.25,-2.24 -0.39,-0.25 -1.7,-0.91 -2.31,-1.16 -0.22,-0.09 -0.48,-0.2 -0.58,-0.25 -0.11,-0.04 -0.21,-0.08 -0.23,-0.08 -0.02,0 -0.15,-0.05 -0.29,-0.11 -0.14,-0.05 -0.58,-0.22 -0.96,-0.37 -1.76,-0.69 -2.57,-1.14 -3.25,-1.79 -0.45,-0.44 -0.62,-0.8 -0.64,-1.42 -0.02,-0.48 0.02,-0.7 0.22,-1.1 0.38,-0.77 1.37,-1.4 2.48,-1.57 0.35,-0.06 1.43,-0.06 1.79,0 0.46,0.07 1.21,0.29 1.65,0.47 0.55,0.23 1.57,0.82 1.78,1.03 0.03,0.03 0.07,0.05 0.09,0.05 0.02,0 0.09,0.06 0.16,0.13 0.19,0.17 0.3,0.22 0.49,0.22 0.22,0 0.41,-0.12 0.52,-0.33 0.04,-0.1 0.13,-0.26 0.2,-0.37 0.06,-0.11 0.18,-0.32 0.26,-0.48 0.09,-0.16 0.34,-0.61 0.56,-1 0.49,-0.89 0.49,-0.94 0.17,-1.28 -0.43,-0.44 -1.3,-1.02 -2.05,-1.38 -0.64,-0.3 -1.71,-0.65 -2.34,-0.77 -0.06,-0.01 -0.14,-0.03 -0.18,-0.04 -0.04,-0.02 -0.17,-0.03 -0.29,-0.05 -0.12,-0.01 -0.27,-0.03 -0.33,-0.04l-0.11 -0.03 0 -1.58c0,-1.48 -0.01,-1.59 -0.09,-1.71 -0.15,-0.23 -0.25,-0.24 -1.62,-0.24 -0.69,0 -1.29,0.01 -1.32,0.03l0 0 0 0z"/>
  <path fill="white" fill-rule="nonzero" d="M259.29 10.18c-0.13,0.06 -0.25,0.16 -0.31,0.27 -0.04,0.09 -0.05,0.47 -0.06,1.71l0 1.6 -0.25 0.06c-0.26,0.04 -0.48,0.11 -0.95,0.26 -0.45,0.15 -0.64,0.22 -1,0.4 -2.09,1.02 -3.51,2.87 -3.77,4.91 -0.05,0.4 -0.04,1.46 0.03,1.81 0.04,0.25 0.23,0.92 0.34,1.23 0.23,0.64 0.64,1.22 1.36,1.94 0.75,0.75 2,1.54 3.41,2.13 0.22,0.09 0.47,0.2 0.57,0.25 0.09,0.04 0.56,0.22 1.02,0.41 0.47,0.19 0.92,0.37 1,0.4 0.07,0.03 0.21,0.09 0.3,0.13 0.42,0.18 1.64,0.79 1.9,0.96 0.51,0.34 0.93,0.84 1.13,1.35 0.17,0.46 0.1,1.19 -0.15,1.73 -0.35,0.76 -1.32,1.38 -2.46,1.59 -0.32,0.06 -1.28,0.06 -1.61,0.01 -0.36,-0.07 -0.46,-0.09 -0.78,-0.17 -1.27,-0.32 -2.45,-0.94 -3.58,-1.87 -0.38,-0.32 -0.45,-0.36 -0.61,-0.36 -0.1,0.01 -0.23,0.04 -0.29,0.09 -0.15,0.11 -1.96,2.47 -2,2.61 -0.08,0.34 0.21,0.69 1.12,1.36 1.41,1.05 2.75,1.67 4.55,2.08 0.03,0.01 0.17,0.03 0.3,0.05 0.13,0.02 0.26,0.04 0.28,0.05 0.02,0 0.06,0.01 0.09,0.01 0.04,0 0.05,0.29 0.05,1.51 0,0.83 0.01,1.56 0.03,1.63 0.02,0.07 0.09,0.18 0.17,0.25l0.13 0.13 1.32 0.01c1.19,0.01 1.33,0.01 1.47,-0.06 0.28,-0.14 0.28,-0.17 0.28,-1.9l0.01 -1.55 0.28 -0.06c0.66,-0.13 1.46,-0.4 2.02,-0.68 0.28,-0.14 0.98,-0.57 1.04,-0.63 0.01,-0.01 0.12,-0.1 0.24,-0.19 0.35,-0.28 0.94,-0.89 1.25,-1.31 0.35,-0.46 0.81,-1.37 0.97,-1.91 0.2,-0.66 0.29,-1.3 0.3,-1.99 0,-0.32 -0.05,-0.97 -0.08,-1.02 -0.01,-0.01 -0.02,-0.11 -0.04,-0.22 -0.05,-0.31 -0.35,-1.17 -0.55,-1.55 -0.4,-0.77 -1.18,-1.55 -2.25,-2.25 -0.38,-0.24 -1.7,-0.9 -2.31,-1.15 -0.21,-0.09 -0.48,-0.2 -0.58,-0.25 -0.1,-0.04 -0.2,-0.08 -0.22,-0.08 -0.02,0 -0.15,-0.05 -0.3,-0.11 -0.14,-0.05 -0.57,-0.22 -0.95,-0.37 -1.77,-0.69 -2.58,-1.14 -3.25,-1.79 -0.46,-0.44 -0.62,-0.8 -0.65,-1.42 -0.01,-0.48 0.03,-0.7 0.23,-1.1 0.37,-0.77 1.36,-1.4 2.47,-1.57 0.36,-0.06 1.44,-0.06 1.79,0 0.46,0.07 1.21,0.29 1.66,0.47 0.54,0.23 1.56,0.82 1.78,1.03 0.03,0.03 0.07,0.05 0.08,0.05 0.02,0 0.1,0.06 0.17,0.13 0.18,0.17 0.29,0.22 0.49,0.22 0.21,0 0.4,-0.12 0.51,-0.33 0.05,-0.1 0.14,-0.26 0.2,-0.37 0.06,-0.11 0.18,-0.32 0.27,-0.48 0.09,-0.16 0.34,-0.61 0.55,-1 0.5,-0.89 0.5,-0.94 0.17,-1.28 -0.42,-0.44 -1.29,-1.02 -2.04,-1.38 -0.65,-0.3 -1.72,-0.65 -2.35,-0.77 -0.06,-0.01 -0.13,-0.03 -0.17,-0.04 -0.04,-0.02 -0.17,-0.03 -0.3,-0.05 -0.12,-0.01 -0.26,-0.04 -0.32,-0.04l-0.11 -0.03 -0.01 -1.58c0,-1.48 0,-1.59 -0.08,-1.71 -0.15,-0.23 -0.25,-0.24 -1.63,-0.24 -0.69,0 -1.28,0.01 -1.32,0.03l0 0 0 0z"/>
 </g>
</svg>
