<?xml version="1.0" encoding="UTF-8"?>
<!DOCTYPE svg PUBLIC "-//W3C//DTD SVG 1.1//EN" "http://www.w3.org/Graphics/SVG/1.1/DTD/svg11.dtd">
<!-- Creator: CorelDRAW 2020 (64-Bit) -->
<svg xmlns="http://www.w3.org/2000/svg" xml:space="preserve" width="1920px" height="320px" version="1.1" shape-rendering="geometricPrecision" text-rendering="geometricPrecision" image-rendering="optimizeQuality" fill-rule="evenodd" clip-rule="evenodd"
viewBox="0 0 1920 320"
 xmlns:xlink="http://www.w3.org/1999/xlink"
 xmlns:xodm="http://www.corel.com/coreldraw/odm/2003">
 <g id="Слой_x0020_1">
  <metadata id="CorelCorpID_0Corel-Layer"/>
  <circle fill="#E6E6E6" cx="-2125.26" cy="1037.23" r="4.78" strok="#43556B"/>
  <circle fill="#E6E6E6" cx="-3710.34" cy="-3792.59" r="14.94" strok="#43556B"/>
  <circle fill="#E6E6E6" cx="11681.96" cy="6213.72" r="5.79" strok="#43556B"/>
  <circle fill="#E6E6E6" cx="-17175.69" cy="-3418.23" r="4.78" strok="#43556B"/>
  <circle fill="#E6E6E6" cx="-18763.48" cy="-8256.2" r="14.97" strok="#43556B"/>
  <circle fill="#E6E6E6" cx="-9680.95" cy="1428.61" r="5.74" strok="#43556B"/>
  <circle fill="#E6E6E6" cx="-11583.83" cy="-4369.55" r="17.93" strok="#43556B"/>
  <rect fill="#43556B" x="0.13" y="315.82" width="1918.88" height="4"/>
  <circle fill="#FFB836" stroke="#414042" stroke-width="1.6" stroke-miterlimit="22.9256" cx="79.34" cy="266.86" r="21.49"/>
  <polygon fill="#414042" points="77.34,264.87 80.47,264.87 80.47,317.84 77.34,317.84 "/>
  <circle fill="#FFB836" stroke="#414042" stroke-width="1.6" stroke-miterlimit="22.9256" cx="124.81" cy="266.86" r="21.49"/>
  <polygon fill="#414042" points="123.25,264.87 126.37,264.87 126.37,317.84 123.25,317.84 "/>
  <circle fill="#FFB836" stroke="#414042" stroke-width="1.6" stroke-miterlimit="22.9256" cx="170.79" cy="266.86" r="21.49"/>
  <polygon fill="#414042" points="169.22,264.87 172.22,264.87 172.31,317.84 169.22,317.84 "/>
  <ellipse fill="white" stroke="#43556B" stroke-width="2" stroke-miterlimit="22.9256" cx="267.23" cy="128.52" rx="35.38" ry="32.98"/>
  <circle fill="#009FD7" cx="267.33" cy="82.54" r="24.98"/>
  <polygon fill="#43556B" points="220.32,120.02 318.3,120.02 318.3,319.9 220.29,319.9 "/>
  <path fill="white" d="M224.35 125.02l88.95 0 0 190.89 -88.89 0 -0.06 -190.89zm14.99 9.99l10 0 0 21.99 -10 0 0 -21.99zm0 24.99l10 0 0 20.99 -10 0 0 -20.99zm0 23.98l10 0 0 20.99 -10 0 0 -20.99zm0 23.99l10 0 0 21.99 -10 0 0 -21.99zm0 23.99l10 0 0 21.99 -10 0 0 -21.99zm0 24.98l10 0 0 20.99 -10 0 0 -20.99zm12 -121.93l9.99 0 0 21.99 -9.99 0 0 -21.99zm0 24.99l9.99 0 0 20.99 -9.99 0 0 -20.99zm0 23.98l9.99 0 0 20.99 -9.99 0 0 -20.99zm0 23.99l9.99 0 0 21.99 -9.99 0 0 -21.99zm0 23.99l9.99 0 0 21.99 -9.99 0 0 -21.99zm0 24.98l9.99 0 0 20.99 -9.99 0 0 -20.99zm3 -69.96l1 0 0 13.99 -1 0 0 -13.99zm0 -23.98l1 0 0 13.99 -1 0 0 -13.99zm0 -24.99l1 0 0 13.99 -1 0 0 -13.99zm0 72.96l1 0 0 15.99 -1 0 0 -15.99zm0 23.98l1 0 0 16 -1 0 0 -16zm0 24.99l1 0 0 14.99 -1 0 0 -14.99zm8.99 -124.93l10 0 0 21.99 -10 0 0 -21.99zm3 3l1 0 0 13.99 -1 0 0 -13.99zm8.99 -3l10 0 0 21.99 -10 0 0 -21.99zm3 3l1 0 0 13.99 -1 0 0 -13.99zm8 -3l10.99 0 0 21.99 -10.99 0 0 -21.99zm2.99 3l1 0 0 13.99 -1 0 0 -13.99z"/>
  <polygon fill="white" points="278.32,138.01 279.32,138.01 279.32,152 278.32,152 "/>
  <polygon fill="#43556B" points="261.33,151.14 343.28,151.14 343.28,316.91 261.33,316.91 238.34,316.91 238.34,292.92 261.33,293.15 "/>
  <polygon fill="white" points="266.83,155.5 279.82,155.5 279.82,315.41 266.83,315.41 "/>
  <rect fill="#43556B" x="269.83" y="170.49" width="8.99" height="12.99"/>
  <rect fill="#43556B" x="269.83" y="187.48" width="8.99" height="12.99"/>
  <rect fill="#43556B" x="269.83" y="205.47" width="8.99" height="12.99"/>
  <rect fill="#43556B" x="269.83" y="222.46" width="8.99" height="12.99"/>
  <rect fill="#43556B" x="269.83" y="239.45" width="8.99" height="12.99"/>
  <rect fill="#43556B" x="269.83" y="256.44" width="8.99" height="12.99"/>
  <rect fill="#43556B" x="269.83" y="274.43" width="8.99" height="12.99"/>
  <polygon fill="white" points="285.82,155.5 298.81,155.5 298.81,170.57 288.82,170.49 288.82,183.48 298.81,183.52 298.81,188.49 288.82,188.48 288.82,200.47 298.81,200.58 298.81,205.39 288.82,205.47 288.82,217.46 298.81,217.54 298.81,222.51 288.82,222.46 288.82,234.45 298.81,234.63 298.81,239.43 288.82,239.45 288.82,251.44 298.81,251.46 298.81,256.52 288.82,256.44 288.82,269.43 298.81,269.42 298.81,274.57 288.82,274.43 288.82,286.42 298.81,286.53 298.81,315.41 285.82,315.41 "/>
  <rect fill="white" x="292.31" y="174.99" width="1" height="4"/>
  <rect fill="white" x="292.31" y="191.98" width="1" height="4"/>
  <rect fill="white" x="292.31" y="209.97" width="1" height="3"/>
  <rect fill="white" x="292.31" y="226.96" width="1" height="3"/>
  <rect fill="white" x="292.31" y="243.95" width="1" height="3"/>
  <rect fill="white" x="292.31" y="260.94" width="1" height="4"/>
  <rect fill="white" x="292.31" y="278.93" width="1" height="3"/>
  <polygon fill="white" points="303.81,155.5 316.8,155.5 316.8,315.41 303.81,315.41 "/>
  <rect fill="#43556B" x="306.8" y="170.49" width="8.99" height="12.99"/>
  <rect fill="#43556B" x="306.8" y="187.48" width="8.99" height="12.99"/>
  <rect fill="#43556B" x="306.8" y="205.47" width="8.99" height="12.99"/>
  <rect fill="#43556B" x="306.8" y="222.46" width="8.99" height="12.99"/>
  <rect fill="#43556B" x="306.8" y="239.45" width="8.99" height="12.99"/>
  <rect fill="#43556B" x="306.8" y="256.44" width="8.99" height="12.99"/>
  <rect fill="#43556B" x="306.8" y="274.43" width="8.99" height="12.99"/>
  <rect fill="white" x="311.3" y="174.99" width="1" height="4"/>
  <rect fill="#43556B" x="311.3" y="191.98" width="1" height="4"/>
  <rect fill="white" x="311.3" y="209.97" width="1" height="3"/>
  <rect fill="white" x="311.3" y="226.96" width="1" height="3"/>
  <rect fill="white" x="311.3" y="243.95" width="1" height="3"/>
  <rect fill="white" x="311.3" y="260.94" width="1" height="4"/>
  <rect fill="white" x="311.3" y="278.93" width="1" height="3"/>
  <polygon fill="white" points="322.8,155.5 337.79,155.5 337.79,315.41 322.8,315.41 "/>
  <rect fill="#43556B" x="325.79" y="170.49" width="8.99" height="12.99"/>
  <rect fill="#43556B" x="325.79" y="187.48" width="8.99" height="12.99"/>
  <rect fill="#43556B" x="325.79" y="205.47" width="8.99" height="12.99"/>
  <rect fill="#43556B" x="325.79" y="222.46" width="8.99" height="12.99"/>
  <rect fill="#43556B" x="325.79" y="239.45" width="8.99" height="12.99"/>
  <rect fill="#43556B" x="325.79" y="256.44" width="8.99" height="12.99"/>
  <rect fill="#43556B" x="325.79" y="274.43" width="8.99" height="12.99"/>
  <rect fill="white" x="310.3" y="191.98" width="1" height="4"/>
  <rect fill="white" x="242.34" y="296.92" width="18.99" height="18.99"/>
  <rect fill="#43556B" x="343.28" y="177.08" width="53.97" height="138.92"/>
  <polygon fill="white" points="343.78,180.58 393.75,180.58 393.25,312 344.28,312 344.28,300.02 383.76,299.51 383.76,287.51 343.78,287.51 343.78,283.51 383.76,283.51 383.76,271.52 343.78,271.52 343.8,267.53 383.76,267.53 383.76,255.53 343.78,255.53 343.8,251.54 383.76,251.53 383.76,239.54 343.78,239.54 343.81,235.54 383.76,235.54 383.76,223.55 343.78,223.55 343.82,219.59 383.76,219.55 383.76,207.56 343.78,207.56 343.85,203.53 383.76,203.56 383.76,191.57 343.78,191.57 "/>
  <rect fill="white" x="343.78" y="196.56" width="34.98" height="3"/>
  <rect fill="white" x="343.78" y="212.56" width="34.98" height="3"/>
  <rect fill="white" x="343.78" y="228.05" width="34.98" height="3"/>
  <rect fill="white" x="343.78" y="244.54" width="34.98" height="3"/>
  <rect fill="white" x="343.78" y="260.53" width="34.98" height="3"/>
  <rect fill="white" x="343.78" y="276.52" width="34.98" height="3"/>
  <rect fill="white" x="343.78" y="292.51" width="34.98" height="3"/>
  <path fill="#43556B" d="M399.49 40.45l8.15 0.03 0.28 25.75c4.28,2.23 6.26,5.93 5.86,10.8 13.47,4.1 23.39,14.28 26.12,25.2l-72.32 0.2c2.56,-11.05 10.86,-22.09 26.69,-25.23 -0.41,-3.75 0.54,-7.8 5.16,-10.68l0.06 -26.07z"/>
  <path fill="white" d="M407.43 72.4c1.05,1.41 1.97,5.27 1.7,8.46 11.49,1.43 23.71,14.2 25.52,21.39l-61.34 0.16c1.68,-7.27 13.31,-19.57 25.77,-21.44 -0.26,-2.47 -0.56,-5.32 1.29,-8.63l7.06 0.06 0 0z"/>
  <polygon fill="#FFC65E" stroke="#43556B" stroke-width="0.8" stroke-miterlimit="22.9256" points="358.79,102.32 448.97,102.32 448.97,317.43 395.78,317.39 395.06,178.62 358.99,178.46 "/>
  <rect fill="white" stroke="#43556B" stroke-width="1.2" stroke-miterlimit="22.9256" x="397.55" y="281.03" width="33.99" height="10.54"/>
  <rect fill="white" stroke="#43556B" stroke-width="1.6" stroke-miterlimit="22.9256" x="395.72" y="295.67" width="23.6" height="21.73"/>
  <polygon fill="#43556B" points="422.13,111.43 433.12,111.43 433.12,133.41 422.13,133.41 "/>
  <polygon fill="white" points="424.2,114.43 425.2,114.43 425.2,128.42 424.2,128.42 "/>
  <polygon fill="#43556B" points="410.2,111.43 420.2,111.43 420.2,133.41 410.2,133.41 "/>
  <polygon fill="#43556B" points="398.21,111.43 408.21,111.43 408.21,133.41 398.21,133.41 "/>
  <polygon fill="white" points="401.21,114.43 402.21,114.43 402.21,128.42 401.21,128.42 "/>
  <polygon fill="#43556B" points="386.21,111.49 396.2,111.49 396.2,133.47 386.21,133.47 "/>
  <polygon fill="#43556B" points="398.33,184.38 408.33,184.38 408.33,206.38 398.33,206.38 "/>
  <polygon fill="#43556B" points="398.32,136.41 408.31,136.41 408.31,157.4 398.32,157.4 "/>
  <polygon fill="#43556B" points="386.22,160.4 396.21,160.4 396.21,177.08 386.22,177.08 "/>
  <polygon fill="#43556B" points="374.22,160.4 384.22,160.4 384.22,177.08 374.22,177.08 "/>
  <polygon fill="#43556B" points="374.22,136.41 384.22,136.41 384.22,157.4 374.22,157.4 "/>
  <polygon fill="#43556B" points="374.22,111.43 384.22,111.43 384.22,133.41 374.22,133.41 "/>
  <polygon fill="#43556B" points="398.25,233.36 408.24,233.36 408.24,254.34 398.25,254.34 "/>
  <polygon fill="#43556B" points="398.35,208.42 408.34,208.42 408.34,230.41 398.35,230.41 "/>
  <polygon fill="#43556B" points="386.3,136.36 396.29,136.36 396.29,157.36 386.3,157.36 "/>
  <polygon fill="#43556B" points="398.2,160.36 408.2,160.36 408.2,181.35 398.2,181.35 "/>
  <polygon fill="#43556B" points="398.37,256.73 408.37,256.73 408.37,277.72 398.37,277.72 "/>
  <polygon fill="#43556B" points="410.12,233.36 420.12,233.36 420.12,254.34 410.12,254.34 "/>
  <polygon fill="#43556B" points="409.97,208.37 419.98,208.37 419.98,230.36 409.97,230.36 "/>
  <polygon fill="#43556B" points="409.94,136.41 419.93,136.41 419.93,157.4 409.94,157.4 "/>
  <polygon fill="#43556B" points="410.02,184.38 420.02,184.38 420.02,206.38 410.02,206.38 "/>
  <polygon fill="#43556B" points="410.07,160.35 420.07,160.35 420.07,181.35 410.07,181.35 "/>
  <polygon fill="#43556B" points="410.1,256.8 420.1,256.8 420.1,277.79 410.1,277.79 "/>
  <polygon fill="#43556B" points="421.74,233.36 433.12,233.36 433.12,254.34 421.74,254.34 "/>
  <polygon fill="#43556B" points="421.74,208.37 433.12,208.37 433.12,230.36 421.74,230.36 "/>
  <polygon fill="#43556B" points="421.74,136.41 433.12,136.41 433.12,157.4 421.74,157.4 "/>
  <polygon fill="#43556B" points="421.74,184.38 433.12,184.38 433.12,206.38 421.74,206.38 "/>
  <polygon fill="#43556B" points="421.74,160.4 433.12,160.4 433.12,181.38 421.74,181.38 "/>
  <polygon fill="#43556B" points="421.74,256.75 433.12,256.75 433.12,277.74 421.74,277.74 "/>
  <polygon fill="white" points="389.58,114.43 390.58,114.43 390.58,128.42 389.58,128.42 "/>
  <polygon fill="white" points="424.2,139.82 425.2,139.82 425.2,153.81 424.2,153.81 "/>
  <polygon fill="white" points="401.21,139.82 402.21,139.82 402.21,153.81 401.21,153.81 "/>
  <polygon fill="white" points="389.58,139.82 390.58,139.82 390.58,153.81 389.58,153.81 "/>
  <polygon fill="white" points="424.2,163.76 425.2,163.76 425.2,177.75 424.2,177.75 "/>
  <polygon fill="white" points="401.21,163.76 402.21,163.76 402.21,177.75 401.21,177.75 "/>
  <polygon fill="white" points="389.58,163.76 390.58,163.76 390.58,177.08 389.58,177.08 "/>
  <polygon fill="white" points="424.2,188.55 425.2,188.55 425.2,202.54 424.2,202.54 "/>
  <polygon fill="white" points="401.21,188.55 402.21,188.55 402.21,202.54 401.21,202.54 "/>
  <polygon fill="white" points="424.2,212.95 425.2,212.95 425.2,226.94 424.2,226.94 "/>
  <polygon fill="white" points="401.21,212.95 402.21,212.95 402.21,226.94 401.21,226.94 "/>
  <polygon fill="white" points="424.2,236.71 425.2,236.71 425.2,250.7 424.2,250.7 "/>
  <polygon fill="white" points="401.21,236.71 402.21,236.71 402.21,250.7 401.21,250.7 "/>
  <polygon fill="white" points="424.2,259.91 425.2,259.91 425.2,273.9 424.2,273.9 "/>
  <polygon fill="white" points="401.21,259.91 402.21,259.91 402.21,273.9 401.21,273.9 "/>
  <path fill="#43556B" d="M512.38 166.24l-63.92 13.55 0 -103.26c2.29,-31.8 60.85,-32.29 63.92,0l0 89.71z"/>
  <path fill="white" d="M508.07 167.06l-55.29 11.83 0 -101.23c1.98,-27.51 52.63,-27.94 55.29,0l0 89.4z"/>
  <circle fill="#009FD7" cx="480.5" cy="63.6" r="24.98"/>
  <rect fill="#43556B" x="460.54" y="98.71" width="9.28" height="4.2"/>
  <rect fill="#43556B" x="474.06" y="98.71" width="12.05" height="4.2"/>
  <rect fill="#43556B" x="490.46" y="98.71" width="9.28" height="4.2"/>
  <rect fill="#43556B" x="460.54" y="109.39" width="9.28" height="4.2"/>
  <rect fill="#43556B" x="474.06" y="109.39" width="12.05" height="4.2"/>
  <rect fill="#43556B" x="490.46" y="109.39" width="9.28" height="4.2"/>
  <rect fill="#43556B" x="460.54" y="119.93" width="9.28" height="4.2"/>
  <rect fill="#43556B" x="474.06" y="119.93" width="12.05" height="4.2"/>
  <rect fill="#43556B" x="490.46" y="119.93" width="9.28" height="4.2"/>
  <rect fill="#43556B" x="460.54" y="129.89" width="9.28" height="4.2"/>
  <rect fill="#43556B" x="474.06" y="129.89" width="12.05" height="4.2"/>
  <rect fill="#43556B" x="490.46" y="129.89" width="9.28" height="4.2"/>
  <rect fill="#43556B" x="460.54" y="140.23" width="9.28" height="4.2"/>
  <rect fill="#43556B" x="474.06" y="140.23" width="12.05" height="4.2"/>
  <rect fill="#43556B" x="490.46" y="140.23" width="9.28" height="4.2"/>
  <rect fill="#43556B" x="460.54" y="150.77" width="9.28" height="4.2"/>
  <rect fill="#43556B" x="474.06" y="150.77" width="12.05" height="4.2"/>
  <rect fill="#43556B" x="490.46" y="150.77" width="9.28" height="4.2"/>
  <polygon fill="#43556B" points="448.15,179.88 523.21,163.94 523.21,315.91 448.15,316.13 "/>
  <polygon fill="#00D3FF" points="452.94,183.24 518.42,169.3 518.33,313.7 452.94,313.65 "/>
  <rect fill="#43556B" x="462.6" y="192.77" width="46.06" height="13.17"/>
  <rect fill="white" x="467.09" y="197.26" width="36.8" height="4.2"/>
  <rect fill="#43556B" x="462.6" y="209.02" width="46.06" height="13.17"/>
  <rect fill="white" x="467.09" y="213.51" width="36.8" height="4.2"/>
  <rect fill="#43556B" x="462.6" y="224.63" width="46.06" height="13.17"/>
  <rect fill="white" x="467.09" y="229.13" width="36.8" height="4.2"/>
  <rect fill="#43556B" x="462.6" y="240.84" width="46.06" height="13.17"/>
  <rect fill="white" x="467.09" y="245.33" width="36.8" height="4.2"/>
  <rect fill="#43556B" x="462.6" y="257.04" width="46.06" height="13.17"/>
  <rect fill="white" x="467.09" y="261.53" width="36.8" height="4.2"/>
  <rect fill="#43556B" x="462.6" y="273.04" width="46.06" height="13.17"/>
  <rect fill="white" x="467.09" y="277.53" width="36.8" height="4.2"/>
  <rect fill="#43556B" x="462.6" y="288.46" width="46.06" height="13.17"/>
  <rect fill="white" x="467.09" y="292.95" width="36.8" height="4.2"/>
  <rect fill="#43556B" x="460.54" y="160.73" width="9.28" height="4.2"/>
  <rect fill="#43556B" x="474.06" y="160.73" width="12.05" height="4.2"/>
  <rect fill="#43556B" x="490.46" y="160.73" width="9.28" height="4.2"/>
  <rect fill="#43556B" x="460.54" y="170.6" width="9.28" height="4.2"/>
  <rect fill="#43556B" x="474.06" y="170.6" width="12.05" height="4.2"/>
  <path fill="#414042" d="M539.32 176.09l191.79 0c0.64,0 1.16,0.53 1.16,1.17l0 14.84c0,0.63 -0.52,1.15 -1.16,1.17l-3.3 0.08 0.26 122.54 -185.09 -0.08 -0.16 -122.54 -3.51 0c-0.64,0 -1.16,-0.53 -1.16,-1.17l0 -14.84c0,-0.64 0.52,-1.17 1.16,-1.17l0.01 0z"/>
  <path fill="#FFB836" stroke="#AB7E2B" stroke-width="0.36" stroke-miterlimit="22.9256" d="M543.8 181.31l181.48 0c1.15,-0.01 2.07,0.5 2.07,1.12l0 6.72c0,0.62 -0.92,1.13 -2.07,1.13l-181.48 0c-1.14,0 -2.07,-0.51 -2.07,-1.13l0 -6.71c0,-0.63 0.93,-1.14 2.07,-1.14z"/>
  <path fill="#FFC65E" stroke="#BC944B" stroke-width="0.36" stroke-miterlimit="22.9256" d="M548.69 194.41l172.1 0c0.98,0 1.79,0.81 1.79,1.8l0 32.33c0,0.99 -0.81,1.79 -1.79,1.79l-172.1 0c-0.98,0 -1.79,-0.8 -1.79,-1.79l0 -32.33c0,-0.99 0.81,-1.8 1.79,-1.8zm11.38 4.53l15.42 0c0.73,0 1.32,0.6 1.32,1.32l0 21.77c0,0.73 -0.59,1.32 -1.32,1.32l-15.42 0c-0.72,0 -1.32,-0.59 -1.32,-1.32l0 -21.77c0,-0.72 0.6,-1.32 1.32,-1.32zm23.17 0l15.43 0c0.72,0 1.32,0.6 1.32,1.32l0 21.77c0,0.73 -0.6,1.32 -1.32,1.32l-15.43 0c-0.72,0 -1.31,-0.59 -1.31,-1.32l0 -21.77c0,-0.72 0.59,-1.32 1.31,-1.32zm23.72 0l15.42 0c0.73,0 1.32,0.6 1.32,1.32l0 21.77c0,0.73 -0.59,1.32 -1.32,1.32l-15.42 0c-0.72,0 -1.31,-0.59 -1.31,-1.32l0 -21.77c0,-0.72 0.59,-1.32 1.31,-1.32zm23.03 0l15.43 0c0.73,0 1.32,0.6 1.32,1.32l0 21.77c0,0.73 -0.59,1.32 -1.32,1.32l-15.43 0c-0.72,0 -1.31,-0.59 -1.31,-1.32l0 -21.77c0,-0.72 0.59,-1.32 1.31,-1.32zm23.92 0l15.43 0c0.71,0 1.31,0.6 1.31,1.32l0 21.77c0,0.73 -0.6,1.32 -1.31,1.32l-15.43 0c-0.73,0 -1.32,-0.59 -1.32,-1.32l0 -21.77c0,-0.72 0.59,-1.32 1.32,-1.32zm23.52 0l15.42 0c0.73,0 1.32,0.6 1.32,1.32l0 21.77c0,0.73 -0.59,1.32 -1.32,1.32l-15.42 0c-0.72,0 -1.32,-0.59 -1.32,-1.32l0 -21.77c0,-0.72 0.6,-1.32 1.32,-1.32zm23.32 0l15.43 0c0.73,0 1.32,0.6 1.32,1.32l0 21.77c0,0.73 -0.59,1.32 -1.32,1.32l-15.43 0c-0.72,0 -1.31,-0.59 -1.31,-1.32l0 -21.77c0,-0.72 0.59,-1.32 1.31,-1.32z"/>
  <path fill="white" d="M563.68 203.29l7.22 0c0.52,0 0.93,0.42 0.93,0.93l0 13.27c0,0.51 -0.41,0.93 -0.93,0.93l-7.22 0c-0.51,0 -0.92,-0.42 -0.92,-0.93l-0.01 -13.27c0.01,-0.51 0.42,-0.93 0.94,-0.93z"/>
  <path fill="white" d="M587.64 203.29l7.22 0c0.51,0 0.93,0.42 0.93,0.93l0 13.27c0,0.51 -0.42,0.93 -0.93,0.93l-7.22 0c-0.51,0 -0.93,-0.42 -0.93,-0.93l0 -13.27c0,-0.51 0.42,-0.93 0.93,-0.93z"/>
  <path fill="white" d="M610.58 203.29l7.21 0c0.52,0 0.93,0.42 0.93,0.93l0 13.27c0,0.51 -0.41,0.93 -0.92,0.93l-7.22 0c-0.51,0 -0.93,-0.42 -0.93,-0.93l0 -13.27c0,-0.51 0.42,-0.93 0.93,-0.93z"/>
  <path fill="white" d="M634.44 203.29l7.22 0c0.52,0 0.93,0.42 0.93,0.93l0 13.27c0,0.51 -0.41,0.93 -0.93,0.93l-7.22 0c-0.51,0 -0.92,-0.42 -0.92,-0.93l-0.01 -13.27c0.01,-0.51 0.42,-0.93 0.94,-0.93z"/>
  <path fill="white" d="M657.48 203.29l7.22 0c0.51,0 0.93,0.42 0.93,0.93l0 13.27c0,0.51 -0.42,0.93 -0.93,0.93l-7.22 0c-0.51,0 -0.93,-0.42 -0.93,-0.93l0 -13.27c0,-0.51 0.42,-0.93 0.93,-0.93z"/>
  <path fill="white" d="M681.45 203.29l7.21 0c0.52,0 0.93,0.42 0.93,0.93l0 13.27c0,0.51 -0.41,0.93 -0.93,0.93l-7.21 0c-0.52,0 -0.93,-0.42 -0.93,-0.93l0 -13.27c0,-0.51 0.41,-0.93 0.93,-0.93z"/>
  <path fill="white" d="M705.5 203.29l7.22 0c0.51,0 0.93,0.42 0.93,0.93l0 13.27c0,0.51 -0.42,0.93 -0.93,0.93l-7.22 0c-0.51,0 -0.92,-0.42 -0.92,-0.93l-0.01 -13.27c0.01,-0.51 0.42,-0.93 0.94,-0.93z"/>
  <path fill="#FFC65E" stroke="#BC944B" stroke-width="0.36" stroke-miterlimit="22.9256" d="M548.69 234.83l172.1 0c0.98,0 1.79,0.8 1.79,1.79l0 32.33c0,0.99 -0.81,1.8 -1.79,1.8l-172.1 0c-0.98,0 -1.79,-0.8 -1.79,-1.8l0 -32.33c0,-0.99 0.81,-1.79 1.79,-1.79zm11.38 4.54l15.42 0c0.73,0 1.32,0.59 1.32,1.32l0 21.76c0,0.73 -0.59,1.32 -1.32,1.32l-15.42 0c-0.72,0 -1.32,-0.59 -1.32,-1.32l0 -21.76c0,-0.73 0.6,-1.32 1.32,-1.32zm23.17 0l15.43 0c0.72,0 1.32,0.59 1.32,1.32l0 21.76c0,0.73 -0.6,1.32 -1.32,1.32l-15.43 0c-0.72,0 -1.31,-0.59 -1.31,-1.32l0 -21.76c0,-0.73 0.59,-1.32 1.31,-1.32zm23.72 0l15.42 0c0.73,0 1.32,0.59 1.32,1.32l0 21.76c0,0.73 -0.59,1.32 -1.32,1.32l-15.42 0c-0.72,0 -1.31,-0.59 -1.31,-1.32l0 -21.76c0,-0.73 0.59,-1.32 1.31,-1.32zm23.03 0l15.43 0c0.73,0 1.32,0.59 1.32,1.32l0 21.76c0,0.73 -0.59,1.32 -1.32,1.32l-15.43 0c-0.72,0 -1.31,-0.59 -1.31,-1.32l0 -21.76c0,-0.73 0.59,-1.32 1.31,-1.32zm23.92 0l15.43 0c0.71,0 1.31,0.59 1.31,1.32l0 21.76c0,0.73 -0.6,1.32 -1.31,1.32l-15.43 0c-0.73,0 -1.32,-0.59 -1.32,-1.32l0 -21.76c0,-0.73 0.59,-1.32 1.32,-1.32zm23.52 0l15.42 0c0.73,0 1.32,0.59 1.32,1.32l0 21.76c0,0.73 -0.59,1.32 -1.32,1.32l-15.42 0c-0.72,0 -1.32,-0.59 -1.32,-1.32l0 -21.76c0,-0.73 0.6,-1.32 1.32,-1.32zm23.32 0l15.43 0c0.73,0 1.32,0.59 1.32,1.32l0 21.76c0,0.73 -0.59,1.32 -1.32,1.32l-15.43 0c-0.72,0 -1.31,-0.59 -1.31,-1.32l0 -21.76c0,-0.73 0.59,-1.32 1.31,-1.32z"/>
  <path fill="white" d="M563.68 243.71l7.22 0c0.52,0 0.93,0.41 0.93,0.92l0 13.28c0,0.51 -0.41,0.93 -0.93,0.93l-7.22 0c-0.51,0 -0.92,-0.42 -0.92,-0.93l-0.01 -13.27c0.01,-0.52 0.42,-0.93 0.94,-0.93z"/>
  <path fill="white" d="M587.64 243.71l7.22 0c0.51,0 0.93,0.41 0.93,0.92l0 13.28c0,0.51 -0.42,0.93 -0.93,0.93l-7.22 0c-0.51,0 -0.93,-0.42 -0.93,-0.93l0 -13.27c0,-0.52 0.42,-0.93 0.93,-0.93z"/>
  <path fill="white" d="M610.58 243.71l7.21 0c0.52,0 0.93,0.41 0.93,0.92l0 13.28c0,0.51 -0.41,0.93 -0.92,0.93l-7.22 0c-0.51,0 -0.93,-0.42 -0.93,-0.93l0 -13.27c0,-0.52 0.42,-0.93 0.93,-0.93z"/>
  <path fill="white" d="M634.44 243.71l7.22 0c0.52,0 0.93,0.41 0.93,0.92l0 13.28c0,0.51 -0.41,0.93 -0.93,0.93l-7.22 0c-0.51,0 -0.92,-0.42 -0.92,-0.93l-0.01 -13.27c0.01,-0.52 0.42,-0.93 0.94,-0.93z"/>
  <path fill="white" d="M657.48 243.71l7.22 0c0.51,0 0.93,0.41 0.93,0.92l0 13.28c0,0.51 -0.42,0.93 -0.93,0.93l-7.22 0c-0.51,0 -0.93,-0.42 -0.93,-0.93l0 -13.27c0,-0.52 0.42,-0.93 0.93,-0.93z"/>
  <path fill="white" d="M681.45 243.71l7.21 0c0.52,0 0.93,0.41 0.93,0.92l0 13.28c0,0.51 -0.41,0.93 -0.93,0.93l-7.21 0c-0.52,0 -0.93,-0.42 -0.93,-0.93l0 -13.27c0,-0.52 0.41,-0.93 0.93,-0.93z"/>
  <path fill="white" d="M705.5 243.71l7.22 0c0.51,0 0.93,0.41 0.93,0.92l0 13.28c0,0.51 -0.42,0.93 -0.93,0.93l-7.22 0c-0.51,0 -0.92,-0.42 -0.92,-0.93l-0.01 -13.27c0.01,-0.52 0.42,-0.93 0.94,-0.93z"/>
  <path fill="#FFC65E" stroke="#BC944B" stroke-width="0.36" stroke-miterlimit="22.9256" d="M548.69 275.43l172.1 0c0.98,0 1.79,0.81 1.79,1.79l0 32.34c0,0.99 -0.81,1.79 -1.79,1.79l-172.1 0c-0.98,0 -1.79,-0.8 -1.79,-1.79l0 -32.34c0,-0.98 0.81,-1.79 1.79,-1.79zm11.38 4.54l15.42 0c0.73,0 1.32,0.6 1.32,1.32l0 21.76c0,0.72 -0.59,1.32 -1.32,1.32l-15.42 0c-0.72,0 -1.32,-0.6 -1.32,-1.32l0 -21.76c0,-0.72 0.6,-1.32 1.32,-1.32zm23.17 0l15.43 0c0.72,0 1.32,0.6 1.32,1.32l0 21.76c0,0.72 -0.6,1.32 -1.32,1.32l-15.43 0c-0.72,0 -1.31,-0.6 -1.31,-1.32l0 -21.76c0,-0.72 0.59,-1.32 1.31,-1.32zm23.72 0l15.42 0c0.73,0 1.32,0.6 1.32,1.32l0 21.76c0,0.72 -0.59,1.32 -1.32,1.32l-15.42 0c-0.72,0 -1.31,-0.6 -1.31,-1.32l0 -21.76c0,-0.72 0.59,-1.32 1.31,-1.32zm23.03 0l15.43 0c0.73,0 1.32,0.6 1.32,1.32l0 21.76c0,0.72 -0.59,1.32 -1.32,1.32l-15.43 0c-0.72,0 -1.31,-0.6 -1.31,-1.32l0 -21.76c0,-0.72 0.59,-1.32 1.31,-1.32zm23.92 0l15.43 0c0.71,0 1.31,0.6 1.31,1.32l0 21.76c0,0.72 -0.6,1.32 -1.31,1.32l-15.43 0c-0.73,0 -1.32,-0.6 -1.32,-1.32l0 -21.76c0,-0.72 0.59,-1.32 1.32,-1.32zm23.52 0l15.42 0c0.73,0 1.32,0.6 1.32,1.32l0 21.76c0,0.72 -0.59,1.32 -1.32,1.32l-15.42 0c-0.72,0 -1.32,-0.6 -1.32,-1.32l0 -21.76c0,-0.72 0.6,-1.32 1.32,-1.32zm23.32 0l15.43 0c0.73,0 1.32,0.6 1.32,1.32l0 21.76c0,0.72 -0.59,1.32 -1.32,1.32l-15.43 0c-0.72,0 -1.31,-0.6 -1.31,-1.32l0 -21.76c0,-0.72 0.59,-1.32 1.31,-1.32z"/>
  <path fill="white" d="M563.68 284.31l7.22 0c0.52,0 0.93,0.42 0.93,0.93l0 13.28c0,0.51 -0.41,0.92 -0.93,0.92l-7.22 0.01c-0.51,-0.01 -0.92,-0.42 -0.92,-0.94l-0.01 -13.27c0.01,-0.51 0.42,-0.93 0.94,-0.93z"/>
  <path fill="white" d="M587.64 284.31l7.22 0c0.51,0 0.93,0.42 0.93,0.93l0 13.28c0,0.51 -0.42,0.92 -0.93,0.92l-7.22 0.01c-0.51,-0.01 -0.93,-0.42 -0.93,-0.94l0 -13.27c0,-0.51 0.42,-0.93 0.93,-0.93z"/>
  <path fill="white" d="M610.58 284.31l7.21 0c0.52,0 0.93,0.42 0.93,0.93l0 13.28c0,0.51 -0.41,0.92 -0.92,0.92l-7.22 0.01c-0.51,-0.01 -0.93,-0.42 -0.93,-0.94l0 -13.27c0,-0.51 0.42,-0.93 0.93,-0.93z"/>
  <path fill="white" d="M634.44 284.31l7.22 0c0.52,0 0.93,0.42 0.93,0.93l0 13.28c0,0.51 -0.41,0.92 -0.93,0.92l-7.22 0.01c-0.51,-0.01 -0.92,-0.42 -0.92,-0.94l-0.01 -13.27c0.01,-0.51 0.42,-0.93 0.94,-0.93z"/>
  <path fill="white" d="M657.48 284.31l7.22 0c0.51,0 0.93,0.42 0.93,0.93l0 13.28c0,0.51 -0.42,0.92 -0.93,0.92l-7.22 0.01c-0.51,-0.01 -0.93,-0.42 -0.93,-0.94l0 -13.27c0,-0.51 0.42,-0.93 0.93,-0.93z"/>
  <path fill="white" d="M681.45 284.31l7.21 0c0.52,0 0.93,0.42 0.93,0.93l0 13.28c0,0.51 -0.41,0.92 -0.93,0.92l-7.21 0.01c-0.52,-0.01 -0.93,-0.42 -0.93,-0.94l0 -13.27c0,-0.51 0.41,-0.93 0.93,-0.93z"/>
  <path fill="white" d="M705.5 284.31l7.22 0c0.51,0 0.93,0.42 0.93,0.93l0 13.28c0,0.51 -0.42,0.92 -0.93,0.92l-7.22 0.01c-0.51,-0.01 -0.92,-0.42 -0.92,-0.94l-0.01 -13.27c0.01,-0.51 0.42,-0.93 0.94,-0.93z"/>
  <path fill="#BC8A2F" d="M717.5 180.77l9.2 0c0.62,0 1.12,0.5 1.12,1.11l0 7.58c0,0.7 -0.57,1.27 -1.27,1.27l-9.05 0 0 -9.96z"/>
  <path fill="#BC944B" d="M717.5 194.01l3.75 0c0.97,0 1.76,0.79 1.76,1.76l0 32.82c0,1.19 -0.98,2.16 -2.17,2.16l-3.35 0 0 -36.74 0.01 0z"/>
  <path fill="#BC944B" d="M717.5 234.39l3.75 0c0.97,0 1.76,0.79 1.76,1.77l0 32.81c0,1.2 -0.98,2.17 -2.17,2.17l-3.35 0 0 -36.75 0.01 0z"/>
  <path fill="#BC944B" d="M717.5 275.02l3.75 0c0.97,0 1.76,0.79 1.76,1.76l0 32.82c0,1.19 -0.98,2.17 -2.17,2.17l-3.35 0 0 -36.75 0.01 0z"/>
  <rect fill="#414042" x="945.19" y="191.25" width="211.99" height="124.93"/>
  <rect fill="#383637" x="945.19" y="191.25" width="31.81" height="124.93"/>
  <rect fill="#00CCFF" x="966.28" y="196.33" width="12.88" height="11.51"/>
  <rect fill="#00CCFF" x="983.35" y="196.33" width="12.88" height="11.51"/>
  <rect fill="#00CCFF" x="1001.22" y="196.33" width="12.88" height="11.51"/>
  <rect fill="#00CCFF" x="1018.3" y="196.33" width="12.88" height="11.51"/>
  <rect fill="#00CCFF" x="1036.16" y="196.33" width="12.88" height="11.51"/>
  <rect fill="#00CCFF" x="1053.24" y="196.33" width="12.88" height="11.51"/>
  <rect fill="#00CCFF" x="1071.1" y="196.33" width="12" height="11.51"/>
  <rect fill="#00CCFF" x="1088.13" y="196.33" width="12.98" height="11.51"/>
  <rect fill="#00CCFF" x="1105.11" y="196.33" width="12.98" height="11.51"/>
  <rect fill="#00CCFF" x="1123.07" y="196.33" width="12.98" height="11.51"/>
  <rect fill="#383637" x="1142.23" y="191.25" width="14.94" height="124.93"/>
  <rect fill="#00CCFF" x="1140.05" y="196.33" width="12.98" height="11.51"/>
  <rect fill="#0A9DBB" x="948.65" y="196.33" width="12.88" height="11.51"/>
  <rect fill="#0A9DBB" x="966.28" y="196.33" width="10.72" height="11.51"/>
  <rect fill="#0A9DBB" x="1142.24" y="196.33" width="10.79" height="11.51"/>
  <rect fill="#00CCFF" x="966.28" y="211.65" width="12.88" height="12.74"/>
  <rect fill="#00CCFF" x="983.35" y="211.65" width="12.88" height="12.74"/>
  <rect fill="#00CCFF" x="1001.22" y="211.65" width="12.88" height="12.74"/>
  <rect fill="#00CCFF" x="1018.3" y="211.65" width="12.88" height="12.74"/>
  <rect fill="#00CCFF" x="1036.16" y="211.65" width="12.88" height="12.74"/>
  <rect fill="#00CCFF" x="1053.24" y="211.65" width="12.88" height="12.74"/>
  <rect fill="#00CCFF" x="1071.1" y="211.65" width="12" height="12.74"/>
  <rect fill="#00CCFF" x="1088.13" y="211.65" width="12.98" height="12.74"/>
  <rect fill="#00CCFF" x="1105.11" y="211.65" width="12.98" height="12.74"/>
  <rect fill="#00CCFF" x="1123.07" y="211.65" width="12.98" height="12.74"/>
  <rect fill="#00CCFF" x="1140.05" y="211.65" width="12.98" height="12.74"/>
  <rect fill="#0A9DBB" x="948.65" y="211.65" width="12.88" height="12.74"/>
  <rect fill="#0A9DBB" x="966.28" y="211.65" width="10.72" height="12.74"/>
  <rect fill="#0A9DBB" x="1142.24" y="211.65" width="10.79" height="12.74"/>
  <rect fill="#00CCFF" x="966.28" y="229.61" width="12.88" height="12.74"/>
  <rect fill="#00CCFF" x="983.35" y="229.61" width="12.88" height="12.74"/>
  <rect fill="#00CCFF" x="1001.22" y="229.61" width="12.88" height="12.74"/>
  <rect fill="#00CCFF" x="1018.3" y="229.61" width="12.88" height="12.74"/>
  <rect fill="#00CCFF" x="1036.16" y="229.61" width="12.88" height="12.74"/>
  <rect fill="#00CCFF" x="1053.24" y="229.61" width="12.88" height="12.74"/>
  <rect fill="#00CCFF" x="1071.1" y="229.61" width="12" height="12.74"/>
  <rect fill="#00CCFF" x="1088.13" y="229.61" width="12.98" height="12.74"/>
  <rect fill="#00CCFF" x="1105.11" y="229.61" width="12.98" height="12.74"/>
  <rect fill="#00CCFF" x="1123.07" y="229.61" width="12.98" height="12.74"/>
  <rect fill="#00CCFF" x="1140.05" y="229.61" width="12.98" height="12.74"/>
  <rect fill="#0A9DBB" x="948.65" y="229.61" width="12.88" height="12.74"/>
  <rect fill="#0A9DBB" x="966.28" y="229.61" width="10.72" height="12.74"/>
  <rect fill="#0A9DBB" x="1142.24" y="229.61" width="10.79" height="12.74"/>
  <rect fill="#00CCFF" x="966.28" y="246.4" width="12.88" height="12.74"/>
  <rect fill="#00CCFF" x="983.35" y="246.4" width="12.88" height="12.74"/>
  <rect fill="#00CCFF" x="1001.22" y="246.4" width="12.88" height="12.74"/>
  <rect fill="#00CCFF" x="1018.3" y="246.4" width="12.88" height="12.74"/>
  <rect fill="#00CCFF" x="1036.16" y="246.4" width="12.88" height="12.74"/>
  <rect fill="#00CCFF" x="1053.24" y="246.4" width="12.88" height="12.74"/>
  <rect fill="#00CCFF" x="1071.1" y="246.4" width="12" height="12.74"/>
  <rect fill="#00CCFF" x="1088.13" y="246.4" width="12.98" height="12.74"/>
  <rect fill="#00CCFF" x="1105.11" y="246.4" width="12.98" height="12.74"/>
  <rect fill="#00CCFF" x="1123.07" y="246.4" width="12.98" height="12.74"/>
  <rect fill="#00CCFF" x="1140.05" y="246.4" width="12.98" height="12.74"/>
  <rect fill="#0A9DBB" x="948.65" y="246.4" width="12.88" height="12.74"/>
  <rect fill="#0A9DBB" x="966.28" y="246.4" width="10.72" height="12.74"/>
  <rect fill="#0A9DBB" x="1142.24" y="246.4" width="10.79" height="12.74"/>
  <rect fill="#00CCFF" x="966.28" y="264.75" width="12.88" height="12.74"/>
  <rect fill="#00CCFF" x="983.35" y="264.75" width="12.88" height="12.74"/>
  <rect fill="#00CCFF" x="1001.22" y="264.75" width="12.88" height="12.74"/>
  <rect fill="#00CCFF" x="1018.3" y="264.75" width="12.88" height="12.74"/>
  <rect fill="#00CCFF" x="1036.16" y="264.75" width="12.88" height="12.74"/>
  <rect fill="#00CCFF" x="1053.24" y="264.75" width="12.88" height="12.74"/>
  <rect fill="#00CCFF" x="1071.1" y="264.75" width="12" height="12.74"/>
  <rect fill="#00CCFF" x="1088.13" y="264.75" width="12.98" height="12.74"/>
  <rect fill="#00CCFF" x="1105.11" y="264.75" width="12.98" height="12.74"/>
  <rect fill="#00CCFF" x="1123.07" y="264.75" width="12.98" height="12.74"/>
  <rect fill="#00CCFF" x="1140.05" y="264.75" width="12.98" height="12.74"/>
  <rect fill="#0A9DBB" x="948.65" y="264.75" width="12.88" height="12.74"/>
  <rect fill="#0A9DBB" x="966.28" y="264.75" width="10.72" height="12.74"/>
  <rect fill="#0A9DBB" x="1142.24" y="264.75" width="10.79" height="12.74"/>
  <rect fill="#00CCFF" x="966.28" y="281.63" width="12.88" height="12.74"/>
  <rect fill="#00CCFF" x="983.35" y="281.63" width="12.88" height="12.74"/>
  <rect fill="#00CCFF" x="1001.22" y="281.63" width="12.88" height="12.74"/>
  <rect fill="#00CCFF" x="1018.3" y="281.63" width="12.88" height="12.74"/>
  <rect fill="#00CCFF" x="1036.16" y="281.63" width="12.88" height="12.74"/>
  <rect fill="#00CCFF" x="1053.24" y="281.63" width="12.88" height="12.74"/>
  <rect fill="#00CCFF" x="1071.1" y="281.63" width="12" height="12.74"/>
  <rect fill="#00CCFF" x="1088.13" y="281.63" width="12.98" height="12.74"/>
  <rect fill="#00CCFF" x="1105.11" y="281.63" width="12.98" height="12.74"/>
  <rect fill="#00CCFF" x="1123.07" y="281.63" width="12.98" height="12.74"/>
  <rect fill="#00CCFF" x="1140.05" y="281.63" width="12.98" height="12.74"/>
  <rect fill="#0A9DBB" x="948.65" y="281.63" width="12.88" height="12.74"/>
  <rect fill="#0A9DBB" x="966.28" y="281.63" width="10.72" height="12.74"/>
  <rect fill="#0A9DBB" x="1142.24" y="281.63" width="10.79" height="12.74"/>
  <rect fill="#00CCFF" x="966.28" y="299.49" width="12.88" height="11.94"/>
  <rect fill="#00CCFF" x="983.35" y="299.49" width="12.88" height="11.94"/>
  <rect fill="#00CCFF" x="1001.22" y="299.49" width="12.88" height="11.94"/>
  <rect fill="#00CCFF" x="1018.3" y="299.49" width="12.88" height="11.94"/>
  <rect fill="#00CCFF" x="1036.16" y="299.49" width="12.88" height="11.94"/>
  <rect fill="#00CCFF" x="1053.24" y="299.49" width="12.88" height="11.94"/>
  <rect fill="#00CCFF" x="1071.1" y="299.49" width="12" height="11.94"/>
  <rect fill="#00CCFF" x="1088.13" y="299.49" width="12.98" height="11.94"/>
  <rect fill="#00CCFF" x="1105.11" y="299.49" width="12.98" height="11.94"/>
  <rect fill="#00CCFF" x="1123.07" y="299.49" width="12.98" height="11.94"/>
  <rect fill="#00CCFF" x="1140.05" y="299.49" width="12.98" height="11.94"/>
  <rect fill="#0A9DBB" x="948.65" y="299.49" width="12.88" height="11.94"/>
  <rect fill="#0A9DBB" x="966.28" y="299.49" width="10.72" height="11.94"/>
  <rect fill="#0A9DBB" x="1142.24" y="299.49" width="10.79" height="11.94"/>
  <polygon fill="#414042" points="860.13,52.21 907.85,52.21 907.78,20.33 912.83,20.32 912.95,52.21 959.28,52.21 959.28,315.93 860.13,315.93 "/>
  <path fill="white" d="M865.56 57.61l89.03 0 0 230.77 -89.03 0 0 -230.77zm4.5 9.04l79.54 0 0 4.69 -79.54 0 0 -4.69zm0 7.91l79.54 0 0 4.68 -79.54 0 0 -4.68zm0 8.1l79.54 0 0 3.61 -79.54 0 0 -3.61zm0 7.08l79.54 0 0 4.33 -79.54 0 0 -4.33zm0 8.21l79.54 0 0 4.35 -79.54 0 0 -4.35zm0 7.72l79.54 0 0 3.54 -79.54 0 0 -3.54zm0 6.91l79.54 0 0 4.43 -79.54 0 0 -4.43zm0 8.18l79.54 0 0 4.43 -79.54 0 0 -4.43zm0 7.81l79.54 0 0 3.57 -79.54 0 0 -3.57zm0 7.27l79.54 0 0 4.27 -79.54 0 0 -4.27zm0 7.95l79.54 0 0 4.27 -79.54 0 0 -4.27zm0 7.6l79.54 0 0 3.85 -79.54 0 0 -3.85zm0 7.65l79.54 0 0 4.27 -79.54 0 0 -4.27zm0 7.84l79.54 0 0 4.52 -79.54 0 0 -4.52zm0 7.33l79.54 0 0 4.27 -79.54 0 0 -4.27zm0 7.69l79.54 0 0 4.58 -79.54 0 0 -4.58zm0 7.75l79.54 0 0 4.58 -79.54 0 0 -4.58zm0 7.99l79.54 0 0 3.69 -79.54 0 0 -3.69zm0 6.88l79.54 0 0 4.29 -79.54 0 0 -4.29zm0 8.12l79.54 0 0 4.27 -79.54 0 0 -4.27zm0 8.09l79.54 0 0 3.59 -79.54 0 0 -3.59zm0 6.99l79.54 0 0 4.27 -79.54 0 0 -4.27zm0 8.19l79.54 0 0 4.29 -79.54 0 0 -4.29zm0 7.62l79.54 0 0 3.66 -79.54 0 0 -3.66zm0 6.99l79.54 0 0 4.28 -79.54 0 0 -4.28zm0 8.19l79.54 0 0 4.29 -79.54 0 0 -4.29zm0 7.74l79.54 0 0 3.66 -79.54 0 0 -3.66zm0 7.1l79.54 0 0 4.28 -79.54 0 0 -4.28zm0 8.1l79.54 0 0 4.28 -79.54 0 0 -4.28z"/>
  <path fill="white" d="M865.56 293.21l89.03 0 0 18.35 -89.03 0 0 -18.35zm28.5 1.37l27.73 0 0 16.98 -3.47 0 -0.03 -12.2 -8.45 0.01 -0.01 12.19 -3.61 0 0.02 -12.22 -8.61 0 0.04 12.22 -3.61 0 0 -16.98 0 0z"/>
  <polygon fill="#414042" points="874.45,204.26 839.8,178.79 803.2,204.26 803.2,316.11 874.45,316.11 "/>
  <polygon fill="#383637" points="803.2,204.26 826.63,187.96 826.63,316.11 803.2,316.11 "/>
  <polygon fill="#E6E7E8" points="839.9,184.98 866.01,203.53 813.4,203.53 "/>
  <polygon fill="#9C9C9D" points="826.64,194.26 826.62,203.53 813.39,203.53 "/>
  <rect fill="#E6E7E8" x="807.61" y="207.24" width="61.87" height="103.85"/>
  <rect fill="#9C9C9D" x="807.61" y="207.24" width="19.02" height="103.85"/>
  <path fill="#414042" d="M846.21 218.95l12.88 0c0.89,0 1.61,0.72 1.61,1.61l0 13.19c0,0.88 -0.72,1.6 -1.6,1.6l-12.89 0c-0.89,0 -1.61,-0.72 -1.61,-1.61l0 -13.18c0,-0.89 0.72,-1.61 1.61,-1.61z"/>
  <path fill="#FFB836" d="M849.54 223.17l5.22 0c0.6,0 1.07,0.44 1.07,1l0 5.23c0,0.55 -0.47,1 -1.06,1l-5.23 0c-0.59,0 -1.07,-0.45 -1.07,-1l0 -5.23c0,-0.56 0.48,-1 1.07,-1z"/>
  <path fill="#414042" d="M820.18 218.95l12.89 0c0.89,0 1.61,0.72 1.61,1.61l0 13.19c0,0.88 -0.72,1.6 -1.61,1.6l-12.89 0c-0.88,0 -1.6,-0.72 -1.6,-1.61l-0.01 -13.18c0.01,-0.89 0.73,-1.61 1.62,-1.61z"/>
  <path fill="#383637" d="M819.38 218.95l7.25 0 0 16.4 -7.25 0c-0.45,0 -0.81,-0.37 -0.81,-0.81l0 -14.78c0,-0.45 0.36,-0.81 0.81,-0.81z"/>
  <path fill="#FFB836" d="M823.5 223.17l5.23 0c0.59,0 1.07,0.44 1.07,1l0 5.23c0,0.55 -0.48,1 -1.07,1l-5.23 0c-0.58,0 -1.06,-0.45 -1.06,-1l-0.01 -5.23c0.01,-0.56 0.49,-1 1.08,-1z"/>
  <path fill="#414042" d="M846.21 240.96l12.88 0c0.89,0 1.61,0.72 1.61,1.61l0 13.18c0,0.89 -0.72,1.61 -1.6,1.61l-12.89 0c-0.89,0 -1.61,-0.72 -1.61,-1.61l0 -13.18c0,-0.89 0.72,-1.61 1.61,-1.61z"/>
  <path fill="#FFB836" d="M849.54 245.19l5.22 0c0.6,-0.01 1.07,0.44 1.07,0.99l0 5.23c0,0.55 -0.47,1 -1.06,1l-5.23 0c-0.59,0 -1.07,-0.45 -1.07,-1l0 -5.22c0,-0.56 0.48,-1.01 1.07,-1.01z"/>
  <path fill="#414042" d="M820.18 240.96l12.89 0c0.89,0 1.61,0.72 1.61,1.61l0 13.18c0,0.89 -0.72,1.61 -1.61,1.61l-12.89 0c-0.88,0 -1.6,-0.72 -1.6,-1.61l-0.01 -13.18c0.01,-0.89 0.73,-1.61 1.62,-1.61z"/>
  <path fill="#FFB836" d="M823.5 245.19l5.23 0c0.59,-0.01 1.07,0.44 1.07,0.99l0 5.23c0,0.55 -0.48,1 -1.07,1l-5.23 0c-0.58,0 -1.06,-0.45 -1.06,-1l-0.01 -5.22c0.01,-0.56 0.49,-1.01 1.08,-1.01z"/>
  <path fill="#414042" d="M846.21 262.14l12.88 0c0.89,-0.01 1.61,0.71 1.61,1.6l0 13.19c0,0.88 -0.72,1.6 -1.6,1.6l-12.89 0.01c-0.89,-0.01 -1.61,-0.73 -1.61,-1.61l0 -13.18c0,-0.9 0.72,-1.62 1.61,-1.62z"/>
  <path fill="#FFB836" d="M849.54 266.37l5.22 0c0.6,-0.01 1.07,0.44 1.07,0.99l0 5.23c0,0.55 -0.47,1 -1.06,1l-5.23 0c-0.59,0 -1.07,-0.45 -1.07,-1l0 -5.23c0,-0.55 0.48,-1 1.07,-1z"/>
  <path fill="#414042" d="M820.18 262.14l12.89 0c0.89,-0.01 1.61,0.71 1.61,1.6l0 13.19c0,0.88 -0.72,1.6 -1.61,1.6l-12.89 0.01c-0.88,-0.01 -1.6,-0.73 -1.6,-1.61l-0.01 -13.18c0.01,-0.9 0.73,-1.62 1.62,-1.62z"/>
  <path fill="#FFB836" d="M823.5 266.37l5.23 0c0.59,-0.01 1.07,0.44 1.07,0.99l0 5.23c0,0.55 -0.48,1 -1.07,1l-5.23 0c-0.58,0 -1.06,-0.45 -1.06,-1l-0.01 -5.23c0.01,-0.55 0.49,-1 1.08,-1z"/>
  <path fill="#414042" d="M846.21 284.2l12.88 0c0.89,-0.01 1.61,0.71 1.61,1.6l0 13.19c0,0.88 -0.72,1.6 -1.6,1.6l-12.89 0.01c-0.89,-0.01 -1.61,-0.73 -1.61,-1.62l0 -13.18c0,-0.89 0.72,-1.61 1.61,-1.61z"/>
  <path fill="#FFB836" d="M849.54 288.42l5.22 0c0.6,0 1.07,0.45 1.07,1l0 5.23c0,0.55 -0.47,1 -1.06,1l-5.23 0c-0.59,0 -1.07,-0.45 -1.07,-1l0 -5.23c0,-0.55 0.48,-1 1.07,-1z"/>
  <path fill="#414042" d="M820.18 284.2l12.89 0c0.89,-0.01 1.61,0.71 1.61,1.6l0 13.19c0,0.88 -0.72,1.6 -1.61,1.6l-12.89 0.01c-0.88,-0.01 -1.6,-0.73 -1.6,-1.62l-0.01 -13.18c0.01,-0.89 0.73,-1.61 1.62,-1.61z"/>
  <path fill="#FFB836" d="M823.5 288.42l5.23 0c0.59,0 1.07,0.45 1.07,1l0 5.23c0,0.55 -0.48,1 -1.07,1l-5.23 0c-0.58,0 -1.06,-0.45 -1.06,-1l-0.01 -5.23c0.01,-0.55 0.49,-1 1.08,-1z"/>
  <path fill="#BC8A2F" d="M823.04 223.17l3.59 0 0 7.23 -3.59 0c-0.33,0 -0.61,-0.27 -0.61,-0.6l0 -6.02c0,-0.33 0.28,-0.61 0.61,-0.61z"/>
  <path fill="#383637" d="M819.38 240.96l7.25 0 0 16.4 -7.25 0c-0.45,0 -0.81,-0.37 -0.81,-0.81l0 -14.78c0,-0.45 0.36,-0.81 0.81,-0.81z"/>
  <path fill="#BC8A2F" d="M823.04 245.19l3.59 0 0 7.21 -3.59 0c-0.33,0 -0.61,-0.27 -0.61,-0.6l0 -6.01c0,-0.34 0.28,-0.6 0.61,-0.6z"/>
  <path fill="#383637" d="M819.38 262.14l7.25 0 0 16.4 -7.25 0c-0.45,0 -0.81,-0.36 -0.81,-0.81l0 -14.78c0,-0.44 0.36,-0.81 0.81,-0.81z"/>
  <path fill="#BC8A2F" d="M823.04 266.37l3.59 0 0 7.21 -3.59 0c-0.33,0 -0.61,-0.27 -0.61,-0.6l0 -6.02c0,-0.33 0.28,-0.59 0.61,-0.59z"/>
  <path fill="#383637" d="M819.38 284.2l7.25 0 0 16.4 -7.25 0c-0.45,0 -0.81,-0.36 -0.81,-0.81l0 -14.78c0,-0.45 0.36,-0.81 0.81,-0.81z"/>
  <path fill="#BC8A2F" d="M823.04 288.42l3.59 0 0 7.22 -3.59 0c-0.33,0 -0.61,-0.27 -0.61,-0.6l0 -6.02c0,-0.33 0.28,-0.6 0.61,-0.6z"/>
  <rect fill="#00D3FF" x="727.21" y="155.87" width="84.23" height="156"/>
  <rect fill="#07AFD2" x="744.31" y="160.72" width="52.8" height="151.14"/>
  <path fill="#414042" d="M815.89 316.12l-92.33 0 0 -160.45 -8.07 0 3.97 -33.82 27.83 -0.07 -0.01 -7.06 8.04 0.01 0.07 -22.99 4.8 0 0.18 23 2.94 0 -0.16 -14.19 5.17 -0.01 0.12 14.21 21.99 0.04 0.1 6.93 28.64 -0.04 4.03 33.98 -7.31 0.03 0 160.43 0 0zm-88.68 -160.25l84.23 0 0 7.99 -84.23 0 0 -7.99zm0 12.81l84.23 0 0 1.85 -84.23 0 0 -1.85zm0 6.2l84.23 0 0 1.85 -84.23 0 0 -1.85zm0 6.92l84.23 0 0 1.86 -84.23 0 0 -1.86zm0 7.03l84.23 0 0 1.86 -84.23 0 0 -1.86zm0 5.96l84.23 0 0 1.86 -84.23 0 0 -1.86zm0 7.12l84.23 0 0 1.85 -84.23 0 0 -1.85zm0 5.86l84.23 0 0 2.98 -84.23 0 0 -2.98zm0 7.13l84.23 0 0 1.85 -84.23 0 0 -1.85zm0 7.02l84.23 0 0 1.85 -84.23 0 0 -1.85zm0 5.96l84.23 0 0 1.85 -84.23 0 0 -1.85zm0 6.92l84.23 0 0 1.86 -84.23 0 0 -1.86zm0 6.05l84.23 0 0 3.08 -84.23 0 0 -3.08zm0 6.84l84.23 0 0 1.85 -84.23 0 0 -1.85zm0 7.22l84.23 0 0 1.85 -84.23 0 0 -1.85zm0 5.95l84.23 0 0 1.86 -84.23 0 0 -1.86zm0 6.93l84.23 0 0 1.85 -84.23 0 0 -1.85zm0 5.95l84.23 0 0 3.08 -84.23 0 0 -3.08zm0 7.04l84.23 0 0 1.85 -84.23 0 0 -1.85zm0 7.11l84.23 0 0 1.86 -84.23 0 0 -1.86zm0 5.86l84.23 0 0 1.86 -84.23 0 0 -1.86zm0 7.03l84.23 0 0 1.85 -84.23 0 0 -1.85zm0 5.86l84.23 0 0 5.22 -84.23 0 0 -5.22z"/>
  <rect fill="#E6E7E8" x="752.06" y="118.35" width="33.43" height="3.71"/>
  <polygon fill="#E6E7E8" points="723.51,126.56 815.16,126.56 817.73,150.76 720.6,150.76 "/>
  <rect fill="#3B393B" x="744.31" y="163.87" width="52.8" height="4.81"/>
  <rect fill="#3B393B" x="744.31" y="170.53" width="52.8" height="4.35"/>
  <rect fill="#3B393B" x="744.31" y="176.73" width="52.8" height="5.08"/>
  <rect fill="#3B393B" x="744.31" y="183.66" width="52.8" height="5.17"/>
  <rect fill="#3B393B" x="744.31" y="190.69" width="52.8" height="4.1"/>
  <rect fill="#3B393B" x="744.31" y="196.65" width="52.8" height="5.27"/>
  <rect fill="#3B393B" x="744.31" y="203.76" width="52.8" height="4"/>
  <rect fill="#3B393B" x="744.31" y="210.75" width="52.8" height="4.15"/>
  <rect fill="#3B393B" x="744.31" y="216.74" width="52.8" height="5.17"/>
  <rect fill="#3B393B" x="744.31" y="223.77" width="52.8" height="4.1"/>
  <rect fill="#3B393B" x="744.31" y="229.73" width="52.8" height="5.08"/>
  <rect fill="#3B393B" x="744.31" y="236.65" width="52.8" height="4.2"/>
  <rect fill="#3B393B" x="744.31" y="243.93" width="52.8" height="3.76"/>
  <rect fill="#3B393B" x="744.31" y="249.54" width="52.8" height="5.37"/>
  <rect fill="#3B393B" x="744.31" y="256.76" width="52.8" height="4.1"/>
  <rect fill="#3B393B" x="744.31" y="262.72" width="52.8" height="5.08"/>
  <rect fill="#3B393B" x="744.31" y="269.64" width="52.8" height="4.1"/>
  <rect fill="#3B393B" x="744.31" y="276.82" width="52.8" height="3.95"/>
  <rect fill="#3B393B" x="744.31" y="282.62" width="52.8" height="5.27"/>
  <rect fill="#3B393B" x="744.31" y="289.75" width="52.8" height="4"/>
  <rect fill="#3B393B" x="744.31" y="295.61" width="52.8" height="5.18"/>
  <rect fill="#3B393B" x="744.31" y="302.63" width="52.8" height="4"/>
  <rect fill="#414042" x="749.09" y="159.41" width="43.34" height="152.45"/>
  <rect fill="white" x="753.18" y="163.86" width="34.75" height="147.99"/>
  <rect fill="#414042" x="755.61" y="168.67" width="29.47" height="11.86"/>
  <rect fill="white" x="760.2" y="172.49" width="21.04" height="4.24"/>
  <rect fill="#414042" x="755.61" y="184.18" width="29.47" height="11.86"/>
  <rect fill="white" x="760.2" y="187.99" width="21.04" height="4.24"/>
  <rect fill="#414042" x="755.61" y="199.89" width="29.47" height="11.86"/>
  <rect fill="white" x="760.2" y="203.7" width="21.04" height="4.24"/>
  <rect fill="#414042" x="755.61" y="215.99" width="29.47" height="11.86"/>
  <rect fill="white" x="760.2" y="219.8" width="21.04" height="4.24"/>
  <rect fill="#414042" x="755.61" y="231.22" width="29.47" height="11.86"/>
  <rect fill="white" x="760.2" y="235.03" width="21.04" height="4.24"/>
  <rect fill="#414042" x="755.61" y="246.84" width="29.47" height="11.86"/>
  <rect fill="white" x="760.2" y="250.65" width="21.04" height="4.24"/>
  <rect fill="#414042" x="755.61" y="262.65" width="29.47" height="11.86"/>
  <rect fill="white" x="760.2" y="266.47" width="21.04" height="4.24"/>
  <rect fill="#414042" x="755.61" y="278.17" width="29.47" height="11.86"/>
  <rect fill="white" x="760.2" y="281.99" width="21.04" height="4.24"/>
  <rect fill="#414042" x="755.61" y="293.69" width="29.47" height="11.86"/>
  <rect fill="white" x="760.2" y="297.5" width="21.04" height="4.24"/>
  <polygon fill="#414042" points="1478.78,315.93 1270.3,315.93 1270.3,202.53 1260.54,202.49 1260.54,187.09 1270.3,186.96 1270.3,177.95 1308,177.88 1308.04,170.26 1437.92,170.26 1437.83,178.17 1476.97,178.27 1477,186.31 1487.12,186.31 1487.18,201.1 1478.78,201.2 "/>
  <rect fill="white" x="1313.04" y="174.07" width="121.02" height="4.49"/>
  <rect fill="white" x="1274.95" y="183.24" width="196.97" height="3.32"/>
  <rect fill="#FFB836" x="1284.44" y="191.05" width="197.45" height="6.45"/>
  <rect fill="#BC8A2F" x="1266.65" y="191.05" width="23.67" height="6.45"/>
  <rect fill="#ABABAB" x="1274.95" y="183.24" width="15.37" height="3.32"/>
  <rect fill="#E6E7E8" x="1274.51" y="201.15" width="200.66" height="110.68"/>
  <rect fill="#ABABAB" x="1274.51" y="201.15" width="15.81" height="110.68"/>
  <rect fill="#414042" x="1290.27" y="208.24" width="30.4" height="39.87"/>
  <rect fill="#66E4FF" x="1295.2" y="213.19" width="21.77" height="29.86"/>
  <rect fill="#414042" x="1284.43" y="249.59" width="42.19" height="3.22"/>
  <rect fill="#383637" x="1284.43" y="249.59" width="5.89" height="3.22"/>
  <rect fill="#414042" x="1290.27" y="257.62" width="30.4" height="39.87"/>
  <rect fill="#66E4FF" x="1295.2" y="262.58" width="21.77" height="29.86"/>
  <rect fill="#414042" x="1284.43" y="298.98" width="42.19" height="3.22"/>
  <rect fill="#383637" x="1284.43" y="298.98" width="5.89" height="3.22"/>
  <rect fill="#414042" x="1358.01" y="257.62" width="30.4" height="39.87"/>
  <rect fill="#66E4FF" x="1362.94" y="262.58" width="21.77" height="29.86"/>
  <rect fill="#414042" x="1352.16" y="298.98" width="42.19" height="3.22"/>
  <rect fill="#414042" x="1358.01" y="208.43" width="30.4" height="39.87"/>
  <rect fill="#66E4FF" x="1362.94" y="213.39" width="21.77" height="29.86"/>
  <rect fill="#414042" x="1352.16" y="249.79" width="42.19" height="3.22"/>
  <rect fill="#414042" x="1424.38" y="208.43" width="30.4" height="39.87"/>
  <rect fill="#66E4FF" x="1429.3" y="213.39" width="21.77" height="29.86"/>
  <rect fill="#414042" x="1418.53" y="249.79" width="42.19" height="3.22"/>
  <rect fill="#414042" x="1424.38" y="257.82" width="30.4" height="39.87"/>
  <rect fill="#66E4FF" x="1429.3" y="262.77" width="21.77" height="29.86"/>
  <rect fill="#414042" x="1418.53" y="299.17" width="42.19" height="3.22"/>
  <polygon fill="#414042" points="1161.13,11.36 1161.14,0.66 1271.91,0.66 1271.96,11.49 1290.9,11.53 1290.94,31.41 1278.65,31.46 1278.65,265.31 1290.12,265.31 1290.07,282.18 1278.65,282.2 1278.65,316.11 1153.11,316.11 1153.11,282.09 1139.83,282.2 1139.89,265.52 1153.11,265.41 1153.11,31.46 1141.23,31.38 1141.29,11.38 "/>
  <rect fill="#66E4FF" x="1156.97" y="196.33" width="25.77" height="69.17"/>
  <rect fill="#66E4FF" x="1188.19" y="196.33" width="25.77" height="69.17"/>
  <rect fill="#66E4FF" x="1218.06" y="196.33" width="25.77" height="69.17"/>
  <rect fill="#66E4FF" x="1249.29" y="196.33" width="25.77" height="69.17"/>
  <rect fill="white" x="1164.96" y="4.16" width="101.99" height="7.52"/>
  <rect fill="white" x="1144.95" y="270.31" width="140.74" height="8.2"/>
  <rect fill="#FFC65E" x="1187.9" y="293.15" width="26.26" height="18.15"/>
  <rect fill="#FFC65E" x="1218.98" y="293.15" width="26.26" height="18.15"/>
  <polygon fill="#FFC65E" points="1156.67,282.13 1274.86,282.13 1274.86,311.6 1249.85,311.6 1249.89,288.46 1183.19,288.61 1183.22,311.6 1156.67,311.6 "/>
  <rect fill="#66E4FF" x="1156.97" y="31.33" width="25.77" height="72.28"/>
  <rect fill="#66E4FF" x="1188.19" y="31.33" width="25.77" height="72.28"/>
  <rect fill="#66E4FF" x="1218.06" y="31.33" width="25.77" height="72.28"/>
  <rect fill="#66E4FF" x="1249.29" y="31.33" width="25.77" height="72.28"/>
  <rect fill="#66E4FF" x="1156.97" y="109.03" width="25.77" height="83.1"/>
  <rect fill="#66E4FF" x="1188.19" y="109.03" width="25.77" height="83.1"/>
  <rect fill="#66E4FF" x="1218.06" y="109.03" width="25.77" height="83.1"/>
  <rect fill="#66E4FF" x="1249.29" y="109.03" width="25.77" height="83.1"/>
  <rect fill="white" x="1145.07" y="15.72" width="141.82" height="10.78"/>
  <path fill="#414042" d="M1513.57 218.07c7.49,-9.92 23.21,-7.83 28.65,0.49 8.48,12.98 -0.38,28.49 -12.57,28.52l0.17 55.12 5.42 0.05 0 15.37 -15.71 0 0 -15.52 5.81 0 0.29 -55.06c-14.86,-0.87 -20.86,-17.29 -12.05,-28.97l-0.01 0z"/>
  <rect fill="white" x="1524.39" y="305.92" width="7.37" height="7.47"/>
  <ellipse fill="#66E4FF" cx="1527.55" cy="229.52" rx="13.97" ry="14.19"/>
  <path fill="#414042" d="M1635.43 218.34c7.48,-9.92 23.2,-7.83 28.64,0.49 8.48,12.98 -0.37,28.49 -12.56,28.54l0.17 55.11 5.42 0.05 0 15.36 -15.72 0 0 -15.51 5.81 0 0.29 -55.06c-14.85,-0.88 -20.86,-17.29 -12.05,-28.98l0 0z"/>
  <rect fill="white" x="1646.25" y="306.19" width="7.37" height="7.47"/>
  <ellipse fill="#66E4FF" cx="1649.4" cy="229.79" rx="13.97" ry="14.19"/>
  <polygon fill="#383637" points="1555.38,265.78 1625.66,265.78 1625.66,280.01 1616.57,280.04 1616.55,282.15 1625.66,282.13 1625.66,296.94 1616.53,296.85 1616.5,298 1630.47,298.16 1630.47,302.07 1620.4,301.99 1620.44,316.24 1615.41,316.24 1615.47,302.17 1564.53,302.17 1564.61,316.24 1559.56,316.24 1559.54,302.04 1549.63,301.96 1549.63,298.1 1563.51,298.16 1563.5,296.94 1555.38,296.89 1555.38,282.26 1563.48,282.28 1563.49,279.98 1555.38,280.01 "/>
  <rect fill="#FFB836" x="1559.6" y="269.99" width="61.1" height="5.84"/>
  <rect fill="#FFB836" x="1559.6" y="287.23" width="61.1" height="4.7"/>
  <rect fill="white" x="1568.65" y="279.95" width="43.73" height="2.15"/>
  <rect fill="white" x="1568.65" y="296.89" width="43.73" height="1.37"/>
  <path fill="#43556B" d="M1717.02 301.7l14.11 -0.01c4.47,21.86 38.42,18.54 38.59,-2.94l63.55 0.12c2.57,23.76 36.33,22.54 37.58,2.88l5.26 -0.05c7.29,-0.07 13.27,-5.97 13.27,-13.27l0 -28.99c0,-23.24 -19.02,-42.26 -42.27,-42.26l-2.2 0 -0.64 -5.56 -18.63 0 -0.68 5.56 -87.25 0c-11.38,0 -20.69,9.31 -20.69,20.68l0 63.84 0 0z"/>
  <path fill="#BEDEFF" d="M1875.11 289.38l9.68 0c-0.3,4.67 -4.31,7.83 -9.68,9.03l0 -9.03z"/>
  <rect fill="#BEDEFF" x="1722.48" y="289.53" width="5.18" height="8.45"/>
  <circle fill="white" cx="1750.44" cy="296.51" r="10.15"/>
  <circle fill="white" cx="1852.34" cy="296.51" r="10.15"/>
  <path fill="#CCCCCC" stroke="#CCCCCC" stroke-width="0.36" stroke-miterlimit="22.9256" d="M1748.19 310.47l4.59 0c0.46,0 0.83,0.37 0.83,0.83l0 0c0,0.45 -0.37,0.82 -0.83,0.82l-4.59 0.01c-0.46,-0.01 -0.83,-0.38 -0.83,-0.83l0 0c0,-0.46 0.37,-0.83 0.83,-0.83z"/>
  <path fill="#CCCCCC" stroke="#CCCCCC" stroke-width="0.36" stroke-miterlimit="22.9256" d="M1849.97 310.47l4.59 0c0.46,0 0.83,0.37 0.83,0.83l0 0c0,0.45 -0.37,0.82 -0.83,0.82l-4.59 0.01c-0.46,-0.01 -0.83,-0.38 -0.83,-0.83l0 0c0,-0.46 0.37,-0.83 0.83,-0.83z"/>
  <circle fill="#E6E6E6" cx="1866.83" cy="292.43" r="0.49" strok="#43556B"/>
  <circle fill="#CCCCCC" stroke="#666666" stroke-width="0.8" stroke-miterlimit="22.9256" cx="1866.93" cy="300.44" r="0.49"/>
  <circle fill="#E6E6E6" stroke="#666666" stroke-width="0.8" stroke-miterlimit="22.9256" cx="1837.85" cy="293.31" r="0.49"/>
  <circle fill="#B3B3B3" stroke="#666666" stroke-width="0.8" stroke-miterlimit="22.9256" cx="1837.9" cy="299.27" r="0.49"/>
  <path fill="#CCCCCC" stroke="#CCCCCC" stroke-width="0.36" stroke-miterlimit="22.9256" d="M1722.11 280.63l0 -4.59c-0.01,-0.46 0.37,-0.84 0.82,-0.84l0.01 0.01c0.45,-0.01 0.82,0.37 0.82,0.82l0.01 4.6c-0.01,0.45 -0.38,0.82 -0.84,0.82l0.01 0c-0.46,0 -0.84,-0.37 -0.84,-0.83z"/>
  <circle fill="#CCCCCC" stroke="#666666" stroke-width="0.8" stroke-miterlimit="22.9256" cx="1754.95" cy="282.34" r="0.49"/>
  <circle fill="#CCCCCC" stroke="#666666" stroke-width="0.8" stroke-miterlimit="22.9256" cx="1765.29" cy="293.56" r="0.49"/>
  <circle fill="#CCCCCC" stroke="#666666" stroke-width="0.8" stroke-miterlimit="22.9256" cx="1736.21" cy="291.9" r="0.49"/>
  <circle fill="#CCCCCC" stroke="#666666" stroke-width="0.8" stroke-miterlimit="22.9256" cx="1735.92" cy="300.49" r="0.49"/>
  <path fill="#BEDEFF" d="M1741.29 227.3l26.93 0c4.89,0 8.89,4 8.89,8.88l0 19.53c0,4.89 -4,8.89 -8.89,8.89l-26.93 0c-4.89,0 -8.89,-4 -8.89,-8.89l0 -19.53c0,-4.88 4,-8.88 8.89,-8.88zm52.99 0l21.18 0c4.89,0 8.89,4 8.89,8.88l0 19.53c0,4.89 -4,8.89 -8.89,8.89l-21.18 0c-4.88,0 -8.88,-4 -8.88,-8.89l0 -19.53c0,-4.88 4,-8.88 8.88,-8.88zm36.01 -0.49l15.01 0c18.81,0 33.99,17.3 33.99,35.79l0 2.2 -49 0 0 -37.99zm-7.7 38.61l0 12.51c-3.06,0.39 -5.87,-2.96 -5.37,-6.01 0.53,-3.23 2.26,-5.35 5.37,-6.49l0 -0.01zm-93.76 6.64l0.01 13.46c4.77,-15.13 39.4,-21.32 45.72,8.32l53.91 0.02c5.42,-27.92 36.95,-26.11 44.76,-9.05l11.84 0 0 -24.3c0,-21.5 -19.13,-39.08 -40.84,-39.08l-102.21 0c-13.46,0 -19.33,7.39 -19.33,19.13l0 31.64 6.15 -0.14 -0.01 0z"/>
  <path fill="white" d="M1744.53 231.79l20.45 0c3.72,-0.01 6.75,3.01 6.75,6.74l0 14.81c0,3.72 -3.03,6.75 -6.75,6.75l-20.45 0c-3.72,0 -6.74,-3.03 -6.74,-6.75l0 -14.81c0,-3.73 3.02,-6.75 6.74,-6.75z"/>
  <path fill="white" d="M1795.69 232.08l18.17 0c3.31,-0.01 6,3.01 6,6.74l0 14.81c0,3.72 -2.69,6.75 -6,6.75l-18.17 0c-3.31,0 -5.99,-3.03 -5.99,-6.75l0 -14.81c0,-3.73 2.68,-6.75 5.99,-6.75z"/>
  <path fill="white" d="M1835.47 231.79l12.48 0c11.41,0 26.03,14.08 26.03,27.3l0 1.68 -38.51 0 0 -28.98z"/>
  <circle fill="#E6E6E6" cx="78.93" cy="-469.68" r="4.78" strok="#43556B"/>
  <path fill="white" fill-rule="nonzero" d="M266.15 67.29c-0.14,0.06 -0.25,0.16 -0.31,0.27 -0.04,0.08 -0.06,0.47 -0.06,1.71l0 1.6 -0.26 0.05c-0.25,0.05 -0.48,0.12 -0.95,0.27 -0.44,0.15 -0.63,0.22 -0.99,0.4 -2.09,1.02 -3.52,2.87 -3.77,4.91 -0.05,0.4 -0.04,1.46 0.02,1.8 0.04,0.26 0.23,0.93 0.35,1.24 0.22,0.64 0.63,1.21 1.35,1.94 0.76,0.75 2.01,1.54 3.41,2.13 0.22,0.09 0.48,0.2 0.57,0.24 0.1,0.04 0.56,0.23 1.03,0.42 0.46,0.19 0.91,0.37 0.99,0.4 0.08,0.03 0.22,0.09 0.31,0.13 0.42,0.17 1.63,0.79 1.89,0.96 0.52,0.33 0.94,0.84 1.13,1.35 0.17,0.46 0.11,1.19 -0.14,1.73 -0.36,0.76 -1.32,1.38 -2.46,1.59 -0.33,0.05 -1.29,0.06 -1.62,0.01 -0.35,-0.07 -0.45,-0.09 -0.78,-0.17 -1.26,-0.32 -2.45,-0.94 -3.58,-1.87 -0.38,-0.33 -0.45,-0.36 -0.6,-0.36 -0.1,0 -0.23,0.04 -0.29,0.09 -0.16,0.11 -1.97,2.47 -2,2.61 -0.08,0.33 0.2,0.68 1.11,1.36 1.41,1.05 2.76,1.67 4.55,2.08 0.04,0.01 0.18,0.03 0.31,0.05 0.13,0.02 0.25,0.04 0.27,0.05 0.02,0 0.06,0.01 0.09,0.01 0.05,0 0.06,0.29 0.06,1.51 -0.01,0.83 0.01,1.56 0.03,1.63 0.01,0.06 0.09,0.18 0.16,0.25l0.14 0.13 1.31 0.01c1.19,0.01 1.34,0.01 1.48,-0.06 0.27,-0.14 0.28,-0.17 0.28,-1.9l0 -1.55 0.29 -0.06c0.66,-0.13 1.46,-0.4 2.01,-0.68 0.28,-0.14 0.98,-0.57 1.04,-0.63 0.01,-0.01 0.12,-0.1 0.24,-0.19 0.36,-0.28 0.94,-0.89 1.26,-1.32 0.34,-0.46 0.8,-1.36 0.96,-1.9 0.2,-0.66 0.3,-1.31 0.3,-1.99 0,-0.33 -0.04,-0.97 -0.07,-1.02 -0.01,-0.01 -0.03,-0.12 -0.05,-0.22 -0.05,-0.32 -0.35,-1.17 -0.54,-1.55 -0.41,-0.77 -1.19,-1.55 -2.25,-2.25 -0.39,-0.25 -1.7,-0.91 -2.31,-1.16 -0.22,-0.08 -0.48,-0.19 -0.58,-0.24 -0.11,-0.04 -0.21,-0.08 -0.22,-0.08 -0.03,0 -0.16,-0.05 -0.3,-0.11 -0.14,-0.06 -0.58,-0.22 -0.96,-0.37 -1.76,-0.7 -2.57,-1.14 -3.24,-1.79 -0.46,-0.44 -0.63,-0.8 -0.65,-1.42 -0.02,-0.49 0.02,-0.7 0.22,-1.1 0.38,-0.78 1.37,-1.4 2.48,-1.57 0.35,-0.06 1.43,-0.06 1.79,0 0.46,0.07 1.21,0.29 1.65,0.47 0.55,0.23 1.57,0.82 1.78,1.02 0.03,0.03 0.07,0.06 0.09,0.06 0.02,0 0.09,0.06 0.16,0.13 0.19,0.17 0.3,0.22 0.49,0.22 0.22,0 0.41,-0.12 0.52,-0.33 0.04,-0.1 0.13,-0.26 0.2,-0.37 0.06,-0.11 0.18,-0.32 0.27,-0.48 0.08,-0.16 0.33,-0.61 0.55,-1.01 0.49,-0.88 0.49,-0.94 0.17,-1.28 -0.43,-0.43 -1.3,-1.02 -2.05,-1.37 -0.64,-0.3 -1.71,-0.66 -2.34,-0.77 -0.06,-0.01 -0.14,-0.03 -0.18,-0.04 -0.04,-0.02 -0.17,-0.03 -0.29,-0.05 -0.12,-0.01 -0.27,-0.04 -0.33,-0.04l-0.11 -0.03 0 -1.58c0,-1.48 -0.01,-1.59 -0.09,-1.71 -0.15,-0.23 -0.25,-0.24 -1.62,-0.24 -0.69,0 -1.29,0.01 -1.32,0.03l0 0 0 0z"/>
  <path fill="white" fill-rule="nonzero" d="M479.32 48.35c-0.13,0.06 -0.25,0.16 -0.31,0.27 -0.04,0.08 -0.05,0.47 -0.06,1.71l0 1.6 -0.25 0.05c-0.26,0.05 -0.48,0.12 -0.95,0.27 -0.45,0.14 -0.64,0.22 -1,0.4 -2.09,1.02 -3.51,2.87 -3.77,4.91 -0.05,0.4 -0.04,1.46 0.03,1.8 0.04,0.26 0.23,0.93 0.34,1.24 0.23,0.64 0.64,1.21 1.36,1.94 0.75,0.75 2,1.54 3.41,2.13 0.22,0.09 0.47,0.2 0.57,0.24 0.09,0.04 0.56,0.23 1.02,0.42 0.47,0.19 0.92,0.37 1,0.4 0.07,0.03 0.21,0.09 0.3,0.13 0.42,0.17 1.64,0.79 1.9,0.96 0.51,0.33 0.93,0.84 1.13,1.35 0.17,0.46 0.1,1.19 -0.15,1.73 -0.35,0.76 -1.32,1.38 -2.46,1.59 -0.33,0.05 -1.28,0.06 -1.61,0.01 -0.36,-0.07 -0.46,-0.09 -0.78,-0.17 -1.27,-0.32 -2.45,-0.94 -3.58,-1.87 -0.38,-0.33 -0.45,-0.36 -0.61,-0.36 -0.1,0 -0.23,0.04 -0.29,0.09 -0.15,0.11 -1.96,2.47 -2,2.61 -0.08,0.33 0.21,0.68 1.12,1.36 1.41,1.05 2.75,1.67 4.55,2.08 0.03,0.01 0.17,0.03 0.3,0.05 0.13,0.02 0.26,0.04 0.28,0.05 0.02,0 0.06,0 0.09,0.01 0.04,0 0.05,0.29 0.05,1.51 0,0.83 0.01,1.56 0.03,1.63 0.02,0.06 0.09,0.18 0.17,0.25l0.13 0.13 1.32 0.01c1.19,0.01 1.33,0.01 1.47,-0.06 0.28,-0.14 0.28,-0.17 0.28,-1.9l0.01 -1.55 0.28 -0.06c0.66,-0.13 1.46,-0.4 2.02,-0.68 0.28,-0.14 0.98,-0.57 1.04,-0.63 0.01,-0.01 0.12,-0.1 0.24,-0.19 0.35,-0.28 0.94,-0.89 1.25,-1.32 0.35,-0.46 0.81,-1.36 0.96,-1.9 0.21,-0.66 0.3,-1.31 0.31,-1.99 0,-0.33 -0.05,-0.97 -0.08,-1.02 -0.01,-0.01 -0.02,-0.12 -0.04,-0.22 -0.05,-0.32 -0.35,-1.17 -0.55,-1.55 -0.41,-0.77 -1.18,-1.55 -2.25,-2.25 -0.38,-0.25 -1.7,-0.91 -2.31,-1.16 -0.21,-0.08 -0.48,-0.19 -0.58,-0.24 -0.1,-0.04 -0.2,-0.08 -0.22,-0.08 -0.02,0 -0.15,-0.05 -0.3,-0.11 -0.14,-0.06 -0.57,-0.22 -0.95,-0.37 -1.77,-0.7 -2.58,-1.14 -3.25,-1.79 -0.46,-0.44 -0.62,-0.8 -0.65,-1.42 -0.01,-0.49 0.03,-0.7 0.23,-1.1 0.37,-0.78 1.36,-1.4 2.47,-1.57 0.36,-0.06 1.44,-0.06 1.79,0 0.46,0.07 1.21,0.29 1.66,0.47 0.54,0.23 1.56,0.82 1.78,1.02 0.03,0.03 0.07,0.06 0.08,0.06 0.02,0 0.1,0.06 0.17,0.13 0.18,0.17 0.29,0.22 0.49,0.22 0.21,0 0.4,-0.12 0.51,-0.33 0.05,-0.1 0.14,-0.26 0.2,-0.37 0.06,-0.11 0.18,-0.32 0.27,-0.48 0.09,-0.16 0.34,-0.61 0.55,-1.01 0.5,-0.88 0.5,-0.94 0.17,-1.28 -0.42,-0.43 -1.29,-1.02 -2.04,-1.37 -0.65,-0.3 -1.72,-0.66 -2.35,-0.77 -0.06,-0.01 -0.13,-0.03 -0.17,-0.04 -0.04,-0.02 -0.17,-0.03 -0.3,-0.05 -0.12,-0.01 -0.26,-0.04 -0.32,-0.04l-0.11 -0.03 -0.01 -1.58c0,-1.48 0,-1.59 -0.08,-1.71 -0.15,-0.23 -0.25,-0.24 -1.63,-0.24 -0.69,0 -1.28,0.01 -1.32,0.03l0 0 0 0z"/>
  <path fill="#04D16A" fill-rule="nonzero" d="M1753.86 234.33c-0.1,0.04 -0.19,0.13 -0.24,0.21 -0.03,0.06 -0.04,0.36 -0.04,1.3l0 1.22 -0.2 0.04c-0.19,0.03 -0.36,0.08 -0.72,0.2 -0.34,0.11 -0.48,0.17 -0.76,0.3 -1.59,0.78 -2.67,2.19 -2.87,3.73 -0.03,0.31 -0.02,1.12 0.02,1.38 0.04,0.19 0.18,0.7 0.27,0.94 0.17,0.49 0.48,0.92 1.03,1.48 0.57,0.57 1.52,1.17 2.59,1.62 0.17,0.07 0.36,0.15 0.44,0.18 0.07,0.03 0.42,0.18 0.78,0.32 0.35,0.14 0.69,0.28 0.75,0.3 0.06,0.03 0.17,0.07 0.24,0.1 0.32,0.13 1.24,0.6 1.44,0.73 0.39,0.26 0.71,0.64 0.85,1.03 0.13,0.35 0.09,0.91 -0.1,1.31 -0.28,0.58 -1.01,1.06 -1.88,1.21 -0.25,0.05 -0.97,0.05 -1.22,0.01 -0.28,-0.05 -0.35,-0.07 -0.6,-0.13 -0.96,-0.24 -1.86,-0.71 -2.72,-1.42 -0.29,-0.25 -0.34,-0.27 -0.46,-0.27 -0.08,0 -0.18,0.03 -0.22,0.06 -0.12,0.09 -1.5,1.89 -1.52,1.99 -0.07,0.26 0.15,0.52 0.84,1.04 1.08,0.8 2.1,1.27 3.47,1.58 0.02,0 0.13,0.02 0.23,0.04 0.1,0.01 0.19,0.03 0.21,0.03 0.01,0 0.04,0.01 0.07,0.01 0.03,0.01 0.04,0.22 0.04,1.15 0,0.63 0,1.19 0.02,1.24 0.01,0.05 0.07,0.14 0.12,0.19l0.11 0.1 1 0.01c0.9,0.01 1.01,0 1.12,-0.05 0.21,-0.11 0.21,-0.13 0.21,-1.44l0.01 -1.19 0.21 -0.04c0.5,-0.1 1.11,-0.31 1.54,-0.52 0.21,-0.1 0.74,-0.43 0.79,-0.48 0.01,0 0.09,-0.07 0.18,-0.14 0.27,-0.21 0.72,-0.68 0.96,-1 0.26,-0.35 0.61,-1.04 0.73,-1.45 0.15,-0.5 0.22,-0.99 0.23,-1.51 0,-0.25 -0.04,-0.74 -0.06,-0.78 -0.01,-0.01 -0.02,-0.09 -0.03,-0.17 -0.04,-0.24 -0.27,-0.88 -0.42,-1.17 -0.31,-0.59 -0.9,-1.19 -1.71,-1.71 -0.29,-0.19 -1.29,-0.7 -1.76,-0.89 -0.16,-0.06 -0.36,-0.15 -0.44,-0.18 -0.08,-0.03 -0.15,-0.07 -0.17,-0.07 -0.01,0 -0.11,-0.03 -0.22,-0.07 -0.11,-0.05 -0.44,-0.17 -0.73,-0.29 -1.34,-0.53 -1.96,-0.86 -2.47,-1.36 -0.35,-0.33 -0.47,-0.61 -0.49,-1.08 -0.02,-0.37 0.02,-0.53 0.17,-0.84 0.28,-0.59 1.04,-1.06 1.88,-1.19 0.27,-0.05 1.09,-0.05 1.36,0 0.35,0.05 0.92,0.22 1.26,0.36 0.42,0.17 1.19,0.62 1.36,0.78 0.02,0.02 0.05,0.04 0.06,0.04 0.02,0 0.07,0.04 0.13,0.1 0.14,0.13 0.22,0.16 0.37,0.16 0.16,0 0.31,-0.09 0.39,-0.25 0.04,-0.07 0.1,-0.19 0.15,-0.28 0.05,-0.08 0.14,-0.24 0.21,-0.36 0.06,-0.12 0.25,-0.47 0.42,-0.77 0.37,-0.67 0.37,-0.71 0.13,-0.97 -0.33,-0.33 -0.99,-0.78 -1.56,-1.05 -0.49,-0.23 -1.3,-0.5 -1.78,-0.59 -0.05,0 -0.11,-0.02 -0.14,-0.03 -0.03,-0.01 -0.13,-0.02 -0.22,-0.03 -0.09,-0.01 -0.2,-0.03 -0.25,-0.04l-0.08 -0.02 -0.01 -1.2c0,-1.12 0,-1.21 -0.06,-1.3 -0.12,-0.17 -0.19,-0.18 -1.24,-0.18 -0.52,0 -0.98,0.01 -1,0.02l0 0 0 0z"/>
 </g>
</svg>
