<?xml version="1.0" encoding="UTF-8"?>
<!DOCTYPE svg PUBLIC "-//W3C//DTD SVG 1.1//EN" "http://www.w3.org/Graphics/SVG/1.1/DTD/svg11.dtd">
<!-- Creator: CorelDRAW 2020 (64-Bit) -->
<svg xmlns="http://www.w3.org/2000/svg" xml:space="preserve" width="100px" height="296px" version="1.1" shape-rendering="geometricPrecision" text-rendering="geometricPrecision" image-rendering="optimizeQuality" fill-rule="evenodd" clip-rule="evenodd"
viewBox="0 0 100 296"
 xmlns:xlink="http://www.w3.org/1999/xlink"
 xmlns:xodm="http://www.corel.com/coreldraw/odm/2003">
 <g id="Слой_x0020_1">
  <metadata id="CorelCorpID_0Corel-Layer"/>
  <polygon fill="#414042" points="0.63,32.09 48.35,32.09 48.28,0.2 53.33,0.19 53.45,32.09 99.79,32.09 99.79,295.8 0.63,295.8 "/>
  <path fill="white" d="M6.06 37.48l89.03 0 0 230.78 -89.03 0 0 -230.78zm4.5 9.05l79.54 0 0 4.68 -79.54 0 0 -4.68zm0 7.9l79.54 0 0 4.69 -79.54 0 0 -4.69zm0 8.11l79.54 0 0 3.61 -79.54 0 0 -3.61zm0 7.07l79.54 0 0 4.34 -79.54 0 0 -4.34zm0 8.22l79.54 0 0 4.35 -79.54 0 0 -4.35zm0 7.72l79.54 0 0 3.53 -79.54 0 0 -3.53zm0 6.91l79.54 0 0 4.43 -79.54 0 0 -4.43zm0 8.18l79.54 0 0 4.42 -79.54 0 0 -4.42zm0 7.8l79.54 0 0 3.58 -79.54 0 0 -3.58zm0 7.28l79.54 0 0 4.26 -79.54 0 0 -4.26zm0 7.94l79.54 0 0 4.27 -79.54 0 0 -4.27zm0 7.61l79.54 0 0 3.85 -79.54 0 0 -3.85zm0 7.65l79.54 0 0 4.26 -79.54 0 0 -4.26zm0 7.84l79.54 0 0 4.52 -79.54 0 0 -4.52zm0 7.32l79.54 0 0 4.27 -79.54 0 0 -4.27zm0 7.69l79.54 0 0 4.59 -79.54 0 0 -4.59zm0 7.76l79.54 0 0 4.57 -79.54 0 0 -4.57zm0 7.99l79.54 0 0 3.69 -79.54 0 0 -3.69zm0 6.88l79.54 0 0 4.28 -79.54 0 0 -4.28zm0 8.11l79.54 0 0 4.28 -79.54 0 0 -4.28zm0 8.1l79.54 0 0 3.59 -79.54 0 0 -3.59zm0 6.99l79.54 0 0 4.27 -79.54 0 0 -4.27zm0 8.19l79.54 0 0 4.29 -79.54 0 0 -4.29zm0 7.61l79.54 0 0 3.66 -79.54 0 0 -3.66zm0 6.99l79.54 0 0 4.29 -79.54 0 0 -4.29zm0 8.2l79.54 0 0 4.29 -79.54 0 0 -4.29zm0 7.73l79.54 0 0 3.66 -79.54 0 0 -3.66zm0 7.11l79.54 0 0 4.27 -79.54 0 0 -4.27zm0 8.09l79.54 0 0 4.29 -79.54 0 0 -4.29z"/>
  <path fill="white" d="M6.06 273.09l89.03 0 0 18.35 -89.03 0 0 -18.35zm28.5 1.36l27.73 0 0 16.99 -3.47 0 -0.03 -12.2 -8.45 0.01 -0.01 12.18 -3.61 0 0.02 -12.21 -8.61 -0.01 0.05 12.23 -3.61 0 0 -16.99 -0.01 0z"/>
 </g>
</svg>
