<?xml version="1.0" encoding="UTF-8"?>
<!DOCTYPE svg PUBLIC "-//W3C//DTD SVG 1.1//EN" "http://www.w3.org/Graphics/SVG/1.1/DTD/svg11.dtd">
<!-- Creator: CorelDRAW 2020 (64-Bit) -->
<svg xmlns="http://www.w3.org/2000/svg" xml:space="preserve" width="227px" height="146px" version="1.1" shape-rendering="geometricPrecision" text-rendering="geometricPrecision" image-rendering="optimizeQuality" fill-rule="evenodd" clip-rule="evenodd"
viewBox="0 0 227 146"
 xmlns:xlink="http://www.w3.org/1999/xlink"
 xmlns:xodm="http://www.corel.com/coreldraw/odm/2003">
 <g id="Слой_x0020_1">
  <metadata id="CorelCorpID_0Corel-Layer"/>
  <polygon fill="#414042" points="217.85,145.86 9.37,145.86 9.37,32.47 -0.39,32.43 -0.39,17.02 9.37,16.9 9.37,7.88 47.07,7.81 47.11,0.19 177,0.19 176.91,8.1 216.05,8.2 216.07,16.25 226.2,16.25 226.25,31.04 217.85,31.14 "/>
  <rect fill="white" x="52.11" y="4" width="121.02" height="4.49"/>
  <rect fill="white" x="14.02" y="13.18" width="196.97" height="3.32"/>
  <rect fill="#FFB836" x="23.52" y="20.98" width="197.45" height="6.45"/>
  <rect fill="#BC8A2F" x="5.73" y="20.98" width="23.67" height="6.45"/>
  <rect fill="#ABABAB" x="14.02" y="13.18" width="15.37" height="3.32"/>
  <rect fill="#E6E7E8" x="13.58" y="31.09" width="200.66" height="110.69"/>
  <rect fill="#ABABAB" x="13.58" y="31.09" width="15.81" height="110.68"/>
  <rect fill="#414042" x="29.34" y="38.17" width="30.4" height="39.87"/>
  <rect fill="#66E4FF" x="34.27" y="43.12" width="21.77" height="29.86"/>
  <rect fill="#414042" x="23.51" y="79.53" width="42.19" height="3.22"/>
  <rect fill="#383637" x="23.5" y="79.53" width="5.89" height="3.22"/>
  <rect fill="#414042" x="29.34" y="87.55" width="30.4" height="39.87"/>
  <rect fill="#66E4FF" x="34.27" y="92.51" width="21.77" height="29.86"/>
  <rect fill="#414042" x="23.51" y="128.91" width="42.19" height="3.22"/>
  <rect fill="#383637" x="23.5" y="128.91" width="5.89" height="3.22"/>
  <rect fill="#414042" x="97.08" y="87.55" width="30.4" height="39.87"/>
  <rect fill="#66E4FF" x="102.01" y="92.51" width="21.77" height="29.86"/>
  <rect fill="#414042" x="91.24" y="128.91" width="42.19" height="3.22"/>
  <rect fill="#414042" x="97.08" y="38.36" width="30.4" height="39.87"/>
  <rect fill="#66E4FF" x="102.01" y="43.32" width="21.77" height="29.86"/>
  <rect fill="#414042" x="91.24" y="79.72" width="42.19" height="3.22"/>
  <rect fill="#414042" x="163.45" y="38.36" width="30.4" height="39.87"/>
  <rect fill="#66E4FF" x="168.37" y="43.32" width="21.77" height="29.86"/>
  <rect fill="#414042" x="157.61" y="79.72" width="42.19" height="3.22"/>
  <rect fill="#414042" x="163.45" y="87.75" width="30.4" height="39.87"/>
  <rect fill="#66E4FF" x="168.37" y="92.7" width="21.77" height="29.86"/>
  <rect fill="#414042" x="157.61" y="129.11" width="42.19" height="3.22"/>
 </g>
</svg>
