<?xml version="1.0" encoding="UTF-8"?>
<!DOCTYPE svg PUBLIC "-//W3C//DTD SVG 1.1//EN" "http://www.w3.org/Graphics/SVG/1.1/DTD/svg11.dtd">
<!-- Creator: CorelDRAW 2020 (64-Bit) -->
<svg xmlns="http://www.w3.org/2000/svg" xml:space="preserve" width="152px" height="316px" version="1.1" shape-rendering="geometricPrecision" text-rendering="geometricPrecision" image-rendering="optimizeQuality" fill-rule="evenodd" clip-rule="evenodd"
viewBox="0 0 152 316"
 xmlns:xlink="http://www.w3.org/1999/xlink"
 xmlns:xodm="http://www.corel.com/coreldraw/odm/2003">
 <g id="Слой_x0020_1">
  <metadata id="CorelCorpID_0Corel-Layer"/>
  <polygon fill="#414042" points="20.88,10.98 20.89,0.28 131.66,0.28 131.71,11.11 150.65,11.14 150.69,31.03 138.39,31.08 138.39,264.93 149.87,264.93 149.82,281.8 138.39,281.82 138.39,315.73 12.86,315.73 12.86,281.71 -0.42,281.82 -0.36,265.14 12.86,265.03 12.86,31.08 0.98,31 1.04,11 "/>
  <rect fill="#66E4FF" x="16.71" y="195.95" width="25.77" height="69.17"/>
  <rect fill="#66E4FF" x="47.94" y="195.95" width="25.77" height="69.17"/>
  <rect fill="#66E4FF" x="77.81" y="195.95" width="25.77" height="69.17"/>
  <rect fill="#66E4FF" x="109.04" y="195.95" width="25.77" height="69.17"/>
  <rect fill="white" x="24.71" y="3.78" width="101.99" height="7.52"/>
  <rect fill="white" x="4.7" y="269.93" width="140.74" height="8.2"/>
  <rect fill="#FFC65E" x="47.65" y="292.77" width="26.26" height="18.15"/>
  <rect fill="#FFC65E" x="78.73" y="292.77" width="26.26" height="18.15"/>
  <polygon fill="#FFC65E" points="16.42,281.75 134.61,281.75 134.61,311.22 109.6,311.22 109.64,288.08 42.94,288.23 42.97,311.22 16.42,311.22 "/>
  <rect fill="#66E4FF" x="16.71" y="30.95" width="25.77" height="72.28"/>
  <rect fill="#66E4FF" x="47.94" y="30.95" width="25.77" height="72.28"/>
  <rect fill="#66E4FF" x="77.81" y="30.95" width="25.77" height="72.28"/>
  <rect fill="#66E4FF" x="109.04" y="30.95" width="25.77" height="72.28"/>
  <rect fill="#66E4FF" x="16.71" y="108.65" width="25.77" height="83.1"/>
  <rect fill="#66E4FF" x="47.94" y="108.65" width="25.77" height="83.1"/>
  <rect fill="#66E4FF" x="77.81" y="108.65" width="25.77" height="83.1"/>
  <rect fill="#66E4FF" x="109.04" y="108.65" width="25.77" height="83.1"/>
  <rect fill="white" x="4.82" y="15.34" width="141.82" height="10.78"/>
 </g>
</svg>
