<?xml version="1.0" encoding="UTF-8"?>
<!DOCTYPE svg PUBLIC "-//W3C//DTD SVG 1.1//EN" "http://www.w3.org/Graphics/SVG/1.1/DTD/svg11.dtd">
<!-- Creator: CorelDRAW 2020 (64-Bit) -->
<svg xmlns="http://www.w3.org/2000/svg" xml:space="preserve" width="72px" height="138px" version="1.1" shape-rendering="geometricPrecision" text-rendering="geometricPrecision" image-rendering="optimizeQuality" fill-rule="evenodd" clip-rule="evenodd"
viewBox="0 0 72 138"
 xmlns:xlink="http://www.w3.org/1999/xlink"
 xmlns:xodm="http://www.corel.com/coreldraw/odm/2003">
 <g id="Слой_x0020_1">
  <metadata id="CorelCorpID_0Corel-Layer"/>
  <polygon fill="#414042" points="71.64,25.83 36.99,0.35 0.39,25.83 0.39,137.67 71.64,137.67 "/>
  <polygon fill="#383637" points="0.39,25.83 23.82,9.52 23.82,137.67 0.39,137.67 "/>
  <polygon fill="#E6E7E8" points="37.09,6.55 63.2,25.1 10.59,25.1 "/>
  <polygon fill="#9C9C9D" points="23.83,15.82 23.81,25.1 10.58,25.1 "/>
  <rect fill="#E6E7E8" x="4.8" y="28.8" width="61.88" height="103.85"/>
  <rect fill="#9C9C9D" x="4.8" y="28.8" width="19.02" height="103.85"/>
  <path fill="#414042" d="M43.4 40.52l12.88 0c0.9,0 1.61,0.72 1.61,1.6l0 13.19c0,0.89 -0.71,1.61 -1.6,1.61l-12.89 0c-0.89,0 -1.61,-0.72 -1.61,-1.61l0 -13.18c0,-0.89 0.72,-1.61 1.61,-1.61z"/>
  <path fill="#FFB836" d="M46.73 44.74l5.22 0c0.6,-0.01 1.08,0.44 1.08,0.99l0 5.23c0,0.55 -0.48,1 -1.07,1l-5.23 0c-0.59,0 -1.07,-0.45 -1.07,-1l0 -5.23c0,-0.55 0.48,-1 1.07,-1z"/>
  <path fill="#414042" d="M17.37 40.52l12.89 0c0.89,0 1.61,0.72 1.61,1.6l0 13.19c0,0.89 -0.72,1.61 -1.61,1.61l-12.89 0c-0.88,0 -1.6,-0.72 -1.6,-1.61l-0.01 -13.18c0.01,-0.89 0.73,-1.61 1.62,-1.61z"/>
  <path fill="#383637" d="M16.57 40.52l7.25 0 0 16.4 -7.25 0c-0.45,0 -0.81,-0.37 -0.81,-0.81l0 -14.79c0,-0.44 0.36,-0.8 0.81,-0.8z"/>
  <path fill="#FFB836" d="M20.69 44.74l5.23 0c0.59,-0.01 1.07,0.44 1.07,0.99l0 5.23c0,0.55 -0.48,1 -1.07,1l-5.23 0c-0.58,0 -1.06,-0.45 -1.06,-1l-0.01 -5.23c0.01,-0.55 0.49,-1 1.08,-1z"/>
  <path fill="#414042" d="M43.4 62.53l12.88 0c0.9,-0.01 1.61,0.71 1.61,1.6l0 13.19c0,0.88 -0.71,1.6 -1.6,1.6l-12.89 0.01c-0.89,-0.01 -1.61,-0.73 -1.61,-1.62l0 -13.18c0,-0.89 0.72,-1.61 1.61,-1.61z"/>
  <path fill="#FFB836" d="M46.73 66.75l5.22 0c0.6,0 1.08,0.45 1.08,1l0 5.23c0,0.55 -0.48,1 -1.07,1l-5.23 0c-0.59,0 -1.07,-0.45 -1.07,-1l0 -5.23c0,-0.55 0.48,-1 1.07,-1z"/>
  <path fill="#414042" d="M17.37 62.53l12.89 0c0.89,-0.01 1.61,0.71 1.61,1.6l0 13.19c0,0.88 -0.72,1.6 -1.61,1.6l-12.89 0.01c-0.88,-0.01 -1.6,-0.73 -1.6,-1.62l-0.01 -13.18c0.01,-0.89 0.73,-1.61 1.62,-1.61z"/>
  <path fill="#FFB836" d="M20.69 66.75l5.23 0c0.59,0 1.07,0.45 1.07,1l0 5.23c0,0.55 -0.48,1 -1.07,1l-5.23 0c-0.58,0 -1.06,-0.45 -1.06,-1l-0.01 -5.23c0.01,-0.55 0.49,-1 1.08,-1z"/>
  <path fill="#414042" d="M43.4 83.7l12.88 0c0.9,0 1.61,0.72 1.61,1.61l0 13.18c0,0.89 -0.71,1.61 -1.6,1.61l-12.89 0.01c-0.89,-0.01 -1.61,-0.73 -1.61,-1.62l0 -13.18c0,-0.89 0.72,-1.61 1.61,-1.61z"/>
  <path fill="#FFB836" d="M46.73 87.93l5.22 0c0.6,0 1.08,0.45 1.08,1l0 5.23c0,0.55 -0.48,1 -1.07,1l-5.23 0c-0.59,0 -1.07,-0.45 -1.07,-1l0 -5.23c0,-0.55 0.48,-1 1.07,-1z"/>
  <path fill="#414042" d="M17.37 83.7l12.89 0c0.89,0 1.61,0.72 1.61,1.61l0 13.18c0,0.89 -0.72,1.61 -1.61,1.61l-12.89 0.01c-0.88,-0.01 -1.6,-0.73 -1.6,-1.62l-0.01 -13.18c0.01,-0.89 0.73,-1.61 1.62,-1.61z"/>
  <path fill="#FFB836" d="M20.69 87.93l5.23 0c0.59,0 1.07,0.45 1.07,1l0 5.23c0,0.55 -0.48,1 -1.07,1l-5.23 0c-0.58,0 -1.06,-0.45 -1.06,-1l-0.01 -5.23c0.01,-0.55 0.49,-1 1.08,-1z"/>
  <path fill="#414042" d="M43.4 105.76l12.88 0c0.9,0 1.61,0.72 1.61,1.61l0 13.18c0,0.89 -0.71,1.61 -1.6,1.61l-12.89 0c-0.89,0 -1.61,-0.72 -1.61,-1.61l0 -13.18c0,-0.89 0.72,-1.61 1.61,-1.61z"/>
  <path fill="#FFB836" d="M46.73 109.99l5.22 0c0.6,0 1.08,0.44 1.08,1l0 5.23c0,0.55 -0.48,0.99 -1.07,0.99l-5.23 0.01c-0.59,-0.01 -1.07,-0.45 -1.07,-1.01l0 -5.22c0,-0.56 0.48,-1 1.07,-1z"/>
  <path fill="#414042" d="M17.37 105.76l12.89 0c0.89,0 1.61,0.72 1.61,1.61l0 13.18c0,0.89 -0.72,1.61 -1.61,1.61l-12.89 0c-0.88,0 -1.6,-0.72 -1.6,-1.61l-0.01 -13.18c0.01,-0.89 0.73,-1.61 1.62,-1.61z"/>
  <path fill="#FFB836" d="M20.69 109.99l5.23 0c0.59,0 1.07,0.44 1.07,1l0 5.23c0,0.55 -0.48,0.99 -1.07,0.99l-5.23 0.01c-0.58,-0.01 -1.06,-0.45 -1.06,-1.01l-0.01 -5.22c0.01,-0.56 0.49,-1 1.08,-1z"/>
  <path fill="#BC8A2F" d="M20.23 44.74l3.59 0 0 7.22 -3.59 0c-0.33,0 -0.61,-0.26 -0.61,-0.6l0 -6.01c0,-0.33 0.28,-0.61 0.61,-0.61z"/>
  <path fill="#383637" d="M16.57 62.53l7.25 0 0 16.4 -7.25 0c-0.45,0 -0.81,-0.37 -0.81,-0.81l0 -14.78c0,-0.45 0.36,-0.81 0.81,-0.81z"/>
  <path fill="#BC8A2F" d="M20.23 66.75l3.59 0 0 7.22 -3.59 0c-0.33,0 -0.61,-0.27 -0.61,-0.6l0 -6.02c0,-0.33 0.28,-0.6 0.61,-0.6z"/>
  <path fill="#383637" d="M16.57 83.7l7.25 0 0 16.4 -7.25 0c-0.45,0 -0.81,-0.36 -0.81,-0.81l0 -14.78c0,-0.44 0.36,-0.81 0.81,-0.81z"/>
  <path fill="#BC8A2F" d="M20.23 87.93l3.59 0 0 7.22 -3.59 0c-0.33,0 -0.61,-0.27 -0.61,-0.6l0 -6.02c0,-0.33 0.28,-0.6 0.61,-0.6z"/>
  <path fill="#383637" d="M16.57 105.76l7.25 0 0 16.4 -7.25 0c-0.45,0 -0.81,-0.36 -0.81,-0.81l0 -14.78c0,-0.44 0.36,-0.81 0.81,-0.81z"/>
  <path fill="#BC8A2F" d="M20.23 109.99l3.59 0 0 7.21 -3.59 0c-0.33,0 -0.61,-0.26 -0.61,-0.59l0 -6.02c0,-0.33 0.28,-0.6 0.61,-0.6z"/>
 </g>
</svg>
