<?xml version="1.0" encoding="UTF-8"?>
<!DOCTYPE svg PUBLIC "-//W3C//DTD SVG 1.1//EN" "http://www.w3.org/Graphics/SVG/1.1/DTD/svg11.dtd">
<!-- Creator: CorelDRAW 2020 (64-Bit) -->
<svg xmlns="http://www.w3.org/2000/svg" xml:space="preserve" width="109px" height="225px" version="1.1" shape-rendering="geometricPrecision" text-rendering="geometricPrecision" image-rendering="optimizeQuality" fill-rule="evenodd" clip-rule="evenodd"
viewBox="0 0 109 225"
 xmlns:xlink="http://www.w3.org/1999/xlink"
 xmlns:xodm="http://www.corel.com/coreldraw/odm/2003">
 <g id="Слой_x0020_1">
  <metadata id="CorelCorpID_0Corel-Layer"/>
  <rect fill="#00D3FF" x="11.83" y="64.97" width="84.23" height="156"/>
  <rect fill="#07AFD2" x="28.93" y="69.82" width="52.8" height="151.14"/>
  <path fill="#414042" d="M100.51 225.22l-92.33 0 0 -160.44 -8.07 0 3.96 -33.82 27.84 -0.07 -0.01 -7.07 8.04 0.01 0.07 -22.99 4.8 0 0.18 23 2.94 0 -0.16 -14.19 5.17 -0.01 0.12 14.21 21.99 0.05 0.1 6.92 28.64 -0.04 4.03 33.98 -7.31 0.03 0 160.44 0 -0.01zm-88.68 -160.25l84.23 0 0 8 -84.23 0 0 -8zm0 12.82l84.23 0 0 1.85 -84.23 0 0 -1.85zm0 6.19l84.23 0 0 1.85 -84.23 0 0 -1.85zm0 6.93l84.23 0 0 1.86 -84.23 0 0 -1.86zm0 7.02l84.23 0 0 1.86 -84.23 0 0 -1.86zm0 5.96l84.23 0 0 1.86 -84.23 0 0 -1.86zm0 7.13l84.23 0 0 1.85 -84.23 0 0 -1.85zm0 5.85l84.23 0 0 2.98 -84.23 0 0 -2.98zm0 7.13l84.23 0 0 1.85 -84.23 0 0 -1.85zm0 7.02l84.23 0 0 1.85 -84.23 0 0 -1.85zm0 5.96l84.23 0 0 1.85 -84.23 0 0 -1.85zm0 6.93l84.23 0 0 1.86 -84.23 0 0 -1.86zm0 6.05l84.23 0 0 3.07 -84.23 0 0 -3.07zm0 6.83l84.23 0 0 1.86 -84.23 0 0 -1.86zm0 7.23l84.23 0 0 1.85 -84.23 0 0 -1.85zm0 5.94l84.23 0 0 1.86 -84.23 0 0 -1.86zm0 6.94l84.23 0 0 1.85 -84.23 0 0 -1.85zm0 5.95l84.23 0 0 3.07 -84.23 0 0 -3.07zm0 7.03l84.23 0 0 1.85 -84.23 0 0 -1.85zm0 7.12l84.23 0 0 1.86 -84.23 0 0 -1.86zm0 5.85l84.23 0 0 1.86 -84.23 0 0 -1.86zm0 7.04l84.23 0 0 1.85 -84.23 0 0 -1.85zm0 5.86l84.23 0 0 5.21 -84.23 0 0 -5.21z"/>
  <rect fill="#E6E7E8" x="36.68" y="27.46" width="33.43" height="3.71"/>
  <polygon fill="#E6E7E8" points="8.13,35.66 99.78,35.66 102.35,59.87 5.22,59.87 "/>
  <rect fill="#3B393B" x="28.93" y="72.97" width="52.8" height="4.81"/>
  <rect fill="#3B393B" x="28.93" y="79.64" width="52.8" height="4.35"/>
  <rect fill="#3B393B" x="28.93" y="85.83" width="52.8" height="5.08"/>
  <rect fill="#3B393B" x="28.93" y="92.77" width="52.8" height="5.17"/>
  <rect fill="#3B393B" x="28.93" y="99.79" width="52.8" height="4.1"/>
  <rect fill="#3B393B" x="28.93" y="105.75" width="52.8" height="5.27"/>
  <rect fill="#3B393B" x="28.93" y="112.87" width="52.8" height="4"/>
  <rect fill="#3B393B" x="28.93" y="119.85" width="52.8" height="4.15"/>
  <rect fill="#3B393B" x="28.93" y="125.85" width="52.8" height="5.17"/>
  <rect fill="#3B393B" x="28.93" y="132.87" width="52.8" height="4.1"/>
  <rect fill="#3B393B" x="28.93" y="138.83" width="52.8" height="5.08"/>
  <rect fill="#3B393B" x="28.93" y="145.76" width="52.8" height="4.2"/>
  <rect fill="#3B393B" x="28.93" y="153.03" width="52.8" height="3.76"/>
  <rect fill="#3B393B" x="28.93" y="158.65" width="52.8" height="5.37"/>
  <rect fill="#3B393B" x="28.93" y="165.86" width="52.8" height="4.1"/>
  <rect fill="#3B393B" x="28.93" y="171.82" width="52.8" height="5.08"/>
  <rect fill="#3B393B" x="28.93" y="178.75" width="52.8" height="4.1"/>
  <rect fill="#3B393B" x="28.93" y="185.92" width="52.8" height="3.95"/>
  <rect fill="#3B393B" x="28.93" y="191.73" width="52.8" height="5.27"/>
  <rect fill="#3B393B" x="28.93" y="198.86" width="52.8" height="4"/>
  <rect fill="#3B393B" x="28.93" y="204.71" width="52.8" height="5.18"/>
  <rect fill="#3B393B" x="28.93" y="211.74" width="52.8" height="4"/>
  <rect fill="#414042" x="33.7" y="68.51" width="43.34" height="152.45"/>
  <rect fill="white" x="37.8" y="72.97" width="34.75" height="148"/>
  <rect fill="#414042" x="40.23" y="77.78" width="29.47" height="11.86"/>
  <rect fill="white" x="44.82" y="81.59" width="21.04" height="4.24"/>
  <rect fill="#414042" x="40.23" y="93.29" width="29.47" height="11.86"/>
  <rect fill="white" x="44.82" y="97.1" width="21.04" height="4.24"/>
  <rect fill="#414042" x="40.23" y="109" width="29.47" height="11.86"/>
  <rect fill="white" x="44.82" y="112.8" width="21.04" height="4.24"/>
  <rect fill="#414042" x="40.23" y="125.09" width="29.47" height="11.86"/>
  <rect fill="white" x="44.82" y="128.91" width="21.04" height="4.24"/>
  <rect fill="#414042" x="40.23" y="140.33" width="29.47" height="11.86"/>
  <rect fill="white" x="44.82" y="144.14" width="21.04" height="4.24"/>
  <rect fill="#414042" x="40.23" y="155.94" width="29.47" height="11.86"/>
  <rect fill="white" x="44.82" y="159.76" width="21.04" height="4.24"/>
  <rect fill="#414042" x="40.23" y="171.75" width="29.47" height="11.86"/>
  <rect fill="white" x="44.82" y="175.57" width="21.04" height="4.24"/>
  <rect fill="#414042" x="40.23" y="187.27" width="29.47" height="11.86"/>
  <rect fill="white" x="44.82" y="191.09" width="21.04" height="4.24"/>
  <rect fill="#414042" x="40.23" y="202.79" width="29.47" height="11.86"/>
  <rect fill="white" x="44.82" y="206.6" width="21.04" height="4.24"/>
 </g>
</svg>
