<?xml version="1.0" encoding="UTF-8"?>
<!DOCTYPE svg PUBLIC "-//W3C//DTD SVG 1.1//EN" "http://www.w3.org/Graphics/SVG/1.1/DTD/svg11.dtd">
<!-- Creator: CorelDRAW 2020 (64-Bit) -->
<svg xmlns="http://www.w3.org/2000/svg" xml:space="preserve" width="213px" height="126px" version="1.1" shape-rendering="geometricPrecision" text-rendering="geometricPrecision" image-rendering="optimizeQuality" fill-rule="evenodd" clip-rule="evenodd"
viewBox="0 0 213 126"
 xmlns:xlink="http://www.w3.org/1999/xlink"
 xmlns:xodm="http://www.corel.com/coreldraw/odm/2003">
 <g id="Слой_x0020_1">
  <metadata id="CorelCorpID_0Corel-Layer"/>
  <rect fill="#414042" x="-0.07" y="0.51" width="211.99" height="124.93"/>
  <rect fill="#383637" x="-0.08" y="0.51" width="31.81" height="124.93"/>
  <rect fill="#00CCFF" x="21.01" y="5.59" width="12.88" height="11.51"/>
  <rect fill="#00CCFF" x="38.08" y="5.59" width="12.88" height="11.51"/>
  <rect fill="#00CCFF" x="55.95" y="5.59" width="12.88" height="11.51"/>
  <rect fill="#00CCFF" x="73.03" y="5.59" width="12.88" height="11.51"/>
  <rect fill="#00CCFF" x="90.89" y="5.59" width="12.88" height="11.51"/>
  <rect fill="#00CCFF" x="107.97" y="5.59" width="12.88" height="11.51"/>
  <rect fill="#00CCFF" x="125.83" y="5.59" width="12" height="11.51"/>
  <rect fill="#00CCFF" x="142.86" y="5.59" width="12.98" height="11.51"/>
  <rect fill="#00CCFF" x="159.84" y="5.59" width="12.98" height="11.51"/>
  <rect fill="#00CCFF" x="177.8" y="5.59" width="12.98" height="11.51"/>
  <rect fill="#383637" x="196.97" y="0.51" width="14.94" height="124.93"/>
  <rect fill="#00CCFF" x="194.78" y="5.59" width="12.98" height="11.51"/>
  <rect fill="#0A9DBB" x="3.38" y="5.59" width="12.88" height="11.51"/>
  <rect fill="#0A9DBB" x="21.01" y="5.59" width="10.72" height="11.51"/>
  <rect fill="#0A9DBB" x="196.97" y="5.59" width="10.8" height="11.51"/>
  <rect fill="#00CCFF" x="21.01" y="20.91" width="12.88" height="12.74"/>
  <rect fill="#00CCFF" x="38.08" y="20.91" width="12.88" height="12.74"/>
  <rect fill="#00CCFF" x="55.95" y="20.91" width="12.88" height="12.74"/>
  <rect fill="#00CCFF" x="73.03" y="20.91" width="12.88" height="12.74"/>
  <rect fill="#00CCFF" x="90.89" y="20.91" width="12.88" height="12.74"/>
  <rect fill="#00CCFF" x="107.97" y="20.91" width="12.88" height="12.74"/>
  <rect fill="#00CCFF" x="125.83" y="20.91" width="12" height="12.74"/>
  <rect fill="#00CCFF" x="142.86" y="20.91" width="12.98" height="12.74"/>
  <rect fill="#00CCFF" x="159.84" y="20.91" width="12.98" height="12.74"/>
  <rect fill="#00CCFF" x="177.8" y="20.91" width="12.98" height="12.74"/>
  <rect fill="#00CCFF" x="194.78" y="20.91" width="12.98" height="12.74"/>
  <rect fill="#0A9DBB" x="3.38" y="20.91" width="12.88" height="12.74"/>
  <rect fill="#0A9DBB" x="21.01" y="20.91" width="10.72" height="12.74"/>
  <rect fill="#0A9DBB" x="196.97" y="20.91" width="10.8" height="12.74"/>
  <rect fill="#00CCFF" x="21.01" y="38.87" width="12.88" height="12.74"/>
  <rect fill="#00CCFF" x="38.08" y="38.87" width="12.88" height="12.74"/>
  <rect fill="#00CCFF" x="55.95" y="38.87" width="12.88" height="12.74"/>
  <rect fill="#00CCFF" x="73.03" y="38.87" width="12.88" height="12.74"/>
  <rect fill="#00CCFF" x="90.89" y="38.87" width="12.88" height="12.74"/>
  <rect fill="#00CCFF" x="107.97" y="38.87" width="12.88" height="12.74"/>
  <rect fill="#00CCFF" x="125.83" y="38.87" width="12" height="12.74"/>
  <rect fill="#00CCFF" x="142.86" y="38.87" width="12.98" height="12.74"/>
  <rect fill="#00CCFF" x="159.84" y="38.87" width="12.98" height="12.74"/>
  <rect fill="#00CCFF" x="177.8" y="38.87" width="12.98" height="12.74"/>
  <rect fill="#00CCFF" x="194.78" y="38.87" width="12.98" height="12.74"/>
  <rect fill="#0A9DBB" x="3.38" y="38.87" width="12.88" height="12.74"/>
  <rect fill="#0A9DBB" x="21.01" y="38.87" width="10.72" height="12.74"/>
  <rect fill="#0A9DBB" x="196.97" y="38.87" width="10.8" height="12.74"/>
  <rect fill="#00CCFF" x="21.01" y="55.66" width="12.88" height="12.74"/>
  <rect fill="#00CCFF" x="38.08" y="55.66" width="12.88" height="12.74"/>
  <rect fill="#00CCFF" x="55.95" y="55.66" width="12.88" height="12.74"/>
  <rect fill="#00CCFF" x="73.03" y="55.66" width="12.88" height="12.74"/>
  <rect fill="#00CCFF" x="90.89" y="55.66" width="12.88" height="12.74"/>
  <rect fill="#00CCFF" x="107.97" y="55.66" width="12.88" height="12.74"/>
  <rect fill="#00CCFF" x="125.83" y="55.66" width="12" height="12.74"/>
  <rect fill="#00CCFF" x="142.86" y="55.66" width="12.98" height="12.74"/>
  <rect fill="#00CCFF" x="159.84" y="55.66" width="12.98" height="12.74"/>
  <rect fill="#00CCFF" x="177.8" y="55.66" width="12.98" height="12.74"/>
  <rect fill="#00CCFF" x="194.78" y="55.66" width="12.98" height="12.74"/>
  <rect fill="#0A9DBB" x="3.38" y="55.66" width="12.88" height="12.74"/>
  <rect fill="#0A9DBB" x="21.01" y="55.66" width="10.72" height="12.74"/>
  <rect fill="#0A9DBB" x="196.97" y="55.66" width="10.8" height="12.74"/>
  <rect fill="#00CCFF" x="21.01" y="74.01" width="12.88" height="12.74"/>
  <rect fill="#00CCFF" x="38.08" y="74.01" width="12.88" height="12.74"/>
  <rect fill="#00CCFF" x="55.95" y="74.01" width="12.88" height="12.74"/>
  <rect fill="#00CCFF" x="73.03" y="74.01" width="12.88" height="12.74"/>
  <rect fill="#00CCFF" x="90.89" y="74.01" width="12.88" height="12.74"/>
  <rect fill="#00CCFF" x="107.97" y="74.01" width="12.88" height="12.74"/>
  <rect fill="#00CCFF" x="125.83" y="74.01" width="12" height="12.74"/>
  <rect fill="#00CCFF" x="142.86" y="74.01" width="12.98" height="12.74"/>
  <rect fill="#00CCFF" x="159.84" y="74.01" width="12.98" height="12.74"/>
  <rect fill="#00CCFF" x="177.8" y="74.01" width="12.98" height="12.74"/>
  <rect fill="#00CCFF" x="194.78" y="74.01" width="12.98" height="12.74"/>
  <rect fill="#0A9DBB" x="3.38" y="74.01" width="12.88" height="12.74"/>
  <rect fill="#0A9DBB" x="21.01" y="74.01" width="10.72" height="12.74"/>
  <rect fill="#0A9DBB" x="196.97" y="74.01" width="10.8" height="12.74"/>
  <rect fill="#00CCFF" x="21.01" y="90.89" width="12.88" height="12.74"/>
  <rect fill="#00CCFF" x="38.08" y="90.89" width="12.88" height="12.74"/>
  <rect fill="#00CCFF" x="55.95" y="90.89" width="12.88" height="12.74"/>
  <rect fill="#00CCFF" x="73.03" y="90.89" width="12.88" height="12.74"/>
  <rect fill="#00CCFF" x="90.89" y="90.89" width="12.88" height="12.74"/>
  <rect fill="#00CCFF" x="107.97" y="90.89" width="12.88" height="12.74"/>
  <rect fill="#00CCFF" x="125.83" y="90.89" width="12" height="12.74"/>
  <rect fill="#00CCFF" x="142.86" y="90.89" width="12.98" height="12.74"/>
  <rect fill="#00CCFF" x="159.84" y="90.89" width="12.98" height="12.74"/>
  <rect fill="#00CCFF" x="177.8" y="90.89" width="12.98" height="12.74"/>
  <rect fill="#00CCFF" x="194.78" y="90.89" width="12.98" height="12.74"/>
  <rect fill="#0A9DBB" x="3.38" y="90.89" width="12.88" height="12.74"/>
  <rect fill="#0A9DBB" x="21.01" y="90.89" width="10.72" height="12.74"/>
  <rect fill="#0A9DBB" x="196.97" y="90.89" width="10.8" height="12.74"/>
  <rect fill="#00CCFF" x="21.01" y="108.75" width="12.88" height="11.94"/>
  <rect fill="#00CCFF" x="38.08" y="108.75" width="12.88" height="11.94"/>
  <rect fill="#00CCFF" x="55.95" y="108.75" width="12.88" height="11.94"/>
  <rect fill="#00CCFF" x="73.03" y="108.75" width="12.88" height="11.94"/>
  <rect fill="#00CCFF" x="90.89" y="108.75" width="12.88" height="11.94"/>
  <rect fill="#00CCFF" x="107.97" y="108.75" width="12.88" height="11.94"/>
  <rect fill="#00CCFF" x="125.83" y="108.75" width="12" height="11.94"/>
  <rect fill="#00CCFF" x="142.86" y="108.75" width="12.98" height="11.94"/>
  <rect fill="#00CCFF" x="159.84" y="108.75" width="12.98" height="11.94"/>
  <rect fill="#00CCFF" x="177.8" y="108.75" width="12.98" height="11.94"/>
  <rect fill="#00CCFF" x="194.78" y="108.75" width="12.98" height="11.94"/>
  <rect fill="#0A9DBB" x="3.38" y="108.75" width="12.88" height="11.94"/>
  <rect fill="#0A9DBB" x="21.01" y="108.75" width="10.72" height="11.94"/>
  <rect fill="#0A9DBB" x="196.97" y="108.75" width="10.8" height="11.94"/>
 </g>
</svg>
