<?xml version="1.0" encoding="UTF-8"?>
<!DOCTYPE svg PUBLIC "-//W3C//DTD SVG 1.1//EN" "http://www.w3.org/Graphics/SVG/1.1/DTD/svg11.dtd">
<!-- Creator: CorelDRAW 2020 (64-Bit) -->
<svg xmlns="http://www.w3.org/2000/svg" xml:space="preserve" width="195px" height="140px" version="1.1" shape-rendering="geometricPrecision" text-rendering="geometricPrecision" image-rendering="optimizeQuality" fill-rule="evenodd" clip-rule="evenodd"
viewBox="0 0 195 140"
 xmlns:xlink="http://www.w3.org/1999/xlink"
 xmlns:xodm="http://www.corel.com/coreldraw/odm/2003">
 <g id="Слой_x0020_1">
  <metadata id="CorelCorpID_0Corel-Layer"/>
  <path fill="#414042" d="M0.89 0.21l191.79 0c0.64,0 1.17,0.53 1.17,1.17l0 14.84c0,0.63 -0.53,1.15 -1.17,1.17l-3.3 0.09 0.27 122.54 -185.09 -0.08 -0.16 -122.55 -3.51 0c-0.64,0 -1.17,-0.53 -1.17,-1.17l0 -14.84c0,-0.64 0.53,-1.17 1.17,-1.17l0 0z"/>
  <path fill="#FFB836" stroke="#AB7E2B" stroke-width="0.36" stroke-miterlimit="22.9256" d="M5.37 5.43l181.49 0c1.14,0 2.07,0.51 2.07,1.13l0 6.72c0,0.62 -0.93,1.13 -2.07,1.13l-181.49 0c-1.14,0 -2.07,-0.51 -2.07,-1.13l0 -6.72c0,-0.62 0.93,-1.13 2.07,-1.13z"/>
  <path fill="#FFC65E" stroke="#BC944B" stroke-width="0.36" stroke-miterlimit="22.9256" d="M10.27 18.53l172.1 0c0.98,0 1.79,0.81 1.79,1.8l0 32.34c0,0.99 -0.81,1.79 -1.79,1.79l-172.1 0c-0.99,0 -1.79,-0.8 -1.79,-1.79l0 -32.34c0,-0.98 0.8,-1.8 1.79,-1.8zm11.37 4.54l15.42 0c0.73,0 1.32,0.6 1.32,1.32l0 21.77c0,0.73 -0.59,1.32 -1.32,1.32l-15.42 0c-0.72,0 -1.32,-0.59 -1.32,-1.32l0 -21.77c0,-0.72 0.6,-1.32 1.32,-1.32zm23.18 0l15.42 0c0.73,0 1.32,0.6 1.32,1.32l0 21.77c0,0.73 -0.59,1.32 -1.32,1.32l-15.42 0c-0.72,0 -1.32,-0.59 -1.32,-1.32l0 -21.77c0,-0.72 0.6,-1.32 1.32,-1.32zm23.71 0l15.42 0c0.73,0 1.32,0.6 1.32,1.32l0 21.77c0,0.73 -0.59,1.32 -1.32,1.32l-15.42 0c-0.72,0 -1.31,-0.59 -1.31,-1.32l0 -21.77c0,-0.72 0.59,-1.32 1.31,-1.32zm23.04 0l15.42 0c0.73,0 1.32,0.6 1.32,1.32l0 21.77c0,0.73 -0.59,1.32 -1.32,1.32l-15.42 0c-0.72,0 -1.32,-0.59 -1.32,-1.32l0 -21.77c0,-0.72 0.6,-1.32 1.32,-1.32zm23.92 0l15.42 0c0.72,0 1.32,0.6 1.32,1.32l0 21.77c0,0.73 -0.6,1.32 -1.32,1.32l-15.42 0c-0.73,0 -1.32,-0.59 -1.32,-1.32l0 -21.77c0,-0.72 0.59,-1.32 1.32,-1.32zm23.51 0l15.42 0c0.73,0 1.32,0.6 1.32,1.32l0 21.77c0,0.73 -0.59,1.32 -1.32,1.32l-15.42 0c-0.72,0 -1.32,-0.59 -1.32,-1.32l0 -21.77c0,-0.72 0.6,-1.32 1.32,-1.32zm23.33 0l15.42 0c0.73,0 1.32,0.6 1.32,1.32l0 21.77c0,0.73 -0.59,1.32 -1.32,1.32l-15.42 0c-0.72,0 -1.32,-0.59 -1.32,-1.32l0 -21.77c0,-0.72 0.6,-1.32 1.32,-1.32z"/>
  <path fill="white" d="M25.26 27.42l7.21 0c0.52,0 0.94,0.41 0.94,0.93l-0.01 13.27c0.01,0.51 -0.41,0.93 -0.92,0.93l-7.22 0c-0.51,0 -0.93,-0.42 -0.93,-0.93l0 -13.27c0,-0.52 0.42,-0.93 0.93,-0.93z"/>
  <path fill="white" d="M49.21 27.42l7.22 0c0.52,0 0.93,0.41 0.93,0.93l0 13.27c0,0.51 -0.41,0.93 -0.93,0.93l-7.22 0c-0.51,0 -0.92,-0.42 -0.92,-0.93l0 -13.27c0,-0.52 0.41,-0.93 0.93,-0.93z"/>
  <path fill="white" d="M72.15 27.42l7.22 0c0.51,0 0.93,0.41 0.93,0.93l0 13.27c0,0.51 -0.42,0.93 -0.93,0.93l-7.22 0c-0.51,0 -0.93,-0.42 -0.93,-0.93l0 -13.27c0,-0.52 0.42,-0.93 0.93,-0.93z"/>
  <path fill="white" d="M96.02 27.42l7.21 0c0.52,0 0.94,0.41 0.94,0.93l-0.01 13.27c0.01,0.51 -0.41,0.93 -0.92,0.93l-7.22 0c-0.51,0 -0.93,-0.42 -0.93,-0.93l0 -13.27c0,-0.52 0.42,-0.93 0.93,-0.93z"/>
  <path fill="white" d="M119.06 27.42l7.21 0c0.52,0 0.93,0.41 0.93,0.93l0 13.27c0,0.51 -0.41,0.93 -0.93,0.93l-7.21 0c-0.51,0 -0.93,-0.42 -0.93,-0.93l0 -13.27c0,-0.52 0.42,-0.93 0.93,-0.93z"/>
  <path fill="white" d="M143.02 27.42l7.22 0c0.51,0 0.93,0.41 0.93,0.93l0 13.27c0,0.51 -0.42,0.93 -0.93,0.93l-7.22 0c-0.51,0 -0.93,-0.42 -0.93,-0.93l0 -13.27c0,-0.52 0.42,-0.93 0.93,-0.93z"/>
  <path fill="white" d="M167.08 27.42l7.21 0c0.52,0 0.94,0.41 0.94,0.93l-0.01 13.27c0.01,0.51 -0.41,0.93 -0.92,0.93l-7.22 0c-0.51,0 -0.93,-0.42 -0.93,-0.93l0 -13.27c0,-0.52 0.42,-0.93 0.93,-0.93z"/>
  <path fill="#FFC65E" stroke="#BC944B" stroke-width="0.36" stroke-miterlimit="22.9256" d="M10.27 58.96l172.1 0c0.98,0 1.79,0.8 1.79,1.79l0 32.33c0,0.99 -0.81,1.8 -1.79,1.8l-172.1 0c-0.99,0 -1.79,-0.81 -1.79,-1.8l0 -32.33c0,-0.99 0.8,-1.79 1.79,-1.79zm11.37 4.54l15.42 0c0.73,0 1.32,0.59 1.32,1.32l0 21.75c0,0.73 -0.59,1.32 -1.32,1.32l-15.42 0c-0.72,0 -1.32,-0.59 -1.32,-1.32l0 -21.75c0,-0.73 0.6,-1.32 1.32,-1.32zm23.18 0l15.42 0c0.73,0 1.32,0.59 1.32,1.32l0 21.75c0,0.73 -0.59,1.32 -1.32,1.32l-15.42 0c-0.72,0 -1.32,-0.59 -1.32,-1.32l0 -21.75c0,-0.73 0.6,-1.32 1.32,-1.32zm23.71 0l15.42 0c0.73,0 1.32,0.59 1.32,1.32l0 21.75c0,0.73 -0.59,1.32 -1.32,1.32l-15.42 0c-0.72,0 -1.31,-0.59 -1.31,-1.32l0 -21.75c0,-0.73 0.59,-1.32 1.31,-1.32zm23.04 0l15.42 0c0.73,0 1.32,0.59 1.32,1.32l0 21.75c0,0.73 -0.59,1.32 -1.32,1.32l-15.42 0c-0.72,0 -1.32,-0.59 -1.32,-1.32l0 -21.75c0,-0.73 0.6,-1.32 1.32,-1.32zm23.92 0l15.42 0c0.72,0 1.32,0.59 1.32,1.32l0 21.75c0,0.73 -0.6,1.32 -1.32,1.32l-15.42 0c-0.73,0 -1.32,-0.59 -1.32,-1.32l0 -21.75c0,-0.73 0.59,-1.32 1.32,-1.32zm23.51 0l15.42 0c0.73,0 1.32,0.59 1.32,1.32l0 21.75c0,0.73 -0.59,1.32 -1.32,1.32l-15.42 0c-0.72,0 -1.32,-0.59 -1.32,-1.32l0 -21.75c0,-0.73 0.6,-1.32 1.32,-1.32zm23.33 0l15.42 0c0.73,0 1.32,0.59 1.32,1.32l0 21.75c0,0.73 -0.59,1.32 -1.32,1.32l-15.42 0c-0.72,0 -1.32,-0.59 -1.32,-1.32l0 -21.75c0,-0.73 0.6,-1.32 1.32,-1.32z"/>
  <path fill="white" d="M25.26 67.84l7.21 0c0.52,-0.01 0.94,0.41 0.94,0.92l-0.01 13.28c0.01,0.51 -0.41,0.93 -0.92,0.93l-7.22 0c-0.51,0 -0.93,-0.42 -0.93,-0.93l0 -13.28c0,-0.51 0.42,-0.93 0.93,-0.93z"/>
  <path fill="white" d="M49.21 67.84l7.22 0c0.52,-0.01 0.93,0.41 0.93,0.92l0 13.28c0,0.51 -0.41,0.93 -0.93,0.93l-7.22 0c-0.51,0 -0.92,-0.42 -0.92,-0.93l0 -13.28c0,-0.51 0.41,-0.93 0.93,-0.93z"/>
  <path fill="white" d="M72.15 67.84l7.22 0c0.51,-0.01 0.93,0.41 0.93,0.92l0 13.28c0,0.51 -0.42,0.93 -0.93,0.93l-7.22 0c-0.51,0 -0.93,-0.42 -0.93,-0.93l0 -13.28c0,-0.51 0.42,-0.93 0.93,-0.93z"/>
  <path fill="white" d="M96.02 67.84l7.21 0c0.52,-0.01 0.94,0.41 0.94,0.92l-0.01 13.28c0.01,0.51 -0.41,0.93 -0.92,0.93l-7.22 0c-0.51,0 -0.93,-0.42 -0.93,-0.93l0 -13.28c0,-0.51 0.42,-0.93 0.93,-0.93z"/>
  <path fill="white" d="M119.06 67.84l7.21 0c0.52,-0.01 0.93,0.41 0.93,0.92l0 13.28c0,0.51 -0.41,0.93 -0.93,0.93l-7.21 0c-0.51,0 -0.93,-0.42 -0.93,-0.93l0 -13.28c0,-0.51 0.42,-0.93 0.93,-0.93z"/>
  <path fill="white" d="M143.02 67.84l7.22 0c0.51,-0.01 0.93,0.41 0.93,0.92l0 13.28c0,0.51 -0.42,0.93 -0.93,0.93l-7.22 0c-0.51,0 -0.93,-0.42 -0.93,-0.93l0 -13.28c0,-0.51 0.42,-0.93 0.93,-0.93z"/>
  <path fill="white" d="M167.08 67.84l7.21 0c0.52,-0.01 0.94,0.41 0.94,0.92l-0.01 13.28c0.01,0.51 -0.41,0.93 -0.92,0.93l-7.22 0c-0.51,0 -0.93,-0.42 -0.93,-0.93l0 -13.28c0,-0.51 0.42,-0.93 0.93,-0.93z"/>
  <path fill="#FFC65E" stroke="#BC944B" stroke-width="0.36" stroke-miterlimit="22.9256" d="M10.27 99.56l172.1 0c0.98,0 1.79,0.81 1.79,1.78l0 32.35c0,0.98 -0.81,1.78 -1.79,1.78l-172.1 0c-0.99,0 -1.79,-0.8 -1.79,-1.78l0 -32.35c0,-0.97 0.8,-1.78 1.79,-1.78zm11.37 4.54l15.42 0c0.73,0 1.32,0.59 1.32,1.31l0 21.77c0,0.72 -0.59,1.32 -1.32,1.32l-15.42 0c-0.72,0 -1.32,-0.6 -1.32,-1.32l0 -21.77c0,-0.72 0.6,-1.31 1.32,-1.31zm23.18 0l15.42 0c0.73,0 1.32,0.59 1.32,1.31l0 21.77c0,0.72 -0.59,1.32 -1.32,1.32l-15.42 0c-0.72,0 -1.32,-0.6 -1.32,-1.32l0 -21.77c0,-0.72 0.6,-1.31 1.32,-1.31zm23.71 0l15.42 0c0.73,0 1.32,0.59 1.32,1.31l0 21.77c0,0.72 -0.59,1.32 -1.32,1.32l-15.42 0c-0.72,0 -1.31,-0.6 -1.31,-1.32l0 -21.77c0,-0.72 0.59,-1.31 1.31,-1.31zm23.04 0l15.42 0c0.73,0 1.32,0.59 1.32,1.31l0 21.77c0,0.72 -0.59,1.32 -1.32,1.32l-15.42 0c-0.72,0 -1.32,-0.6 -1.32,-1.32l0 -21.77c0,-0.72 0.6,-1.31 1.32,-1.31zm23.92 0l15.42 0c0.72,0 1.32,0.59 1.32,1.31l0 21.77c0,0.72 -0.6,1.32 -1.32,1.32l-15.42 0c-0.73,0 -1.32,-0.6 -1.32,-1.32l0 -21.77c0,-0.72 0.59,-1.31 1.32,-1.31zm23.51 0l15.42 0c0.73,0 1.32,0.59 1.32,1.31l0 21.77c0,0.72 -0.59,1.32 -1.32,1.32l-15.42 0c-0.72,0 -1.32,-0.6 -1.32,-1.32l0 -21.77c0,-0.72 0.6,-1.31 1.32,-1.31zm23.33 0l15.42 0c0.73,0 1.32,0.59 1.32,1.31l0 21.77c0,0.72 -0.59,1.32 -1.32,1.32l-15.42 0c-0.72,0 -1.32,-0.6 -1.32,-1.32l0 -21.77c0,-0.72 0.6,-1.31 1.32,-1.31z"/>
  <path fill="white" d="M25.26 108.44l7.21 0c0.52,0 0.94,0.42 0.94,0.93l-0.01 13.28c0.01,0.51 -0.41,0.92 -0.92,0.92l-7.22 0.01c-0.51,-0.01 -0.93,-0.42 -0.93,-0.94l0 -13.27c0,-0.51 0.42,-0.93 0.93,-0.93z"/>
  <path fill="white" d="M49.21 108.44l7.22 0c0.52,0 0.93,0.42 0.93,0.93l0 13.28c0,0.51 -0.41,0.92 -0.93,0.92l-7.22 0.01c-0.51,-0.01 -0.92,-0.42 -0.92,-0.94l0 -13.27c0,-0.51 0.41,-0.93 0.93,-0.93z"/>
  <path fill="white" d="M72.15 108.44l7.22 0c0.51,0 0.93,0.42 0.93,0.93l0 13.28c0,0.51 -0.42,0.92 -0.93,0.92l-7.22 0.01c-0.51,-0.01 -0.93,-0.42 -0.93,-0.94l0 -13.27c0,-0.51 0.42,-0.93 0.93,-0.93z"/>
  <path fill="white" d="M96.02 108.44l7.21 0c0.52,0 0.94,0.42 0.94,0.93l-0.01 13.28c0.01,0.51 -0.41,0.92 -0.92,0.92l-7.22 0.01c-0.51,-0.01 -0.93,-0.42 -0.93,-0.94l0 -13.27c0,-0.51 0.42,-0.93 0.93,-0.93z"/>
  <path fill="white" d="M119.06 108.44l7.21 0c0.52,0 0.93,0.42 0.93,0.93l0 13.28c0,0.51 -0.41,0.92 -0.93,0.92l-7.21 0.01c-0.51,-0.01 -0.93,-0.42 -0.93,-0.94l0 -13.27c0,-0.51 0.42,-0.93 0.93,-0.93z"/>
  <path fill="white" d="M143.02 108.44l7.22 0c0.51,0 0.93,0.42 0.93,0.93l0 13.28c0,0.51 -0.42,0.92 -0.93,0.92l-7.22 0.01c-0.51,-0.01 -0.93,-0.42 -0.93,-0.94l0 -13.27c0,-0.51 0.42,-0.93 0.93,-0.93z"/>
  <path fill="white" d="M167.08 108.44l7.21 0c0.52,0 0.94,0.42 0.94,0.93l-0.01 13.28c0.01,0.51 -0.41,0.92 -0.92,0.92l-7.22 0.01c-0.51,-0.01 -0.93,-0.42 -0.93,-0.94l0 -13.27c0,-0.51 0.42,-0.93 0.93,-0.93z"/>
  <path fill="#BC8A2F" d="M179.07 4.9l9.21 0c0.62,0 1.11,0.5 1.11,1.11l0 7.58c0,0.69 -0.56,1.26 -1.27,1.26l-9.05 0 0 -9.95z"/>
  <path fill="#BC944B" d="M179.07 18.13l3.76 0c0.97,0 1.76,0.79 1.76,1.76l0 32.82c0,1.19 -0.98,2.16 -2.17,2.16l-3.35 0 0 -36.73 0 -0.01z"/>
  <path fill="#BC944B" d="M179.07 58.52l3.76 0c0.97,0 1.76,0.79 1.76,1.77l0 32.81c0,1.2 -0.98,2.17 -2.17,2.17l-3.35 0 0 -36.75 0 0z"/>
  <path fill="#BC944B" d="M179.07 99.15l3.76 0c0.97,0 1.76,0.79 1.76,1.76l0 32.82c0,1.19 -0.98,2.17 -2.17,2.17l-3.35 0 0 -36.75 0 0z"/>
 </g>
</svg>
