<?xml version="1.0" standalone="no"?>
<!DOCTYPE svg PUBLIC "-//W3C//DTD SVG 20010904//EN"
 "http://www.w3.org/TR/2001/REC-SVG-20010904/DTD/svg10.dtd">
<svg version="1.0" xmlns="http://www.w3.org/2000/svg"
 width="700.000000pt" height="700.000000pt" viewBox="0 0 700.000000 700.000000"
 preserveAspectRatio="xMidYMid meet">
<metadata>
Created by potrace 1.11, written by Peter Selinger 2001-2013
</metadata>
<g transform="translate(0.000000,700.000000) scale(0.100000,-0.100000)"
fill="#000000" stroke="none">
<path d="M3230 6992 c-30 -13 -57 -37 -70 -62 -10 -19 -13 -108 -14 -391 l0
-367 -59 -12 c-58 -11 -109 -26 -217 -61 -102 -33 -145 -50 -228 -91 -478
-233 -804 -658 -863 -1123 -11 -92 -8 -335 6 -415 10 -58 53 -211 79 -283 52
-145 146 -277 310 -443 173 -173 460 -353 781 -488 50 -21 108 -46 130 -56 22
-9 128 -52 235 -95 107 -43 210 -84 228 -91 17 -8 49 -21 70 -30 96 -40 374
-181 433 -220 118 -77 215 -192 259 -309 39 -105 25 -273 -32 -395 -82 -175
-303 -318 -564 -365 -75 -13 -294 -14 -369 -2 -83 15 -106 20 -180 38 -289 73
-560 215 -819 429 -88 74 -103 82 -139 82 -23 -1 -52 -9 -66 -20 -36 -26 -449
-567 -457 -598 -19 -77 46 -157 254 -312 323 -241 631 -382 1042 -476 8 -2 40
-7 70 -12 30 -4 58 -9 63 -10 4 -1 13 -2 20 -3 11 -1 13 -67 13 -346 -1 -190
2 -357 6 -373 4 -15 21 -41 38 -57 l31 -30 302 -3 c272 -2 305 -1 337 15 63
32 64 39 64 434 l1 356 65 13 c151 30 335 92 463 156 63 32 223 129 237 144 3
3 28 23 55 44 81 64 215 204 288 301 79 105 184 312 220 435 46 153 68 300 69
456 0 75 -10 223 -17 234 -2 3 -6 26 -10 50 -11 72 -80 268 -125 355 -93 176
-272 355 -515 514 -88 57 -389 208 -530 266 -49 20 -109 45 -132 56 -24 10
-47 19 -51 19 -5 0 -35 11 -68 24 -32 13 -131 51 -219 86 -404 158 -589 259
-743 408 -105 101 -142 184 -148 327 -4 110 6 159 51 251 86 177 312 320 567
359 82 13 328 13 410 0 105 -17 276 -66 378 -108 126 -53 359 -187 408 -234 7
-7 16 -13 20 -13 4 0 21 -13 37 -29 43 -39 68 -51 112 -51 50 0 93 28 118 76
11 22 31 59 46 84 14 25 41 74 61 110 20 36 77 139 127 230 113 204 114 216
39 294 -98 99 -297 233 -468 314 -148 69 -392 150 -538 177 -13 2 -31 6 -40 9
-9 3 -39 7 -67 11 -27 3 -61 8 -75 10 l-25 6 -1 362 c0 338 -1 364 -19 391
-35 53 -57 56 -372 55 -158 0 -295 -3 -303 -7z"/>
</g>
</svg>
