<svg xmlns="http://www.w3.org/2000/svg" xml:space="preserve" width="107px" height="40px" fill-rule="evenodd" clip-rule="evenodd" viewBox="0 0 107 40"
 xmlns:xlink="http://www.w3.org/1999/xlink">
 <g>
  <path fill="#373737" d="M18.5 19.47c-1.93,2.26 -4.79,3.68 -7.99,3.68 -5.81,0 -10.51,-4.7 -10.51,-10.5 0,-5.81 4.7,-10.51 10.51,-10.51 3.4,0 6.43,1.62 8.35,4.13l-3.09 2.49c-1.17,-1.54 -3.02,-2.52 -5.1,-2.52 -3.54,0 -6.41,2.87 -6.41,6.41 0,3.54 2.87,6.41 6.41,6.41 1.95,0 3.7,-0.88 4.88,-2.25l2.95 2.66z"/>
  <path fill="#373737" d="M21.96 7.23l4.27 0 0 2.37c0.86,-1.18 1.76,-1.86 3.02,-1.96l2.62 0 0 3.8 -2.44 0.19c-1.54,0.18 -3.27,1.55 -3.2,2.74l0 8.72 -4.27 0 0 -15.86z"/>
  <polygon fill="#373737" points="33.78,7.19 38.64,7.19 38.64,23.11 33.78,23.11 "/>
  <ellipse fill="#373737" cx="36.24" cy="2.77" rx="2.58" ry="2.66"/>
  <path fill="#373737" d="M42.39 7.19l4.86 0 0 2.81c2.71,-5.08 12.23,-3.08 12.19,5.25 -0.05,8.47 -9.19,9.93 -12.19,5.2l0 19.11 -4.86 0 0 -32.37zm8.88 3.58c2.3,0 4.16,1.98 4.16,4.42 0,2.44 -1.86,4.42 -4.16,4.42 -2.29,0 -4.15,-1.98 -4.15,-4.42 0,-2.44 1.86,-4.42 4.15,-4.42z"/>
  <path fill="#373737" d="M63.54 3.28l4.24 0 0 5.03 3.91 0 0.02 3.08 -3.93 0 0 7.28c0,0.36 0.06,0.51 0.45,0.53l3.41 -0.01 -0.01 2.94 -5.9 0c-1.38,-0.06 -2.18,-1.28 -2.19,-2.6l0 -8.11 0 -0.27 -2.33 -0.02 0.03 -2.89 2.3 -0.01 0 -4.95z"/>
  <path fill="#373737" d="M74.47 7.13l4.89 0 0.11 9.25c0.17,3.86 5.73,3.51 5.86,-0.01l0 -9.24 4.5 0 0 15 -4.52 -0.03 0.02 -2.23c-1.32,0.15 -1.96,1.13 -2.2,2.26l-5.91 0c-1.5,-0.2 -2.68,-2.19 -2.75,-4.73l0 -10.27z"/>
  <path fill="#373737" d="M99.47 6.97c3.14,-0.01 6.01,0.96 6.53,2.01l-1.43 3.24c-3.5,-2.7 -7.85,-2.58 -7.87,-0.53 0.06,1.85 2.89,1.83 4.51,2.24 2.18,0.54 4.56,1.22 4.56,4.16 0,4.33 -4.78,4.35 -6.21,4.37 -1.59,-0.03 -5.06,-0.19 -6.5,-1.9l0.94 -2.67c8.59,4.09 8.26,-0.08 7.17,-0.62 -1.05,-0.52 -2.31,-0.87 -3.44,-1.13 -2.2,-0.51 -4.7,-1.06 -4.67,-4.04 -0.03,-2.51 1.49,-5.16 6.41,-5.13z"/>
  <path fill="#04D16A" d="M48.12 21.99l56.78 0c0.48,0 0.87,0.39 0.87,0.87l0 15.83c0,0.48 -0.39,0.87 -0.87,0.87l-56.78 0c-0.48,0 -0.87,-0.39 -0.87,-0.87l0 -15.83c0,-0.48 0.39,-0.87 0.87,-0.87z"/>
  <path fill="white" fill-rule="nonzero" d="M60.77 24.27l2.92 0c-0.03,0.47 -0.24,0.88 -0.63,1.21 -0.39,0.34 -1.13,0.62 -2.22,0.85 -0.69,0.13 -1.16,0.32 -1.42,0.54 -0.25,0.22 -0.42,0.57 -0.48,1.05 0.5,-0.22 1.03,-0.33 1.61,-0.33 1.23,0 2.16,0.37 2.8,1.1 0.65,0.73 0.97,1.61 0.97,2.63 0,1.18 -0.38,2.15 -1.13,2.91 -0.75,0.75 -1.74,1.13 -2.99,1.13 -0.92,0 -1.71,-0.2 -2.35,-0.62 -0.65,-0.4 -1.09,-0.93 -1.34,-1.58 -0.25,-0.65 -0.38,-1.44 -0.38,-2.36 0,-0.94 0.1,-1.76 0.28,-2.46 0.18,-0.7 0.45,-1.28 0.8,-1.74 0.36,-0.46 0.73,-0.8 1.11,-1.01 0.39,-0.21 0.93,-0.41 1.62,-0.61 0.37,-0.1 0.6,-0.19 0.69,-0.27 0.09,-0.07 0.14,-0.22 0.14,-0.44zm-0.59 5c-0.34,0 -0.59,0.15 -0.75,0.44 -0.15,0.29 -0.23,0.86 -0.23,1.7 0,0.84 0.08,1.4 0.25,1.67 0.16,0.27 0.41,0.4 0.76,0.4 0.34,0 0.59,-0.14 0.75,-0.43 0.15,-0.28 0.23,-0.83 0.23,-1.65 0,-0.79 -0.07,-1.35 -0.22,-1.66 -0.14,-0.31 -0.4,-0.47 -0.79,-0.47zm8.34 2.98l0 2.96 -3.01 0 0 -7.6 3.01 0 0 2.84 0.91 0c0.21,-0.93 0.68,-1.66 1.41,-2.19 0.74,-0.54 1.64,-0.8 2.69,-0.8 1.26,0 2.27,0.36 3.05,1.1 0.77,0.73 1.15,1.68 1.15,2.85 0,1.16 -0.38,2.11 -1.15,2.85 -0.77,0.73 -1.79,1.1 -3.04,1.1 -1.09,0 -2,-0.28 -2.74,-0.84 -0.74,-0.56 -1.2,-1.32 -1.39,-2.27l-0.89 0zm4.98 -2.98c-0.36,0 -0.62,0.15 -0.79,0.44 -0.16,0.3 -0.25,0.86 -0.25,1.7 0,0.78 0.08,1.32 0.24,1.62 0.16,0.3 0.44,0.45 0.84,0.45 0.35,0 0.6,-0.14 0.76,-0.43 0.15,-0.29 0.23,-0.84 0.23,-1.65 0,-0.78 -0.07,-1.34 -0.22,-1.65 -0.14,-0.32 -0.41,-0.48 -0.81,-0.48zm8.41 8.36l-3 0 0 -10.08 2.76 0 0 1.09c0.38,-0.83 1.1,-1.25 2.16,-1.25 0.91,0 1.63,0.36 2.15,1.07 0.51,0.71 0.77,1.68 0.77,2.9 0,1.22 -0.26,2.2 -0.79,2.92 -0.53,0.72 -1.23,1.08 -2.1,1.08 -0.85,0 -1.5,-0.32 -1.95,-0.98l0 3.25zm0 -5.22c0,0.34 0.08,0.6 0.24,0.79 0.15,0.19 0.34,0.28 0.57,0.28 0.36,0 0.61,-0.17 0.75,-0.5 0.13,-0.33 0.2,-0.85 0.2,-1.54 0,-0.8 -0.08,-1.36 -0.23,-1.68 -0.16,-0.32 -0.39,-0.49 -0.7,-0.49 -0.19,0 -0.37,0.08 -0.55,0.22 -0.18,0.15 -0.28,0.39 -0.28,0.72l0 2.2zm9.78 2.95c-1.27,0 -2.27,-0.39 -3.02,-1.18 -0.75,-0.79 -1.13,-1.72 -1.13,-2.78 0,-1.15 0.4,-2.1 1.18,-2.86 0.77,-0.77 1.79,-1.15 3.04,-1.15 1.26,0 2.27,0.38 3.04,1.13 0.76,0.75 1.14,1.7 1.14,2.83 0,1.14 -0.38,2.1 -1.16,2.86 -0.77,0.77 -1.8,1.15 -3.09,1.15zm0.05 -1.82c0.46,0 0.74,-0.24 0.84,-0.72 0.11,-0.49 0.16,-0.99 0.16,-1.52 0,-0.72 -0.07,-1.23 -0.22,-1.55 -0.14,-0.32 -0.4,-0.48 -0.78,-0.48 -0.34,0 -0.59,0.17 -0.75,0.5 -0.16,0.32 -0.24,0.86 -0.24,1.61 0,0.87 0.08,1.45 0.25,1.74 0.16,0.28 0.41,0.42 0.74,0.42z"/>
 </g>
</svg>
