<svg xmlns="http://www.w3.org/2000/svg" xmlns:xlink="http://www.w3.org/1999/xlink">
	<symbol id="cloud" viewBox="0 0 508 292">
		<path fill="red" d="m5.041441,202.328614c0,-31.382559 18.822254,-58.869603 46.818991,-73.577902c1.601894,-69.063473 63.784505,-124.620068 140.274941,-124.620068c50.423253,0 94.620963,24.137629 119.3411,60.398683c9.138077,-2.475654 18.785847,-3.786295 28.761278,-3.786295c43.43317,0 80.458764,24.79295 94.87581,59.634143c39.683282,9.86621 68.845033,42.814257 68.845033,81.951438c0,46.855398 -41.90409,84.973193 -93.56517,84.973193l-311.823221,0c-51.624673,0 -93.528763,-38.044981 -93.528763,-84.973193l0,0zm404.95151,-56.612389c-3.895515,-31.855846 -33.639773,-56.648795 -69.7552,-56.648795c-16.45582,0 -31.637406,5.169749 -43.615204,13.798132c-13.543285,-40.739076 -55.192528,-70.446927 -104.487174,-70.446927c-60.289463,0 -109.147229,44.379744 -109.147229,99.135392c0,5.315375 0.473287,10.521531 1.347047,15.618466c-27.559857,5.861476 -48.129632,28.397211 -48.129632,55.156121c0,31.309745 27.996737,56.648795 62.328237,56.648795l311.932441,0c34.404313,0 62.291831,-25.411863 62.291831,-56.648795c0,-31.273339 -27.960331,-56.612389 -62.291831,-56.612389l-0.473287,0l0,0zm0,0z"/>
	</symbol>
</svg>