<svg xmlns="http://www.w3.org/2000/svg" xml:space="preserve" width="265px" height="233px" version="1.1" shape-rendering="geometricPrecision" text-rendering="geometricPrecision" image-rendering="optimizeQuality" fill-rule="evenodd" clip-rule="evenodd"
viewBox="0 0 265 233"
 xmlns:xlink="http://www.w3.org/1999/xlink">
 <g>
  <path fill="#CCCCFF" fill-rule="nonzero" d="M68.1 221.64c1.71,0.1 4.43,0.24 5.99,0.73 2.98,1.21 4.92,2.42 8.23,3.22 9.08,2.04 15.41,2.89 24.88,3.07 1.96,0.01 3.9,-0.03 5.86,-0.12 12.27,-0.7 21.92,-2.55 33.38,-7.06 2.8,-1.16 5.47,-2.38 8.15,-3.79 4.92,-2.63 9.58,-5.7 13.99,-9.12 1.95,-1.19 10.85,-7.2 11.96,-7.38 -0.19,3.21 -10.33,11.13 -12.5,12.73 -6.59,4.6 -12.81,7.88 -20.26,10.93 -6.64,2.53 -12.7,4.25 -19.69,5.41 -7.17,1.16 -13.62,1.58 -20.91,1.6 -6.74,-0.08 -12.31,-0.53 -18.94,-1.42 -3.99,-0.51 -7.81,-1.16 -11.78,-1.78 -2.01,-0.31 -5.78,-1.32 -7.08,-3.01 -0.8,-1.07 -1.49,-2.24 -2.07,-3.44 -0.08,-0.56 0.33,-0.65 0.79,-0.57z"/>
  <path fill="#CCCCFF" fill-rule="nonzero" d="M210.19 94.41c-1.12,-1.88 -2.73,-4.52 -3.43,-6.53 -1.13,-3.98 -1.62,-7 -3.35,-10.95 -6.52,-14.31 -12.32,-23.13 -23.69,-34.43 -0.01,-0.02 -0.2,-0.2 -0.23,-0.23 -9.56,-8.77 -18.16,-14.23 -30.11,-19.37 -7.12,-2.83 -13.6,-4.81 -21.1,-6.26 -7.29,-1.33 -13.85,-1.96 -21.26,-2.18 -0.87,-0.02 -1.74,-0.02 -2.61,-0.01 -3.19,-0.23 -17.12,-0.06 -18.2,-0.43 2.86,-2.77 17.49,-3.51 20.95,-3.54 0.76,0.03 1.51,0.06 2.26,0.1 14.91,0.75 27.45,3.48 41.33,9.07 5.71,2.47 10.7,5.04 15.9,8.41 5.69,3.73 10.33,7.44 15.31,12.11 8.93,8.82 14.51,16.27 20.68,27.05 2.66,4.6 4.94,9.19 7.33,13.92 1.12,2.22 2.96,6.78 2.5,9.29 -0.29,1.5 -0.75,2.96 -1.32,4.36 -0.42,0.5 -0.76,0.04 -0.96,-0.38z"/>
  <g id="_2107830374352">
   <g>
    <path fill="#99CC99" fill-rule="nonzero" d="M214.06 101.78c0.58,1 1,2.08 1.31,3.19 0.37,1.43 0.72,3.09 0.89,4.56 0.12,1.08 0.07,2.87 -0.51,3.81 -0.45,0.73 -0.79,1.32 -1.75,1.07 -1.14,-0.3 -1.22,-0.68 -1.62,-1.84 -0.54,-1.65 -0.16,-3.21 -0.07,-4.9 0.06,-1.31 0.12,-2.45 0.36,-3.74 0.15,-0.75 0.45,-1.24 0.78,-1.9 0.14,-0.2 0.38,-0.27 0.61,-0.25zm0.01 0.62c0,0 0,0 0,0l0 0z"/>
   </g>
  </g>
  <path fill="none" d="M214 101.77c0.51,3.85 0.11,8.77 0.17,12.71"/>
  <g>
   <g>
    <path fill="#CCCCFF" fill-rule="nonzero" d="M52.83 217.9c-1.15,-0.11 -2.28,-0.39 -3.37,-0.78 -1.38,-0.52 -2.95,-1.19 -4.24,-1.9 -0.96,-0.52 -2.39,-1.59 -2.83,-2.61 -0.34,-0.79 -0.62,-1.4 0.14,-2.04 0.9,-0.76 1.26,-0.61 2.43,-0.27 1.67,0.51 2.73,1.73 4.06,2.77 1.04,0.81 1.93,1.52 2.85,2.45 0.53,0.55 0.76,1.08 1.1,1.74 0.09,0.22 0.01,0.46 -0.14,0.64zm-0.51 -0.35c0,0 -0.01,0 -0.01,0l0.01 0z"/>
   </g>
  </g>
  <path fill="none" d="M52.87 217.85c-3.44,-1.8 -7.24,-4.96 -10.5,-7.18"/>
  <path fill="#A9BBCF" d="M186.94 9.06l-2.79 0c-0.12,0 -0.21,0.09 -0.21,0.2l0 1.61c0,0.12 0.1,0.22 0.22,0.22l2.8 0c0.11,0 0.19,-0.09 0.19,-0.19l0 -1.62c0,-0.12 -0.09,-0.22 -0.21,-0.22z"/>
  <path fill="#A9BBCF" d="M176.63 9.04l-2.79 0c-0.11,0 -0.2,0.09 -0.2,0.2l0 1.61c0,0.12 0.09,0.22 0.21,0.22l2.81 0c0.1,0 0.19,-0.09 0.19,-0.19l0 -1.62c0,-0.12 -0.1,-0.22 -0.22,-0.22z"/>
  <path fill="#A9BBCF" d="M181.69 9.1l-3.28 0c-0.11,0 -0.2,0.09 -0.2,0.2l0 1.61c0,0.12 0.09,0.22 0.21,0.22l3.3 0c0.1,0 0.19,-0.09 0.19,-0.19l0 -1.62c0,-0.12 -0.1,-0.22 -0.22,-0.22z"/>
  <path fill="#A9BBCF" d="M182.69 3.02l-9.01 0c-0.15,0 -0.28,0.13 -0.28,0.29l0 2.3c0,0.17 0.14,0.31 0.31,0.31l9.01 0c0.15,0 0.28,-0.13 0.28,-0.28l0 -2.31c0,-0.17 -0.14,-0.31 -0.31,-0.31z"/>
  <path fill="#C6BFCF" d="M15.29 66.5l-2.8 0c-0.11,0 -0.2,0.09 -0.2,0.2l0 1.62c0,0.11 0.1,0.21 0.22,0.21l2.8 0c0.11,0 0.19,-0.08 0.19,-0.19l0 -1.62c0,-0.12 -0.09,-0.22 -0.21,-0.22z"/>
  <path fill="#C6BFCF" d="M4.98 66.48l-2.79 0c-0.11,0 -0.2,0.09 -0.2,0.2l0 1.61c0,0.12 0.09,0.22 0.21,0.22l2.81 0c0.1,0 0.19,-0.09 0.19,-0.19l0 -1.62c0,-0.12 -0.1,-0.22 -0.22,-0.22z"/>
  <path fill="#C6BFCF" d="M10.04 66.55l-3.28 0c-0.11,0 -0.2,0.09 -0.2,0.2l0 1.61c0,0.12 0.09,0.21 0.21,0.21l3.3 0c0.1,0 0.19,-0.08 0.19,-0.19l0 -1.62c0,-0.12 -0.1,-0.21 -0.22,-0.21z"/>
  <path fill="#C6BFCF" d="M11.04 60.46l-9.01 0c-0.15,0 -0.28,0.13 -0.28,0.29l0 2.3c0,0.17 0.14,0.31 0.3,0.31l9.02 0c0.15,0 0.27,-0.12 0.27,-0.27l0 -2.32c0,-0.17 -0.13,-0.31 -0.3,-0.31z"/>
  <path fill="#C6BFCF" d="M104.66 206.33l-2.79 0c-0.11,0 -0.2,0.09 -0.2,0.2l0 1.61c0,0.12 0.1,0.22 0.21,0.22l2.81 0c0.1,0 0.19,-0.09 0.19,-0.19l0 -1.63c0,-0.11 -0.1,-0.21 -0.22,-0.21z"/>
  <path fill="#C6BFCF" d="M94.36 206.31l-2.8 0c-0.11,0 -0.2,0.09 -0.2,0.2l0 1.61c0,0.12 0.1,0.21 0.22,0.21l2.8 0c0.11,0 0.19,-0.08 0.19,-0.19l0 -1.62c0,-0.12 -0.09,-0.21 -0.21,-0.21z"/>
  <path fill="#C6BFCF" d="M99.42 206.37l-3.29 0c-0.11,0 -0.2,0.09 -0.2,0.2l0 1.61c0,0.12 0.1,0.22 0.22,0.22l3.29 0c0.11,0 0.19,-0.09 0.19,-0.19l0 -1.62c0,-0.12 -0.09,-0.22 -0.21,-0.22z"/>
  <path fill="#C6BFCF" d="M100.41 200.29l-9 0c-0.16,0 -0.29,0.13 -0.29,0.28l0 2.31c0,0.17 0.14,0.3 0.31,0.3l9.02 0c0.15,0 0.27,-0.12 0.27,-0.27l0 -2.32c0,-0.16 -0.14,-0.3 -0.31,-0.3z"/>
  <path fill="#CCCCFF" d="M188.56 189.07c0.74,-1.58 2.09,-2.45 3.31,-3.62 0.95,-0.92 1.77,-1.7 2.83,-2.47 0.62,-0.46 1.18,-0.61 1.88,-0.85 0.23,-0.06 0.45,0.06 0.61,0.23 -0.57,2.41 -2.25,5.19 -3.72,7.14 -0.66,0.88 -1.92,2.15 -2.99,2.43 -0.83,0.23 -1.48,0.42 -2,-0.41 -0.63,-1.01 -0.43,-1.34 0.08,-2.45z"/>
  <path fill="#CCCCFF" d="M214 114.41c-1.14,-0.3 -1.22,-0.68 -1.62,-1.84 -0.54,-1.65 -0.16,-3.21 -0.07,-4.9 0.06,-1.31 0.12,-2.45 0.36,-3.74 0.15,-0.75 0.45,-1.24 0.78,-1.9 0.14,-0.2 0.38,-0.27 0.61,-0.25 1.24,2.14 1.93,5.32 2.2,7.75 0.12,1.08 0.07,2.87 -0.51,3.81 -0.45,0.73 -0.79,1.32 -1.75,1.07z"/>
  <path fill="#CCCCFF" d="M79.7 14.47c-1.1,1.54 -3.1,3.04 -4.71,4.01 -0.72,0.43 -1.98,0.97 -2.82,0.86 -0.66,-0.08 -1.17,-0.13 -1.3,-0.87 -0.16,-0.89 0.08,-1.07 0.76,-1.72 0.98,-0.9 2.19,-1.14 3.4,-1.62 0.93,-0.37 1.75,-0.69 2.72,-0.94 0.57,-0.14 1.01,-0.09 1.58,-0.06 0.18,0.02 0.31,0.17 0.37,0.34z"/>
  <path fill="#C6BFCF" d="M15.29 66.5l-2.8 0c-0.11,0 -0.2,0.09 -0.2,0.2l0 1.62c0,0.11 0.1,0.21 0.22,0.21l2.8 0c0.11,0 0.19,-0.08 0.19,-0.19l0 -1.62c0,-0.12 -0.09,-0.22 -0.21,-0.22z"/>
  <path fill="#C6BFCF" d="M4.98 66.48l-2.79 0c-0.11,0 -0.2,0.09 -0.2,0.2l0 1.61c0,0.12 0.09,0.22 0.21,0.22l2.81 0c0.1,0 0.19,-0.09 0.19,-0.19l0 -1.62c0,-0.12 -0.1,-0.22 -0.22,-0.22z"/>
  <path fill="#C6BFCF" d="M10.04 66.55l-3.28 0c-0.11,0 -0.2,0.09 -0.2,0.2l0 1.61c0,0.12 0.09,0.21 0.21,0.21l3.3 0c0.1,0 0.19,-0.08 0.19,-0.19l0 -1.62c0,-0.12 -0.1,-0.21 -0.22,-0.21z"/>
  <path fill="#C6BFCF" d="M11.04 60.46l-9.01 0c-0.15,0 -0.28,0.13 -0.28,0.29l0 2.3c0,0.17 0.14,0.31 0.3,0.31l9.02 0c0.15,0 0.27,-0.12 0.27,-0.27l0 -2.32c0,-0.17 -0.13,-0.31 -0.3,-0.31z"/>
  <path fill="#2491FC" d="M119.95 34.98l-2.8 0c-0.11,0 -0.2,0.09 -0.2,0.2l0 1.61c0,0.12 0.1,0.22 0.22,0.22l2.8 0c0.11,0 0.19,-0.09 0.19,-0.19l0 -1.63c0,-0.11 -0.09,-0.21 -0.21,-0.21z"/>
  <path fill="#2491FC" d="M109.64 34.96l-2.79 0c-0.11,0 -0.2,0.09 -0.2,0.2l0 1.61c0,0.12 0.09,0.21 0.21,0.21l2.81 0c0.1,0 0.19,-0.08 0.19,-0.19l0 -1.62c0,-0.11 -0.1,-0.21 -0.22,-0.21z"/>
  <path fill="#2491FC" d="M114.7 35.02l-3.28 0c-0.11,0 -0.2,0.09 -0.2,0.2l0 1.61c0,0.12 0.09,0.22 0.21,0.22l3.3 0c0.1,0 0.19,-0.09 0.19,-0.19l0 -1.62c0,-0.12 -0.1,-0.22 -0.22,-0.22z"/>
  <path fill="#2491FC" d="M115.7 28.94l-9.01 0c-0.16,0 -0.28,0.13 -0.28,0.28l0 2.31c0,0.17 0.13,0.3 0.3,0.3l9.02 0c0.15,0 0.27,-0.12 0.27,-0.27l0 -2.31c0,-0.17 -0.13,-0.31 -0.3,-0.31z"/>
  <polygon fill="#81E8B4" points="228.82,60.81 223.06,55.64 217.9,61.4 223.65,66.56 "/>
  <polygon fill="#81E8B4" points="257.1,76.27 249.39,79.49 252.62,87.2 260.32,83.98 "/>
  <polygon fill="#FF9DC3" points="247.86,112.72 241.84,107.99 237.11,114 243.13,118.74 "/>
  <polygon fill="#F5D69D" points="33.47,190.2 28.41,185.04 23.25,190.1 28.31,195.26 "/>
  <polygon fill="#8DC184" points="17.37,25.3 9.97,25.3 9.97,30.78 17.37,30.78 "/>
  <polygon fill="#CEBADA" points="54.56,33.53 48.64,29.97 45.08,35.9 51.01,39.45 "/>
 </g>
</svg>
