<svg width="44" height="36" xmlns="http://www.w3.org/2000/svg" viewBox=" 0 0 44 36">
   <path fill="#04d16a" d="m15.547989,16.438752l-5.683585,0c-0.676655,0 -1.25191,-0.236749 -1.725587,-0.710426c-0.47341,-0.473677 -0.710426,-1.048754 -0.710426,-1.725587l0,-0.81156c0,-1.793128 0.634442,-3.323823 1.903238,-4.592619c1.268707,-1.268351 2.799668,-1.902793 4.592619,-1.902793l1.623742,0c0.439728,0 0.82018,-0.160766 1.141712,-0.48203c0.321354,-0.321442 0.48203,-0.701894 0.48203,-1.141712l0,-3.248017c0,-0.439728 -0.160766,-0.820536 -0.48203,-1.141978c-0.321442,-0.320998 -0.701894,-0.48203 -1.141712,-0.48203l-1.623742,0c-1.759357,0 -3.437843,0.34286 -5.036524,1.027603c-1.598503,0.685187 -2.981141,1.611389 -4.148447,2.778695c-1.167217,1.166773 -2.093153,2.5495 -2.778251,4.14818c-0.685098,1.598503 -1.027691,3.277433 -1.027691,5.036613l0,17.86205c0,1.353933 0.47341,2.503554 1.420674,3.451174c0.947353,0.947086 2.097863,1.420585 3.450996,1.420585l9.743607,0c1.353044,0 2.503198,-0.473499 3.45064,-1.420585c0.947086,-0.94762 1.420763,-2.097241 1.420763,-3.451174l0,-9.742718c0,-1.353666 -0.473677,-2.503287 -1.421385,-3.450996c-0.946998,-0.946998 -2.097596,-1.420674 -3.45064,-1.420674z"/>
   <path fill="#04d16a" d="m41.733771,17.859426c-0.946998,-0.946998 -2.097241,-1.420674 -3.45064,-1.420674l-5.683497,0c-0.6763,0 -1.252088,-0.236749 -1.724965,-0.710426c-0.473854,-0.473677 -0.710426,-1.048754 -0.710426,-1.725587l0,-0.81156c0,-1.793128 0.634442,-3.323823 1.902616,-4.592619c1.268262,-1.268351 2.799135,-1.902793 4.592974,-1.902793l1.623386,0c0.439817,0 0.820536,-0.160766 1.1418,-0.48203c0.321087,-0.321442 0.482386,-0.701894 0.482386,-1.141712l0,-3.248017c0,-0.439728 -0.16121,-0.820536 -0.482386,-1.141978c-0.321176,-0.320998 -0.701894,-0.48203 -1.1418,-0.48203l-1.623386,0c-1.760335,0 -3.438465,0.34286 -5.03759,1.027603c-1.598236,0.685187 -2.98043,1.611389 -4.147736,2.778695c-1.167306,1.166773 -2.093686,2.5495 -2.778517,4.14818c-0.68492,1.598503 -1.027958,3.277433 -1.027958,5.036613l0,17.86205c0,1.353933 0.473854,2.503554 1.420852,3.451174c0.947086,0.947086 2.09733,1.420585 3.45064,1.420585l9.743073,0c1.3534,0 2.503554,-0.473499 3.450552,-1.420585c0.947709,-0.94762 1.420585,-2.097241 1.420585,-3.451174l0,-9.742718c0.000089,-1.353755 -0.472877,-2.503287 -1.419963,-3.450996z"/>
</svg>