<svg xmlns="http://www.w3.org/2000/svg" xmlns:xlink="http://www.w3.org/1999/xlink" >
	<symbol id="cloud" viewBox="0 0 508 292">
		<path fill="#C1E0F5" d="m5.041441,202.328614c0,-31.382559 18.822254,-58.869603 46.818991,-73.577902c1.601894,-69.063473 63.784505,-124.620068 140.274941,-124.620068c50.423253,0 94.620963,24.137629 119.3411,60.398683c9.138077,-2.475654 18.785847,-3.786295 28.761278,-3.786295c43.43317,0 80.458764,24.79295 94.87581,59.634143c39.683282,9.86621 68.845033,42.814257 68.845033,81.951438c0,46.855398 -41.90409,84.973193 -93.56517,84.973193l-311.823221,0c-51.624673,0 -93.528763,-38.044981 -93.528763,-84.973193l0,0zm404.95151,-56.612389c-3.895515,-31.855846 -33.639773,-56.648795 -69.7552,-56.648795c-16.45582,0 -31.637406,5.169749 -43.615204,13.798132c-13.543285,-40.739076 -55.192528,-70.446927 -104.487174,-70.446927c-60.289463,0 -109.147229,44.379744 -109.147229,99.135392c0,5.315375 0.473287,10.521531 1.347047,15.618466c-27.559857,5.861476 -48.129632,28.397211 -48.129632,55.156121c0,31.309745 27.996737,56.648795 62.328237,56.648795l311.932441,0c34.404313,0 62.291831,-25.411863 62.291831,-56.648795c0,-31.273339 -27.960331,-56.612389 -62.291831,-56.612389l-0.473287,0l0,0zm0,0z"/>
	</symbol>
	<symbol id="star" viewBox="0 0 62 64">
		<path fill="#6284fc" d="m31.06142,0.944567c-0.121548,0 -0.243095,0.040516 -0.263353,0.162064c-0.58748,2.187858 -0.810318,5.408872 -1.154703,7.718278c-0.68877,4.679586 -2.451212,12.13451 -5.692483,15.578361c-2.896886,3.079208 -8.062663,4.841649 -12.13451,5.53042c-2.228374,0.384901 -4.456748,0.830576 -6.70538,1.093929c-1.276251,0.162064 -2.552501,0.324127 -3.828752,0.526707c-0.344385,0.060774 -0.68877,0.121548 -1.033155,0.202579c-0.10129,0.020258 -0.324127,0.121548 -0.303869,0.263353c0.020258,0.10129 0.263353,0.222837 0.364643,0.243095c0.58748,0.162064 1.154703,0.202579 1.762441,0.283611c6.604091,0.89135 16.449453,1.802957 21.41265,6.563575c1.58012,1.519346 2.815855,3.443851 3.605915,5.489904c1.154703,2.977918 1.863731,6.198932 2.349922,9.379429c0.344385,2.208116 0.668512,4.456748 0.972381,6.685123c0.081032,0.567223 0.141806,1.174961 0.263353,1.742183c0.040516,0.182322 0.081032,0.648254 0.324127,0.648254c0.020258,0 0.10129,0 0.162064,-0.081032c0.222837,-0.405159 0.243095,-0.992639 0.324127,-1.458572c0.911608,-6.01661 1.316767,-12.256058 3.828752,-17.887767c0.931866,-2.086569 2.410696,-3.889526 4.152879,-5.348098c3.221014,-2.734823 9.460461,-4.031331 13.633598,-4.760618c2.734823,-0.465933 5.672225,-0.648254 8.326016,-1.195219c0.162064,-0.020258 0.364643,-0.081032 0.526707,-0.141806c0.10129,-0.040516 0.10129,-0.081032 0.10129,-0.182322c0,-0.081032 -0.081032,-0.182322 -0.162064,-0.202579c-1.458572,-0.384901 -3.443851,-0.546965 -4.963197,-0.749544c-2.755081,-0.384901 -5.489904,-0.810318 -8.204469,-1.418056c-2.26889,-0.486191 -4.618812,-1.215477 -6.685123,-2.289148c-1.418056,-0.729286 -2.775339,-1.721925 -3.909784,-2.836113c-1.823215,-1.823215 -3.180498,-4.558038 -3.909784,-6.988992c-1.235735,-4.112363 -1.904247,-8.48808 -2.430954,-12.742249c-0.141806,-1.053413 -0.243095,-2.674049 -0.546965,-3.666688c-0.040516,-0.10129 -0.081032,-0.162064 -0.182322,-0.162064z"/>
	</symbol>
	<symbol id="circle" viewBox="0 0 50 49">
		<ellipse ry="23.645349" rx="24.5" cy="24.500001" cx="25" fill="#acddfa"/>
	</symbol>
	<symbol id="tree" viewBox="0 0 22677 3779.5">
		<circle fill="#E6E6E6" cx="8253.27" cy="2766.97" r="4.78" strok="#43556B"/>
		<circle fill="#E6E6E6" cx="6668.2" cy="-2062.8" r="14.93" strok="#43556B"/>
		<circle fill="#E6E6E6" cx="22060.37" cy="7943.42" r="5.79" strok="#43556B"/>
		<circle fill="#E6E6E6" cx="-6797.04" cy="-1688.45" r="4.78" strok="#43556B"/>
		<circle fill="#E6E6E6" cx="-8384.81" cy="-6526.38" r="14.97" strok="#43556B"/>
		<circle fill="#FFB836" fill-rule="nonzero" stroke="#414042" stroke-width="34.62" stroke-miterlimit="22.9256" cx="935.66" cy="3150.7" r="260.95"/>
		<polygon fill="#414042" fill-rule="nonzero" points="911.39,3126.42 949.38,3126.42 949.38,3769.68 911.39,3769.68 "/>
	</symbol>
	<symbol id="district" viewBox="0 0 2976 2775.24" fill-rule="evenodd" clip-rule="evenodd">
		<circle fill="#E6E6E6" cx="-1596.86" cy="2264.73" r="4.78" strok="#43556B"/>
		<ellipse fill="white" stroke="#43556B" stroke-width="48.83" stroke-miterlimit="22.9256" cx="462.65" cy="895.55" rx="345.72" ry="322.63"/>
		<ellipse fill="#009FD7" cx="463.62" cy="445.81" rx="244.16" ry="244.42"/>
		<polygon fill="#43556B" points="4.3,812.45 961.72,812.45 961.72,2767.77 4.02,2767.77 "/>
		<path fill="white" d="M43.67 861.33l869.21 0 0 1867.32 -868.62 0 -0.6 -1867.32 0.01 0zm146.49 97.77l97.66 0 0 215.08 -97.66 0 0 -215.08zm0 244.42l97.66 0 0 205.32 -97.66 0 0 -205.32zm0 234.62l97.66 0 0 205.32 -97.66 0 0 -205.32zm0 234.66l97.66 0 0 215.08 -97.66 0 0 -215.08zm0 234.62l97.66 0 0 215.08 -97.66 0 0 -215.08zm0 244.42l97.66 0 0 205.32 -97.66 0 0 -205.32zm117.19 -1192.74l97.66 0 0 215.08 -97.66 0 0 -215.08zm0 244.42l97.66 0 0 205.32 -97.66 0 0 -205.32zm0 234.62l97.66 0 0 205.32 -97.66 0 0 -205.32zm0 234.66l97.66 0 0 215.08 -97.66 0 0 -215.08zm0 234.62l97.66 0 0 215.08 -97.66 0 0 -215.08zm0 244.42l97.66 0 0 205.32 -97.66 0 0 -205.32zm29.3 -684.36l9.78 0 0 136.89 -9.78 0 0 -136.89zm0 -234.63l9.78 0 0 136.86 -9.78 0 0 -136.86zm0 -244.41l9.78 0 0 136.86 -9.78 0 0 -136.86zm0 713.66l9.78 0 0 156.44 -9.78 0 0 -156.44zm0 234.66l9.78 0 0 156.41 -9.78 0 0 -156.41zm0 244.42l9.78 0 0 146.65 -9.78 0 0 -146.65zm87.92 -1222.08l97.66 0 0 215.08 -97.66 0 0 -215.08zm29.27 29.34l9.78 0 0 136.86 -9.78 0 0 -136.86zm87.92 -29.34l97.66 0 0 215.08 -97.66 0 0 -215.08zm29.3 29.34l9.75 0 0 136.86 -9.75 0 0 -136.86zm78.11 -29.34l107.44 0 0 215.08 -107.44 0 0 -215.08zm29.3 29.34l9.78 0 0 136.86 -9.78 0 0 -136.86z"/>
		<polygon fill="white" points="571.06,988.44 580.81,988.44 580.81,1125.3 571.06,1125.3 "/>
		<polygon fill="#43556B" points="405.01,1116.88 1205.87,1116.88 1205.87,2738.44 405.01,2738.44 180.41,2738.44 180.41,2503.81 405.01,2506.06 "/>
		<polygon fill="white" points="458.75,1159.51 585.72,1159.51 585.72,2723.77 458.75,2723.77 "/>
		<rect fill="#43556B" x="488.05" y="1306.16" width="87.88" height="127.1"/>
		<rect fill="#43556B" x="488.05" y="1472.36" width="87.88" height="127.1"/>
		<rect fill="#43556B" x="488.05" y="1648.34" width="87.88" height="127.1"/>
		<rect fill="#43556B" x="488.05" y="1814.54" width="87.88" height="127.1"/>
		<rect fill="#43556B" x="488.05" y="1980.76" width="87.88" height="127.1"/>
		<rect fill="#43556B" x="488.05" y="2146.96" width="87.88" height="127.1"/>
		<rect fill="#43556B" x="488.05" y="2322.95" width="87.88" height="127.1"/>
		<polygon fill="white" points="644.3,1159.51 771.26,1159.51 771.26,1306.94 673.6,1306.16 673.6,1433.26 771.26,1433.67 771.26,1482.24 673.6,1482.15 673.6,1599.46 771.26,1600.52 771.26,1647.56 673.6,1648.34 673.6,1765.65 771.26,1766.44 771.26,1815.04 673.6,1814.54 673.6,1931.88 771.26,1933.54 771.26,1980.55 673.6,1980.77 673.6,2098.08 771.26,2098.27 771.26,2147.74 673.6,2146.96 673.6,2274.06 771.26,2273.94 771.26,2324.29 673.6,2322.95 673.6,2440.26 771.26,2441.32 771.26,2723.77 644.3,2723.77 "/>
		<rect fill="white" x="707.78" y="1350.16" width="9.78" height="39.09"/>
		<rect fill="white" x="707.78" y="1516.36" width="9.78" height="39.09"/>
		<rect fill="white" x="707.78" y="1692.35" width="9.78" height="29.34"/>
		<rect fill="white" x="707.78" y="1858.54" width="9.78" height="29.34"/>
		<rect fill="white" x="707.78" y="2024.74" width="9.78" height="29.34"/>
		<rect fill="white" x="707.78" y="2190.97" width="9.78" height="39.09"/>
		<rect fill="white" x="707.78" y="2366.92" width="9.78" height="29.34"/>
		<polygon fill="white" points="820.1,1159.51 947.06,1159.51 947.06,2723.77 820.1,2723.77 "/>
		<rect fill="#43556B" x="849.4" y="1306.16" width="87.88" height="127.1"/>
		<rect fill="#43556B" x="849.4" y="1472.36" width="87.88" height="127.1"/>
		<rect fill="#43556B" x="849.4" y="1648.34" width="87.88" height="127.1"/>
		<rect fill="#43556B" x="849.4" y="1814.54" width="87.88" height="127.1"/>
		<rect fill="#43556B" x="849.4" y="1980.76" width="87.88" height="127.1"/>
		<rect fill="#43556B" x="849.4" y="2146.96" width="87.88" height="127.1"/>
		<rect fill="#43556B" x="849.4" y="2322.95" width="87.88" height="127.1"/>
		<rect fill="white" x="893.33" y="1350.16" width="9.78" height="39.09"/>
		<rect fill="#43556B" x="893.33" y="1516.36" width="9.78" height="39.09"/>
		<rect fill="white" x="893.33" y="1692.35" width="9.78" height="29.34"/>
		<rect fill="white" x="893.33" y="1858.54" width="9.78" height="29.34"/>
		<rect fill="white" x="893.33" y="2024.74" width="9.78" height="29.34"/>
		<rect fill="white" x="893.33" y="2190.97" width="9.78" height="39.09"/>
		<rect fill="white" x="893.33" y="2366.92" width="9.78" height="29.34"/>
		<polygon fill="white" points="1005.64,1159.51 1152.14,1159.51 1152.14,2723.77 1005.64,2723.77 "/>
		<rect fill="#43556B" x="1034.95" y="1306.16" width="87.88" height="127.1"/>
		<rect fill="#43556B" x="1034.95" y="1472.36" width="87.88" height="127.1"/>
		<rect fill="#43556B" x="1034.95" y="1648.34" width="87.88" height="127.1"/>
		<rect fill="#43556B" x="1034.95" y="1814.54" width="87.88" height="127.1"/>
		<rect fill="#43556B" x="1034.95" y="1980.76" width="87.88" height="127.1"/>
		<rect fill="#43556B" x="1034.95" y="2146.96" width="87.88" height="127.1"/>
		<rect fill="#43556B" x="1034.95" y="2322.95" width="87.88" height="127.1"/>
		<rect fill="white" x="883.58" y="1516.36" width="9.78" height="39.09"/>
		<rect fill="white" x="219.47" y="2542.9" width="185.55" height="185.74"/>
		<rect fill="#43556B" x="1205.87" y="1370.59" width="527.37" height="1358.94"/>
		<polygon fill="white" points="1210.75,1404.8 1699.06,1404.8 1694.19,2690.43 1215.62,2690.43 1215.62,2573.21 1601.4,2568.24 1601.4,2450.89 1210.75,2450.89 1210.75,2411.8 1601.4,2411.8 1601.4,2294.49 1210.75,2294.49 1210.94,2255.49 1601.4,2255.36 1601.4,2138.05 1210.75,2138.05 1210.94,2099.05 1601.4,2098.95 1601.4,1981.64 1210.75,1981.64 1211.03,1942.52 1601.4,1942.52 1601.4,1825.2 1210.75,1825.2 1211.12,1786.48 1601.4,1786.11 1601.4,1668.76 1210.75,1668.76 1211.44,1629.39 1601.4,1629.67 1601.4,1512.36 1210.75,1512.36 "/>
		<rect fill="white" x="1210.75" y="1561.24" width="341.82" height="29.34"/>
		<rect fill="white" x="1210.75" y="1717.65" width="341.82" height="29.34"/>
		<rect fill="white" x="1210.75" y="1869.21" width="341.82" height="29.34"/>
		<rect fill="white" x="1210.75" y="2030.52" width="341.82" height="29.34"/>
		<rect fill="white" x="1210.75" y="2186.93" width="341.82" height="29.34"/>
		<rect fill="white" x="1210.75" y="2343.37" width="341.82" height="29.34"/>
		<rect fill="white" x="1210.75" y="2499.78" width="341.82" height="29.34"/>
		<path fill="#43556B" d="M1755.11 34.04l79.61 0.28 2.75 251.96c41.89,21.8 61.2,57.98 57.29,105.58 131.66,40.1 228.54,139.71 255.22,246.58l-706.7 1.93c25,-108.11 106.16,-216.14 260.84,-246.85 -3.99,-36.66 5.28,-76.25 50.43,-104.43l0.56 -255.05 0 0 0 0z"/>
		<path fill="white" d="M1832.65 346.61c10.25,13.76 19.25,51.51 16.62,82.78 112.32,13.98 231.76,138.83 249.44,209.23l-599.47 1.57c16.4,-71.09 130.09,-191.44 251.87,-209.7 -2.62,-24.15 -5.56,-52.11 12.59,-84.48l68.95 0.6 0 0 0 0z"/>
		<polygon fill="#FFC65E" stroke="#43556B" stroke-width="19.53" stroke-miterlimit="22.9256" points="1357.43,639.31 2238.65,639.31 2238.65,2743.53 1718.87,2743.13 1711.84,1385.66 1359.4,1384.1 "/>
		<rect fill="white" stroke="#43556B" stroke-width="29.31" stroke-miterlimit="22.9256" x="1736.18" y="2387.47" width="332.17" height="103.15"/>
		<rect fill="white" stroke="#43556B" stroke-width="39.05" stroke-miterlimit="22.9256" x="1718.31" y="2530.68" width="230.57" height="212.55"/>
		<polygon fill="#43556B" points="1976.34,728.38 2083.75,728.38 2083.75,943.46 1976.34,943.46 "/>
		<polygon fill="white" points="1996.55,757.69 2006.3,757.69 2006.3,894.58 1996.55,894.58 "/>
		<polygon fill="#43556B" points="1859.8,728.38 1957.47,728.38 1957.47,943.46 1859.8,943.46 "/>
		<polygon fill="#43556B" points="1742.61,728.38 1840.28,728.38 1840.28,943.46 1742.61,943.46 "/>
		<polygon fill="white" points="1771.92,757.69 1781.67,757.69 1781.67,894.58 1771.92,894.58 "/>
		<polygon fill="#43556B" points="1625.33,728.95 1722.99,728.95 1722.99,944.06 1625.33,944.06 "/>
		<polygon fill="#43556B" points="1743.8,1442.05 1841.46,1442.05 1841.46,1657.26 1743.8,1657.26 "/>
		<polygon fill="#43556B" points="1743.68,972.8 1841.34,972.8 1841.34,1178.09 1743.68,1178.09 "/>
		<polygon fill="#43556B" points="1625.43,1207.42 1723.09,1207.42 1723.09,1370.59 1625.43,1370.59 "/>
		<polygon fill="#43556B" points="1508.24,1207.42 1605.9,1207.42 1605.9,1370.59 1508.24,1370.59 "/>
		<polygon fill="#43556B" points="1508.24,972.8 1605.9,972.8 1605.9,1178.09 1508.24,1178.09 "/>
		<polygon fill="#43556B" points="1508.24,728.38 1605.9,728.38 1605.9,943.46 1508.24,943.46 "/>
		<polygon fill="#43556B" points="1743.02,1921.12 1840.68,1921.12 1840.68,2126.41 1743.02,2126.41 "/>
		<polygon fill="#43556B" points="1743.99,1677.18 1841.65,1677.18 1841.65,1892.29 1743.99,1892.29 "/>
		<polygon fill="#43556B" points="1626.21,972.3 1723.87,972.3 1723.87,1177.71 1626.21,1177.71 "/>
		<polygon fill="#43556B" points="1742.52,1207.05 1840.18,1207.05 1840.18,1412.34 1742.52,1412.34 "/>
		<polygon fill="#43556B" points="1744.18,2149.78 1841.84,2149.78 1841.84,2355.1 1744.18,2355.1 "/>
		<polygon fill="#43556B" points="1859.02,1921.12 1956.69,1921.12 1956.69,2126.41 1859.02,2126.41 "/>
		<polygon fill="#43556B" points="1857.55,1676.71 1955.31,1676.71 1955.31,1891.79 1857.55,1891.79 "/>
		<polygon fill="#43556B" points="1857.18,972.8 1954.84,972.8 1954.84,1178.09 1857.18,1178.09 "/>
		<polygon fill="#43556B" points="1858.05,1442.05 1955.72,1442.05 1955.72,1657.26 1858.05,1657.26 "/>
		<polygon fill="#43556B" points="1858.55,1206.93 1956.22,1206.93 1956.22,1412.34 1858.55,1412.34 "/>
		<polygon fill="#43556B" points="1858.83,2150.46 1956.5,2150.46 1956.5,2355.79 1858.83,2355.79 "/>
		<polygon fill="#43556B" points="1972.52,1921.12 2083.75,1921.12 2083.75,2126.41 1972.52,2126.41 "/>
		<polygon fill="#43556B" points="1972.52,1676.71 2083.75,1676.71 2083.75,1891.79 1972.52,1891.79 "/>
		<polygon fill="#43556B" points="1972.52,972.8 2083.75,972.8 2083.75,1178.09 1972.52,1178.09 "/>
		<polygon fill="#43556B" points="1972.52,1442.05 2083.75,1442.05 2083.75,1657.26 1972.52,1657.26 "/>
		<polygon fill="#43556B" points="1972.52,1207.42 2083.75,1207.42 2083.75,1412.75 1972.52,1412.75 "/>
		<polygon fill="#43556B" points="1972.52,2149.99 2083.75,2149.99 2083.75,2355.29 1972.52,2355.29 "/>
		<polygon fill="white" points="1658.23,757.69 1668.01,757.69 1668.01,894.58 1658.23,894.58 "/>
		<polygon fill="white" points="1996.55,1006.14 2006.3,1006.14 2006.3,1143 1996.55,1143 "/>
		<polygon fill="white" points="1771.92,1006.14 1781.67,1006.14 1781.67,1143 1771.92,1143 "/>
		<polygon fill="white" points="1658.23,1006.14 1668.01,1006.14 1668.01,1143 1658.23,1143 "/>
		<polygon fill="white" points="1996.55,1240.26 2006.3,1240.26 2006.3,1377.15 1996.55,1377.15 "/>
		<polygon fill="white" points="1771.92,1240.26 1781.67,1240.26 1781.67,1377.15 1771.92,1377.15 "/>
		<polygon fill="white" points="1658.23,1240.26 1668.01,1240.26 1668.01,1370.59 1658.23,1370.59 "/>
		<polygon fill="white" points="1996.55,1482.83 2006.3,1482.83 2006.3,1619.69 1996.55,1619.69 "/>
		<polygon fill="white" points="1771.92,1482.83 1781.67,1482.83 1781.67,1619.69 1771.92,1619.69 "/>
		<polygon fill="white" points="1996.55,1721.46 2006.3,1721.46 2006.3,1858.35 1996.55,1858.35 "/>
		<polygon fill="white" points="1771.92,1721.46 1781.67,1721.46 1781.67,1858.35 1771.92,1858.35 "/>
		<polygon fill="white" points="1996.55,1953.96 2006.3,1953.96 2006.3,2090.82 1996.55,2090.82 "/>
		<polygon fill="white" points="1771.92,1953.96 1781.67,1953.96 1781.67,2090.82 1771.92,2090.82 "/>
		<polygon fill="white" points="1996.55,2180.86 2006.3,2180.86 2006.3,2317.75 1996.55,2317.75 "/>
		<polygon fill="white" points="1771.92,2180.86 1781.67,2180.86 1781.67,2317.75 1771.92,2317.75 "/>
		<path fill="#43556B" d="M2858.33 1264.63l-624.65 132.57 0 -1010.12c22.34,-311.1 594.66,-315.88 624.65,0l0 877.55z"/>
		<path fill="white" d="M2816.13 1272.63l-540.27 115.66 0 -990.27c19.34,-269.06 514.3,-273.25 540.27,0l0 874.61z"/>
		<ellipse fill="#009FD7" cx="2546.79" cy="260.57" rx="244.16" ry="244.42"/>
		<rect fill="#43556B" x="2351.65" y="603.91" width="90.63" height="41.06"/>
		<rect fill="#43556B" x="2483.77" y="603.91" width="117.78" height="41.06"/>
		<rect fill="#43556B" x="2644.04" y="603.91" width="90.63" height="41.06"/>
		<rect fill="#43556B" x="2351.65" y="708.43" width="90.63" height="41.06"/>
		<rect fill="#43556B" x="2483.77" y="708.43" width="117.78" height="41.06"/>
		<rect fill="#43556B" x="2644.04" y="708.43" width="90.63" height="41.06"/>
		<rect fill="#43556B" x="2351.65" y="811.58" width="90.63" height="41.06"/>
		<rect fill="#43556B" x="2483.77" y="811.58" width="117.78" height="41.06"/>
		<rect fill="#43556B" x="2644.04" y="811.58" width="90.63" height="41.06"/>
		<rect fill="#43556B" x="2351.65" y="908.94" width="90.63" height="41.06"/>
		<rect fill="#43556B" x="2483.77" y="908.94" width="117.78" height="41.06"/>
		<rect fill="#43556B" x="2644.04" y="908.94" width="90.63" height="41.06"/>
		<rect fill="#43556B" x="2351.65" y="1010.14" width="90.63" height="41.06"/>
		<rect fill="#43556B" x="2483.77" y="1010.14" width="117.78" height="41.06"/>
		<rect fill="#43556B" x="2644.04" y="1010.14" width="90.63" height="41.06"/>
		<rect fill="#43556B" x="2351.65" y="1113.29" width="90.63" height="41.06"/>
		<rect fill="#43556B" x="2483.77" y="1113.29" width="117.78" height="41.06"/>
		<rect fill="#43556B" x="2644.04" y="1113.29" width="90.63" height="41.06"/>
		<polygon fill="#43556B" points="2230.65,1397.98 2964.09,1242.14 2964.09,2728.65 2230.65,2730.81 "/>
		<polygon fill="#00D3FF" points="2277.42,1430.92 2917.32,1294.53 2916.44,2707.07 2277.42,2706.57 "/>
		<rect fill="#43556B" x="2371.86" y="1524.09" width="450.14" height="128.85"/>
		<rect fill="white" x="2415.69" y="1568" width="359.6" height="41.06"/>
		<rect fill="#43556B" x="2371.86" y="1683.06" width="450.14" height="128.85"/>
		<rect fill="white" x="2415.69" y="1726.94" width="359.6" height="41.06"/>
		<rect fill="#43556B" x="2371.86" y="1835.77" width="450.14" height="128.85"/>
		<rect fill="white" x="2415.69" y="1879.78" width="359.6" height="41.06"/>
		<rect fill="#43556B" x="2371.86" y="1994.34" width="450.14" height="128.85"/>
		<rect fill="white" x="2415.69" y="2038.25" width="359.6" height="41.06"/>
		<rect fill="#43556B" x="2371.86" y="2152.81" width="450.14" height="128.85"/>
		<rect fill="white" x="2415.69" y="2196.72" width="359.6" height="41.06"/>
		<rect fill="#43556B" x="2371.86" y="2309.34" width="450.14" height="128.85"/>
		<rect fill="white" x="2415.69" y="2353.25" width="359.6" height="41.06"/>
		<rect fill="#43556B" x="2371.86" y="2460.21" width="450.14" height="128.85"/>
		<rect fill="white" x="2415.69" y="2504.09" width="359.6" height="41.06"/>
		<rect fill="#43556B" x="2351.65" y="1210.65" width="90.63" height="41.06"/>
		<rect fill="#43556B" x="2483.77" y="1210.65" width="117.78" height="41.06"/>
		<rect fill="#43556B" x="2644.04" y="1210.65" width="90.63" height="41.06"/>
		<rect fill="#43556B" x="2351.65" y="1307.26" width="90.63" height="41.06"/>
		<rect fill="#43556B" x="2483.77" y="1307.26" width="117.78" height="41.06"/>
		<circle fill="#E6E6E6" cx="-3181.74" cy="-2564.46" r="14.93" strok="#43556B"/>
		<path fill="white" fill-rule="nonzero" d="M452.72 304.95c-1.22,0.53 -2.31,1.5 -2.84,2.5 -0.41,0.78 -0.5,4.38 -0.57,15.79l0 14.8 -2.37 0.47c-2.34,0.43 -4.41,1.06 -8.75,2.47 -4.12,1.34 -5.84,2.03 -9.21,3.69 -19.25,9.41 -32.4,26.52 -34.78,45.29 -0.43,3.72 -0.31,13.51 0.25,16.73 0.41,2.34 2.13,8.53 3.19,11.44 2.09,5.85 5.91,11.17 12.5,17.89 7,6.95 18.52,14.2 31.49,19.68 2,0.84 4.34,1.84 5.25,2.25 0.87,0.37 5.15,2.09 9.46,3.84 4.28,1.72 8.44,3.38 9.16,3.66 0.69,0.32 2,0.85 2.84,1.22 3.87,1.63 15.09,7.26 17.46,8.85 4.75,3.1 8.63,7.76 10.41,12.48 1.56,4.22 1,11.01 -1.28,15.95 -3.31,7.01 -12.19,12.79 -22.72,14.7 -3.03,0.53 -11.87,0.57 -14.9,0.07 -3.31,-0.6 -4.25,-0.79 -7.21,-1.54 -11.66,-2.94 -22.59,-8.66 -33,-17.26 -3.56,-3 -4.15,-3.32 -5.62,-3.32 -0.94,0.04 -2.09,0.35 -2.66,0.82 -1.46,1.03 -18.12,22.86 -18.43,24.11 -0.78,3.1 1.84,6.32 10.25,12.57 13.03,9.7 25.4,15.42 41.99,19.21 0.31,0.06 1.62,0.28 2.81,0.47 1.22,0.18 2.34,0.37 2.56,0.4 0.16,0.07 0.5,0.1 0.81,0.13 0.44,0.03 0.5,2.72 0.5,13.98 -0.03,7.63 0.1,14.38 0.25,15.01 0.16,0.62 0.85,1.66 1.53,2.31l1.25 1.22 12.16 0.13c10.96,0.06 12.31,0.03 13.59,-0.63 2.53,-1.28 2.59,-1.56 2.59,-17.48l0.03 -14.38 2.63 -0.51c6.09,-1.22 13.46,-3.72 18.65,-6.31 2.53,-1.28 8.96,-5.19 9.56,-5.82 0.09,-0.06 1.12,-0.94 2.22,-1.72 3.24,-2.6 8.65,-8.26 11.55,-12.17 3.19,-4.25 7.44,-12.6 8.88,-17.57 1.87,-6.13 2.75,-12.08 2.78,-18.36 0,-3.04 -0.41,-9.01 -0.66,-9.48 -0.09,-0.09 -0.25,-1.03 -0.41,-2 -0.47,-2.91 -3.24,-10.79 -5.06,-14.29 -3.75,-7.1 -10.93,-14.36 -20.74,-20.77 -3.53,-2.31 -15.69,-8.41 -21.34,-10.7 -1.97,-0.81 -4.38,-1.81 -5.31,-2.28 -0.97,-0.4 -1.91,-0.75 -2.06,-0.75 -0.22,0 -1.41,-0.44 -2.75,-0.97 -1.28,-0.53 -5.28,-2.06 -8.84,-3.47 -16.25,-6.38 -23.72,-10.48 -29.93,-16.48 -4.22,-4.07 -5.72,-7.45 -5.97,-13.17 -0.16,-4.44 0.25,-6.41 2.06,-10.13 3.47,-7.16 12.59,-12.92 22.84,-14.51 3.31,-0.5 13.21,-0.5 16.53,0 4.24,0.68 11.15,2.65 15.24,4.38 5.06,2.12 14.47,7.53 16.43,9.44 0.29,0.28 0.66,0.53 0.82,0.53 0.15,0 0.84,0.5 1.5,1.16 1.72,1.59 2.72,2.06 4.5,2.06 2.03,0 3.75,-1.12 4.78,-3.06 0.43,-0.91 1.25,-2.38 1.84,-3.41 0.56,-1 1.66,-2.97 2.47,-4.44 0.81,-1.44 3.09,-5.6 5.06,-9.29 4.56,-8.2 4.62,-8.66 1.59,-11.82 -3.9,-4.01 -11.93,-9.42 -18.84,-12.67 -5.96,-2.82 -15.84,-6.07 -21.68,-7.16 -0.5,-0.1 -1.25,-0.25 -1.59,-0.38 -0.38,-0.12 -1.59,-0.28 -2.72,-0.43 -1.09,-0.13 -2.47,-0.32 -3.03,-0.41l-1 -0.25 -0.03 -14.58c0,-13.63 -0.06,-14.69 -0.78,-15.79 -1.41,-2.13 -2.28,-2.25 -15,-2.22 -6.37,0 -11.87,0.13 -12.18,0.28l0 0 0 0 0 0z"/>
		<path fill="white" fill-rule="nonzero" d="M2535.85 119.67c-1.18,0.54 -2.28,1.51 -2.81,2.51 -0.41,0.78 -0.53,4.38 -0.56,15.79l0 14.79 -2.38 0.47c-2.34,0.47 -4.4,1.06 -8.78,2.47 -4.09,1.35 -5.84,2.04 -9.18,3.69 -19.25,9.42 -32.4,26.53 -34.77,45.32 -0.44,3.72 -0.32,13.48 0.25,16.7 0.4,2.35 2.12,8.54 3.18,11.45 2.1,5.85 5.88,11.16 12.5,17.89 6.97,6.94 18.53,14.2 31.46,19.67 2.03,0.84 4.37,1.85 5.25,2.25 0.9,0.38 5.15,2.1 9.5,3.85 4.28,1.72 8.43,3.38 9.15,3.66 0.69,0.34 1.97,0.84 2.81,1.22 3.87,1.62 15.09,7.25 17.47,8.85 4.78,3.1 8.65,7.76 10.4,12.48 1.59,4.22 1.03,11.01 -1.28,15.95 -3.31,7.04 -12.19,12.79 -22.72,14.7 -3.03,0.53 -11.87,0.56 -14.87,0.09 -3.31,-0.62 -4.25,-0.81 -7.25,-1.53 -11.65,-2.97 -22.58,-8.7 -32.99,-17.3 -3.56,-3 -4.15,-3.31 -5.62,-3.31 -0.91,0.03 -2.09,0.37 -2.66,0.81 -1.43,1.03 -18.09,22.87 -18.43,24.12 -0.75,3.09 1.87,6.31 10.25,12.6 13.03,9.69 25.43,15.39 41.99,19.17 0.34,0.09 1.62,0.28 2.84,0.5 1.22,0.16 2.34,0.35 2.53,0.41 0.16,0.03 0.53,0.06 0.81,0.09 0.44,0.06 0.53,2.72 0.53,13.98 -0.03,7.63 0.07,14.39 0.25,15.04 0.16,0.6 0.85,1.66 1.54,2.29l1.24 1.22 12.13 0.12c10.99,0.06 12.31,0.03 13.62,-0.62 2.53,-1.29 2.56,-1.57 2.56,-17.49l0.03 -14.35 2.62 -0.53c6.1,-1.22 13.5,-3.72 18.66,-6.32 2.53,-1.28 8.99,-5.19 9.56,-5.82 0.12,-0.06 1.12,-0.91 2.21,-1.72 3.28,-2.59 8.69,-8.25 11.6,-12.16 3.18,-4.23 7.4,-12.61 8.87,-17.58 1.84,-6.13 2.75,-12.07 2.78,-18.36 0,-3.03 -0.41,-9.01 -0.69,-9.44 -0.09,-0.13 -0.25,-1.07 -0.41,-2.04 -0.43,-2.91 -3.21,-10.79 -5.03,-14.29 -3.75,-7.1 -10.93,-14.36 -20.74,-20.77 -3.56,-2.28 -15.68,-8.38 -21.34,-10.69 -1.97,-0.82 -4.4,-1.82 -5.34,-2.26 -0.97,-0.4 -1.88,-0.78 -2.06,-0.78 -0.19,0 -1.41,-0.43 -2.72,-0.97 -1.31,-0.53 -5.31,-2.06 -8.84,-3.47 -16.28,-6.38 -23.75,-10.44 -29.93,-16.48 -4.25,-4.07 -5.75,-7.41 -5.97,-13.17 -0.19,-4.44 0.22,-6.41 2.03,-10.13 3.47,-7.16 12.59,-12.92 22.84,-14.51 3.31,-0.5 13.25,-0.5 16.56,0 4.21,0.69 11.12,2.69 15.24,4.38 5.03,2.12 14.44,7.57 16.44,9.44 0.25,0.28 0.62,0.53 0.78,0.53 0.15,0 0.84,0.54 1.5,1.16 1.75,1.6 2.75,2.07 4.53,2.07 2,0 3.75,-1.13 4.74,-3.07 0.44,-0.88 1.25,-2.38 1.85,-3.38 0.59,-1.03 1.65,-3 2.47,-4.47 0.81,-1.44 3.12,-5.6 5.09,-9.29 4.56,-8.19 4.59,-8.66 1.56,-11.82 -3.9,-4 -11.93,-9.41 -18.84,-12.67 -5.96,-2.78 -15.81,-6.06 -21.65,-7.16 -0.53,-0.06 -1.25,-0.25 -1.62,-0.37 -0.35,-0.1 -1.57,-0.25 -2.69,-0.44 -1.09,-0.13 -2.47,-0.31 -3.03,-0.41l-1 -0.22 -0.06 -14.6c0,-13.64 -0.03,-14.7 -0.75,-15.76 -1.44,-2.16 -2.31,-2.29 -15.03,-2.23 -6.37,0 -11.84,0.1 -12.18,0.29l0 0 0 -0.03 0 -0.01z"/>
	</symbol>
	<symbol id="build-1" viewBox="0 0 673 484.09">
		<path fill="#414042" fill-rule="nonzero" d="M8.89 3.98l654.84 0c2.18,0 3.99,1.81 3.99,4l0 50.67c0,2.15 -1.81,3.93 -3.99,3.99l-11.26 0.31 0.92 418.4 -631.98 -0.27 -0.55 -418.44 -11.98 0c-2.18,0 -3.99,-1.8 -3.99,-3.99l0 -50.67c0,-2.19 1.81,-4 3.99,-4l0.01 0z"/>
		<path fill="#FFB836" fill-rule="nonzero" stroke="#AB7E2B" stroke-width="3.07" stroke-miterlimit="22.9256" d="M24.17 21.8l619.67 0c3.9,0 7.06,1.72 7.06,3.85l0 22.93c0,2.13 -3.16,3.86 -7.06,3.86l-619.67 0c-3.9,0 -7.06,-1.73 -7.06,-3.86l0 -22.93c0,-2.13 3.16,-3.85 7.06,-3.85z"/>
		<path fill="#FFC65E" fill-rule="nonzero" stroke="#BC944B" stroke-width="6.82" stroke-miterlimit="22.9256" d="M40.89 66.53l587.62 0c3.35,0 6.11,2.77 6.11,6.15l0 110.39c0,3.38 -2.76,6.11 -6.11,6.11l-587.62 0c-3.37,0 -6.1,-2.73 -6.1,-6.11l0 -110.39c0,-3.38 2.73,-6.15 6.1,-6.15zm38.84 15.5l52.65 0c2.49,0 4.51,2.04 4.51,4.5l0 74.32c0,2.5 -2.02,4.51 -4.51,4.51l-52.65 0c-2.46,0 -4.51,-2.01 -4.51,-4.51l0 -74.32c0,-2.46 2.05,-4.5 4.51,-4.5zm79.13 0l52.66 0c2.49,0 4.5,2.04 4.5,4.5l0 74.32c0,2.5 -2.01,4.51 -4.5,4.51l-52.66 0c-2.45,0 -4.5,-2.01 -4.5,-4.51l0 -74.32c0,-2.46 2.05,-4.5 4.5,-4.5zm80.98 0l52.65 0c2.49,0 4.5,2.04 4.5,4.5l0 74.32c0,2.5 -2.01,4.51 -4.5,4.51l-52.65 0c-2.46,0 -4.47,-2.01 -4.47,-4.51l0 -74.32c0,-2.46 2.01,-4.5 4.47,-4.5zm78.65 0l52.66 0c2.49,0 4.5,2.04 4.5,4.5l0 74.32c0,2.5 -2.01,4.51 -4.5,4.51l-52.66 0c-2.45,0 -4.5,-2.01 -4.5,-4.51l0 -74.32c0,-2.46 2.05,-4.5 4.5,-4.5zm81.66 0l52.66 0c2.45,0 4.5,2.04 4.5,4.5l0 74.32c0,2.5 -2.05,4.51 -4.5,4.51l-52.66 0c-2.49,0 -4.5,-2.01 -4.5,-4.51l0 -74.32c0,-2.46 2.01,-4.5 4.5,-4.5zm80.3 0l52.65 0c2.49,0 4.51,2.04 4.51,4.5l0 74.32c0,2.5 -2.02,4.51 -4.51,4.51l-52.65 0c-2.46,0 -4.51,-2.01 -4.51,-4.51l0 -74.32c0,-2.46 2.05,-4.5 4.51,-4.5zm79.64 0l52.66 0c2.49,0 4.5,2.04 4.5,4.5l0 74.32c0,2.5 -2.01,4.51 -4.5,4.51l-52.66 0c-2.45,0 -4.5,-2.01 -4.5,-4.51l0 -74.32c0,-2.46 2.05,-4.5 4.5,-4.5z"/>
		<path fill="white" fill-rule="nonzero" d="M92.08 96.87l24.64 0c1.75,0 3.17,1.42 3.17,3.17l0 45.32c0,1.75 -1.42,3.17 -3.17,3.17l-24.64 0c-1.75,0 -3.17,-1.42 -3.17,-3.17l0 -45.32c0,-1.75 1.42,-3.17 3.17,-3.17z"/>
		<path fill="white" fill-rule="nonzero" d="M173.88 96.87l24.63 0c1.76,0 3.18,1.42 3.18,3.17l0 45.32c0,1.75 -1.42,3.17 -3.18,3.17l-24.63 0c-1.75,0 -3.18,-1.42 -3.18,-3.17l0 -45.32c0,-1.75 1.43,-3.17 3.18,-3.17z"/>
		<path fill="white" fill-rule="nonzero" d="M252.19 96.87l24.64 0c1.75,0 3.17,1.42 3.17,3.17l0 45.32c0,1.75 -1.42,3.17 -3.17,3.17l-24.64 0c-1.75,0 -3.17,-1.42 -3.17,-3.17l0 -45.32c0,-1.75 1.42,-3.17 3.17,-3.17z"/>
		<path fill="white" fill-rule="nonzero" d="M333.68 96.87l24.64 0c1.75,0 3.17,1.42 3.17,3.17l0 45.32c0,1.75 -1.42,3.17 -3.17,3.17l-24.64 0c-1.75,0 -3.17,-1.42 -3.17,-3.17l0 -45.32c0,-1.75 1.42,-3.17 3.17,-3.17z"/>
		<path fill="white" fill-rule="nonzero" d="M412.34 96.87l24.63 0c1.76,0 3.18,1.42 3.18,3.17l0 45.32c0,1.75 -1.42,3.17 -3.17,3.17l-24.64 0c-1.75,0 -3.18,-1.42 -3.18,-3.17l0 -45.32c0,-1.75 1.43,-3.17 3.18,-3.17z"/>
		<path fill="white" fill-rule="nonzero" d="M494.17 96.87l24.63 0c1.76,0 3.18,1.42 3.18,3.17l0 45.32c0,1.75 -1.42,3.17 -3.17,3.17l-24.64 0c-1.75,0 -3.18,-1.42 -3.18,-3.17l0 -45.32c0,-1.75 1.43,-3.17 3.18,-3.17z"/>
		<path fill="white" fill-rule="nonzero" d="M576.3 96.87l24.64 0c1.75,0 3.18,1.42 3.18,3.17l-0.01 45.32c0.01,1.75 -1.42,3.17 -3.17,3.17l-24.64 0c-1.75,0 -3.17,-1.42 -3.17,-3.17l0 -45.32c0,-1.75 1.42,-3.17 3.18,-3.17z"/>
		<path fill="#FFC65E" fill-rule="nonzero" stroke="#BC944B" stroke-width="6.82" stroke-miterlimit="22.9256" d="M40.89 204.57l587.62 0c3.35,0 6.11,2.73 6.11,6.1l0 110.4c0,3.37 -2.76,6.14 -6.11,6.14l-587.62 0c-3.37,0 -6.1,-2.77 -6.1,-6.14l0 -110.4c0,-3.37 2.73,-6.1 6.1,-6.1zm38.84 15.49l52.65 0c2.49,0 4.51,2.01 4.51,4.5l0 74.29c0,2.49 -2.02,4.51 -4.51,4.51l-52.65 0c-2.46,0 -4.51,-2.02 -4.51,-4.51l0 -74.29c0,-2.49 2.05,-4.5 4.51,-4.5zm79.13 0l52.66 0c2.49,0 4.5,2.01 4.5,4.5l0 74.29c0,2.49 -2.01,4.51 -4.5,4.51l-52.66 0c-2.45,0 -4.5,-2.02 -4.5,-4.51l0 -74.29c0,-2.49 2.05,-4.5 4.5,-4.5zm80.98 0l52.65 0c2.49,0 4.5,2.01 4.5,4.5l0 74.29c0,2.49 -2.01,4.51 -4.5,4.51l-52.65 0c-2.46,0 -4.47,-2.02 -4.47,-4.51l0 -74.29c0,-2.49 2.01,-4.5 4.47,-4.5zm78.65 0l52.66 0c2.49,0 4.5,2.01 4.5,4.5l0 74.29c0,2.49 -2.01,4.51 -4.5,4.51l-52.66 0c-2.45,0 -4.5,-2.02 -4.5,-4.51l0 -74.29c0,-2.49 2.05,-4.5 4.5,-4.5zm81.66 0l52.66 0c2.45,0 4.5,2.01 4.5,4.5l0 74.29c0,2.49 -2.05,4.51 -4.5,4.51l-52.66 0c-2.49,0 -4.5,-2.02 -4.5,-4.51l0 -74.29c0,-2.49 2.01,-4.5 4.5,-4.5zm80.3 0l52.65 0c2.49,0 4.51,2.01 4.51,4.5l0 74.29c0,2.49 -2.02,4.51 -4.51,4.51l-52.65 0c-2.46,0 -4.51,-2.02 -4.51,-4.51l0 -74.29c0,-2.49 2.05,-4.5 4.51,-4.5zm79.64 0l52.66 0c2.49,0 4.5,2.01 4.5,4.5l0 74.29c0,2.49 -2.01,4.51 -4.5,4.51l-52.66 0c-2.45,0 -4.5,-2.02 -4.5,-4.51l0 -74.29c0,-2.49 2.05,-4.5 4.5,-4.5z"/>
		<path fill="white" fill-rule="nonzero" d="M92.08 234.87l24.64 0c1.75,0 3.17,1.42 3.17,3.17l0 45.32c0,1.75 -1.42,3.17 -3.17,3.17l-24.64 0c-1.75,0 -3.17,-1.42 -3.17,-3.17l0 -45.32c0,-1.75 1.42,-3.17 3.17,-3.17z"/>
		<path fill="white" fill-rule="nonzero" d="M173.88 234.87l24.63 0c1.76,0 3.18,1.42 3.18,3.17l0 45.32c0,1.75 -1.42,3.17 -3.18,3.17l-24.63 0c-1.75,0 -3.18,-1.42 -3.18,-3.17l0 -45.32c0,-1.75 1.43,-3.17 3.18,-3.17z"/>
		<path fill="white" fill-rule="nonzero" d="M252.19 234.87l24.64 0c1.75,0 3.17,1.42 3.17,3.17l0 45.32c0,1.75 -1.42,3.17 -3.17,3.17l-24.64 0c-1.75,0 -3.17,-1.42 -3.17,-3.17l0 -45.32c0,-1.75 1.42,-3.17 3.17,-3.17z"/>
		<path fill="white" fill-rule="nonzero" d="M333.68 234.87l24.64 0c1.75,0 3.17,1.42 3.17,3.17l0 45.32c0,1.75 -1.42,3.17 -3.17,3.17l-24.64 0c-1.75,0 -3.17,-1.42 -3.17,-3.17l0 -45.32c0,-1.75 1.42,-3.17 3.17,-3.17z"/>
		<path fill="white" fill-rule="nonzero" d="M412.34 234.87l24.63 0c1.76,0 3.18,1.42 3.18,3.17l0 45.32c0,1.75 -1.42,3.17 -3.17,3.17l-24.64 0c-1.75,0 -3.18,-1.42 -3.18,-3.17l0 -45.32c0,-1.75 1.43,-3.17 3.18,-3.17z"/>
		<path fill="white" fill-rule="nonzero" d="M494.17 234.87l24.63 0c1.76,0 3.18,1.42 3.18,3.17l0 45.32c0,1.75 -1.42,3.17 -3.17,3.17l-24.64 0c-1.75,0 -3.18,-1.42 -3.18,-3.17l0 -45.32c0,-1.75 1.43,-3.17 3.18,-3.17z"/>
		<path fill="white" fill-rule="nonzero" d="M576.3 234.87l24.64 0c1.75,0 3.18,1.42 3.18,3.17l-0.01 45.32c0.01,1.75 -1.42,3.17 -3.17,3.17l-24.64 0c-1.75,0 -3.17,-1.42 -3.17,-3.17l0 -45.32c0,-1.75 1.42,-3.17 3.18,-3.17z"/>
		<path fill="#FFC65E" fill-rule="nonzero" stroke="#BC944B" stroke-width="6.82" stroke-miterlimit="22.9256" d="M40.89 343.18l587.62 0c3.35,0 6.11,2.76 6.11,6.11l0 110.42c0,3.38 -2.76,6.11 -6.11,6.11l-587.62 0c-3.37,0 -6.1,-2.73 -6.1,-6.11l0 -110.42c0,-3.35 2.73,-6.11 6.1,-6.11zm38.84 15.49l52.65 0c2.49,0 4.51,2.05 4.51,4.51l0 74.32c0,2.46 -2.02,4.5 -4.51,4.5l-52.65 0c-2.46,0 -4.51,-2.04 -4.51,-4.5l0 -74.32c0,-2.46 2.05,-4.51 4.51,-4.51zm79.13 0l52.66 0c2.49,0 4.5,2.05 4.5,4.51l0 74.32c0,2.46 -2.01,4.5 -4.5,4.5l-52.66 0c-2.45,0 -4.5,-2.04 -4.5,-4.5l0 -74.32c0,-2.46 2.05,-4.51 4.5,-4.51zm80.98 0l52.65 0c2.49,0 4.5,2.05 4.5,4.51l0 74.32c0,2.46 -2.01,4.5 -4.5,4.5l-52.65 0c-2.46,0 -4.47,-2.04 -4.47,-4.5l0 -74.32c0,-2.46 2.01,-4.51 4.47,-4.51zm78.65 0l52.66 0c2.49,0 4.5,2.05 4.5,4.51l0 74.32c0,2.46 -2.01,4.5 -4.5,4.5l-52.66 0c-2.45,0 -4.5,-2.04 -4.5,-4.5l0 -74.32c0,-2.46 2.05,-4.51 4.5,-4.51zm81.66 0l52.66 0c2.45,0 4.5,2.05 4.5,4.51l0 74.32c0,2.46 -2.05,4.5 -4.5,4.5l-52.66 0c-2.49,0 -4.5,-2.04 -4.5,-4.5l0 -74.32c0,-2.46 2.01,-4.51 4.5,-4.51zm80.3 0l52.65 0c2.49,0 4.51,2.05 4.51,4.51l0 74.32c0,2.46 -2.02,4.5 -4.51,4.5l-52.65 0c-2.46,0 -4.51,-2.04 -4.51,-4.5l0 -74.32c0,-2.46 2.05,-4.51 4.51,-4.51zm79.64 0l52.66 0c2.49,0 4.5,2.05 4.5,4.51l0 74.32c0,2.46 -2.01,4.5 -4.5,4.5l-52.66 0c-2.45,0 -4.5,-2.04 -4.5,-4.5l0 -74.32c0,-2.46 2.05,-4.51 4.5,-4.51z"/>
		<path fill="white" fill-rule="nonzero" d="M92.08 373.52l24.64 0c1.75,0 3.17,1.42 3.17,3.17l0 45.32c0,1.75 -1.42,3.17 -3.17,3.17l-24.64 0c-1.75,0 -3.17,-1.42 -3.17,-3.17l0 -45.32c0,-1.75 1.42,-3.17 3.17,-3.17z"/>
		<path fill="white" fill-rule="nonzero" d="M173.88 373.52l24.63 0c1.76,0 3.18,1.42 3.18,3.17l0 45.32c0,1.75 -1.42,3.17 -3.18,3.17l-24.63 0c-1.75,0 -3.18,-1.42 -3.18,-3.17l0 -45.32c0,-1.75 1.43,-3.17 3.18,-3.17z"/>
		<path fill="white" fill-rule="nonzero" d="M252.19 373.52l24.64 0c1.75,0 3.17,1.42 3.17,3.17l0 45.32c0,1.75 -1.42,3.17 -3.17,3.17l-24.64 0c-1.75,0 -3.17,-1.42 -3.17,-3.17l0 -45.32c0,-1.75 1.42,-3.17 3.17,-3.17z"/>
		<path fill="white" fill-rule="nonzero" d="M333.68 373.52l24.64 0c1.75,0 3.17,1.42 3.17,3.17l0 45.32c0,1.75 -1.42,3.17 -3.17,3.17l-24.64 0c-1.75,0 -3.17,-1.42 -3.17,-3.17l0 -45.32c0,-1.75 1.42,-3.17 3.17,-3.17z"/>
		<path fill="white" fill-rule="nonzero" d="M412.34 373.52l24.63 0c1.76,0 3.18,1.42 3.18,3.17l0 45.32c0,1.75 -1.42,3.17 -3.17,3.17l-24.64 0c-1.75,0 -3.18,-1.42 -3.18,-3.17l0 -45.32c0,-1.75 1.43,-3.17 3.18,-3.17z"/>
		<path fill="white" fill-rule="nonzero" d="M494.17 373.52l24.63 0c1.76,0 3.18,1.42 3.18,3.17l0 45.32c0,1.75 -1.42,3.17 -3.17,3.17l-24.64 0c-1.75,0 -3.18,-1.42 -3.18,-3.17l0 -45.32c0,-1.75 1.43,-3.17 3.18,-3.17z"/>
		<path fill="white" fill-rule="nonzero" d="M576.3 373.52l24.64 0c1.75,0 3.18,1.42 3.18,3.17l-0.01 45.32c0.01,1.75 -1.42,3.17 -3.17,3.17l-24.64 0c-1.75,0 -3.17,-1.42 -3.17,-3.17l0 -45.32c0,-1.75 1.42,-3.17 3.18,-3.17z"/>
		<path fill="#BC8A2F" fill-rule="nonzero" d="M617.25 19.99l31.43 0c2.12,0 3.82,1.7 3.82,3.79l0 25.86c0,2.39 -1.94,4.34 -4.33,4.34l-30.92 0 0 -33.99 0 0z"/>
		<path fill="#BC944B" fill-rule="nonzero" d="M617.25 65.17l12.83 0c3.31,0 6.01,2.69 6.01,6.01l0 112.06c0,4.06 -3.34,7.37 -7.41,7.37l-11.43 0 0 -125.44z"/>
		<path fill="#BC944B" fill-rule="nonzero" d="M617.25 203.07l12.83 0c3.31,0 6.01,2.69 6.01,6.04l0 112.02c0,4.1 -3.34,7.41 -7.41,7.41l-11.43 0 0 -125.47z"/>
		<path fill="#BC944B" fill-rule="nonzero" d="M617.25 341.78l12.83 0c3.31,0 6.01,2.7 6.01,6.01l0 112.06c0,4.06 -3.34,7.41 -7.41,7.41l-11.43 0 0 -125.48z"/>
	</symbol>
	<symbol id="build-2" viewBox="0 0 673 484.09">
		<rect fill="#00D3FF" x="22.28" y="97.37" width="120.98" height="224.06"/>
		<rect fill="#07AFD2" x="46.84" y="104.33" width="75.84" height="217.08"/>
		<path fill="#414042" d="M149.64 327.53l-132.6 0 0 -230.45 -11.6 0 5.7 -48.57 39.97 -0.1 -0.01 -10.15 11.54 0.01 0.1 -33.01 6.91 0 0.25 33.03 4.23 0 -0.23 -20.39 7.42 -0.01 0.17 20.41 31.58 0.06 0.14 9.95 41.13 -0.06 5.8 48.8 -10.49 0.05 0 230.43 -0.01 0zm-127.36 -230.16l120.98 0 0 11.48 -120.98 0 0 -11.48zm0 18.4l120.98 0 0 2.66 -120.98 0 0 -2.66zm0 8.9l120.98 0 0 2.66 -120.98 0 0 -2.66zm0 9.95l120.98 0 0 2.67 -120.98 0 0 -2.67zm0 10.09l120.98 0 0 2.67 -120.98 0 0 -2.67zm0 8.56l120.98 0 0 2.67 -120.98 0 0 -2.67zm0 10.23l120.98 0 0 2.66 -120.98 0 0 -2.66zm0 8.41l120.98 0 0 4.28 -120.98 0 0 -4.28zm0 10.24l120.98 0 0 2.65 -120.98 0 0 -2.65zm0 10.09l120.98 0 0 2.65 -120.98 0 0 -2.65zm0 8.55l120.98 0 0 2.66 -120.98 0 0 -2.66zm0 9.95l120.98 0 0 2.67 -120.98 0 0 -2.67zm0 8.69l120.98 0 0 4.42 -120.98 0 0 -4.42zm0 9.82l120.98 0 0 2.66 -120.98 0 0 -2.66zm0 10.37l120.98 0 0 2.66 -120.98 0 0 -2.66zm0 8.54l120.98 0 0 2.68 -120.98 0 0 -2.68zm0 9.97l120.98 0 0 2.65 -120.98 0 0 -2.65zm0 8.54l120.98 0 0 4.42 -120.98 0 0 -4.42zm0 10.1l120.98 0 0 2.66 -120.98 0 0 -2.66zm0 10.22l120.98 0 0 2.67 -120.98 0 0 -2.67zm0 8.42l120.98 0 0 2.67 -120.98 0 0 -2.67zm0 10.1l120.98 0 0 2.66 -120.98 0 0 -2.66zm0 8.41l120.98 0 0 7.5 -120.98 0 0 -7.5z"/>
		<rect fill="#E6E7E8" x="57.96" y="43.48" width="48.02" height="5.33"/>
		<polygon fill="#E6E7E8" points="16.96,55.27 148.6,55.27 152.29,90.03 12.79,90.03 "/>
		<rect fill="#3B393B" x="46.84" y="108.85" width="75.84" height="6.9"/>
		<rect fill="#3B393B" x="46.84" y="118.43" width="75.84" height="6.24"/>
		<rect fill="#3B393B" x="46.84" y="127.33" width="75.84" height="7.29"/>
		<rect fill="#3B393B" x="46.84" y="137.29" width="75.84" height="7.42"/>
		<rect fill="#3B393B" x="46.84" y="147.38" width="75.84" height="5.89"/>
		<rect fill="#3B393B" x="46.84" y="155.94" width="75.84" height="7.57"/>
		<rect fill="#3B393B" x="46.84" y="166.16" width="75.84" height="5.74"/>
		<rect fill="#3B393B" x="46.84" y="176.19" width="75.84" height="5.96"/>
		<rect fill="#3B393B" x="46.84" y="184.8" width="75.84" height="7.42"/>
		<rect fill="#3B393B" x="46.84" y="194.9" width="75.84" height="5.89"/>
		<rect fill="#3B393B" x="46.84" y="203.45" width="75.84" height="7.29"/>
		<rect fill="#3B393B" x="46.84" y="213.4" width="75.84" height="6.03"/>
		<rect fill="#3B393B" x="46.84" y="223.85" width="75.84" height="5.4"/>
		<rect fill="#3B393B" x="46.84" y="231.92" width="75.84" height="7.71"/>
		<rect fill="#3B393B" x="46.84" y="242.28" width="75.84" height="5.89"/>
		<rect fill="#3B393B" x="46.84" y="250.83" width="75.84" height="7.29"/>
		<rect fill="#3B393B" x="46.84" y="260.78" width="75.84" height="5.89"/>
		<rect fill="#3B393B" x="46.84" y="271.09" width="75.84" height="5.67"/>
		<rect fill="#3B393B" x="46.84" y="279.43" width="75.84" height="7.57"/>
		<rect fill="#3B393B" x="46.84" y="289.66" width="75.84" height="5.74"/>
		<rect fill="#3B393B" x="46.84" y="298.08" width="75.84" height="7.44"/>
		<rect fill="#3B393B" x="46.84" y="308.17" width="75.84" height="5.74"/>
		<rect fill="#414042" x="53.7" y="102.45" width="62.24" height="218.96"/>
		<rect fill="white" x="59.58" y="108.85" width="49.91" height="212.56"/>
		<rect fill="#414042" x="63.07" y="115.76" width="42.33" height="17.04"/>
		<rect fill="white" x="69.66" y="121.24" width="30.22" height="6.09"/>
		<rect fill="#414042" x="63.07" y="138.04" width="42.33" height="17.04"/>
		<rect fill="white" x="69.66" y="143.51" width="30.22" height="6.09"/>
		<rect fill="#414042" x="63.07" y="160.6" width="42.33" height="17.04"/>
		<rect fill="white" x="69.66" y="166.07" width="30.22" height="6.09"/>
		<rect fill="#414042" x="63.07" y="183.71" width="42.33" height="17.04"/>
		<rect fill="white" x="69.66" y="189.2" width="30.22" height="6.09"/>
		<rect fill="#414042" x="63.07" y="205.6" width="42.33" height="17.04"/>
		<rect fill="white" x="69.66" y="211.07" width="30.22" height="6.09"/>
		<rect fill="#414042" x="63.07" y="228.03" width="42.33" height="17.04"/>
		<rect fill="white" x="69.66" y="233.51" width="30.22" height="6.09"/>
		<rect fill="#414042" x="63.07" y="250.73" width="42.33" height="17.04"/>
		<rect fill="white" x="69.66" y="256.22" width="30.22" height="6.09"/>
		<rect fill="#414042" x="63.07" y="273.03" width="42.33" height="17.04"/>
		<rect fill="white" x="69.66" y="278.51" width="30.22" height="6.09"/>
		<rect fill="#414042" x="63.07" y="295.32" width="42.33" height="17.04"/>
		<rect fill="white" x="69.66" y="300.79" width="30.22" height="6.09"/>
	</symbol>
	<symbol id="build-3" viewBox="0 0 59 118">
		<polygon fill="#414042" fill-rule="nonzero" points="57.71,25.13 29.89,4.68 0.51,25.13 0.51,114.93 57.71,114.93 "/>
		<polygon fill="#383637" fill-rule="nonzero" points="0.51,25.13 19.32,12.04 19.32,114.93 0.51,114.93 "/>
		<polygon fill="#E6E7E8" fill-rule="nonzero" points="29.97,9.65 50.93,24.55 8.69,24.55 "/>
		<polygon fill="#9C9C9D" fill-rule="nonzero" points="19.32,17.1 19.31,24.55 8.68,24.55 "/>
		<rect fill="#E6E7E8" fill-rule="nonzero" x="4.05" y="27.52" width="49.68" height="83.38"/>
		<rect fill="#9C9C9D" fill-rule="nonzero" x="4.05" y="27.52" width="15.27" height="83.38"/>
		<path fill="#414042" fill-rule="nonzero" d="M35.03 36.93l10.35 0c0.71,-0.01 1.29,0.57 1.29,1.29l0 10.58c0,0.71 -0.58,1.29 -1.29,1.29l-10.35 0c-0.71,0 -1.29,-0.58 -1.29,-1.29l0 -10.58c0,-0.72 0.58,-1.3 1.29,-1.3z"/>
		<path fill="#FFB836" fill-rule="nonzero" d="M37.71 40.31l4.19 0c0.48,0 0.86,0.36 0.86,0.8l0 4.2c0,0.44 -0.38,0.8 -0.86,0.8l-4.19 0c-0.48,0 -0.86,-0.36 -0.86,-0.8l0 -4.2c0,-0.44 0.38,-0.8 0.86,-0.8z"/>
		<path fill="#414042" fill-rule="nonzero" d="M14.14 36.93l10.34 0c0.72,-0.01 1.3,0.57 1.3,1.29l-0.01 10.58c0.01,0.71 -0.57,1.29 -1.29,1.29l-10.34 0c-0.71,0 -1.29,-0.58 -1.29,-1.29l0 -10.58c0,-0.72 0.58,-1.3 1.29,-1.3z"/>
		<path fill="#383637" fill-rule="nonzero" d="M13.5 36.93l5.82 0 0 13.16 -5.82 0c-0.36,0 -0.65,-0.29 -0.65,-0.65l0 -11.86c0,-0.37 0.29,-0.65 0.65,-0.65z"/>
		<path fill="#FFB836" fill-rule="nonzero" d="M16.8 40.31l4.2 0c0.47,0 0.86,0.36 0.86,0.8l0 4.2c0,0.44 -0.39,0.8 -0.86,0.8l-4.2 0c-0.47,0 -0.85,-0.36 -0.85,-0.8l0 -4.2c0,-0.44 0.38,-0.8 0.85,-0.8z"/>
		<path fill="#414042" fill-rule="nonzero" d="M35.03 54.59l10.35 0c0.71,0 1.29,0.58 1.29,1.29l0 10.59c0,0.71 -0.58,1.29 -1.29,1.29l-10.35 0c-0.71,0 -1.29,-0.58 -1.29,-1.29l0 -10.58c0,-0.72 0.58,-1.3 1.29,-1.3z"/>
		<path fill="#FFB836" fill-rule="nonzero" d="M37.71 57.99l4.19 0c0.48,0 0.86,0.36 0.86,0.8l0 4.2c0,0.44 -0.38,0.8 -0.86,0.8l-4.19 0c-0.48,0 -0.86,-0.36 -0.86,-0.8l0 -4.2c0,-0.44 0.38,-0.8 0.86,-0.8z"/>
		<path fill="#414042" fill-rule="nonzero" d="M14.14 54.59l10.34 0c0.72,0 1.3,0.58 1.3,1.29l-0.01 10.59c0.01,0.71 -0.57,1.29 -1.29,1.29l-10.34 0c-0.71,0 -1.29,-0.58 -1.29,-1.29l0 -10.58c0,-0.72 0.58,-1.3 1.29,-1.3z"/>
		<path fill="#FFB836" fill-rule="nonzero" d="M16.8 57.99l4.2 0c0.47,0 0.86,0.36 0.86,0.8l0 4.2c0,0.44 -0.39,0.8 -0.86,0.8l-4.2 0c-0.47,0 -0.85,-0.36 -0.85,-0.8l0 -4.2c0,-0.44 0.38,-0.8 0.85,-0.8z"/>
		<path fill="#414042" fill-rule="nonzero" d="M35.03 71.6l10.35 0c0.71,0 1.29,0.57 1.29,1.29l0 10.58c0,0.72 -0.58,1.29 -1.29,1.29l-10.35 0c-0.71,0 -1.29,-0.57 -1.29,-1.29l0 -10.58c0,-0.72 0.58,-1.29 1.29,-1.29z"/>
		<path fill="#FFB836" fill-rule="nonzero" d="M37.71 74.99l4.19 0c0.48,0 0.86,0.36 0.86,0.8l0 4.2c0,0.44 -0.38,0.8 -0.86,0.8l-4.19 0c-0.48,0 -0.86,-0.36 -0.86,-0.8l0 -4.2c0,-0.44 0.38,-0.8 0.86,-0.8z"/>
		<path fill="#414042" fill-rule="nonzero" d="M14.14 71.6l10.34 0c0.72,0 1.3,0.57 1.3,1.29l-0.01 10.58c0.01,0.72 -0.57,1.29 -1.29,1.29l-10.34 0c-0.71,0 -1.29,-0.57 -1.29,-1.29l0 -10.58c0,-0.72 0.58,-1.29 1.29,-1.29z"/>
		<path fill="#FFB836" fill-rule="nonzero" d="M16.8 74.99l4.2 0c0.47,0 0.86,0.36 0.86,0.8l0 4.2c0,0.44 -0.39,0.8 -0.86,0.8l-4.2 0c-0.47,0 -0.85,-0.36 -0.85,-0.8l0 -4.2c0,-0.44 0.38,-0.8 0.85,-0.8z"/>
		<path fill="#414042" fill-rule="nonzero" d="M35.03 89.31l10.35 0c0.71,-0.01 1.29,0.57 1.29,1.29l0 10.58c0,0.71 -0.58,1.29 -1.29,1.29l-10.35 0c-0.71,0 -1.29,-0.58 -1.29,-1.29l0 -10.58c0,-0.72 0.58,-1.3 1.29,-1.3z"/>
		<path fill="#FFB836" fill-rule="nonzero" d="M37.71 92.7l4.19 0c0.48,0 0.86,0.36 0.86,0.8l0 4.2c0,0.44 -0.38,0.8 -0.86,0.8l-4.19 0c-0.48,0 -0.86,-0.36 -0.86,-0.8l0 -4.2c0,-0.44 0.38,-0.8 0.86,-0.8z"/>
		<path fill="#414042" fill-rule="nonzero" d="M14.14 89.31l10.34 0c0.72,-0.01 1.3,0.57 1.3,1.29l-0.01 10.58c0.01,0.71 -0.57,1.29 -1.29,1.29l-10.34 0c-0.71,0 -1.29,-0.58 -1.29,-1.29l0 -10.58c0,-0.72 0.58,-1.3 1.29,-1.3z"/>
		<path fill="#FFB836" fill-rule="nonzero" d="M16.8 92.7l4.2 0c0.47,0 0.86,0.36 0.86,0.8l0 4.2c0,0.44 -0.39,0.8 -0.86,0.8l-4.2 0c-0.47,0 -0.85,-0.36 -0.85,-0.8l0 -4.2c0,-0.44 0.38,-0.8 0.85,-0.8z"/>
		<path fill="#BC8A2F" fill-rule="nonzero" d="M16.44 40.31l2.88 0 0 5.8 -2.88 0c-0.27,0 -0.49,-0.22 -0.49,-0.48l0 -4.83c0,-0.26 0.22,-0.49 0.49,-0.49l0 0z"/>
		<path fill="#383637" fill-rule="nonzero" d="M13.5 54.59l5.82 0 0 13.17 -5.82 0c-0.36,0 -0.65,-0.3 -0.65,-0.65l0 -11.87c0,-0.36 0.29,-0.65 0.65,-0.65z"/>
		<path fill="#BC8A2F" fill-rule="nonzero" d="M16.44 57.99l2.88 0 0 5.79 -2.88 0c-0.27,0 -0.49,-0.21 -0.49,-0.48l0 -4.83c0,-0.26 0.22,-0.48 0.49,-0.48z"/>
		<path fill="#383637" fill-rule="nonzero" d="M13.5 71.6l5.82 0 0 13.17 -5.82 0c-0.36,0 -0.65,-0.29 -0.65,-0.65l0 -11.87c0,-0.35 0.29,-0.65 0.65,-0.65z"/>
		<path fill="#BC8A2F" fill-rule="nonzero" d="M16.44 74.99l2.88 0 0 5.8 -2.88 0c-0.27,0 -0.49,-0.22 -0.49,-0.49l0 -4.83c0,-0.26 0.22,-0.48 0.49,-0.48z"/>
		<path fill="#383637" fill-rule="nonzero" d="M13.5 89.31l5.82 0 0 13.16 -5.82 0c-0.36,0 -0.65,-0.29 -0.65,-0.65l0 -11.86c0,-0.36 0.29,-0.65 0.65,-0.65z"/>
		<path fill="#BC8A2F" fill-rule="nonzero" d="M16.44 92.7l2.88 0 0 5.79 -2.88 0c-0.27,0 -0.49,-0.21 -0.49,-0.48l0 -4.83c0,-0.26 0.22,-0.48 0.49,-0.48z"/>
	</symbol>
	<symbol id="build-4" viewBox="0 0 319 933.37">
		<polygon fill="#414042" fill-rule="nonzero" points="4.41,100 153.67,100 153.46,0.28 169.24,0.25 169.62,100 314.54,100 314.54,924.86 4.41,924.86 "/>
		<polygon fill="white" fill-rule="nonzero" stroke="#E6E6E6" stroke-width="2.36" stroke-miterlimit="22.9256" points="21.38,116.88 299.85,116.88 299.85,838.71 21.38,838.71 "/>
		<polygon fill="white" fill-rule="nonzero" points="21.38,853.81 299.85,853.81 299.85,911.2 21.38,911.2 "/>
		<polygon fill="#414042" fill-rule="nonzero" stroke="#414042" stroke-width="2.36" stroke-miterlimit="22.9256" points="35.45,338.83 284.25,338.83 284.25,350.02 35.45,350.02 "/>
		<polygon fill="#414042" fill-rule="nonzero" stroke="#414042" stroke-width="2.36" stroke-miterlimit="22.9256" points="35.45,314.42 284.25,314.42 284.25,328.26 35.45,328.26 "/>
		<polygon fill="#414042" fill-rule="nonzero" stroke="#414042" stroke-width="2.36" stroke-miterlimit="22.9256" points="35.45,288.85 284.25,288.85 284.25,302.69 35.45,302.69 "/>
		<polygon fill="#414042" fill-rule="nonzero" stroke="#414042" stroke-width="2.36" stroke-miterlimit="22.9256" points="35.45,267.21 284.25,267.21 284.25,278.28 35.45,278.28 "/>
		<polygon fill="#414042" fill-rule="nonzero" stroke="#414042" stroke-width="2.36" stroke-miterlimit="22.9256" points="35.45,243.08 284.25,243.08 284.25,256.68 35.45,256.68 "/>
		<polygon fill="#414042" fill-rule="nonzero" stroke="#414042" stroke-width="2.36" stroke-miterlimit="22.9256" points="35.45,217.39 284.25,217.39 284.25,230.95 35.45,230.95 "/>
		<polygon fill="#414042" fill-rule="nonzero" stroke="#414042" stroke-width="2.36" stroke-miterlimit="22.9256" points="35.45,195.25 284.25,195.25 284.25,206.54 35.45,206.54 "/>
		<polygon fill="#414042" fill-rule="nonzero" stroke="#414042" stroke-width="2.36" stroke-miterlimit="22.9256" points="35.45,169.9 284.25,169.9 284.25,184.56 35.45,184.56 "/>
		<polygon fill="#414042" fill-rule="nonzero" stroke="#414042" stroke-width="2.36" stroke-miterlimit="22.9256" points="35.45,145.17 284.25,145.17 284.25,159.84 35.45,159.84 "/>
		<polygon fill="#414042" fill-rule="nonzero" stroke="#414042" stroke-width="2.36" stroke-miterlimit="22.9256" points="35.45,770.09 284.25,770.09 284.25,781.53 35.45,781.53 "/>
		<polygon fill="#414042" fill-rule="nonzero" stroke="#414042" stroke-width="2.36" stroke-miterlimit="22.9256" points="35.45,745.9 284.25,745.9 284.25,759.31 35.45,759.31 "/>
		<polygon fill="#414042" fill-rule="nonzero" stroke="#414042" stroke-width="2.36" stroke-miterlimit="22.9256" points="35.45,720.26 284.25,720.26 284.25,733.68 35.45,733.68 "/>
		<polygon fill="#414042" fill-rule="nonzero" stroke="#414042" stroke-width="2.36" stroke-miterlimit="22.9256" points="35.45,698.41 284.25,698.41 284.25,709.85 35.45,709.85 "/>
		<polygon fill="#414042" fill-rule="nonzero" stroke="#414042" stroke-width="2.36" stroke-miterlimit="22.9256" points="35.45,674.59 284.25,674.59 284.25,688 35.45,688 "/>
		<polygon fill="#414042" fill-rule="nonzero" stroke="#414042" stroke-width="2.36" stroke-miterlimit="22.9256" points="35.45,648.96 284.25,648.96 284.25,662.34 35.45,662.34 "/>
		<polygon fill="#414042" fill-rule="nonzero" stroke="#414042" stroke-width="2.36" stroke-miterlimit="22.9256" points="35.45,627.11 284.25,627.11 284.25,638.33 35.45,638.33 "/>
		<polygon fill="#414042" fill-rule="nonzero" stroke="#414042" stroke-width="2.36" stroke-miterlimit="22.9256" points="35.45,601.79 284.25,601.79 284.25,615.17 35.45,615.17 "/>
		<polygon fill="#414042" fill-rule="nonzero" stroke="#414042" stroke-width="2.36" stroke-miterlimit="22.9256" points="35.45,576.41 284.25,576.41 284.25,589.82 35.45,589.82 "/>
		<polygon fill="#414042" fill-rule="nonzero" stroke="#414042" stroke-width="2.36" stroke-miterlimit="22.9256" points="35.45,554.9 284.25,554.9 284.25,566.43 35.45,566.43 "/>
		<polygon fill="#414042" fill-rule="nonzero" stroke="#414042" stroke-width="2.36" stroke-miterlimit="22.9256" points="35.45,529.89 284.25,529.89 284.25,544.21 35.45,544.21 "/>
		<polygon fill="#414042" fill-rule="nonzero" stroke="#414042" stroke-width="2.36" stroke-miterlimit="22.9256" points="35.45,505.63 284.25,505.63 284.25,519.98 35.45,519.98 "/>
		<polygon fill="#414042" fill-rule="nonzero" stroke="#414042" stroke-width="2.36" stroke-miterlimit="22.9256" points="35.45,481.59 284.25,481.59 284.25,494.94 35.45,494.94 "/>
		<polygon fill="#414042" fill-rule="nonzero" stroke="#414042" stroke-width="2.36" stroke-miterlimit="22.9256" points="35.45,458.68 284.25,458.68 284.25,472.81 35.45,472.81 "/>
		<polygon fill="#414042" fill-rule="nonzero" stroke="#414042" stroke-width="2.36" stroke-miterlimit="22.9256" points="35.45,434.14 284.25,434.14 284.25,447.49 35.45,447.49 "/>
		<polygon fill="#414042" fill-rule="nonzero" stroke="#414042" stroke-width="2.36" stroke-miterlimit="22.9256" points="35.45,410.23 284.25,410.23 284.25,422.26 35.45,422.26 "/>
		<polygon fill="#414042" fill-rule="nonzero" stroke="#414042" stroke-width="2.36" stroke-miterlimit="22.9256" points="35.45,386.44 284.25,386.44 284.25,399.79 35.45,399.79 "/>
		<polygon fill="#414042" fill-rule="nonzero" stroke="#414042" stroke-width="2.36" stroke-miterlimit="22.9256" points="35.45,361.59 284.25,361.59 284.25,374.94 35.45,374.94 "/>
		<polygon fill="#414042" fill-rule="nonzero" stroke="#414042" stroke-width="2.36" stroke-miterlimit="22.9256" points="35.45,817.64 284.25,817.64 284.25,831.05 35.45,831.05 "/>
		<polygon fill="#414042" fill-rule="nonzero" stroke="#414042" stroke-width="2.36" stroke-miterlimit="22.9256" points="35.45,792.32 284.25,792.32 284.25,805.7 35.45,805.7 "/>
		<polygon fill="#414042" fill-rule="nonzero" points="110.54,858.09 197.25,858.09 197.25,911.2 186.4,911.2 186.31,873.06 159.86,873.09 159.83,911.2 148.55,911.2 148.61,873 121.7,872.97 121.82,911.2 110.54,911.2 110.54,858.09 "/>
	</symbol>
	<symbol id="build-5" viewBox="0 0 331 200.96">
		<rect fill="#414042" fill-rule="nonzero" x="1.55" y="2.81" width="325.28" height="191.7"/>
		<rect fill="#383637" fill-rule="nonzero" x="1.55" y="2.81" width="48.81" height="191.7"/>
		<rect fill="#00CCFF" fill-rule="nonzero" x="33.91" y="10.6" width="19.77" height="17.67"/>
		<rect fill="#00CCFF" fill-rule="nonzero" x="60.1" y="10.6" width="19.77" height="17.67"/>
		<rect fill="#00CCFF" fill-rule="nonzero" x="87.52" y="10.6" width="19.77" height="17.67"/>
		<rect fill="#00CCFF" fill-rule="nonzero" x="113.73" y="10.6" width="19.77" height="17.67"/>
		<rect fill="#00CCFF" fill-rule="nonzero" x="141.13" y="10.6" width="19.77" height="17.67"/>
		<rect fill="#00CCFF" fill-rule="nonzero" x="167.34" y="10.6" width="19.77" height="17.67"/>
		<rect fill="#00CCFF" fill-rule="nonzero" x="194.75" y="10.6" width="18.42" height="17.67"/>
		<rect fill="#00CCFF" fill-rule="nonzero" x="220.88" y="10.6" width="19.92" height="17.67"/>
		<rect fill="#00CCFF" fill-rule="nonzero" x="246.94" y="10.6" width="19.92" height="17.67"/>
		<rect fill="#00CCFF" fill-rule="nonzero" x="274.49" y="10.6" width="19.92" height="17.67"/>
		<rect fill="#383637" fill-rule="nonzero" x="303.91" y="2.81" width="22.93" height="191.7"/>
		<rect fill="#00CCFF" fill-rule="nonzero" x="300.55" y="10.6" width="19.92" height="17.67"/>
		<rect fill="#0A9DBB" fill-rule="nonzero" x="6.85" y="10.6" width="19.77" height="17.67"/>
		<rect fill="#0A9DBB" fill-rule="nonzero" x="33.91" y="10.6" width="16.45" height="17.67"/>
		<rect fill="#0A9DBB" fill-rule="nonzero" x="303.91" y="10.6" width="16.56" height="17.67"/>
		<rect fill="#00CCFF" fill-rule="nonzero" x="33.91" y="34.11" width="19.77" height="19.55"/>
		<rect fill="#00CCFF" fill-rule="nonzero" x="60.1" y="34.11" width="19.77" height="19.55"/>
		<rect fill="#00CCFF" fill-rule="nonzero" x="87.52" y="34.11" width="19.77" height="19.55"/>
		<rect fill="#00CCFF" fill-rule="nonzero" x="113.73" y="34.11" width="19.77" height="19.55"/>
		<rect fill="#00CCFF" fill-rule="nonzero" x="141.13" y="34.11" width="19.77" height="19.55"/>
		<rect fill="#00CCFF" fill-rule="nonzero" x="167.34" y="34.11" width="19.77" height="19.55"/>
		<rect fill="#00CCFF" fill-rule="nonzero" x="194.75" y="34.11" width="18.42" height="19.55"/>
		<rect fill="#00CCFF" fill-rule="nonzero" x="220.88" y="34.11" width="19.92" height="19.55"/>
		<rect fill="#00CCFF" fill-rule="nonzero" x="246.94" y="34.11" width="19.92" height="19.55"/>
		<rect fill="#00CCFF" fill-rule="nonzero" x="274.49" y="34.11" width="19.92" height="19.55"/>
		<rect fill="#00CCFF" fill-rule="nonzero" x="300.55" y="34.11" width="19.92" height="19.55"/>
		<rect fill="#0A9DBB" fill-rule="nonzero" x="6.85" y="34.11" width="19.77" height="19.55"/>
		<rect fill="#0A9DBB" fill-rule="nonzero" x="33.91" y="34.11" width="16.45" height="19.55"/>
		<rect fill="#0A9DBB" fill-rule="nonzero" x="303.91" y="34.11" width="16.56" height="19.55"/>
		<rect fill="#00CCFF" fill-rule="nonzero" x="33.91" y="61.67" width="19.77" height="19.55"/>
		<rect fill="#00CCFF" fill-rule="nonzero" x="60.1" y="61.67" width="19.77" height="19.55"/>
		<rect fill="#00CCFF" fill-rule="nonzero" x="87.52" y="61.67" width="19.77" height="19.55"/>
		<rect fill="#00CCFF" fill-rule="nonzero" x="113.73" y="61.67" width="19.77" height="19.55"/>
		<rect fill="#00CCFF" fill-rule="nonzero" x="141.13" y="61.67" width="19.77" height="19.55"/>
		<rect fill="#00CCFF" fill-rule="nonzero" x="167.34" y="61.67" width="19.77" height="19.55"/>
		<rect fill="#00CCFF" fill-rule="nonzero" x="194.75" y="61.67" width="18.42" height="19.55"/>
		<rect fill="#00CCFF" fill-rule="nonzero" x="220.88" y="61.67" width="19.92" height="19.55"/>
		<rect fill="#00CCFF" fill-rule="nonzero" x="246.94" y="61.67" width="19.92" height="19.55"/>
		<rect fill="#00CCFF" fill-rule="nonzero" x="274.49" y="61.67" width="19.92" height="19.55"/>
		<rect fill="#00CCFF" fill-rule="nonzero" x="300.55" y="61.67" width="19.92" height="19.55"/>
		<rect fill="#0A9DBB" fill-rule="nonzero" x="6.85" y="61.67" width="19.77" height="19.55"/>
		<rect fill="#0A9DBB" fill-rule="nonzero" x="33.91" y="61.67" width="16.45" height="19.55"/>
		<rect fill="#0A9DBB" fill-rule="nonzero" x="303.91" y="61.67" width="16.56" height="19.55"/>
		<rect fill="#00CCFF" fill-rule="nonzero" x="33.91" y="87.44" width="19.77" height="19.55"/>
		<rect fill="#00CCFF" fill-rule="nonzero" x="60.1" y="87.44" width="19.77" height="19.55"/>
		<rect fill="#00CCFF" fill-rule="nonzero" x="87.52" y="87.44" width="19.77" height="19.55"/>
		<rect fill="#00CCFF" fill-rule="nonzero" x="113.73" y="87.44" width="19.77" height="19.55"/>
		<rect fill="#00CCFF" fill-rule="nonzero" x="141.13" y="87.44" width="19.77" height="19.55"/>
		<rect fill="#00CCFF" fill-rule="nonzero" x="167.34" y="87.44" width="19.77" height="19.55"/>
		<rect fill="#00CCFF" fill-rule="nonzero" x="194.75" y="87.44" width="18.42" height="19.55"/>
		<rect fill="#00CCFF" fill-rule="nonzero" x="220.88" y="87.44" width="19.92" height="19.55"/>
		<rect fill="#00CCFF" fill-rule="nonzero" x="246.94" y="87.44" width="19.92" height="19.55"/>
		<rect fill="#00CCFF" fill-rule="nonzero" x="274.49" y="87.44" width="19.92" height="19.55"/>
		<rect fill="#00CCFF" fill-rule="nonzero" x="300.55" y="87.44" width="19.92" height="19.55"/>
		<rect fill="#0A9DBB" fill-rule="nonzero" x="6.85" y="87.44" width="19.77" height="19.55"/>
		<rect fill="#0A9DBB" fill-rule="nonzero" x="33.91" y="87.44" width="16.45" height="19.55"/>
		<rect fill="#0A9DBB" fill-rule="nonzero" x="303.91" y="87.44" width="16.56" height="19.55"/>
		<rect fill="#00CCFF" fill-rule="nonzero" x="33.91" y="115.59" width="19.77" height="19.55"/>
		<rect fill="#00CCFF" fill-rule="nonzero" x="60.1" y="115.59" width="19.77" height="19.55"/>
		<rect fill="#00CCFF" fill-rule="nonzero" x="87.52" y="115.59" width="19.77" height="19.55"/>
		<rect fill="#00CCFF" fill-rule="nonzero" x="113.73" y="115.59" width="19.77" height="19.55"/>
		<rect fill="#00CCFF" fill-rule="nonzero" x="141.13" y="115.59" width="19.77" height="19.55"/>
		<rect fill="#00CCFF" fill-rule="nonzero" x="167.34" y="115.59" width="19.77" height="19.55"/>
		<rect fill="#00CCFF" fill-rule="nonzero" x="194.75" y="115.59" width="18.42" height="19.55"/>
		<rect fill="#00CCFF" fill-rule="nonzero" x="220.88" y="115.59" width="19.92" height="19.55"/>
		<rect fill="#00CCFF" fill-rule="nonzero" x="246.94" y="115.59" width="19.92" height="19.55"/>
		<rect fill="#00CCFF" fill-rule="nonzero" x="274.49" y="115.59" width="19.92" height="19.55"/>
		<rect fill="#00CCFF" fill-rule="nonzero" x="300.55" y="115.59" width="19.92" height="19.55"/>
		<rect fill="#0A9DBB" fill-rule="nonzero" x="6.85" y="115.59" width="19.77" height="19.55"/>
		<rect fill="#0A9DBB" fill-rule="nonzero" x="33.91" y="115.59" width="16.45" height="19.55"/>
		<rect fill="#0A9DBB" fill-rule="nonzero" x="303.91" y="115.59" width="16.56" height="19.55"/>
		<rect fill="#00CCFF" fill-rule="nonzero" x="33.91" y="141.49" width="19.77" height="19.55"/>
		<rect fill="#00CCFF" fill-rule="nonzero" x="60.1" y="141.49" width="19.77" height="19.55"/>
		<rect fill="#00CCFF" fill-rule="nonzero" x="87.52" y="141.49" width="19.77" height="19.55"/>
		<rect fill="#00CCFF" fill-rule="nonzero" x="113.73" y="141.49" width="19.77" height="19.55"/>
		<rect fill="#00CCFF" fill-rule="nonzero" x="141.13" y="141.49" width="19.77" height="19.55"/>
		<rect fill="#00CCFF" fill-rule="nonzero" x="167.34" y="141.49" width="19.77" height="19.55"/>
		<rect fill="#00CCFF" fill-rule="nonzero" x="194.75" y="141.49" width="18.42" height="19.55"/>
		<rect fill="#00CCFF" fill-rule="nonzero" x="220.88" y="141.49" width="19.92" height="19.55"/>
		<rect fill="#00CCFF" fill-rule="nonzero" x="246.94" y="141.49" width="19.92" height="19.55"/>
		<rect fill="#00CCFF" fill-rule="nonzero" x="274.49" y="141.49" width="19.92" height="19.55"/>
		<rect fill="#00CCFF" fill-rule="nonzero" x="300.55" y="141.49" width="19.92" height="19.55"/>
		<rect fill="#0A9DBB" fill-rule="nonzero" x="6.85" y="141.49" width="19.77" height="19.55"/>
		<rect fill="#0A9DBB" fill-rule="nonzero" x="33.91" y="141.49" width="16.45" height="19.55"/>
		<rect fill="#0A9DBB" fill-rule="nonzero" x="303.91" y="141.49" width="16.56" height="19.55"/>
		<rect fill="#00CCFF" fill-rule="nonzero" x="33.91" y="168.9" width="19.77" height="18.33"/>
		<rect fill="#00CCFF" fill-rule="nonzero" x="60.1" y="168.9" width="19.77" height="18.33"/>
		<rect fill="#00CCFF" fill-rule="nonzero" x="87.52" y="168.9" width="19.77" height="18.33"/>
		<rect fill="#00CCFF" fill-rule="nonzero" x="113.73" y="168.9" width="19.77" height="18.33"/>
		<rect fill="#00CCFF" fill-rule="nonzero" x="141.13" y="168.9" width="19.77" height="18.33"/>
		<rect fill="#00CCFF" fill-rule="nonzero" x="167.34" y="168.9" width="19.77" height="18.33"/>
		<rect fill="#00CCFF" fill-rule="nonzero" x="194.75" y="168.9" width="18.42" height="18.33"/>
		<rect fill="#00CCFF" fill-rule="nonzero" x="220.88" y="168.9" width="19.92" height="18.33"/>
		<rect fill="#00CCFF" fill-rule="nonzero" x="246.94" y="168.9" width="19.92" height="18.33"/>
		<rect fill="#00CCFF" fill-rule="nonzero" x="274.49" y="168.9" width="19.92" height="18.33"/>
		<rect fill="#00CCFF" fill-rule="nonzero" x="300.55" y="168.9" width="19.92" height="18.33"/>
		<rect fill="#0A9DBB" fill-rule="nonzero" x="6.85" y="168.9" width="19.77" height="18.33"/>
		<rect fill="#0A9DBB" fill-rule="nonzero" x="33.91" y="168.9" width="16.45" height="18.33"/>
		<rect fill="#0A9DBB" fill-rule="nonzero" x="303.91" y="168.9" width="16.56" height="18.33"/>
	</symbol>
	<symbol id="build-6" viewBox="0 0 484 991.61">
		<polygon fill="#414042" points="68.93,38.37 68.96,4.92 415.13,4.92 415.28,38.78 474.47,38.87 474.6,101.03 436.18,101.18 436.18,831.99 472.03,831.99 471.88,884.71 436.18,884.78 436.18,990.75 43.85,990.75 43.85,884.46 2.34,884.78 2.53,832.65 43.85,832.3 43.85,101.18 6.71,100.93 6.93,38.44 "/>
		<rect fill="#66E4FF" x="55.91" y="616.42" width="80.52" height="216.17"/>
		<rect fill="#66E4FF" x="153.48" y="616.42" width="80.52" height="216.17"/>
		<rect fill="#66E4FF" x="246.84" y="616.42" width="80.52" height="216.17"/>
		<rect fill="#66E4FF" x="344.44" y="616.42" width="80.52" height="216.17"/>
		<rect fill="white" x="80.89" y="15.85" width="318.74" height="23.49"/>
		<rect fill="white" x="18.36" y="847.64" width="439.83" height="25.61"/>
		<rect fill="#FFC65E" x="152.57" y="919.01" width="82.05" height="56.72"/>
		<rect fill="#FFC65E" x="249.71" y="919.01" width="82.05" height="56.72"/>
		<polygon fill="#FFC65E" points="54.97,884.56 424.34,884.56 424.34,976.66 346.19,976.66 346.32,904.36 137.86,904.83 137.96,976.66 54.97,976.66 "/>
		<rect fill="#66E4FF" x="55.91" y="100.78" width="80.52" height="225.88"/>
		<rect fill="#66E4FF" x="153.48" y="100.78" width="80.52" height="225.88"/>
		<rect fill="#66E4FF" x="246.84" y="100.78" width="80.52" height="225.88"/>
		<rect fill="#66E4FF" x="344.44" y="100.78" width="80.52" height="225.88"/>
		<rect fill="#66E4FF" x="55.91" y="343.59" width="80.52" height="259.71"/>
		<rect fill="#66E4FF" x="153.48" y="343.59" width="80.52" height="259.71"/>
		<rect fill="#66E4FF" x="246.84" y="343.59" width="80.52" height="259.71"/>
		<rect fill="#66E4FF" x="344.44" y="343.59" width="80.52" height="259.71"/>
		<rect fill="white" x="18.74" y="51.99" width="443.21" height="33.7"/>
	</symbol>
	<symbol id="build-7" viewBox="0 0 720 460.33">
		<polygon fill="#414042" points="686.27,457.81 34.82,457.81 34.82,103.49 4.31,103.36 4.31,55.24 34.82,54.83 34.82,26.66 152.62,26.44 152.74,2.65 558.6,2.65 558.32,27.35 680.61,27.66 680.71,52.8 712.34,52.8 712.5,99.02 686.27,99.33 "/>
		<rect fill="white" x="168.36" y="14.54" width="378.16" height="14.02"/>
		<rect fill="white" x="49.34" y="43.21" width="615.5" height="10.37"/>
		<rect fill="#FFB836" x="79.01" y="67.6" width="616.97" height="20.14"/>
		<rect fill="#BC8A2F" x="23.42" y="67.6" width="73.95" height="20.14"/>
		<rect fill="#ABABAB" x="49.34" y="43.21" width="48.03" height="10.37"/>
		<rect fill="#E6E7E8" x="47.97" y="99.18" width="627.02" height="345.87"/>
		<rect fill="#ABABAB" x="47.97" y="99.18" width="49.4" height="345.84"/>
		<rect fill="#414042" x="97.22" y="121.32" width="95" height="124.57"/>
		<rect fill="#66E4FF" x="112.61" y="136.78" width="68.02" height="93.31"/>
		<rect fill="#414042" x="78.98" y="250.54" width="131.85" height="10.06"/>
		<rect fill="#383637" x="78.98" y="250.54" width="18.39" height="10.06"/>
		<rect fill="#414042" x="97.22" y="275.62" width="95" height="124.57"/>
		<rect fill="#66E4FF" x="112.61" y="291.11" width="68.02" height="93.31"/>
		<rect fill="#414042" x="78.98" y="404.85" width="131.85" height="10.06"/>
		<rect fill="#383637" x="78.98" y="404.85" width="18.39" height="10.06"/>
		<rect fill="#414042" x="308.89" y="275.62" width="95" height="124.57"/>
		<rect fill="#66E4FF" x="324.29" y="291.11" width="68.02" height="93.31"/>
		<rect fill="#414042" x="290.62" y="404.85" width="131.85" height="10.06"/>
		<rect fill="#414042" x="308.89" y="121.91" width="95" height="124.57"/>
		<rect fill="#66E4FF" x="324.29" y="137.4" width="68.02" height="93.31"/>
		<rect fill="#414042" x="290.62" y="251.14" width="131.85" height="10.06"/>
		<rect fill="#414042" x="516.28" y="121.91" width="95" height="124.57"/>
		<rect fill="#66E4FF" x="531.65" y="137.4" width="68.02" height="93.31"/>
		<rect fill="#414042" x="498.02" y="251.14" width="131.85" height="10.06"/>
		<rect fill="#414042" x="516.28" y="276.25" width="95" height="124.57"/>
		<rect fill="#66E4FF" x="531.65" y="291.71" width="68.02" height="93.31"/>
		<rect fill="#414042" x="498.02" y="405.47" width="131.85" height="10.06"/>
	</symbol>
	<symbol id="light" viewBox="0 0 118 342.2">
		<path fill="#414042" d="M11.36 28.34c23.39,-31 72.5,-24.48 89.51,1.53 26.48,40.52 -1.18,88.98 -39.27,89.1l0.53 172.18 16.92 0.16 0 48.02 -49.08 0 0 -48.49 18.14 0 0.9 -172.02c-46.39,-2.72 -65.15,-54.02 -37.65,-90.48l0 0z"/>
		<rect fill="white" x="45.17" y="302.77" width="23.01" height="23.32"/>
		<ellipse fill="#66E4FF" cx="55.04" cy="64.09" rx="43.65" ry="44.33"/>
	</symbol>
	<symbol id="bench" viewBox="0 0 260 165.45">
		<polygon fill="#383637" points="21.14,4.89 241.02,4.89 241.02,49.38 212.56,49.48 212.5,56.07 241.02,56.01 241.02,102.35 212.44,102.07 212.34,105.67 256.06,106.17 256.06,118.42 224.54,118.17 224.66,162.73 208.94,162.73 209.12,118.74 49.75,118.71 50,162.73 34.21,162.73 34.14,118.3 3.13,118.08 3.13,105.98 46.56,106.17 46.53,102.35 21.14,102.2 21.14,56.42 46.46,56.48 46.49,49.29 21.14,49.38 "/>
		<rect fill="#FFB836" x="34.33" y="18.05" width="191.15" height="18.26"/>
		<rect fill="#FFB836" x="34.33" y="71.99" width="191.15" height="14.7"/>
		<rect fill="white" x="62.66" y="49.2" width="136.8" height="6.72"/>
		<rect fill="white" x="62.66" y="102.2" width="136.8" height="4.28"/>
	</symbol>
	<symbol id="car" viewBox="0 0 543 365.93">
		<path fill="#43556B" d="M2.82 305.8l43.98 -0.03c13.93,68.12 119.73,57.78 120.26,-9.16l198.07 0.38c8,74.07 113.22,70.27 117.11,8.97l16.39 -0.16c22.73,-0.22 41.36,-18.59 41.36,-41.36l0 -90.33c0,-72.45 -59.27,-131.72 -131.72,-131.72l-6.85 0 -2 -17.32 -58.09 0 -2.12 17.32 -271.91 0c-35.48,0 -64.48,29.03 -64.48,64.47l0 198.94 0 0z"/>
		<path fill="#BEDEFF" d="M495.51 267.43l30.18 0c-0.93,14.54 -13.42,24.39 -30.18,28.12l0 -28.12z"/>
		<rect fill="#BEDEFF" x="19.83" y="267.9" width="16.13" height="26.32"/>
		<circle fill="white" cx="106.98" cy="289.64" r="31.65"/>
		<circle fill="white" cx="424.56" cy="289.64" r="31.65"/>
		<path fill="#CCCCCC" stroke="#CCCCCC" stroke-width="2.8" stroke-miterlimit="22.9256" d="M99.97 333.15l14.3 0c1.43,0 2.58,1.16 2.58,2.58l0 0c0,1.43 -1.15,2.59 -2.58,2.59l-14.3 0c-1.42,0 -2.58,-1.16 -2.58,-2.59l0 0c0,-1.42 1.16,-2.58 2.58,-2.58z"/>
		<path fill="#CCCCCC" stroke="#CCCCCC" stroke-width="2.8" stroke-miterlimit="22.9256" d="M417.18 333.15l14.29 0c1.43,0 2.59,1.16 2.59,2.58l0 0c0,1.43 -1.16,2.59 -2.59,2.59l-14.29 0c-1.43,0 -2.59,-1.16 -2.59,-2.59l0 0c0,-1.42 1.16,-2.58 2.59,-2.58z"/>
		<circle fill="#E6E6E6" cx="469.72" cy="276.93" r="1.53" strok="#43556B"/>
		<path fill="#CCCCCC" stroke="#CCCCCC" stroke-width="2.8" stroke-miterlimit="22.9256" d="M18.68 240.14l0 -14.3c0,-1.43 1.15,-2.58 2.58,-2.58l0 0c1.43,0 2.59,1.15 2.59,2.58l0 14.3c0,1.43 -1.16,2.58 -2.59,2.58l0 0.01c-1.43,-0.01 -2.58,-1.16 -2.58,-2.59z"/>
		<path fill="#BEDEFF" d="M78.45 73.94l83.94 0c15.23,0 27.69,12.46 27.69,27.69l0 60.86c0,15.23 -12.46,27.69 -27.69,27.69l-83.94 0c-15.23,0 -27.69,-12.46 -27.69,-27.69l0 -60.86c0,-15.23 12.46,-27.69 27.69,-27.69zm165.17 0l66 0c15.24,0 27.69,12.46 27.69,27.69l0 60.86c0,15.23 -12.46,27.69 -27.69,27.69l-66 0c-15.23,0 -27.69,-12.46 -27.69,-27.69l0 -60.86c0,-15.23 12.46,-27.69 27.69,-27.69zm112.23 -1.53l46.78 0c58.62,0 105.93,53.92 105.93,111.54l0 6.86 -152.71 0 0 -118.4zm-24.02 120.36l0 38.96c-9.53,1.22 -18.28,-9.22 -16.72,-18.72 1.65,-10.09 7.04,-16.69 16.72,-20.24zm-292.19 20.68l0.03 41.95c14.86,-47.15 122.78,-66.46 142.47,25.92l168.01 0.06c16.91,-87.02 115.18,-81.39 139.51,-28.22l36.91 0 0 -75.72c0,-66.99 -59.62,-121.81 -127.3,-121.81l-318.55 0c-41.95,0 -60.24,23.04 -60.24,59.64l0 98.62 19.16 -0.44 0 0z"/>
		<path fill="white" d="M88.57 87.93l63.73 0c11.61,-0.01 21.02,9.41 21.02,21.02l0 46.16c0,11.61 -9.41,21.02 -21.02,21.02l-63.73 0.01c-11.61,-0.01 -21.02,-9.42 -21.02,-21.03l0 -46.16c0,-11.61 9.41,-21.03 21.02,-21.03z"/>
		<path fill="white" d="M248.02 88.83l56.62 0c10.32,0 18.69,9.41 18.69,21.02l0 46.16c0,11.61 -8.37,21.03 -18.69,21.03l-56.62 0c-10.32,0 -18.69,-9.42 -18.69,-21.03l0 -46.16c0,-11.61 8.37,-21.02 18.69,-21.02z"/>
		<path fill="white" d="M371.98 87.93l38.91 0c35.54,0 81.1,43.88 81.1,85.09l0 5.23 -120.01 0 0 -90.32 0 0z"/>
		<path fill="#04D16A" fill-rule="nonzero" d="M117.03 96.85c-0.3,0.13 -0.57,0.37 -0.7,0.62 -0.1,0.19 -0.13,1.08 -0.14,3.91l0 3.66 -0.59 0.12c-0.58,0.11 -1.09,0.26 -2.17,0.61 -1.02,0.33 -1.45,0.5 -2.28,0.91 -4.77,2.33 -8.03,6.57 -8.62,11.22 -0.11,0.92 -0.08,3.34 0.06,4.14 0.1,0.58 0.53,2.11 0.79,2.83 0.52,1.45 1.46,2.77 3.1,4.43 1.73,1.72 4.59,3.52 7.8,4.87 0.5,0.21 1.08,0.46 1.3,0.56 0.22,0.09 1.28,0.52 2.35,0.95 1.06,0.43 2.09,0.84 2.27,0.91 0.17,0.08 0.49,0.21 0.7,0.3 0.96,0.4 3.74,1.8 4.33,2.19 1.18,0.77 2.14,1.92 2.58,3.09 0.39,1.05 0.25,2.73 -0.32,3.95 -0.82,1.74 -3.02,3.17 -5.63,3.64 -0.75,0.13 -2.94,0.14 -3.69,0.02 -0.82,-0.15 -1.05,-0.2 -1.79,-0.38 -2.89,-0.73 -5.6,-2.15 -8.18,-4.28 -0.88,-0.74 -1.03,-0.82 -1.39,-0.82 -0.23,0.01 -0.52,0.09 -0.66,0.2 -0.36,0.26 -4.49,5.66 -4.57,5.97 -0.19,0.77 0.46,1.57 2.54,3.12 3.23,2.4 6.3,3.81 10.41,4.75 0.08,0.02 0.4,0.07 0.7,0.12 0.3,0.04 0.58,0.09 0.63,0.1 0.04,0.01 0.13,0.02 0.2,0.03 0.11,0.01 0.13,0.67 0.13,3.46 -0.01,1.89 0.02,3.56 0.06,3.72 0.04,0.15 0.21,0.41 0.38,0.57l0.31 0.3 3.01 0.03c2.72,0.02 3.05,0.01 3.37,-0.15 0.63,-0.32 0.64,-0.39 0.64,-4.33l0.01 -3.56 0.65 -0.13c1.51,-0.3 3.34,-0.92 4.62,-1.56 0.63,-0.32 2.23,-1.29 2.37,-1.44 0.03,-0.02 0.28,-0.23 0.55,-0.43 0.81,-0.64 2.15,-2.04 2.87,-3.01 0.79,-1.05 1.84,-3.12 2.2,-4.35 0.46,-1.52 0.68,-2.99 0.69,-4.55 0,-0.75 -0.1,-2.23 -0.17,-2.34 -0.02,-0.03 -0.06,-0.26 -0.1,-0.5 -0.11,-0.72 -0.8,-2.67 -1.25,-3.54 -0.93,-1.76 -2.71,-3.55 -5.14,-5.14 -0.88,-0.57 -3.89,-2.08 -5.29,-2.65 -0.49,-0.2 -1.09,-0.45 -1.32,-0.56 -0.24,-0.1 -0.47,-0.19 -0.51,-0.19 -0.05,0 -0.35,-0.11 -0.68,-0.24 -0.32,-0.13 -1.31,-0.51 -2.19,-0.86 -4.03,-1.58 -5.88,-2.59 -7.42,-4.08 -1.05,-1.01 -1.42,-1.84 -1.48,-3.26 -0.04,-1.1 0.06,-1.59 0.51,-2.51 0.86,-1.77 3.12,-3.2 5.66,-3.59 0.82,-0.13 3.28,-0.13 4.1,0 1.05,0.17 2.76,0.66 3.78,1.08 1.25,0.53 3.58,1.87 4.07,2.34 0.07,0.07 0.16,0.13 0.2,0.13 0.04,0 0.21,0.13 0.37,0.29 0.43,0.39 0.68,0.51 1.12,0.51 0.5,0 0.93,-0.28 1.18,-0.76 0.11,-0.22 0.31,-0.59 0.46,-0.84 0.14,-0.25 0.41,-0.74 0.61,-1.1 0.2,-0.36 0.77,-1.39 1.26,-2.3 1.13,-2.03 1.14,-2.15 0.39,-2.93 -0.97,-0.99 -2.96,-2.33 -4.67,-3.14 -1.48,-0.69 -3.92,-1.5 -5.37,-1.77 -0.13,-0.02 -0.31,-0.06 -0.4,-0.09 -0.09,-0.03 -0.39,-0.07 -0.67,-0.11 -0.27,-0.03 -0.61,-0.08 -0.75,-0.1l-0.25 -0.06 -0.01 -3.61c0,-3.38 -0.01,-3.64 -0.19,-3.91 -0.35,-0.53 -0.57,-0.56 -3.72,-0.55 -1.58,0 -2.94,0.03 -3.02,0.07l0 0z"/>
	</symbol>

</svg>