<svg xmlns="http://www.w3.org/2000/svg" width="6" height="21" viewBox="0 0 6 21"><g><g><g><path fill="#d7d7d7" d="M3.251.794c1.384 0 2.505 1.068 2.505 2.385 0 1.318-1.121 2.386-2.505 2.386C1.868 5.565.747 4.497.747 3.18.747 1.862 1.868.794 3.25.794z"/></g><g><path fill="#d7d7d7" d="M3.251 8.41c1.384 0 2.505 1.078 2.505 2.408 0 1.33-1.121 2.408-2.505 2.408-1.383 0-2.504-1.078-2.504-2.408 0-1.33 1.121-2.408 2.504-2.408z"/></g><g><path fill="#d7d7d7" d="M3.251 16.101c1.384 0 2.505 1.075 2.505 2.4 0 1.326-1.121 2.401-2.505 2.401-1.383 0-2.504-1.075-2.504-2.4 0-1.326 1.121-2.401 2.504-2.401z"/></g></g></g></svg>