<svg width="81" height="81" xmlns="http://www.w3.org/2000/svg" viewBox="0 0 81 81">
   <path fill="#808080" stroke="null" id="svg_4" d="m71.05217,0c5.448398,0 9.87166,4.42342 9.87166,9.87166l0,61.05551c0,5.44824 -4.42342,9.87166 -9.87166,9.87166l-61.05551,0c-5.44824,0 -9.87166,-4.42342 -9.87166,-9.87166l0,-61.05551c0,-5.44824 4.423263,-9.87166 9.87166,-9.87166l61.05551,0zm-30.527755,12.782627c-7.500246,0 -8.440795,0.03172 -11.386323,0.166174c-2.939531,0.134139 -4.947035,0.600941 -6.703778,1.283786c-1.81608,0.705727 -3.35615,1.650064 -4.891485,3.185241c-1.535336,1.535336 -2.479672,3.075563 -3.185399,4.891485c-0.682687,1.756743 -1.14949,3.764247 -1.283786,6.703778c-0.134296,2.945528 -0.166016,3.886077 -0.166016,11.386323c0,7.500246 0.03172,8.440795 0.166016,11.386323c0.134296,2.939531 0.601099,4.947035 1.283786,6.703778c0.705727,1.815922 1.650064,3.35615 3.185399,4.891485c1.535336,1.535336 3.075405,2.479672 4.891485,3.185399c1.756743,0.682687 3.764247,1.14949 6.703778,1.283628c2.945528,0.134454 3.886077,0.166174 11.386323,0.166174c7.500246,0 8.440795,-0.03172 11.386323,-0.166174c2.939531,-0.134139 4.947035,-0.600941 6.703778,-1.283628c1.815922,-0.705727 3.35615,-1.650064 4.891485,-3.185399c1.535336,-1.535336 2.479672,-3.075563 3.185399,-4.891485c0.682687,-1.756743 1.14949,-3.764247 1.283628,-6.703778c0.134454,-2.945528 0.166174,-3.886077 0.166174,-11.386323c0,-7.500246 -0.03172,-8.440795 -0.166174,-11.386323c-0.134139,-2.939531 -0.600941,-4.947035 -1.283628,-6.703778c-0.705727,-1.815922 -1.650064,-3.35615 -3.185399,-4.891485c-1.535336,-1.535178 -3.075563,-2.479514 -4.891485,-3.185241c-1.756743,-0.682845 -3.764247,-1.149647 -6.703778,-1.283786c-2.945528,-0.134454 -3.886077,-0.166174 -11.386323,-0.166174zm0,4.976072c7.373998,0 8.247477,0.02809 11.159549,0.160966c2.692558,0.122934 4.154827,0.572851 5.128043,0.950807c1.289152,0.501047 2.209027,1.099622 3.175457,2.065894c0.96643,0.96643 1.564846,1.886463 2.065894,3.175457c0.378113,0.973216 0.82803,2.435485 0.950807,5.128043c0.132876,2.912072 0.161124,3.785551 0.161124,11.159549c0,7.373998 -0.028248,8.247477 -0.161124,11.159549c-0.122776,2.692558 -0.572693,4.154827 -0.950807,5.128043c-0.501047,1.289152 -1.099464,2.209027 -2.065894,3.175457c-0.96643,0.96643 -1.886306,1.564846 -3.175457,2.065894c-0.973216,0.378113 -2.435485,0.82803 -5.128043,0.950807c-2.911598,0.132876 -3.785078,0.161124 -11.159549,0.161124c-7.374471,0 -8.247793,-0.028248 -11.159549,-0.161124c-2.692558,-0.122776 -4.154827,-0.572693 -5.128043,-0.950807c-1.289152,-0.501047 -2.209027,-1.099464 -3.175457,-2.065894c-0.96643,-0.96643 -1.565004,-1.886306 -2.065894,-3.175457c-0.378113,-0.973216 -0.82803,-2.435485 -0.950964,-5.128043c-0.132876,-2.912072 -0.160966,-3.785551 -0.160966,-11.159549c0,-7.373998 0.02809,-8.247477 0.160966,-11.159549c0.122934,-2.692558 0.572851,-4.154827 0.950964,-5.128043c0.50089,-1.288994 1.099464,-2.209027 2.065894,-3.175457c0.96643,-0.966272 1.886306,-1.564846 3.175457,-2.065894c0.973216,-0.377955 2.435485,-0.827872 5.128043,-0.950807c2.912072,-0.132876 3.785551,-0.160966 11.159549,-0.160966zm0,8.459101c-7.832279,0 -14.181615,6.349336 -14.181615,14.181615c0,7.832279 6.349336,14.181615 14.181615,14.181615c7.832279,0 14.181615,-6.349336 14.181615,-14.181615c0,-7.832279 -6.349336,-14.181615 -14.181615,-14.181615zm0,23.387158c-5.084172,0 -9.205543,-4.121372 -9.205543,-9.205543c0,-5.084172 4.121372,-9.205543 9.205543,-9.205543c5.084172,0 9.205543,4.121372 9.205543,9.205543c0,5.084172 -4.121372,9.205543 -9.205543,9.205543zm18.056014,-23.947385c0,1.830283 -1.483889,3.313857 -3.314172,3.313857c-1.830125,0 -3.313857,-1.483574 -3.313857,-3.313857c0,-1.830283 1.483732,-3.314015 3.313857,-3.314015c1.830283,0 3.314172,1.483732 3.314172,3.314015z"/>
</svg>