<svg width="81" height="81" xmlns="http://www.w3.org/2000/svg" viewBox="0 0 81 81">
    <path fill="#808080" d="m70.700352,80.650765l-60.665506,0a9.740007,9.740007 0 0 1 -7.138818,-2.89021a9.682203,9.682203 0 0 1 -2.89021,-7.138818l0,-60.434289a9.711105,9.711105 0 0 1 2.803504,-7.167721a9.740007,9.740007 0 0 1 7.225525,-2.89021l60.694408,0a9.768909,9.768909 0 0 1 7.225525,2.89021a9.711105,9.711105 0 0 1 2.89021,7.109916l0,60.434289a9.682203,9.682203 0 0 1 -2.89021,7.138818a9.768909,9.768909 0 0 1 -7.254427,2.948014zm-15.549329,-19.393308a2.283266,2.283266 0 0 0 2.456678,-1.907539l8.005881,-38.295281a1.589615,1.589615 0 0 0 -0.520238,-1.329497a1.79193,1.79193 0 0 0 -1.184986,-0.491336q-0.231217,0 -47.77517,17.659183a1.705224,1.705224 0 0 0 -1.184986,1.705224a1.64742,1.64742 0 0 0 1.24279,1.502909l11.56084,3.58386l4.653238,13.959714a1.79193,1.79193 0 0 0 1.820832,1.24279a1.618518,1.618518 0 0 0 1.156084,-0.491336l6.560776,-6.242853l11.820959,8.67063a2.601189,2.601189 0 0 0 1.387301,0.433531zm-21.127434,-7.052112l-3.497154,-11.56084q25.20263,-16.040665 25.376043,-16.040665c0.433531,0 0.664748,0 0.664748,0.462434a0.520238,0.520238 0 0 1 0,0.173413s-7.254427,6.647483 -21.734378,19.653427l-0.809259,7.312231z"/>
</svg>