<svg width="100" height="181" xmlns="http://www.w3.org/2000/svg" viewBox="0 0 100 181">
  <path stroke="null" d="m58.635124,169.838823l-3.543522,-17.721351l-3.151835,-15.752062c-0.610472,-3.037759 -3.45979,-5.091342 -6.535012,-4.709398l-13.367487,1.670141c-2.887904,0.3752 -5.616772,-1.415946 -6.420936,-4.215062c-1.76099,-6.176108 -4.375407,-12.947515 -4.362106,-33.670103c0.013301,-20.722584 2.601116,-27.493994 4.362106,-33.670103c0.804164,-2.799112 3.533032,-4.590262 6.420748,-4.214874l13.367487,1.670141c3.074847,0.381944 5.924352,-1.671451 6.535012,-4.709398l3.054242,-15.26747l3.641303,-18.206134c0.61984,-3.098826 -1.30318,-6.138269 -4.368663,-6.905341l-13.437171,-3.360137c-3.607022,-0.932476 -7.434896,-0.44151 -10.690317,1.370803c-10.670463,6.077015 -29.605646,24.086091 -29.605646,83.294009s18.934995,77.213808 29.605646,83.290635c3.255237,1.812501 7.083108,2.303467 10.690317,1.370803l13.436983,-3.359949c3.065858,-0.767072 4.98869,-3.806331 4.36885,-6.905153z" id="svg_10" fill="#2591fd"/>
  <path stroke="null" d="m83.181745,4.525226c15.500681,15.535146 15.500869,40.686337 0,56.221671c-0.913181,0.913181 -0.913369,2.393943 0,3.307312c0.913181,0.913181 2.393943,0.913369 3.307312,0c17.324611,-17.362822 17.324611,-45.473098 0,-62.83592c-0.913181,-0.913181 -2.393943,-0.913369 -3.307312,0c-0.913181,0.912809 -0.913369,2.393568 0,3.306937z" id="svg_9" fill="#2591fd"/>
  <path stroke="null" d="m73.260372,14.446599c10.02908,10.052683 10.028892,26.326055 0,36.378551c-0.913181,0.913181 -0.913369,2.393943 0,3.307312c0.913181,0.913181 2.393943,0.913369 3.307312,0c11.852822,-11.880171 11.85301,-31.112816 0,-42.993175c-0.913181,-0.913181 -2.393943,-0.913369 -3.307312,0c-0.913369,0.913369 -0.913369,2.393943 0,3.307312z" id="svg_8" fill="#2591fd"/>
  <path stroke="null" d="m63.338811,24.368159c4.558605,4.56947 4.558605,11.966339 0,16.535809c-0.913181,0.913181 -0.913369,2.393943 0,3.307312c0.913181,0.913181 2.393943,0.913369 3.307312,0c6.382347,-6.396957 6.382347,-16.7531 0,-23.150057c-0.913181,-0.913181 -2.393943,-0.913369 -3.307312,0c-0.913369,0.912993 -0.913369,2.393568 0,3.306937z" id="svg_7" fill="#2591fd"/>
</svg>
