<svg width="81" height="81" xmlns="http://www.w3.org/2000/svg" viewBox="0 0 81 81">
   <path fill="#808080" stroke="null" id="svg_10" d="m71.094597,0.000001c5.451657,0 9.877566,4.426067 9.877566,9.877566l0,61.092034c0,5.451499 -4.426067,9.877566 -9.877566,9.877566l-16.811789,0l0,-30.46217l10.516448,0l2.000967,-13.046238l-12.517415,0l0,-8.466372c0,-3.569118 1.748478,-7.048231 7.355197,-7.048231l5.691198,0l0,-11.107011c0,0 -5.16506,-0.881424 -10.103053,-0.881424c-10.309277,0 -17.047383,6.248128 -17.047383,17.559625l0,9.943412l-11.459612,0l0,13.046238l11.459612,0l0,30.46217l-30.176205,0c-5.451499,0 -9.877566,-4.426067 -9.877566,-9.877566l0,-61.092034c0,-5.451499 4.425909,-9.877566 9.877566,-9.877566l61.092034,0z"/>
</svg>