<svg xmlns="http://www.w3.org/2000/svg" xml:space="preserve" width="220px" height="100px" fill-rule="evenodd" clip-rule="evenodd"
viewBox="0 0 220 100" xmlns:xlink="http://www.w3.org/1999/xlink">
 <g>
     <path fill="white" fill-rule="nonzero" d="M109.78 17.32c0.71,-1.16 1.88,-2.36 3.14,-2.88 2.18,-0.98 5.09,-0.56 6.86,1.01 1.72,1.55 2.59,3.68 2.18,6.07 0.42,-0.08 0.84,-0.35 1.29,-0.5 2.67,-0.76 5.48,0.06 7.19,2.34 1.29,1.63 1.62,4.17 0.85,6.14 -0.38,0.99 -1.03,1.88 -1.88,2.64l0.08 0.09c2.48,0.12 4.92,2.04 5.67,4.4 0.82,2.38 0.1,4.93 -1.64,6.67 -1.43,1.41 -3.25,1.89 -5.29,1.85l-36.91 0c-3.03,0.07 -5.37,-1.28 -6.63,-3.97 -0.99,-2.32 -0.5,-5.27 1.34,-7.04 1.17,-1.22 2.63,-1.71 4.2,-1.97 -1.78,-1.65 -2.64,-3.91 -2.14,-6.34 0.36,-1.96 2.03,-3.95 3.96,-4.64 1.69,-0.68 3.99,-0.56 5.54,0.36l0.06 -0.07c-0.47,-2.67 0.72,-5.09 2.94,-6.57 1.97,-1.33 5.14,-1.3 7.07,0.12 0.88,0.53 1.59,1.45 2.12,2.29z"/>
     <path fill="#645FAA" fill-rule="nonzero" d="M120.23 18.32c0.79,1.6 0.33,3.69 -0.5,5.13l-6.41 14.41 -0.05 0.07 -2.32 -14.62c-0.18,-1.4 1.32,-2 2.2,-2.68 -0.05,-0.2 -0.27,-0.19 -0.42,-0.29l-2.16 -0.02 -0.07 -0.07c0.02,-1.81 0.99,-3.49 2.65,-4.37 1.73,-1 4.16,-0.73 5.66,0.56 0.61,0.54 1.13,1.17 1.42,1.88z"/>
     <path fill="#C9234A" fill-rule="nonzero" d="M108.43 17.82c0.52,0.97 0.82,2.07 0.64,3.28l-2.61 16.74c0.01,0.02 -0.01,0.04 -0.03,0.05l-0.68 -1.34 -6.54 -14.62c-0.61,-1.88 -0.05,-3.85 1.32,-5.2 1.38,-1.4 3.66,-1.78 5.46,-1.02 0.96,0.41 1.87,1.17 2.44,2.11z"/>
     <path fill="#0089CF" fill-rule="nonzero" d="M129.7 24.86c0.88,1.5 0.69,3.78 -0.29,5.17 -0.61,0.98 -1.61,1.47 -2.46,2.11l-13.56 9.31 -0.04 0 0.16 -0.44 7.18 -16.23c1.08,-1.91 3.14,-2.88 5.31,-2.59 1.49,0.27 2.98,1.24 3.7,2.67z"/>
     <path fill="#F36F21" fill-rule="nonzero" d="M98.89 24.78l7.48 16.67 -0.12 0 -15.08 -10.4c-1.54,-1.29 -2.17,-3.23 -1.64,-5.19 0.39,-1.46 1.6,-2.83 3.05,-3.38 2.38,-0.87 5.05,0.06 6.31,2.3z"/>
     <path fill="#0DB14B" fill-rule="nonzero" d="M133.64 36.63c0.75,1.59 0.45,3.76 -0.62,5.12 -1.07,1.29 -2.49,2 -4.17,1.95l-16.08 0.01 13.47 -9.37c1.32,-0.85 3.32,-1 4.76,-0.32 1.11,0.44 2.15,1.52 2.64,2.61z"/>
     <path fill="#FDB913" fill-rule="nonzero" d="M86.01 36.63c-0.75,1.59 -0.45,3.76 0.62,5.12 1.07,1.29 2.49,2 4.17,1.95l16.08 0.01 -13.47 -9.37c-1.32,-0.85 -3.32,-1 -4.75,-0.32 -1.11,0.44 -2.16,1.52 -2.65,2.61z"/>
     <g>
      <path fill="black" fill-rule="nonzero" d="M57.13 53.34c-7.81,0 -14.16,6.35 -14.16,14.17 0,7.81 6.35,14.17 14.16,14.17 7.82,0 14.17,-6.36 14.17,-14.17 0,-7.82 -6.35,-14.17 -14.17,-14.17l0 0zm0 25.55c-6.27,0 -11.38,-5.11 -11.38,-11.38 0,-6.27 5.11,-11.38 11.38,-11.38 6.28,0 11.39,5.11 11.39,11.38 0,6.27 -5.11,11.38 -11.39,11.38z"/>
     </g>
     <path fill="black" fill-rule="nonzero" d="M179.31 67.69c-0.76,-0.4 -5.39,-2.78 -6.05,-3.13 -2.43,-1.24 -3.29,-2.33 -3.29,-4.19 0,-2.58 2.12,-4.24 5.4,-4.24 1.93,0 3.79,0.84 4.89,1.46 0.2,0.11 0.43,0.17 0.68,0.17 0.76,0 1.39,-0.63 1.39,-1.39 0,-0.52 -0.28,-0.97 -0.7,-1.21 -1.38,-0.77 -3.72,-1.82 -6.26,-1.82 -4.82,0 -8.19,2.89 -8.19,7.03 0,3.72 2.45,5.47 4.84,6.69 0.67,0.35 5.35,2.76 6.05,3.13 1.84,0.96 2.86,2.41 2.86,4.08 0,2.24 -1.89,4.62 -5.4,4.62 -3.41,0 -6.06,-2.29 -6.8,-2.99l-0.21 -0.21 -2.07 1.88 0.24 0.24c0.92,0.91 4.27,3.87 8.84,3.87 5.12,0 8.19,-3.77 8.19,-7.41 0,-2.71 -1.61,-5.12 -4.41,-6.58z"/>
     <path fill="black" fill-rule="nonzero" d="M28.08 56.13c3.04,0 5.9,1.18 8.05,3.33 0.51,0.51 1.47,0.51 1.97,0 0.27,-0.26 0.41,-0.61 0.41,-0.98 0,-0.37 -0.14,-0.73 -0.41,-0.99l-0.17 -0.17c-2.65,-2.57 -6.15,-3.98 -9.85,-3.98 -7.81,0 -14.16,6.36 -14.16,14.17 0,7.81 6.35,14.17 14.16,14.17 4.13,0 7.84,-1.77 10.43,-4.59l-1.97 -1.97c-2.09,2.31 -5.1,3.77 -8.46,3.77 -6.27,0 -11.38,-5.11 -11.38,-11.38 0,-6.27 5.11,-11.38 11.38,-11.38z"/>
     <path fill="black" fill-rule="nonzero" d="M124.14 56.13c3.03,0 5.9,1.18 8.04,3.33 0.51,0.51 1.47,0.51 1.97,0 0.27,-0.26 0.42,-0.61 0.42,-0.98 0,-0.37 -0.15,-0.73 -0.42,-0.99l-0.17 -0.17c-2.65,-2.57 -6.15,-3.98 -9.84,-3.98 -7.82,0 -14.17,6.36 -14.17,14.17 0,7.81 6.35,14.17 14.17,14.17 4.12,0 7.83,-1.77 10.43,-4.59l-1.98 -1.97c-2.08,2.31 -5.1,3.77 -8.45,3.77 -6.28,0 -11.39,-5.11 -11.39,-11.38 0,-6.27 5.11,-11.38 11.39,-11.38z"/>
     <path fill="black" fill-rule="nonzero" d="M100.14 53.34c-0.53,0 -0.94,0.34 -1.17,0.77 -0.22,0.44 -8.33,20.49 -8.34,20.49 0,0 -8.1,-20.05 -8.33,-20.49 -0.23,-0.43 -0.64,-0.77 -1.16,-0.77 -0.62,0 -1.08,0.45 -1.24,1.01 -0.16,0.57 -4.73,25.82 -4.73,25.82 -0.02,0.08 -0.03,0.17 -0.03,0.25 0,0.7 0.57,1.26 1.26,1.26 0.61,0 1.12,-0.44 1.23,-1.02l3.97 -21.6c0,0 7.64,18.89 7.86,19.34 0.23,0.45 0.65,0.8 1.18,0.8 0.53,0 0.94,-0.35 1.17,-0.8 0.22,-0.45 7.87,-19.34 7.87,-19.34l4.11 22.46 2.56 0c0,0 -4.82,-26.6 -4.98,-27.17 -0.16,-0.56 -0.62,-1.01 -1.23,-1.01z"/>
     <g>
      <path fill="black" fill-rule="nonzero" d="M150.51 53.34c-0.53,0 -0.94,0.34 -1.17,0.79 -0.23,0.45 -10.49,25.8 -10.49,25.8 -0.06,0.15 -0.1,0.32 -0.1,0.49 0,0.7 0.56,1.26 1.26,1.26 0.53,0 0.98,-0.33 1.17,-0.79l3.98 -9.81 10.7 0 4.26 10.45 2.71 0c0,0 -10.92,-26.95 -11.15,-27.4 -0.22,-0.45 -0.64,-0.79 -1.17,-0.79l0 0zm-4.21 14.95l4.21 -10.36 4.22 10.36 -8.43 0z"/>
     </g>
     <path fill="black" fill-rule="nonzero" d="M204.27 53.49l-15.77 0c-0.77,0 -1.39,0.62 -1.39,1.39 0,0.77 0.62,1.4 1.39,1.4l6.61 0 0 25.24 2.56 0 0 -25.24 6.6 0c0.77,0 1.4,-0.63 1.4,-1.4 0,-0.77 -0.63,-1.39 -1.4,-1.39z"/>
 </g>
</svg>
