<svg xmlns="http://www.w3.org/2000/svg" xml:space="preserve" width="220px" height="100px" fill-rule="evenodd" clip-rule="evenodd" viewBox="0 0 220 100"  xmlns:xlink="http://www.w3.org/1999/xlink">
   <path id="logo" fill="#009982" fill-rule="nonzero" d="M102.47 50.63c0,7.13 -4.35,10.5 -9.82,10.5l-3.32 0 0 -4.29 3.08 0c3.27,0 5.47,-1.76 5.47,-6.25 0,-4.4 -2.05,-6.6 -5.57,-6.6 -3.37,0 -5.81,2.05 -5.81,6.55l0 17.92 -4.59 0 0 -28.18 4.54 0 0 2.44 0.64 0c1.51,-2.05 3.76,-2.98 6.1,-2.98 5.08,0 9.28,3.67 9.28,10.89zm-29.89 -1.85l-3.03 -0.29c-2.39,-0.2 -3.61,-0.83 -3.61,-2.25 0,-1.66 1.61,-2.59 3.91,-2.59 2.39,0 3.9,1.12 4,2.74l4.35 0c-0.2,-4.11 -3.32,-6.6 -8.35,-6.6 -5.08,0 -8.45,2.69 -8.45,6.6 0,3.27 2.05,5.42 6.79,5.86l3.07 0.29c1.86,0.19 3.13,0.54 3.13,2.34 0,1.61 -1.17,2.79 -4.25,2.79 -2.83,0 -4.25,-1.27 -4.74,-3.03l-4.73 0c0.44,3.95 3.76,6.98 9.42,6.98 5.32,0 8.79,-2.78 8.79,-6.98 0.05,-3.62 -2.39,-5.47 -6.3,-5.86l0 0zm47.47 5.91c-0.68,1.66 -2.39,2.88 -4.84,2.88 -3.32,0 -5.81,-2.15 -5.81,-6.84 0,-4.44 2.3,-6.93 5.86,-6.93 3.18,0 4.98,1.9 5.13,4.73l-8.15 0 0 3.28 12.64 0 0 -2.15c0,-6.01 -4,-9.92 -9.67,-9.92 -5.27,0 -10.35,3.62 -10.35,10.94 0,7.33 5.08,10.94 10.35,10.94 4.84,0 8.31,-2.98 9.38,-6.98 0,0.05 -4.54,0.05 -4.54,0.05l0 0zm-71.64 -14.95c-4.98,0 -8.69,2.59 -9.13,6.6l4.88 0c0.34,-1.47 1.66,-2.54 4.25,-2.54 3.27,0 4.35,1.76 4.35,3.86l0 7.13c-1.86,2.14 -4.01,3.12 -6.21,3.12 -2.24,0 -3.81,-1.07 -3.81,-3.03 0,-1.85 1.22,-3.02 3.52,-3.02l3.61 0 0 -3.28 -3.76 0c-5.17,0 -8.1,2.59 -8.1,6.6 0,3.71 2.78,6.54 7.42,6.54 2.59,0 4.88,-1.03 6.59,-2.29l0.64 0 0 1.75 4.54 0 0 -13.92c0.15,-5.17 -3.37,-7.52 -8.79,-7.52l0 0zm-30.82 21.39l4.55 0 0 -28.56 -4.55 0 0 28.56zm19.1 -20.85l-5.57 0 -6.59 8.69 0 2.74 6.79 9.42 5.61 0 -8.01 -10.84 7.77 -10.01zm164.28 0l-3.71 8.25c-0.93,2.01 -1.76,3.96 -2.05,5.23l-0.64 0c-0.29,-1.32 -1.17,-3.22 -2.05,-5.18l-3.71 -8.3 -5.03 0 8.74 18.75 -4.34 9.43 4.83 0 12.99 -28.18 -5.03 0 0 0zm-18.22 0l-5.56 0 -6.6 8.69 0 2.74 6.79 9.42 5.62 0 -7.96 -10.84 7.71 -10.01zm-28.47 8.5l-3.03 -0.29c-2.39,-0.2 -3.61,-0.83 -3.61,-2.25 0,-1.66 1.61,-2.59 3.91,-2.59 2.39,0 3.9,1.12 4,2.74l4.35 0c-0.2,-4.11 -3.32,-6.6 -8.35,-6.6 -5.08,0 -8.45,2.69 -8.45,6.6 0,3.27 2.05,5.42 6.79,5.86l3.07 0.29c1.86,0.19 3.13,0.54 3.13,2.34 0,1.61 -1.17,2.79 -4.25,2.79 -2.83,0 -4.25,-1.27 -4.74,-3.03l-4.73 0c0.44,3.95 3.76,6.98 9.42,6.98 5.33,0 8.79,-2.78 8.79,-6.98 0.05,-3.62 -2.39,-5.47 -6.3,-5.86l0 0zm9.38 12.35l4.54 0 0 -28.56 -4.54 0 0 28.56zm-29.99 -18.41l-0.63 0 0 -2.44 -4.54 0 0 20.85 4.54 0 0 -10.89c0,-3.71 1.71,-5.86 5.13,-5.86l2.88 0 0 -4.59 -1.66 0c-3.18,-0.05 -4.54,1.17 -5.72,2.93l0 0z"/>
</svg>
