<svg xmlns="http://www.w3.org/2000/svg" xml:space="preserve" width="220px" height="100px" fill-rule="evenodd" clip-rule="evenodd" viewBox="0 0 220 100" xmlns:xlink="http://www.w3.org/1999/xlink">
     <path id="text" fill="#747679" fill-rule="nonzero" d="M109.07 34.81l5.01 0 0 4.5 -5.01 0 0 -4.5zm0 7.16l5.01 0 0 18.98 -5.01 0 0 -18.98zm12.69 3.02l0.1 0c1.12,-2.15 2.46,-3.27 4.66,-3.27 0.56,0 0.86,0.05 1.17,0.15l0 4.4 -0.1 0c-3.27,-0.31 -5.68,1.38 -5.68,5.37l0 9.26 -5.01 0 0 -18.98 4.86 0 0 3.07zm15.76 -10.18l5.01 0 0 4.5 -5.01 0 0 -4.5zm0 7.16l5.01 0 0 18.98 -5.01 0 0 -18.98zm12.74 2.56l0.1 0c1.28,-2.05 3.02,-3.12 5.63,-3.12 3.94,0 6.55,2.97 6.55,7.11l0 12.38 -5.02 0 0 -11.66c0,-2.05 -1.17,-3.48 -3.27,-3.48 -2.2,0 -3.84,1.79 -3.84,4.35l0 10.74 -5.07 0 0 -18.98 4.92 0 0 2.66 0 0zm14.32 6.86c0,-5.63 3.79,-9.98 9.37,-9.98 6.09,0 9.36,4.65 9.36,11.41l-13.76 0c0.36,2.92 1.99,4.71 4.86,4.71 1.94,0 3.12,-0.87 3.68,-2.36l4.97 0c-0.72,3.38 -3.69,6.19 -8.6,6.19 -6.29,0.11 -9.88,-4.29 -9.88,-9.97zm5.07 -2l8.44 0c-0.15,-2.4 -1.74,-4.04 -4.04,-4.04 -2.66,-0.05 -3.99,1.53 -4.4,4.04zm14.84 5.37l4.66 0c0.35,2.2 1.89,3.12 4.14,3.12 2.2,0 3.48,-0.87 3.48,-2.2 0,-1.79 -2.4,-1.99 -5.01,-2.5 -3.38,-0.67 -6.76,-1.59 -6.76,-5.73 0,-4.1 3.38,-6.09 7.73,-6.09 5.01,0 7.77,2.45 8.13,6.29l-4.55 0c-0.2,-2.05 -1.54,-2.76 -3.68,-2.76 -1.95,0 -3.28,0.71 -3.28,2.1 0,1.63 2.51,1.79 5.22,2.35 3.17,0.66 6.7,1.53 6.7,5.99 0,3.78 -3.27,6.09 -7.98,6.09 -5.48,0.05 -8.54,-2.61 -8.8,-6.66zm-87.29 -19.95l-5.84 0 -10.59 26.09 5.99 0 1.94 -5.37 10.8 0 1.99 5.37 6.04 0 -10.33 -26.09zm-7.02 16.32l3.89 -11.1 3.99 11.1 -7.88 0 0 0zm39.51 -16.32l5.01 0 0 26.09 -5.01 0 0 -26.09z"/>
     <path id="yellow" fill="#BED600" fill-rule="nonzero" d="M74.22 50.47c0,16.57 -13.41,29.98 -29.99,29.98 -16.57,0 -30.03,-13.41 -30.03,-29.98 0,-16.58 13.46,-29.99 30.03,-29.99 16.58,0 29.99,13.41 29.99,29.99z"/>
     <path id="white" fill="white" fill-rule="nonzero" d="M42.04 34.81c-4.71,0 -7.78,0.25 -10.03,1.07 -3.74,1.43 -6.3,4.5 -6.3,8.5 0,3.32 1.54,5.73 6.04,8.54 4.81,2.92 5.73,3.89 5.73,5.63 0,1.89 -1.89,4.09 -6.7,4.09 -1.69,0 -4.25,-0.25 -5.84,-0.61l-0.76 -0.2c-0.41,1.17 -1.44,3.88 -1.69,4.91l0.77 0.2c1.48,0.46 4.91,0.82 7.42,0.82 8.23,0 13.2,-5.01 13.2,-10.23 0,-3.23 -1.44,-5.63 -6.4,-8.7 -2.46,-1.54 -3.73,-2.51 -4.5,-3.28 -0.62,-0.82 -0.67,-1.38 -0.67,-1.99 0,-0.62 0.16,-1.28 0.51,-1.79 0.41,-0.62 1.23,-1.03 2.26,-1.33 1.07,-0.36 3.12,-0.36 6.24,-0.36l2.91 0 2.1 -5.22 -4.29 -0.05 0 0zm22.1 0l-14.69 0 -2.09 5.22 4.86 0c3.27,0 3.89,-0.05 4.7,-0.05 -1.17,2.71 -8.34,20.97 -8.34,20.97l6.04 0c0,0 9.06,-22.71 10.03,-25.07 0.31,-0.56 0.15,-1.07 -0.51,-1.07z"/>
</svg>
