<svg xmlns="http://www.w3.org/2000/svg" xml:space="preserve" width="560px" height="467px" fill-rule="evenodd" clip-rule="evenodd"
viewBox="0 0 560 467"
 xmlns:xlink="http://www.w3.org/1999/xlink">
 <g id="Слой_x0020_1">
  <g id="_1931343318688">
   <path fill="#E6E6E6" d="M207.12 138.86l73.14 0 0 145.27 -73.14 0 0 -145.27zm8.51 18.78l57.86 0 0 8.27 -57.86 0 0 -8.27zm0 16.91l57.86 0 0 8.27 -57.86 0 0 -8.27zm0 16.41l57.86 0 0 8.26 -57.86 0 0 -8.26zm0 16.9l57.86 0 0 8.27 -57.86 0 0 -8.27zm0 16.16l57.86 0 0 8.27 -57.86 0 0 -8.27zm0 16.91l57.86 0 0 8.26 -57.86 0 0 -8.26zm21.04 21.6l14.53 0 0 21.6 -14.53 0 0 -21.6z"/>
   <path fill="#CCCCFF" fill-rule="nonzero" d="M370.91 434.67c-3.32,0.19 -8.59,0.47 -11.63,1.42 -5.79,2.34 -9.57,4.7 -15.98,6.26 -17.65,3.96 -29.95,5.62 -48.34,5.96 -3.82,0.01 -7.58,-0.06 -11.4,-0.24 -23.84,-1.36 -42.58,-4.94 -64.85,-13.7 -5.44,-2.26 -10.63,-4.62 -15.83,-7.37 -9.56,-5.12 -18.62,-11.08 -27.18,-17.72 -3.78,-2.3 -21.08,-13.98 -23.24,-14.33 0.37,6.22 20.08,21.62 24.3,24.72 12.79,8.93 24.87,15.31 39.36,21.23 12.89,4.92 24.67,8.26 38.24,10.52 13.94,2.25 26.48,3.08 40.64,3.11 13.09,-0.15 23.92,-1.04 36.79,-2.76 7.75,-0.99 15.18,-2.25 22.88,-3.46 3.92,-0.59 11.23,-2.57 13.76,-5.84 1.56,-2.08 2.89,-4.35 4.02,-6.69 0.16,-1.09 -0.64,-1.27 -1.54,-1.11l0 0z"/>
   <path fill="#CCCCFF" fill-rule="nonzero" d="M94.86 187.49c2.19,-3.65 5.3,-8.79 6.68,-12.68 2.18,-7.75 3.13,-13.6 6.5,-21.28 12.66,-27.79 23.93,-44.94 46.01,-66.9 0.02,-0.03 0.4,-0.37 0.46,-0.43 18.57,-17.04 35.28,-27.65 58.5,-37.63 13.83,-5.5 26.42,-9.35 40.99,-12.17 14.17,-2.58 26.9,-3.81 41.29,-4.24 1.7,-0.04 3.38,-0.04 5.08,-0.01 6.21,-0.45 33.26,-0.12 35.36,-0.84 -5.55,-5.38 -33.97,-6.82 -40.71,-6.87 -1.46,0.05 -2.92,0.1 -4.39,0.18 -28.96,1.46 -53.32,6.76 -80.29,17.63 -11.08,4.8 -20.78,9.79 -30.88,16.34 -11.05,7.23 -20.08,14.44 -29.74,23.52 -17.37,17.15 -28.2,31.61 -40.19,52.56 -5.17,8.94 -9.6,17.85 -14.25,27.03 -2.17,4.32 -5.73,13.18 -4.85,18.07 0.57,2.9 1.46,5.73 2.56,8.47 0.83,0.96 1.49,0.06 1.87,-0.75l0 0z"/>
   <g id="_2312191829440">
    <g>
     <path fill="#99CC99" fill-rule="nonzero" d="M87.34 201.8c-1.11,1.95 -1.93,4.06 -2.53,6.22 -0.73,2.77 -1.41,6 -1.73,8.84 -0.24,2.11 -0.15,5.58 0.98,7.41 0.88,1.42 1.54,2.56 3.39,2.07 2.23,-0.57 2.39,-1.32 3.16,-3.56 1.06,-3.21 0.3,-6.25 0.14,-9.53 -0.13,-2.55 -0.24,-4.76 -0.71,-7.26 -0.28,-1.46 -0.86,-2.42 -1.52,-3.69 -0.25,-0.4 -0.72,-0.53 -1.18,-0.5zm-0.01 1.21c-0.01,0 -0.01,0 -0.01,0l0.01 0z"/>
    </g>
   </g>
   <path fill="none" fill-rule="nonzero" d="M87.47 201.79c-0.99,7.47 -0.22,17.03 -0.34,24.69"/>
   <g>
    <g>
     <path fill="#CCCCFF" fill-rule="nonzero" d="M400.58 427.4c2.24,-0.2 4.44,-0.75 6.55,-1.5 2.68,-1.01 5.72,-2.31 8.23,-3.69 1.86,-1.03 4.66,-3.11 5.5,-5.08 0.66,-1.54 1.2,-2.73 -0.26,-3.96 -1.76,-1.49 -2.45,-1.19 -4.74,-0.52 -3.23,0.99 -5.29,3.35 -7.88,5.38 -2.01,1.57 -3.74,2.94 -5.52,4.76 -1.04,1.07 -1.49,2.1 -2.15,3.37 -0.18,0.44 -0.02,0.89 0.27,1.24l0 0zm1 -0.68c0,0 0,0 0.01,0l-0.01 0z"/>
    </g>
   </g>
   <path fill="none" fill-rule="nonzero" d="M400.5 427.31c6.69,-3.5 14.07,-9.64 20.4,-13.95"/>
   <path fill="#A9BBCF" d="M140.04 21.68l5.42 0c0.22,0 0.39,0.17 0.39,0.39l0 3.13c0,0.22 -0.18,0.41 -0.41,0.41l-5.45 0c-0.21,0 -0.37,-0.16 -0.37,-0.37l0 -3.15c0,-0.23 0.19,-0.41 0.42,-0.41l0 0z"/>
   <path fill="#A9BBCF" d="M160.06 21.63l5.43 0c0.21,0 0.39,0.18 0.39,0.39l0 3.13c0,0.23 -0.19,0.42 -0.42,0.42l-5.45 0c-0.2,0 -0.37,-0.17 -0.37,-0.37l0 -3.15c0,-0.23 0.19,-0.42 0.42,-0.42l0 0z"/>
   <path fill="#A9BBCF" d="M150.23 21.76l6.38 0c0.21,0 0.39,0.17 0.39,0.39l0 3.13c0,0.23 -0.19,0.41 -0.42,0.41l-6.4 0c-0.21,0 -0.37,-0.16 -0.37,-0.37l0 -3.15c0,-0.23 0.19,-0.41 0.42,-0.41l0 0z"/>
   <path fill="#A9BBCF" d="M148.3 9.94l17.49 0c0.3,0 0.55,0.25 0.55,0.55l0 4.48c0,0.33 -0.26,0.6 -0.59,0.6l-17.52 0c-0.3,0 -0.53,-0.24 -0.53,-0.53l0 -4.5c0,-0.33 0.27,-0.6 0.6,-0.6l0 0z"/>
   <path fill="#C6BFCF" d="M473.52 133.28l5.43 0c0.21,0 0.39,0.17 0.39,0.38l0 3.13c0,0.24 -0.19,0.42 -0.42,0.42l-5.45 0c-0.2,0 -0.37,-0.16 -0.37,-0.37l0 -3.15c0,-0.23 0.19,-0.41 0.42,-0.41l0 0z"/>
   <path fill="#C6BFCF" d="M493.54 133.23l5.43 0c0.21,0 0.39,0.18 0.39,0.39l0 3.13c0,0.23 -0.19,0.42 -0.42,0.42l-5.45 0c-0.2,0 -0.37,-0.16 -0.37,-0.37l0 -3.15c0,-0.23 0.19,-0.42 0.42,-0.42l0 0z"/>
   <path fill="#C6BFCF" d="M483.71 133.36l6.38 0c0.22,0 0.39,0.17 0.39,0.39l0 3.12c0,0.24 -0.18,0.42 -0.42,0.42l-6.4 0c-0.2,0 -0.37,-0.16 -0.37,-0.37l0 -3.15c0,-0.22 0.19,-0.41 0.42,-0.41l0 0z"/>
   <path fill="#C6BFCF" d="M481.78 121.54l17.49 0c0.31,0 0.56,0.25 0.56,0.55l0 4.48c0,0.33 -0.27,0.59 -0.6,0.59l-17.52 0c-0.29,0 -0.53,-0.23 -0.53,-0.52l0 -4.51c0,-0.32 0.27,-0.59 0.6,-0.59l0 0z"/>
   <path fill="#C6BFCF" d="M299.88 404.93l5.43 0c0.21,0 0.39,0.17 0.39,0.39l0 3.13c0,0.23 -0.19,0.41 -0.42,0.41l-5.45 0c-0.2,0 -0.37,-0.16 -0.37,-0.36l0 -3.15c0,-0.23 0.19,-0.42 0.42,-0.42l0 0z"/>
   <path fill="#C6BFCF" d="M319.9 404.89l5.43 0c0.22,0 0.39,0.17 0.39,0.39l0 3.13c0,0.22 -0.19,0.41 -0.42,0.41l-5.45 0c-0.2,0 -0.36,-0.16 -0.36,-0.37l0 -3.15c0,-0.23 0.18,-0.41 0.41,-0.41z"/>
   <path fill="#C6BFCF" d="M310.07 405.01l6.38 0c0.22,0 0.39,0.17 0.39,0.39l0 3.13c0,0.23 -0.18,0.41 -0.41,0.41l-6.41 0c-0.2,0 -0.37,-0.16 -0.37,-0.36l0 -3.15c0,-0.23 0.19,-0.42 0.42,-0.42l0 0z"/>
   <path fill="#C6BFCF" d="M308.14 393.19l17.49 0c0.31,0 0.56,0.25 0.56,0.56l0 4.47c0,0.33 -0.27,0.6 -0.6,0.6l-17.52 0c-0.29,0 -0.53,-0.24 -0.53,-0.53l0 -4.5c0,-0.33 0.27,-0.6 0.6,-0.6l0 0z"/>
   <path fill="#CCCCFF" d="M136.89 371.39c-1.43,-3.06 -4.07,-4.76 -6.44,-7.04 -1.84,-1.76 -3.44,-3.29 -5.5,-4.79 -1.2,-0.88 -2.29,-1.18 -3.64,-1.65 -0.46,-0.12 -0.89,0.11 -1.2,0.45 1.12,4.68 4.38,10.08 7.24,13.88 1.27,1.69 3.73,4.16 5.8,4.72 1.62,0.43 2.87,0.81 3.89,-0.81 1.23,-1.95 0.83,-2.6 -0.15,-4.76l0 0z"/>
   <path fill="#CCCCFF" d="M87.45 226.34c2.23,-0.57 2.39,-1.32 3.16,-3.56 1.05,-3.21 0.3,-6.25 0.14,-9.53 -0.13,-2.55 -0.24,-4.76 -0.71,-7.26 -0.28,-1.46 -0.86,-2.42 -1.52,-3.69 -0.25,-0.4 -0.72,-0.53 -1.18,-0.5 -2.4,4.17 -3.74,10.34 -4.26,15.06 -0.24,2.11 -0.15,5.58 0.98,7.41 0.88,1.42 1.54,2.56 3.39,2.07l0 0z"/>
   <path fill="#CCCCFF" d="M348.38 32.18c2.14,3.01 6.02,5.91 9.15,7.79 1.39,0.83 3.85,1.89 5.48,1.68 1.28,-0.15 2.28,-0.25 2.53,-1.69 0.31,-1.74 -0.15,-2.09 -1.48,-3.34 -1.9,-1.76 -4.26,-2.21 -6.6,-3.15 -1.82,-0.73 -3.4,-1.35 -5.29,-1.83 -1.11,-0.27 -1.97,-0.17 -3.07,-0.12 -0.36,0.05 -0.6,0.34 -0.72,0.66z"/>
   <path fill="#C6BFCF" d="M473.52 133.28l5.43 0c0.21,0 0.39,0.17 0.39,0.38l0 3.13c0,0.24 -0.19,0.42 -0.42,0.42l-5.45 0c-0.2,0 -0.37,-0.16 -0.37,-0.37l0 -3.15c0,-0.23 0.19,-0.41 0.42,-0.41l0 0z"/>
   <path fill="#C6BFCF" d="M493.54 133.23l5.43 0c0.21,0 0.39,0.18 0.39,0.39l0 3.13c0,0.23 -0.19,0.42 -0.42,0.42l-5.45 0c-0.2,0 -0.37,-0.16 -0.37,-0.37l0 -3.15c0,-0.23 0.19,-0.42 0.42,-0.42l0 0z"/>
   <path fill="#C6BFCF" d="M483.71 133.36l6.38 0c0.22,0 0.39,0.17 0.39,0.39l0 3.12c0,0.24 -0.18,0.42 -0.42,0.42l-6.4 0c-0.2,0 -0.37,-0.16 -0.37,-0.37l0 -3.15c0,-0.22 0.19,-0.41 0.42,-0.41l0 0z"/>
   <path fill="#C6BFCF" d="M481.78 121.54l17.49 0c0.31,0 0.56,0.25 0.56,0.55l0 4.48c0,0.33 -0.27,0.59 -0.6,0.59l-17.52 0c-0.29,0 -0.53,-0.23 -0.53,-0.52l0 -4.51c0,-0.32 0.27,-0.59 0.6,-0.59l0 0z"/>
   <path fill="#2491FC" d="M270.19 72.03l5.43 0c0.21,0 0.39,0.17 0.39,0.39l0 3.13c0,0.23 -0.19,0.42 -0.42,0.42l-5.45 0c-0.2,0 -0.37,-0.17 -0.37,-0.37l0 -3.15c0,-0.23 0.19,-0.42 0.42,-0.42l0 0z"/>
   <path fill="#2491FC" d="M290.21 71.99l5.43 0c0.21,0 0.39,0.17 0.39,0.39l0 3.13c0,0.23 -0.19,0.41 -0.42,0.41l-5.45 0c-0.2,0 -0.37,-0.16 -0.37,-0.37l0 -3.14c0,-0.23 0.19,-0.42 0.42,-0.42l0 0z"/>
   <path fill="#2491FC" d="M280.38 72.11l6.38 0c0.22,0 0.39,0.18 0.39,0.39l0 3.13c0,0.23 -0.19,0.42 -0.42,0.42l-6.4 0c-0.2,0 -0.37,-0.17 -0.37,-0.37l0 -3.15c0,-0.23 0.19,-0.42 0.42,-0.42l0 0z"/>
   <path fill="#2491FC" d="M278.45 60.29l17.49 0c0.3,0 0.56,0.25 0.56,0.56l0 4.47c0,0.33 -0.27,0.6 -0.6,0.6l-17.52 0c-0.29,0 -0.53,-0.24 -0.53,-0.53l0 -4.5c0,-0.33 0.27,-0.6 0.6,-0.6l0 0z"/>
   <path fill="#33CC66" d="M283.98 120.76l75.05 -25.7 0.8 69.85 46.55 27.81 0.5 94.23 -122.39 -0.05 -0.51 -166.14zm11.56 13.71l52.16 0 0 8.14 -52.16 0 0 -8.14zm0 18.83l52.16 0 0 8.14 -52.16 0 0 -8.14zm0 18.32l52.16 0 0 8.14 -52.16 0 0 -8.14zm0 18.32l52.16 0 0 8.14 -52.16 0 0 -8.14zm0 18.31l52.16 0 0 8.14 -52.16 0 0 -8.14zm0 18.83l52.16 0 0 8.14 -52.16 0 0 -8.14zm0 18.07l52.16 0 0 8.14 -52.16 0 0 -8.14zm0 18.82l52.16 0 0 8.14 -52.16 0 0 -8.14zm88.04 -1.78l11.9 0 0 11.26 -11.9 0 0 -11.26zm-20.64 0l11.9 0 0 11.26 -11.9 0 0 -11.26zm20.64 -19.08l11.9 0 0 11.26 -11.9 0 0 -11.26zm-20.64 0l11.9 0 0 11.26 -11.9 0 0 -11.26zm20.64 -19.08l11.9 0 0 11.26 -11.9 0 0 -11.26zm-20.64 0l11.9 0 0 11.26 -11.9 0 0 -11.26zm20.64 -19.34l11.9 0 0 11.26 -11.9 0 0 -11.26zm-20.64 0l11.9 0 0 11.26 -11.9 0 0 -11.26z"/>
   <g>
    <g>
     <polygon fill="#FF6600" points="340.45,220.47 423.94,220.47 423.94,228.29 340.45,228.29 "/>
     <path fill="#FF6600" d="M340.45 231.61l83.49 0 0 109.69 -83.49 0 0 -109.69zm33.04 21.71l18.43 0 0 18.57 -18.43 0 0 -18.57zm24.17 0l18.44 0 0 18.57 -18.44 0 0 -18.57zm-47.9 0l18.43 0 0 18.57 -18.43 0 0 -18.57zm23.73 24.34l18.43 0 0 18.58 -18.43 0 0 -18.58zm24.17 0l18.44 0 0 18.58 -18.44 0 0 -18.58zm-47.9 0l18.43 0 0 18.58 -18.43 0 0 -18.58zm23.73 23.76l18.43 0 0 18.58 -18.43 0 0 -18.58zm24.17 0l18.44 0 0 18.58 -18.44 0 0 -18.58zm-47.9 0l18.43 0 0 18.58 -18.43 0 0 -18.58z"/>
    </g>
    <rect fill="#E6E6E6" x="349.76" y="253.32" width="18.43" height="18.58"/>
    <rect fill="#E6E6E6" x="349.76" y="253.32" width="18.43" height="18.58"/>
    <rect fill="#E6E6E6" x="373.49" y="253.32" width="18.43" height="18.58"/>
    <rect fill="#E6E6E6" x="397.66" y="253.32" width="18.43" height="18.58"/>
    <rect fill="#E6E6E6" x="349.76" y="277.66" width="18.43" height="18.57"/>
    <rect fill="#E6E6E6" x="373.49" y="277.66" width="18.43" height="18.57"/>
    <rect fill="#E6E6E6" x="397.66" y="277.66" width="18.43" height="18.57"/>
    <rect fill="#E6E6E6" x="349.76" y="301.42" width="18.43" height="18.57"/>
    <rect fill="#E6E6E6" x="373.49" y="301.42" width="18.43" height="18.57"/>
    <rect fill="#E6E6E6" x="397.66" y="301.42" width="18.43" height="18.57"/>
    <rect fill="white" x="340.45" y="228.29" width="83.49" height="3.32"/>
   </g>
   <g>
    <path fill="#FF6699" d="M164.63 169.91l73.14 0 0 145.27 -73.14 0 0 -145.27zm8.52 18.78l57.86 0 0 8.27 -57.86 0 0 -8.27zm0 16.91l57.86 0 0 8.26 -57.86 0 0 -8.26zm0 16.41l57.86 0 0 8.26 -57.86 0 0 -8.26zm0 16.9l57.86 0 0 8.27 -57.86 0 0 -8.27zm0 16.16l57.86 0 0 8.26 -57.86 0 0 -8.26zm0 16.9l57.86 0 0 8.27 -57.86 0 0 -8.27zm21.04 21.61l14.52 0 0 21.6 -14.52 0 0 -21.6z"/>
    <rect fill="#DCDCFA" x="173.15" y="188.69" width="57.86" height="8.26"/>
    <rect fill="#DCDCFA" x="173.15" y="205.6" width="57.86" height="8.26"/>
    <rect fill="#DCDCFA" x="173.15" y="222.01" width="57.86" height="8.26"/>
    <rect fill="#DCDCFA" x="173.15" y="238.91" width="57.86" height="8.26"/>
    <rect fill="#DCDCFA" x="173.15" y="255.07" width="57.86" height="8.26"/>
    <rect fill="#DCDCFA" x="173.15" y="271.97" width="57.86" height="8.26"/>
   </g>
   <g>
    <g>
     <path fill="#6699FF" d="M234.29 281.29l36.57 -21.16 36.31 21.21 0 81.67 7.31 0 0.03 6.35 -7.34 0.04 -80.57 0 -0.05 -6.36 8.02 -0.13 -0.28 -81.62 0 0zm15.77 7.01l17.22 0 0 17.04 -17.22 0 0 -17.04zm23.24 0l17.23 0 0 17.04 -17.23 0 0 -17.04zm-23.24 23.34l17.22 0 0 17.04 -17.22 0 0 -17.04zm23.24 0l17.23 0 0 17.04 -17.23 0 0 -17.04zm-23.24 22.78l17.22 0 0 17.04 -17.22 0 0 -17.04zm23.24 0l17.23 0 0 17.04 -17.23 0 0 -17.04z"/>
     <polygon fill="#6699FF" points="222.84,275.52 270.7,247.62 318.16,275.91 315.38,281.01 270.88,255.33 225.55,280.64 "/>
    </g>
    <rect fill="#E6E6E6" x="250.06" y="288.3" width="17.23" height="17.04"/>
    <rect fill="#E6E6E6" x="273.3" y="288.3" width="17.23" height="17.04"/>
    <rect fill="#E6E6E6" x="250.06" y="311.64" width="17.23" height="17.04"/>
    <rect fill="#E6E6E6" x="273.3" y="311.64" width="17.23" height="17.04"/>
    <rect fill="#E6E6E6" x="250.06" y="334.42" width="17.23" height="17.04"/>
    <rect fill="#E6E6E6" x="273.3" y="334.42" width="17.23" height="17.04"/>
    <polygon fill="white" points="234.23,275.79 270.88,255.33 307.07,276.22 307.17,281.34 270.86,260.13 234.29,281.29 "/>
   </g>
   <rect fill="#CEBADA" transform="matrix(0.528655 0.569604 -0.569604 0.528655 411.217 53.3967)" width="19.12" height="18.91"/>
   <rect fill="#8DC184" transform="matrix(0.121879 0.585287 -0.762452 0.149941 480.896 49.6572)" width="19.12" height="18.91"/>
   <rect fill="#81E8B4" transform="matrix(0.443386 0.537729 -0.60302 0.490098 549.3 222.911)" width="19.12" height="18.91"/>
   <rect fill="#81E8B4" transform="matrix(0.443386 0.537729 -0.60302 0.490098 491.122 267.423)" width="19.12" height="18.91"/>
   <rect fill="#FF9DC3" transform="matrix(-0.411231 0.535096 -0.614475 -0.475508 513.825 338.874)" width="19.12" height="18.91"/>
   <rect fill="#F5D69D" transform="matrix(-0.547057 0.39518 -0.452868 -0.631345 463.959 378.855)" width="19.12" height="18.91"/>
   <rect fill="#81E8B4" transform="matrix(0.443386 0.537729 -0.60302 0.490098 70.2004 105.982)" width="19.12" height="18.91"/>
   <rect fill="#81E8B4" transform="matrix(0.443386 0.537729 -0.60302 0.490098 12.0214 150.495)" width="19.12" height="18.91"/>
   <rect fill="#FF9DC3" transform="matrix(-0.411231 0.535096 -0.614475 -0.475508 34.7251 221.946)" width="19.12" height="18.91"/>
  </g>
 </g>
</svg>
