<svg class="header__anim-svg" xmlns="http://www.w3.org/2000/svg" xml:space="preserve"  version="1.1" style="shape-rendering:geometricPrecision; text-rendering:geometricPrecision; image-rendering:optimizeQuality; fill-rule:evenodd; clip-rule:evenodd" viewBox="0 0 1920 800" xmlns:xlink="http://www.w3.org/1999/xlink">
                <g id="master-layer">
                  <rect class="line" fill="#43556B" x="0.74" y="791.98" width="1920" height="4"/>
                  <path class="city-bg" fill="#F5F5F6" d="M381 243l1030 1c61,7 48,101 -4,100l-144 0c-51,2 -50,60 1,61l282 1c56,8 44,83 0,84l-26 0c-41,4 -43,68 0,70l159 0c58,8 54,77 0,82l-246 1 0.94 149 -778.73 -1 -0.21 -202 -301 -2c-54,-4 -52,-84 1,-87l369 -2c34,-5 25,-54 0,-55l-482 -1.96c-52,-6.04 -50,-76.04 0,-84.04l346 1c33,-1 37,-46 0,-49l-207 -1c-42,-5 -42,-61 0,-65z"/>
                  <g id="stars">
                    <path class="star-1" fill="#CFE7F7" d="M1220.61 13.83c-0.06,0 -0.12,0.02 -0.13,0.08 -0.29,1.08 -0.4,2.67 -0.57,3.81 -0.34,2.31 -1.21,5.99 -2.81,7.69 -1.43,1.52 -3.98,2.39 -5.99,2.73 -1.1,0.19 -2.2,0.41 -3.31,0.54 -0.63,0.08 -1.26,0.16 -1.89,0.26 -0.17,0.03 -0.34,0.06 -0.51,0.1 -0.05,0.01 -0.16,0.06 -0.15,0.13 0.01,0.05 0.13,0.11 0.18,0.12 0.29,0.08 0.57,0.1 0.87,0.14 3.26,0.44 8.12,0.89 10.57,3.24 0.78,0.75 1.39,1.7 1.78,2.71 0.57,1.47 0.92,3.06 1.16,4.63 0.17,1.09 0.33,2.2 0.48,3.3 0.04,0.28 0.07,0.58 0.13,0.86 0.02,0.09 0.04,0.32 0.16,0.32 0.01,0 0.05,0 0.08,-0.04 0.11,-0.2 0.12,-0.49 0.16,-0.72 0.45,-2.97 0.65,-6.05 1.89,-8.83 0.46,-1.03 1.19,-1.92 2.05,-2.64 1.59,-1.35 4.67,-1.99 6.73,-2.35 1.35,-0.23 2.8,-0.32 4.11,-0.59 0.08,-0.01 0.18,-0.04 0.26,-0.07 0.05,-0.02 0.05,-0.04 0.05,-0.09 0,-0.04 -0.04,-0.09 -0.08,-0.1 -0.72,-0.19 -1.7,-0.27 -2.45,-0.37 -1.36,-0.19 -2.71,-0.4 -4.05,-0.7 -1.12,-0.24 -2.28,-0.6 -3.3,-1.13 -0.7,-0.36 -1.37,-0.85 -1.93,-1.4 -0.9,-0.9 -1.57,-2.25 -1.93,-3.45 -0.61,-2.03 -0.94,-4.19 -1.2,-6.29 -0.07,-0.52 -0.12,-1.32 -0.27,-1.81 -0.02,-0.05 -0.04,-0.08 -0.09,-0.08z"/>
                    <path class="star-2" fill="#CFE7F7" d="M1201.36 152.34c-0.05,0 -0.12,0.02 -0.13,0.08 -0.29,1.08 -0.39,2.66 -0.57,3.81 -0.34,2.31 -1.2,5.99 -2.81,7.69 -1.43,1.52 -3.97,2.39 -5.99,2.73 -1.1,0.19 -2.2,0.41 -3.3,0.54 -0.63,0.07 -1.27,0.16 -1.89,0.26 -0.17,0.02 -0.35,0.06 -0.52,0.1 -0.05,0.01 -0.16,0.06 -0.15,0.13 0.01,0.05 0.14,0.11 0.18,0.12 0.29,0.08 0.58,0.1 0.87,0.14 3.26,0.44 8.12,0.89 10.57,3.24 0.78,0.75 1.39,1.69 1.78,2.7 0.58,1.48 0.92,3.07 1.16,4.63 0.18,1.1 0.33,2.2 0.48,3.31 0.04,0.28 0.08,0.57 0.14,0.86 0.01,0.09 0.03,0.32 0.15,0.32 0.01,0 0.05,0 0.09,-0.04 0.1,-0.2 0.12,-0.49 0.15,-0.72 0.45,-2.97 0.66,-6.05 1.89,-8.83 0.46,-1.03 1.2,-1.92 2.05,-2.64 1.59,-1.35 4.67,-1.99 6.74,-2.35 1.34,-0.23 2.79,-0.32 4.1,-0.59 0.09,-0.02 0.19,-0.04 0.27,-0.07 0.04,-0.02 0.05,-0.04 0.05,-0.09 0,-0.04 -0.05,-0.09 -0.08,-0.1 -0.72,-0.19 -1.71,-0.27 -2.46,-0.37 -1.36,-0.19 -2.71,-0.4 -4.05,-0.7 -1.12,-0.25 -2.27,-0.6 -3.29,-1.13 -0.7,-0.36 -1.38,-0.85 -1.94,-1.41 -0.9,-0.9 -1.57,-2.24 -1.93,-3.45 -0.6,-2.02 -0.94,-4.19 -1.2,-6.28 -0.07,-0.52 -0.12,-1.33 -0.27,-1.81 -0.01,-0.05 -0.04,-0.08 -0.09,-0.08z"/>\
                    <path class="star-3" fill="#CFE7F7" d="M1007.37 8c-0.07,0 -0.16,0.03 -0.18,0.11 -0.41,1.53 -0.56,3.77 -0.8,5.39 -0.49,3.26 -1.71,8.46 -3.98,10.87 -2.02,2.14 -5.61,3.37 -8.46,3.86 -1.56,0.27 -3.11,0.58 -4.68,0.76 -0.89,0.11 -1.78,0.22 -2.67,0.37 -0.23,0.03 -0.49,0.08 -0.72,0.14 -0.08,0.01 -0.23,0.09 -0.22,0.18 0.02,0.07 0.19,0.16 0.25,0.17 0.41,0.12 0.82,0.15 1.24,0.2 4.61,0.62 11.47,1.25 14.94,4.58 1.1,1.06 1.96,2.4 2.51,3.82 0.82,2.09 1.3,4.34 1.64,6.55 0.25,1.55 0.46,3.11 0.68,4.67 0.06,0.4 0.11,0.81 0.19,1.21 0.03,0.13 0.05,0.46 0.22,0.46 0.02,0 0.07,0 0.12,-0.05 0.15,-0.29 0.17,-0.7 0.22,-1.02 0.63,-4.21 0.92,-8.55 2.67,-12.49 0.65,-1.45 1.69,-2.71 2.89,-3.73 2.26,-1.91 6.61,-2.81 9.53,-3.32 1.9,-0.33 3.95,-0.45 5.8,-0.83 0.12,-0.03 0.26,-0.06 0.37,-0.11 0.07,-0.02 0.08,-0.05 0.08,-0.12 -0.01,-0.05 -0.07,-0.13 -0.12,-0.14 -1.01,-0.27 -2.41,-0.38 -3.47,-0.53 -1.92,-0.26 -3.83,-0.57 -5.72,-0.98 -1.58,-0.35 -3.22,-0.85 -4.66,-1.6 -0.99,-0.51 -1.94,-1.2 -2.73,-1.99 -1.27,-1.27 -2.22,-3.17 -2.73,-4.87 -0.86,-2.87 -1.33,-5.92 -1.7,-8.88 -0.09,-0.74 -0.17,-1.88 -0.38,-2.57 -0.02,-0.07 -0.06,-0.11 -0.13,-0.11z"/>
                    <path class="star-4" fill="#CFE7F7" d="M1808.36 181.34c-0.05,0 -0.12,0.02 -0.13,0.08 -0.29,1.08 -0.4,2.66 -0.57,3.81 -0.34,2.31 -1.2,5.99 -2.81,7.69 -1.43,1.52 -3.97,2.39 -5.99,2.73 -1.1,0.19 -2.2,0.41 -3.31,0.54 -0.62,0.07 -1.26,0.16 -1.88,0.26 -0.17,0.02 -0.35,0.06 -0.52,0.1 -0.05,0.01 -0.16,0.06 -0.15,0.13 0.01,0.05 0.14,0.11 0.18,0.12 0.29,0.08 0.57,0.1 0.87,0.14 3.26,0.44 8.12,0.89 10.57,3.24 0.78,0.75 1.39,1.69 1.78,2.7 0.58,1.48 0.92,3.07 1.16,4.63 0.18,1.1 0.33,2.21 0.48,3.31 0.04,0.28 0.08,0.57 0.14,0.86 0.01,0.09 0.03,0.32 0.15,0.32 0.01,0 0.05,0 0.09,-0.04 0.1,-0.2 0.11,-0.49 0.15,-0.72 0.45,-2.97 0.66,-6.05 1.89,-8.83 0.46,-1.03 1.2,-1.92 2.05,-2.64 1.59,-1.35 4.67,-1.99 6.74,-2.35 1.34,-0.23 2.79,-0.32 4.1,-0.59 0.08,-0.01 0.18,-0.04 0.26,-0.07 0.05,-0.02 0.06,-0.04 0.06,-0.09 -0.01,-0.04 -0.05,-0.09 -0.08,-0.1 -0.72,-0.19 -1.71,-0.27 -2.46,-0.37 -1.36,-0.19 -2.71,-0.4 -4.05,-0.7 -1.12,-0.25 -2.27,-0.6 -3.29,-1.13 -0.7,-0.36 -1.38,-0.85 -1.94,-1.41 -0.9,-0.9 -1.57,-2.24 -1.93,-3.45 -0.6,-2.02 -0.94,-4.18 -1.2,-6.28 -0.07,-0.52 -0.12,-1.33 -0.27,-1.81 -0.02,-0.05 -0.04,-0.08 -0.09,-0.08z"/>
                    <path class="star-5" fill="#CFE7F7" d="M1368.36 453.34c-0.05,0 -0.12,0.02 -0.13,0.08 -0.29,1.08 -0.4,2.66 -0.57,3.81 -0.34,2.31 -1.2,5.99 -2.81,7.69 -1.43,1.52 -3.97,2.39 -5.99,2.73 -1.1,0.19 -2.2,0.41 -3.31,0.54 -0.62,0.07 -1.26,0.16 -1.88,0.26 -0.17,0.02 -0.35,0.06 -0.52,0.1 -0.05,0.01 -0.16,0.06 -0.15,0.13 0.01,0.05 0.14,0.11 0.18,0.12 0.29,0.08 0.57,0.1 0.87,0.14 3.26,0.44 8.12,0.89 10.57,3.24 0.78,0.75 1.39,1.69 1.78,2.7 0.58,1.48 0.92,3.07 1.16,4.63 0.18,1.1 0.33,2.2 0.48,3.31 0.04,0.28 0.08,0.57 0.14,0.86 0.01,0.09 0.03,0.32 0.15,0.32 0.01,0 0.05,0 0.09,-0.04 0.1,-0.2 0.12,-0.49 0.15,-0.72 0.45,-2.97 0.66,-6.05 1.89,-8.83 0.46,-1.03 1.2,-1.92 2.05,-2.64 1.59,-1.35 4.67,-1.99 6.74,-2.35 1.34,-0.23 2.79,-0.32 4.1,-0.59 0.08,-0.02 0.19,-0.04 0.27,-0.07 0.04,-0.02 0.05,-0.04 0.05,-0.09 -0.01,-0.04 -0.05,-0.09 -0.08,-0.1 -0.72,-0.19 -1.71,-0.27 -2.46,-0.37 -1.36,-0.19 -2.71,-0.4 -4.05,-0.7 -1.12,-0.25 -2.27,-0.6 -3.29,-1.13 -0.7,-0.36 -1.38,-0.85 -1.94,-1.41 -0.9,-0.9 -1.57,-2.24 -1.93,-3.45 -0.6,-2.02 -0.94,-4.18 -1.2,-6.28 -0.07,-0.52 -0.12,-1.33 -0.27,-1.81 -0.02,-0.05 -0.04,-0.08 -0.09,-0.08z"/>
                    <path class="star-6" fill="#CFE7F7" d="M1892.36 611.34c-0.05,0 -0.12,0.02 -0.13,0.08 -0.29,1.08 -0.4,2.66 -0.57,3.81 -0.34,2.31 -1.2,5.99 -2.81,7.69 -1.43,1.52 -3.97,2.39 -5.99,2.73 -1.1,0.19 -2.2,0.41 -3.31,0.54 -0.62,0.07 -1.26,0.16 -1.88,0.26 -0.17,0.02 -0.35,0.06 -0.52,0.1 -0.05,0.01 -0.16,0.06 -0.15,0.13 0.01,0.05 0.14,0.11 0.18,0.12 0.29,0.08 0.57,0.1 0.87,0.14 3.26,0.44 8.12,0.89 10.57,3.24 0.78,0.75 1.39,1.69 1.78,2.7 0.58,1.48 0.92,3.07 1.16,4.63 0.18,1.1 0.33,2.2 0.48,3.31 0.04,0.28 0.08,0.57 0.14,0.86 0.01,0.09 0.03,0.32 0.15,0.32 0.01,0 0.05,0 0.09,-0.04 0.1,-0.2 0.11,-0.49 0.15,-0.72 0.45,-2.97 0.66,-6.05 1.89,-8.83 0.46,-1.03 1.2,-1.92 2.05,-2.64 1.59,-1.35 4.67,-1.99 6.74,-2.35 1.34,-0.23 2.79,-0.32 4.1,-0.59 0.08,-0.02 0.18,-0.04 0.26,-0.07 0.05,-0.02 0.06,-0.04 0.06,-0.09 -0.01,-0.04 -0.05,-0.09 -0.08,-0.1 -0.72,-0.19 -1.71,-0.27 -2.46,-0.37 -1.36,-0.19 -2.71,-0.4 -4.05,-0.7 -1.12,-0.25 -2.27,-0.6 -3.29,-1.13 -0.7,-0.36 -1.38,-0.85 -1.94,-1.41 -0.9,-0.9 -1.57,-2.24 -1.93,-3.45 -0.6,-2.02 -0.94,-4.19 -1.2,-6.28 -0.07,-0.52 -0.12,-1.33 -0.27,-1.81 -0.02,-0.05 -0.04,-0.08 -0.09,-0.08z"/>
                    <path class="star-7" fill="#CFE7F7" d="M646.36 526.34c-0.05,0 -0.12,0.02 -0.13,0.08 -0.29,1.08 -0.39,2.66 -0.57,3.81 -0.34,2.31 -1.2,5.99 -2.81,7.69 -1.43,1.52 -3.97,2.39 -5.99,2.73 -1.1,0.19 -2.2,0.41 -3.3,0.54 -0.63,0.07 -1.27,0.16 -1.89,0.26 -0.17,0.02 -0.35,0.06 -0.52,0.1 -0.05,0.01 -0.16,0.06 -0.15,0.13 0.01,0.05 0.14,0.11 0.18,0.12 0.29,0.08 0.58,0.1 0.87,0.14 3.26,0.44 8.12,0.89 10.57,3.24 0.78,0.75 1.39,1.69 1.78,2.7 0.58,1.48 0.92,3.07 1.16,4.63 0.18,1.1 0.33,2.21 0.48,3.31 0.04,0.28 0.08,0.57 0.14,0.86 0.01,0.09 0.03,0.32 0.15,0.32 0.01,0 0.05,0 0.09,-0.04 0.1,-0.2 0.12,-0.49 0.15,-0.72 0.45,-2.97 0.66,-6.05 1.89,-8.83 0.46,-1.03 1.2,-1.92 2.05,-2.64 1.59,-1.35 4.67,-1.99 6.74,-2.35 1.34,-0.23 2.79,-0.32 4.1,-0.59 0.09,-0.01 0.19,-0.04 0.27,-0.07 0.04,-0.02 0.05,-0.04 0.05,-0.09 0,-0.04 -0.05,-0.09 -0.08,-0.1 -0.72,-0.19 -1.71,-0.27 -2.46,-0.37 -1.36,-0.19 -2.71,-0.4 -4.05,-0.7 -1.12,-0.25 -2.27,-0.6 -3.29,-1.13 -0.7,-0.36 -1.38,-0.85 -1.94,-1.41 -0.9,-0.9 -1.57,-2.24 -1.93,-3.45 -0.6,-2.02 -0.94,-4.18 -1.2,-6.28 -0.07,-0.52 -0.12,-1.33 -0.27,-1.81 -0.01,-0.05 -0.04,-0.08 -0.09,-0.08z"/>
                    <path class="star-8" fill="#CFE7F7" d="M355.36 325.34c-0.05,0 -0.12,0.02 -0.13,0.08 -0.29,1.08 -0.39,2.66 -0.57,3.81 -0.34,2.31 -1.2,5.99 -2.81,7.69 -1.43,1.52 -3.97,2.39 -5.99,2.73 -1.1,0.19 -2.2,0.41 -3.3,0.54 -0.63,0.07 -1.27,0.16 -1.89,0.26 -0.17,0.02 -0.35,0.06 -0.52,0.1 -0.05,0.01 -0.16,0.06 -0.15,0.13 0.01,0.05 0.14,0.11 0.18,0.12 0.29,0.08 0.58,0.1 0.87,0.14 3.26,0.44 8.12,0.89 10.57,3.24 0.78,0.75 1.39,1.69 1.78,2.7 0.58,1.48 0.92,3.07 1.16,4.63 0.18,1.1 0.33,2.21 0.48,3.31 0.04,0.28 0.08,0.57 0.14,0.86 0.01,0.09 0.03,0.32 0.15,0.32 0.01,0 0.05,0 0.09,-0.04 0.1,-0.2 0.12,-0.49 0.15,-0.72 0.45,-2.97 0.66,-6.05 1.89,-8.83 0.46,-1.03 1.2,-1.92 2.05,-2.64 1.59,-1.35 4.67,-1.99 6.74,-2.35 1.34,-0.23 2.79,-0.32 4.1,-0.59 0.09,-0.01 0.19,-0.04 0.27,-0.07 0.04,-0.02 0.05,-0.04 0.05,-0.09 0,-0.04 -0.05,-0.09 -0.08,-0.1 -0.72,-0.19 -1.71,-0.27 -2.46,-0.37 -1.36,-0.19 -2.71,-0.4 -4.05,-0.7 -1.12,-0.25 -2.27,-0.6 -3.29,-1.13 -0.7,-0.36 -1.38,-0.85 -1.94,-1.41 -0.9,-0.9 -1.57,-2.24 -1.93,-3.45 -0.6,-2.02 -0.94,-4.18 -1.2,-6.28 -0.07,-0.52 -0.12,-1.33 -0.27,-1.81 -0.01,-0.05 -0.04,-0.08 -0.09,-0.08z"/>
                    <path class="star-9" fill="#CFE7F7" d="M221.36 425.34c-0.05,0 -0.12,0.02 -0.13,0.08 -0.29,1.08 -0.4,2.66 -0.57,3.81 -0.34,2.31 -1.2,5.99 -2.81,7.69 -1.43,1.52 -3.97,2.39 -5.99,2.73 -1.1,0.19 -2.2,0.41 -3.31,0.54 -0.62,0.07 -1.26,0.16 -1.88,0.26 -0.17,0.02 -0.35,0.06 -0.52,0.1 -0.05,0.01 -0.16,0.06 -0.15,0.13 0.01,0.05 0.14,0.11 0.18,0.12 0.29,0.08 0.57,0.1 0.87,0.14 3.26,0.44 8.12,0.89 10.57,3.24 0.78,0.75 1.39,1.69 1.78,2.7 0.58,1.48 0.92,3.07 1.16,4.63 0.18,1.1 0.33,2.2 0.48,3.31 0.04,0.28 0.08,0.57 0.14,0.86 0.01,0.09 0.03,0.32 0.15,0.32 0.01,0 0.05,0 0.09,-0.04 0.1,-0.2 0.11,-0.49 0.15,-0.72 0.45,-2.97 0.66,-6.05 1.89,-8.83 0.46,-1.03 1.2,-1.92 2.05,-2.64 1.59,-1.35 4.67,-1.99 6.74,-2.35 1.34,-0.23 2.79,-0.32 4.1,-0.59 0.08,-0.02 0.18,-0.04 0.26,-0.07 0.05,-0.02 0.06,-0.04 0.06,-0.09 -0.01,-0.04 -0.05,-0.09 -0.08,-0.1 -0.72,-0.19 -1.71,-0.27 -2.46,-0.37 -1.36,-0.19 -2.71,-0.4 -4.05,-0.7 -1.12,-0.25 -2.27,-0.6 -3.29,-1.13 -0.7,-0.36 -1.38,-0.85 -1.94,-1.41 -0.9,-0.9 -1.57,-2.24 -1.93,-3.45 -0.6,-2.02 -0.94,-4.19 -1.2,-6.28 -0.07,-0.52 -0.12,-1.33 -0.27,-1.81 -0.02,-0.05 -0.04,-0.08 -0.09,-0.08z"/>
                  </g>
                  <g id="circles">
                      <ellipse class="circle-1" fill="#CFE7F7" cx="40" cy="621.26" rx="11.5" ry="11.74"/>
                      <ellipse class="circle-2" fill="#CFE7F7" cx="221.56" cy="174.26" rx="8.56" ry="8.74"/>
                      <ellipse class="circle-3" fill="#CFE7F7" cx="627.56" cy="284.26" rx="8.56" ry="8.74"/>
                      <ellipse class="circle-4" fill="#CFE7F7" cx="613.56" cy="75.26" rx="10.44" ry="10.66"/>
                      <ellipse class="circle-5" fill="#CFE7F7" cx="747.44" cy="30" rx="8.48" ry="8.66"/>
                      <ellipse class="circle-6" fill="#CFE7F7" cx="817.48" cy="494.34" rx="8.48" ry="8.66"/>
                      <ellipse class="circle-7" fill="#CFE7F7" cx="1178.48" cy="433.34" rx="8.48" ry="8.66"/>
                      <ellipse class="circle-8" fill="#CFE7F7" cx="1851.48" cy="362.34" rx="7.5" ry="7.66"/>
                      <ellipse class="circle-9" fill="#CFE7F7" cx="1668.5" cy="524.34" rx="7.5" ry="7.66"/>
                  </g>
                  <path class= "cloud-1" id="svg_8" fill="#C1E0F5" d="M1616 106.66c0,-8.62 5.17,-16.17 12.86,-20.21 0.44,-18.97 17.52,-34.23 38.53,-34.23 13.85,0 25.99,6.63 32.78,16.59 2.51,-0.68 5.16,-1.04 7.9,-1.04 11.93,0 22.1,6.81 26.06,16.38 10.9,2.71 18.91,11.76 18.91,22.51 0,12.87 -11.51,23.34 -25.7,23.34l-85.65 0c-14.18,0 -25.69,-10.45 -25.69,-23.34l0 0zm111.23 -15.55c-1.07,-8.75 -9.24,-15.56 -19.16,-15.56 -4.52,0 -8.69,1.42 -11.98,3.79 -3.72,-11.19 -15.16,-19.35 -28.7,-19.35 -16.56,0 -29.98,12.19 -29.98,27.23 0,1.46 0.13,2.89 0.37,4.29 -7.57,1.61 -13.22,7.8 -13.22,15.15 0,8.6 7.69,15.56 17.12,15.56l85.68 0c9.45,0 17.11,-6.98 17.11,-15.56 0,-8.59 -7.68,-15.55 -17.11,-15.55l-0.13 0 0 0zm0 0z"/>
                  <path class= "cloud-2" id="svg_8_1" fill="#C1E0F5" d="M146 236.66c0,-8.62 5.17,-16.17 12.86,-20.21 0.44,-18.97 17.52,-34.23 38.53,-34.23 13.85,0 25.99,6.63 32.78,16.59 2.51,-0.68 5.16,-1.04 7.9,-1.04 11.93,0 22.1,6.81 26.06,16.38 10.9,2.71 18.91,11.76 18.91,22.51 0,12.87 -11.51,23.34 -25.7,23.34l-85.65 0c-14.18,0 -25.69,-10.45 -25.69,-23.34l0 0zm111.23 -15.55c-1.07,-8.75 -9.24,-15.56 -19.16,-15.56 -4.52,0 -8.69,1.42 -11.98,3.79 -3.72,-11.19 -15.16,-19.35 -28.7,-19.35 -16.56,0 -29.98,12.19 -29.98,27.23 0,1.46 0.13,2.89 0.37,4.29 -7.57,1.61 -13.22,7.8 -13.22,15.15 0,8.6 7.69,15.56 17.12,15.56l85.68 0c9.45,0 17.11,-6.98 17.11,-15.56 0,-8.59 -7.68,-15.55 -17.11,-15.55l-0.13 0 0 0zm0 0z"/>
                  <path class= "cloud-3" id="svg_8_3" fill="#DEEAF3" d="M1112 380.53c0,-7.19 4.31,-13.49 10.72,-16.86 0.38,-15.83 14.63,-28.56 32.15,-28.56 11.55,0 21.68,5.54 27.34,13.84 2.09,-0.56 4.31,-0.86 6.59,-0.86 9.95,0 18.44,5.68 21.75,13.67 9.08,2.25 15.76,9.8 15.76,18.77 0,10.73 -9.59,19.47 -21.43,19.47l-71.45 0c-11.83,0 -21.43,-8.71 -21.43,-19.47l0 0zm92.78 -12.97c-0.89,-7.3 -7.7,-12.98 -15.98,-12.98 -3.77,0 -7.25,1.18 -9.99,3.16 -3.1,-9.34 -12.65,-16.14 -23.94,-16.14 -13.81,0 -25.01,10.17 -25.01,22.71 0,1.22 0.11,2.42 0.31,3.59 -6.32,1.34 -11.03,6.5 -11.03,12.63 0,7.17 6.41,12.98 14.28,12.98l71.47 0c7.89,0 14.28,-5.82 14.28,-12.98 0,-7.16 -6.41,-12.97 -14.28,-12.97l-0.11 0 0 0zm0 0z"/>
                  <g id="trees">
                    <g class="tree-1">
                      <circle fill="#FFB836" cx="80" cy="743" r="21.5" stroke="#414042" stroke-width="4" stroke-miterlimit="22.9256"/>
                      <polygon fill="#414042" points="78,741 81.13,741 81.13,794 78,794 "/>
                    </g>
                    <g class="tree-2">
                      <circle fill="#FFB836" cx="125.5" cy="743" r="21.5" stroke="#414042" stroke-width="4" stroke-miterlimit="22.9256"/>
                      <polygon fill="#414042" points="123.94,741 127.06,741 127.06,794 123.94,794 "/>
                    </g>
                    <g class="tree-3">
                      <circle fill="#FFB836" cx="171.5" cy="743" r="21.5" stroke="#414042" stroke-width="4" stroke-miterlimit="22.9256"/>
                      <polygon fill="#414042" points="169.94,741 172.94,741 173.03,794 169.94,794 "/>
                    </g>
                  </g>
                  <g class="district">
                    <ellipse fill="#fff" cx="268" cy="604.57" rx="35.4" ry="33" stroke="#43556B" stroke-width="5" stroke-miterlimit="22.9256"/>
                    <g>
                      <circle fill="#009FD7" cx="268.1" cy="558.57" r="25"/>
                      <polygon fill="#fff" points="264.1,544.07 272.1,544.07 272.1,555.07 282.1,555.07 282.1,563.07 272.1,563.13 272.1,573.07 264.1,573.07 264.1,563.07 254.1,563.07 254.1,555.07 264.1,554.91 "/>
                    </g>
                    <polygon fill="#43556B" points="221.07,596.07 319.1,596.07 319.1,796.07 221.04,796.07 "/>
                    <path fill="#fff" d="M225.1 601.07l89 0 0 191 -88.94 0 -0.06 -191zm15 10l10 0 0 22 -10 0 0 -22zm0 25l10 0 0 21 -10 0 0 -21zm0 24l10 0 0 21 -10 0 0 -21zm0 24l10 0 0 22 -10 0 0 -22zm0 24l10 0 0 22 -10 0 0 -22zm0 25l10 0 0 21 -10 0 0 -21zm12 -122l10 0 0 22 -10 0 0 -22zm0 25l10 0 0 21 -10 0 0 -21zm0 24l10 0 0 21 -10 0 0 -21zm0 24l10 0 0 22 -10 0 0 -22zm0 24l10 0 0 22 -10 0 0 -22zm0 25l10 0 0 21 -10 0 0 -21zm3 -70l1 0 0 14 -1 0 0 -14zm0 -24l1 0 0 14 -1 0 0 -14zm0 -25l1 0 0 14 -1 0 0 -14zm0 73l1 0 0 16 -1 0 0 -16zm0 24l1 0 0 16 -1 0 0 -16zm0 25l1 0 0 15 -1 0 0 -15zm9 -125l10 0 0 22 -10 0 0 -22zm3 3l1 0 0 14 -1 0 0 -14zm9 -3l10 0 0 22 -10 0 0 -22zm3 3l1 0 0 14 -1 0 0 -14zm8 -3l11 0 0 22 -11 0 0 -22zm3 3l1 0 0 14 -1 0 0 -14z"/>
                    <polygon fill="#fff" points="279.1,614.07 280.1,614.07 280.1,628.07 279.1,628.07 "/>
                    <g>
                      <polygon fill="#43556B" points="262.1,627.21 344.1,627.21 344.1,793.07 262.1,793.07 239.1,793.07 239.1,769.07 262.1,769.3 "/>
                      <polygon fill="#fff" points="267.6,631.57 280.6,631.57 280.6,791.57 267.6,791.57 "/>
                      <rect fill="#43556B" x="270.6" y="646.57" width="9" height="13"/>
                      <rect fill="#43556B" x="270.6" y="663.57" width="9" height="13"/>
                      <rect fill="#43556B" x="270.6" y="681.57" width="9" height="13"/>
                      <rect fill="#43556B" x="270.6" y="698.57" width="9" height="13"/>
                      <rect fill="#43556B" x="270.6" y="715.57" width="9" height="13"/>
                      <rect fill="#43556B" x="270.6" y="732.57" width="9" height="13"/>
                      <rect fill="#43556B" x="270.6" y="750.57" width="9" height="13"/>
                      <polygon fill="#fff" points="286.6,631.57 299.6,631.57 299.6,646.65 289.6,646.57 289.6,659.57 299.6,659.61 299.6,664.58 289.6,664.57 289.6,676.57 299.6,676.68 299.6,681.49 289.6,681.57 289.6,693.57 299.6,693.65 299.6,698.62 289.6,698.57 289.6,710.57 299.6,710.74 299.6,715.55 289.6,715.57 289.6,727.57 299.6,727.59 299.6,732.65 289.6,732.57 289.6,745.57 299.6,745.56 299.6,750.71 289.6,750.57 289.6,762.57 299.6,762.68 299.6,791.57 286.6,791.57 "/>
                      <rect fill="#fff" x="293.1" y="651.07" width="1" height="4"/>
                      <rect fill="#fff" x="293.1" y="668.07" width="1" height="4"/>
                      <rect fill="#fff" x="293.1" y="686.07" width="1" height="3"/>
                      <rect fill="#fff" x="293.1" y="703.07" width="1" height="3"/>
                      <rect fill="#fff" x="293.1" y="720.07" width="1" height="3"/>
                      <rect fill="#fff" x="293.1" y="737.07" width="1" height="4"/>
                      <rect fill="#fff" x="293.1" y="755.07" width="1" height="3"/>
                      <polygon fill="#fff" points="304.6,631.57 317.6,631.57 317.6,791.57 304.6,791.57 "/>
                      <rect fill="#43556B" x="307.6" y="646.57" width="9" height="13"/>
                      <rect fill="#43556B" x="307.6" y="663.57" width="9" height="13"/>
                      <rect fill="#43556B" x="307.6" y="681.57" width="9" height="13"/>
                      <rect fill="#43556B" x="307.6" y="698.57" width="9" height="13"/>
                      <rect fill="#43556B" x="307.6" y="715.57" width="9" height="13"/>
                      <rect fill="#43556B" x="307.6" y="732.57" width="9" height="13"/>
                      <rect fill="#43556B" x="307.6" y="750.57" width="9" height="13"/>
                      <rect fill="#fff" x="312.1" y="651.07" width="1" height="4"/>
                      <rect fill="#43556B" x="312.1" y="668.07" width="1" height="4"/>
                      <rect fill="#fff" x="312.1" y="686.07" width="1" height="3"/>
                      <rect fill="#fff" x="312.1" y="703.07" width="1" height="3"/>
                      <rect fill="#fff" x="312.1" y="720.07" width="1" height="3"/>
                      <rect fill="#fff" x="312.1" y="737.07" width="1" height="4"/>
                      <rect fill="#fff" x="312.1" y="755.07" width="1" height="3"/>
                      <polygon fill="#fff" points="323.6,631.57 338.6,631.57 338.6,791.57 323.6,791.57 "/>
                      <rect fill="#43556B" x="326.6" y="646.57" width="9" height="13"/>
                      <rect fill="#43556B" x="326.6" y="663.57" width="9" height="13"/>
                      <rect fill="#43556B" x="326.6" y="681.57" width="9" height="13"/>
                      <rect fill="#43556B" x="326.6" y="698.57" width="9" height="13"/>
                      <rect fill="#43556B" x="326.6" y="715.57" width="9" height="13"/>
                      <rect fill="#43556B" x="326.6" y="732.57" width="9" height="13"/>
                      <rect fill="#43556B" x="326.6" y="750.57" width="9" height="13"/>
                      <rect fill="#fff" x="311.1" y="668.07" width="1" height="4"/>
                      <rect fill="#fff" x="243.1" y="773.07" width="19" height="19"/>
                    </g>
                    <g>
                      <rect fill="#43556B" x="344.1" y="653.16" width="54" height="139"/>
                      <polygon fill="#fff" points="344.6,656.66 394.6,656.66 394.1,788.16 345.1,788.16 345.1,776.17 384.6,775.66 384.6,763.66 344.6,763.66 344.6,759.66 384.6,759.66 384.6,747.66 344.6,747.66 344.62,743.67 384.6,743.66 384.6,731.66 344.6,731.66 344.62,727.67 384.6,727.66 384.6,715.66 344.6,715.66 344.63,711.66 384.6,711.66 384.6,699.66 344.6,699.66 344.64,695.7 384.6,695.66 384.6,683.66 344.6,683.66 344.67,679.63 384.6,679.66 384.6,667.66 344.6,667.66 "/>
                      <rect fill="#fff" x="344.6" y="672.66" width="35" height="3"/>
                      <rect fill="#fff" x="344.6" y="688.66" width="35" height="3"/>
                      <rect fill="#fff" x="344.6" y="704.16" width="35" height="3"/>
                      <rect fill="#fff" x="344.6" y="720.66" width="35" height="3"/>
                      <rect fill="#fff" x="344.6" y="736.66" width="35" height="3"/>
                      <rect fill="#fff" x="344.6" y="752.66" width="35" height="3"/>
                      <rect fill="#fff" x="344.6" y="768.66" width="35" height="3"/>
                    </g>
                    <g>
                      <g>
                        <path fill="#43556B" d="M400.34 516.45l8.15 0.03 0.28 25.77c4.29,2.23 6.27,5.93 5.87,10.8 13.48,4.1 23.4,14.29 26.13,25.22l-72.36 0.2c2.56,-11.06 10.87,-22.11 26.71,-25.25 -0.41,-3.75 0.54,-7.8 5.16,-10.68l0.06 -26.09z"/>
                        <path fill="#fff" d="M408.28 548.42c1.05,1.41 1.97,5.27 1.7,8.47 11.5,1.43 23.73,14.2 25.54,21.4l-61.38 0.16c1.68,-7.27 13.32,-19.58 25.79,-21.45 -0.27,-2.47 -0.57,-5.33 1.29,-8.64l7.06 0.06z"/>
                      </g>
                      <polygon fill="#FFC65E" points="359.62,578.36 449.85,578.36 449.85,793.59 396.63,793.55 395.91,654.7 359.82,654.54 " stroke="#43556B" stroke-width="2" stroke-miterlimit="22.9256"/>
                      <rect fill="#fff" x="398.4" y="757.17" width="34.01" height="10.55" stroke="#43556B" stroke-width="3" stroke-miterlimit="22.9256"/>
                      <rect fill="#fff" x="396.57" y="771.82" width="23.61" height="21.74" stroke="#43556B" stroke-width="4" stroke-miterlimit= "22.9256"/>
                      <polygon fill="#43556B" points="422.99,587.47 433.99,587.47 433.99,609.47 422.99,609.47 "/>
                      <polygon fill="#fff" points="425.06,590.47 426.06,590.47 426.06,604.47 425.06,604.47 "/>
                      <polygon fill="#43556B" points="411.06,587.47 421.06,587.47 421.06,609.47 411.06,609.47 "/>
                      <polygon fill="#43556B" points="399.06,587.47 409.06,587.47 409.06,609.47 399.06,609.47 "/>
                      <polygon fill="#fff" points="402.06,590.47 403.06,590.47 403.06,604.47 402.06,604.47 "/>
                      <polygon fill="#43556B" points="387.05,587.53 397.05,587.53 397.05,609.53 387.05,609.53 "/>
                      <polygon fill="#43556B" points="399.18,660.47 409.18,660.47 409.18,682.48 399.18,682.48 "/>
                      <polygon fill="#43556B" points="399.17,612.47 409.17,612.47 409.17,633.47 399.17,633.47 "/>
                      <polygon fill="#43556B" points="387.06,636.47 397.06,636.47 397.06,653.16 387.06,653.16 "/>
                      <polygon fill="#43556B" points="375.06,636.47 385.06,636.47 385.06,653.16 375.06,653.16 "/>
                      <polygon fill="#43556B" points="375.06,612.47 385.06,612.47 385.06,633.47 375.06,633.47 "/>
                      <polygon fill="#43556B" points="375.06,587.47 385.06,587.47 385.06,609.47 375.06,609.47 "/>
                      <polygon fill="#43556B" points="399.1,709.47 409.1,709.47 409.1,730.47 399.1,730.47 "/>
                      <polygon fill="#43556B" points="399.2,684.52 409.2,684.52 409.2,706.52 399.2,706.52 "/>
                      <polygon fill="#43556B" points="387.14,612.42 397.14,612.42 397.14,633.43 387.14,633.43 "/>
                      <polygon fill="#43556B" points="399.05,636.43 409.05,636.43 409.05,657.43 399.05,657.43 "/>
                      <polygon fill="#43556B" points="399.22,732.86 409.22,732.86 409.22,753.86 399.22,753.86 "/>
                      <polygon fill="#43556B" points="410.98,709.47 420.98,709.47 420.98,730.47 410.98,730.47 "/>
                      <polygon fill="#43556B" points="410.83,684.47 420.84,684.47 420.84,706.47 410.83,706.47 "/>
                      <polygon fill="#43556B" points="410.79,612.47 420.79,612.47 420.79,633.47 410.79,633.47 "/>
                      <polygon fill="#43556B" points="410.88,660.47 420.88,660.47 420.88,682.48 410.88,682.48 "/>
                      <polygon fill="#43556B" points="410.93,636.42 420.93,636.42 420.93,657.43 410.93,657.43 "/>
                      <polygon fill="#43556B" points="410.96,732.93 420.96,732.93 420.96,753.93 410.96,753.93 "/>
                      <polygon fill="#43556B" points="422.6,709.47 433.99,709.47 433.99,730.47 422.6,730.47 "/>
                      <polygon fill="#43556B" points="422.6,684.47 433.99,684.47 433.99,706.47 422.6,706.47 "/>
                      <polygon fill="#43556B" points="422.6,612.47 433.99,612.47 433.99,633.47 422.6,633.47 "/>
                      <polygon fill="#43556B" points="422.6,660.47 433.99,660.47 433.99,682.48 422.6,682.48 "/>
                      <polygon fill="#43556B" points="422.6,636.47 433.99,636.47 433.99,657.47 422.6,657.47 "/>
                      <polygon fill="#43556B" points="422.6,732.88 433.99,732.88 433.99,753.88 422.6,753.88 "/>
                      <polygon fill="#fff" points="390.42,590.47 391.42,590.47 391.42,604.47 390.42,604.47 "/>
                      <polygon fill="#fff" points="425.06,615.88 426.06,615.88 426.06,629.88 425.06,629.88 "/>
                      <polygon fill="#fff" points="402.06,615.88 403.06,615.88 403.06,629.88 402.06,629.88 "/>
                      <polygon fill="#fff" points="390.42,615.88 391.42,615.88 391.42,629.88 390.42,629.88 "/>
                      <polygon fill="#fff" points="425.06,639.83 426.06,639.83 426.06,653.83 425.06,653.83 "/>
                      <polygon fill="#fff" points="402.06,639.83 403.06,639.83 403.06,653.83 402.06,653.83 "/>
                      <polygon fill="#fff" points="390.42,639.83 391.42,639.83 391.42,653.16 390.42,653.16 "/>
                      <polygon fill="#fff" points="425.06,664.64 426.06,664.64 426.06,678.64 425.06,678.64 "/>
                      <polygon fill="#fff" points="402.06,664.64 403.06,664.64 403.06,678.64 402.06,678.64 "/>
                      <polygon fill="#fff" points="425.06,689.05 426.06,689.05 426.06,703.05 425.06,703.05 "/>
                      <polygon fill="#fff" points="402.06,689.05 403.06,689.05 403.06,703.05 402.06,703.05 "/>
                      <polygon fill="#fff" points="425.06,712.83 426.06,712.83 426.06,726.83 425.06,726.83 "/>
                      <polygon fill="#fff" points="402.06,712.83 403.06,712.83 403.06,726.83 402.06,726.83 "/>
                      <polygon fill="#fff" points="425.06,736.04 426.06,736.04 426.06,750.04 425.06,750.04 "/>
                      <polygon fill="#fff" points="402.06,736.04 403.06,736.04 403.06,750.04 402.06,750.04 "/>
                    </g>
                    <g>
                      <path fill="#43556B" d="M513.3 642.32l-63.96 13.56 0 -103.32c2.29,-31.82 60.89,-32.31 63.96,0l0 89.76z"/>
                      <path fill="#fff" d="M508.98 643.14l-55.32 11.83 0 -101.29c1.98,-27.52 52.66,-27.95 55.32,0l0 89.46z"/>
                      <g>
                        <circle fill="#009FD7" cx="481.4" cy="539.62" r="25"/>
                        <polygon fill="#fff" points="477.4,525.12 485.4,525.12 485.4,536.12 495.4,536.12 495.4,544.12 485.4,544.18 485.4,554.12 477.4,554.12 477.4,544.12 467.4,544.12 467.4,536.12 477.4,535.96 "/>
                      </g>
                      <rect fill="#43556B" x="461.42" y="574.74" width="9.28" height="4.2"/>
                      <rect fill="#43556B" x="474.95" y="574.74" width="12.06" height="4.2"/>
                      <rect fill="#43556B" x="491.36" y="574.74" width="9.28" height="4.2"/>
                      <rect fill="#43556B" x="461.42" y="585.43" width="9.28" height="4.2"/>
                      <rect fill="#43556B" x="474.95" y="585.43" width="12.06" height="4.2"/>
                      <rect fill="#43556B" x="491.36" y="585.43" width="9.28" height="4.2"/>
                      <rect fill="#43556B" x="461.42" y="595.98" width="9.28" height="4.2"/>
                      <rect fill="#43556B" x="474.95" y="595.98" width="12.06" height="4.2"/>
                      <rect fill="#43556B" x="491.36" y="595.98" width="9.28" height="4.2"/>
                      <rect fill="#43556B" x="461.42" y="605.94" width="9.28" height="4.2"/>
                      <rect fill="#43556B" x="474.95" y="605.94" width="12.06" height="4.2"/>
                      <rect fill="#43556B" x="491.36" y="605.94" width="9.28" height="4.2"/>
                      <rect fill="#43556B" x="461.42" y="616.29" width="9.28" height="4.2"/>
                      <rect fill="#43556B" x="474.95" y="616.29" width="12.06" height="4.2"/>
                      <rect fill="#43556B" x="491.36" y="616.29" width="9.28" height="4.2"/>
                      <rect fill="#43556B" x="461.42" y="626.84" width="9.28" height="4.2"/>
                      <rect fill="#43556B" x="474.95" y="626.84" width="12.06" height="4.2"/>
                      <rect fill="#43556B" x="491.36" y="626.84" width="9.28" height="4.2"/>
                      <g>
                      <polygon fill="#43556B" points="449.03,655.96 524.13,640.02 524.13,792.07 449.03,792.29 "/>
                      <polygon fill="#00D3FF" points="453.82,659.33 519.34,645.38 519.25,789.86 453.82,789.81 "/>
                      <rect fill="#43556B" x="463.49" y="668.86" width="46.09" height="13.18"/>
                      <rect fill="#fff" x="467.98" y="673.35" width="36.82" height="4.2"/>
                      <rect fill="#43556B" x="463.49" y="685.12" width="46.09" height="13.18"/>
                      <rect fill="#fff" x="467.98" y="689.61" width="36.82" height="4.2"/>
                      <rect fill="#43556B" x="463.49" y="700.74" width="46.09" height="13.18"/>
                      <rect fill="#fff" x="467.98" y="705.24" width="36.82" height="4.2"/>
                      <rect fill="#43556B" x="463.49" y="716.96" width="46.09" height="13.18"/>
                      <rect fill="#fff" x="467.98" y="721.45" width="36.82" height="4.2"/>
                      <rect fill="#43556B" x="463.49" y="733.17" width="46.09" height="13.18"/>
                      <rect fill="#fff" x="467.98" y="737.66" width="36.82" height="4.2"/>
                      <rect fill="#43556B" x="463.49" y="749.18" width="46.09" height="13.18"/>
                      <rect fill="#fff" x="467.98" y="753.67" width="36.82" height="4.2"/>
                      <rect fill="#43556B" x="463.49" y="764.61" width="46.09" height="13.18"/>
                      <rect fill="#fff" x="467.98" y="769.1" width="36.82" height="4.2"/>
                      <rect fill="#43556B" x="461.42" y="636.8" width="9.28" height="4.2"/>
                      <rect fill="#43556B" x="474.95" y="636.8" width="12.06" height="4.2"/>
                      <rect fill="#43556B" x="491.36" y="636.8" width="9.28" height="4.2"/>
                      <rect fill="#43556B" x="461.42" y="646.68" width="9.28" height="4.2"/>
                      <rect fill="#43556B" x="474.95" y="646.68" width="12.06" height="4.2"/>
                    </g>
                  </g>
                  <g class="tower-1">
                    <path fill="#414042" d="M540.25 652.17l191.9 0c0.64,0 1.17,0.53 1.17,1.17l0 14.85c0,0.63 -0.53,1.15 -1.17,1.17l-3.3 0.09 0.27 122.61 -185.2 -0.08 -0.16 -122.62 -3.51 0c-0.64,0 -1.17,-0.53 -1.17,-1.17l0 -14.85c0,-0.64 0.53,-1.17 1.17,-1.17z"/>
                    <rect fill="#FFB836" x="542.66" y="657.39" width="185.73" height="8.98" rx="2.07" ry="1.13" stroke="#AB7E2B" stroke-width="0.9" stroke-miterlimit="22.9256"/>
                    <path fill="#FFC65E" d="M549.63 670.5l172.2 0c0.98,0 1.79,0.81 1.79,1.8l0 32.35c0,0.99 -0.81,1.79 -1.79,1.79l-172.2 0c-0.99,0 -1.79,-0.8 -1.79,-1.79l0 -32.35c0,-0.99 0.8,-1.8 1.79,-1.8zm11.38 4.54l15.43 0c0.73,0 1.32,0.6 1.32,1.32l0 21.78c0,0.73 -0.59,1.32 -1.32,1.32l-15.43 0c-0.72,0 -1.32,-0.59 -1.32,-1.32l0 -21.78c0,-0.72 0.6,-1.32 1.32,-1.32zm23.19 0l15.43 0c0.73,0 1.32,0.6 1.32,1.32l0 21.78c0,0.73 -0.59,1.32 -1.32,1.32l-15.43 0c-0.72,0 -1.32,-0.59 -1.32,-1.32l0 -21.78c0,-0.72 0.6,-1.32 1.32,-1.32zm23.73 0l15.43 0c0.73,0 1.32,0.6 1.32,1.32l0 21.78c0,0.73 -0.59,1.32 -1.32,1.32l-15.43 0c-0.72,0 -1.31,-0.59 -1.31,-1.32l0 -21.78c0,-0.72 0.59,-1.32 1.31,-1.32zm23.05 0l15.43 0c0.73,0 1.32,0.6 1.32,1.32l0 21.78c0,0.73 -0.59,1.32 -1.32,1.32l-15.43 0c-0.72,0 -1.32,-0.59 -1.32,-1.32l0 -21.78c0,-0.72 0.6,-1.32 1.32,-1.32zm23.93 0l15.43 0c0.72,0 1.32,0.6 1.32,1.32l0 21.78c0,0.73 -0.6,1.32 -1.32,1.32l-15.43 0c-0.73,0 -1.32,-0.59 -1.32,-1.32l0 -21.78c0,-0.72 0.59,-1.32 1.32,-1.32zm23.53 0l15.43 0c0.73,0 1.32,0.6 1.32,1.32l0 21.78c0,0.73 -0.59,1.32 -1.32,1.32l-15.43 0c-0.72,0 -1.32,-0.59 -1.32,-1.32l0 -21.78c0,-0.72 0.6,-1.32 1.32,-1.32zm23.34 0l15.43 0c0.73,0 1.32,0.6 1.32,1.32l0 21.78c0,0.73 -0.59,1.32 -1.32,1.32l-15.43 0c-0.72,0 -1.32,-0.59 -1.32,-1.32l0 -21.78c0,-0.72 0.6,-1.32 1.32,-1.32z" stroke="#BC944B" stroke-width="0.9" stroke-miterlimit="22.9256"/>
                    <rect fill="#fff" x="563.7" y="679.39" width="9.08" height="15.14" rx="0.93" ry="0.93"/>
                    <rect fill="#fff" x="587.67" y="679.39" width="9.08" height="15.14" rx="0.93" ry="0.93"/>
                    <rect fill="#fff" x="610.62" y="679.39" width="9.08" height="15.14" rx="0.93" ry="0.93"/>
                    <rect fill="#fff" x="634.5" y="679.39" width="9.08" height="15.14" rx="0.93" ry="0.93"/>
                    <rect fill="#fff" x="657.55" y="679.39" width="9.08" height="15.14" rx="0.93" ry="0.93"/>
                    <rect fill="#fff" x="681.53" y="679.39" width="9.08" height="15.14" rx="0.93" ry="0.93"/>
                    <rect fill="#fff" x="705.6" y="679.39" width="9.08" height="15.14" rx="0.93" ry="0.93"/>
                    <path fill="#FFC65E" d="M549.63 710.95l172.2 0c0.98,0 1.79,0.8 1.79,1.79l0 32.35c0,0.99 -0.81,1.8 -1.79,1.8l-172.2 0c-0.99,0 -1.79,-0.81 -1.79,-1.8l0 -32.35c0,-0.99 0.8,-1.79 1.79,-1.79zm11.38 4.54l15.43 0c0.73,0 1.32,0.59 1.32,1.32l0 21.77c0,0.73 -0.59,1.32 -1.32,1.32l-15.43 0c-0.72,0 -1.32,-0.59 -1.32,-1.32l0 -21.77c0,-0.73 0.6,-1.32 1.32,-1.32zm23.19 0l15.43 0c0.73,0 1.32,0.59 1.32,1.32l0 21.77c0,0.73 -0.59,1.32 -1.32,1.32l-15.43 0c-0.72,0 -1.32,-0.59 -1.32,-1.32l0 -21.77c0,-0.73 0.6,-1.32 1.32,-1.32zm23.73 0l15.43 0c0.73,0 1.32,0.59 1.32,1.32l0 21.77c0,0.73 -0.59,1.32 -1.32,1.32l-15.43 0c-0.72,0 -1.31,-0.59 -1.31,-1.32l0 -21.77c0,-0.73 0.59,-1.32 1.31,-1.32zm23.05 0l15.43 0c0.73,0 1.32,0.59 1.32,1.32l0 21.77c0,0.73 -0.59,1.32 -1.32,1.32l-15.43 0c-0.72,0 -1.32,-0.59 -1.32,-1.32l0 -21.77c0,-0.73 0.6,-1.32 1.32,-1.32zm23.93 0l15.43 0c0.72,0 1.32,0.59 1.32,1.32l0 21.77c0,0.73 -0.6,1.32 -1.32,1.32l-15.43 0c-0.73,0 -1.32,-0.59 -1.32,-1.32l0 -21.77c0,-0.73 0.59,-1.32 1.32,-1.32zm23.53 0l15.43 0c0.73,0 1.32,0.59 1.32,1.32l0 21.77c0,0.73 -0.59,1.32 -1.32,1.32l-15.43 0c-0.72,0 -1.32,-0.59 -1.32,-1.32l0 -21.77c0,-0.73 0.6,-1.32 1.32,-1.32zm23.34 0l15.43 0c0.73,0 1.32,0.59 1.32,1.32l0 21.77c0,0.73 -0.59,1.32 -1.32,1.32l-15.43 0c-0.72,0 -1.32,-0.59 -1.32,-1.32l0 -21.77c0,-0.73 0.6,-1.32 1.32,-1.32z" stroke="#BC944B" stroke-width="0.9" stroke-miterlimit="22.9256"/>
                    <rect fill="#fff" x="563.7" y="719.83" width="9.08" height="15.14" rx="0.93" ry="0.93"/>
                    <rect fill="#fff" x="587.67" y="719.83" width="9.08" height="15.14" rx="0.93" ry="0.93"/>
                    <rect fill="#fff" x="610.62" y="719.83" width="9.08" height="15.14" rx="0.93" ry="0.93"/>
                    <rect fill="#fff" x="634.5" y="719.83" width="9.08" height="15.14" rx="0.93" ry="0.93"/>
                    <rect fill="#fff" x="657.55" y="719.83" width="9.08" height="15.14" rx="0.93" ry="0.93"/>
                    <rect fill="#fff" x="681.53" y="719.83" width="9.08" height="15.14" rx="0.93" ry="0.93"/>
                    <rect fill="#fff" x="705.6" y="719.83" width="9.08" height="15.14" rx="0.93" ry="0.93"/>
                    <path fill="#FFC65E" d="M549.63 751.57l172.2 0c0.98,0 1.79,0.81 1.79,1.79l0 32.36c0,0.99 -0.81,1.79 -1.79,1.79l-172.2 0c-0.99,0 -1.79,-0.8 -1.79,-1.79l0 -32.36c0,-0.98 0.8,-1.79 1.79,-1.79zm11.38 4.54l15.43 0c0.73,0 1.32,0.6 1.32,1.32l0 21.78c0,0.72 -0.59,1.32 -1.32,1.32l-15.43 0c-0.72,0 -1.32,-0.6 -1.32,-1.32l0 -21.78c0,-0.72 0.6,-1.32 1.32,-1.32zm23.19 0l15.43 0c0.73,0 1.32,0.6 1.32,1.32l0 21.78c0,0.72 -0.59,1.32 -1.32,1.32l-15.43 0c-0.72,0 -1.32,-0.6 -1.32,-1.32l0 -21.78c0,-0.72 0.6,-1.32 1.32,-1.32zm23.73 0l15.43 0c0.73,0 1.32,0.6 1.32,1.32l0 21.78c0,0.72 -0.59,1.32 -1.32,1.32l-15.43 0c-0.72,0 -1.31,-0.6 -1.31,-1.32l0 -21.78c0,-0.72 0.59,-1.32 1.31,-1.32zm23.05 0l15.43 0c0.73,0 1.32,0.6 1.32,1.32l0 21.78c0,0.72 -0.59,1.32 -1.32,1.32l-15.43 0c-0.72,0 -1.32,-0.6 -1.32,-1.32l0 -21.78c0,-0.72 0.6,-1.32 1.32,-1.32zm23.93 0l15.43 0c0.72,0 1.32,0.6 1.32,1.32l0 21.78c0,0.72 -0.6,1.32 -1.32,1.32l-15.43 0c-0.73,0 -1.32,-0.6 -1.32,-1.32l0 -21.78c0,-0.72 0.59,-1.32 1.32,-1.32zm23.53 0l15.43 0c0.73,0 1.32,0.6 1.32,1.32l0 21.78c0,0.72 -0.59,1.32 -1.32,1.32l-15.43 0c-0.72,0 -1.32,-0.6 -1.32,-1.32l0 -21.78c0,-0.72 0.6,-1.32 1.32,-1.32zm23.34 0l15.43 0c0.73,0 1.32,0.6 1.32,1.32l0 21.78c0,0.72 -0.59,1.32 -1.32,1.32l-15.43 0c-0.72,0 -1.32,-0.6 -1.32,-1.32l0 -21.78c0,-0.72 0.6,-1.32 1.32,-1.32z" stroke="#BC944B" stroke-width="0.9" stroke-miterlimit="22.9256"/>
                    <rect fill="#fff" x="563.7" y="760.46" width="9.08" height="15.14" rx="0.93" ry="0.93"/>
                    <rect fill="#fff" x="587.67" y="760.46" width="9.08" height="15.14" rx="0.93" ry="0.93"/>
                    <rect fill="#fff" x="610.62" y="760.46" width="9.08" height="15.14" rx="0.93" ry="0.93"/>
                    <rect fill="#fff" x="634.5" y="760.46" width="9.08" height="15.14" rx="0.93" ry="0.93"/>
                    <rect fill="#fff" x="657.55" y="760.46" width="9.08" height="15.14" rx="0.93" ry="0.93"/>
                    <rect fill="#fff" x="681.53" y="760.46" width="9.08" height="15.14" rx="0.93" ry="0.93"/>
                    <rect fill="#fff" x="705.6" y="760.46" width="9.08" height="15.14" rx="0.93" ry="0.93"/>
                    <path fill="#BC8A2F" d="M718.53 656.86l9.21 0c0.62,0 1.12,0.5 1.12,1.11l0 7.58c0,0.7 -0.57,1.27 -1.27,1.27l-9.06 0 0 -9.96z"/>
                    <path fill="#BC944B" d="M718.53 670.1l3.76 0c0.97,0 1.76,0.79 1.76,1.76l0 32.84c0,1.19 -0.98,2.16 -2.17,2.16l-3.35 0 0 -36.76z"/>
                    <path fill="#BC944B" d="M718.53 710.51l3.76 0c0.97,0 1.76,0.79 1.76,1.77l0 32.83c0,1.2 -0.98,2.17 -2.17,2.17l-3.35 0 0 -36.77z"/>
                    <path fill="#BC944B" d="M718.53 751.16l3.76 0c0.97,0 1.76,0.79 1.76,1.76l0 32.84c0,1.19 -0.98,2.17 -2.17,2.17l-3.35 0 0 -36.77z"/>
                  </g>
                  <g class="tower-5">
                    <rect fill="#414042" x="946.36" y="667.34" width="212.11" height="125"/>
                    <rect fill="#383637" x="946.36" y="667.34" width="31.83" height="125"/>
                    <rect fill="#00CCFF" x="967.46" y="672.42" width="12.89" height="11.52"/>
                    <rect fill="#00CCFF" x="984.54" y="672.42" width="12.89" height="11.52"/>
                    <rect fill="#00CCFF" x="1002.42" y="672.42" width="12.89" height="11.52"/>
                    <rect fill="#00CCFF" x="1019.51" y="672.42" width="12.89" height="11.52"/>
                    <rect fill="#00CCFF" x="1037.38" y="672.42" width="12.89" height="11.52"/>
                    <rect fill="#00CCFF" x="1054.47" y="672.42" width="12.89" height="11.52"/>
                    <rect fill="#00CCFF" x="1072.34" y="672.42" width="12.01" height="11.52"/>
                    <rect fill="#00CCFF" x="1089.38" y="672.42" width="12.99" height="11.52"/>
                    <rect fill="#00CCFF" x="1106.37" y="672.42" width="12.99" height="11.52"/>
                    <rect fill="#00CCFF" x="1124.34" y="672.42" width="12.99" height="11.52"/>
                    <rect fill="#383637" x="1143.52" y="667.34" width="14.95" height="125"/>
                    <rect fill="#00CCFF" x="1141.33" y="672.42" width="12.99" height="11.52"/>
                    <rect fill="#0A9DBB" x="949.82" y="672.42" width="12.89" height="11.52"/>
                    <rect fill="#0A9DBB" x="967.46" y="672.42" width="10.73" height="11.52"/>
                    <rect fill="#0A9DBB" x="1143.52" y="672.42" width="10.8" height="11.52"/>
                    <rect fill="#00CCFF" x="967.46" y="687.75" width="12.89" height="12.75"/>
                    <rect fill="#00CCFF" x="984.54" y="687.75" width="12.89" height="12.75"/>
                    <rect fill="#00CCFF" x="1002.42" y="687.75" width="12.89" height="12.75"/>
                    <rect fill="#00CCFF" x="1019.51" y="687.75" width="12.89" height="12.75"/>
                    <rect fill="#00CCFF" x="1037.38" y="687.75" width="12.89" height="12.75"/>
                    <rect fill="#00CCFF" x="1054.47" y="687.75" width="12.89" height="12.75"/>
                    <rect fill="#00CCFF" x="1072.34" y="687.75" width="12.01" height="12.75"/>
                    <rect fill="#00CCFF" x="1089.38" y="687.75" width="12.99" height="12.75"/>
                    <rect fill="#00CCFF" x="1106.37" y="687.75" width="12.99" height="12.75"/>
                    <rect fill="#00CCFF" x="1124.34" y="687.75" width="12.99" height="12.75"/>
                    <rect fill="#00CCFF" x="1141.33" y="687.75" width="12.99" height="12.75"/>
                    <rect fill="#0A9DBB" x="949.82" y="687.75" width="12.89" height="12.75"/>
                    <rect fill="#0A9DBB" x="967.46" y="687.75" width="10.73" height="12.75"/>
                    <rect fill="#0A9DBB" x="1143.52" y="687.75" width="10.8" height="12.75"/>
                    <rect fill="#00CCFF" x="967.46" y="705.72" width="12.89" height="12.75"/>
                    <rect fill="#00CCFF" x="984.54" y="705.72" width="12.89" height="12.75"/>
                    <rect fill="#00CCFF" x="1002.42" y="705.72" width="12.89" height="12.75"/>
                    <rect fill="#00CCFF" x="1019.51" y="705.72" width="12.89" height="12.75"/>
                    <rect fill="#00CCFF" x="1037.38" y="705.72" width="12.89" height="12.75"/>
                    <rect fill="#00CCFF" x="1054.47" y="705.72" width="12.89" height="12.75"/>
                    <rect fill="#00CCFF" x="1072.34" y="705.72" width="12.01" height="12.75"/>
                    <rect fill="#00CCFF" x="1089.38" y="705.72" width="12.99" height="12.75"/>
                    <rect fill="#00CCFF" x="1106.37" y="705.72" width="12.99" height="12.75"/>
                    <rect fill="#00CCFF" x="1124.34" y="705.72" width="12.99" height="12.75"/>
                    <rect fill="#00CCFF" x="1141.33" y="705.72" width="12.99" height="12.75"/>
                    <rect fill="#0A9DBB" x="949.82" y="705.72" width="12.89" height="12.75"/>
                    <rect fill="#0A9DBB" x="967.46" y="705.72" width="10.73" height="12.75"/>
                    <rect fill="#0A9DBB" x="1143.52" y="705.72" width="10.8" height="12.75"/>
                    <rect fill="#00CCFF" x="967.46" y="722.52" width="12.89" height="12.75"/>
                    <rect fill="#00CCFF" x="984.54" y="722.52" width="12.89" height="12.75"/>
                    <rect fill="#00CCFF" x="1002.42" y="722.52" width="12.89" height="12.75"/>
                    <rect fill="#00CCFF" x="1019.51" y="722.52" width="12.89" height="12.75"/>
                    <rect fill="#00CCFF" x="1037.38" y="722.52" width="12.89" height="12.75"/>
                    <rect fill="#00CCFF" x="1054.47" y="722.52" width="12.89" height="12.75"/>
                    <rect fill="#00CCFF" x="1072.34" y="722.52" width="12.01" height="12.75"/>
                    <rect fill="#00CCFF" x="1089.38" y="722.52" width="12.99" height="12.75"/>
                    <rect fill="#00CCFF" x="1106.37" y="722.52" width="12.99" height="12.75"/>
                    <rect fill="#00CCFF" x="1124.34" y="722.52" width="12.99" height="12.75"/>
                    <rect fill="#00CCFF" x="1141.33" y="722.52" width="12.99" height="12.75"/>
                    <rect fill="#0A9DBB" x="949.82" y="722.52" width="12.89" height="12.75"/>
                    <rect fill="#0A9DBB" x="967.46" y="722.52" width="10.73" height="12.75"/>
                    <rect fill="#0A9DBB" x="1143.52" y="722.52" width="10.8" height="12.75"/>
                    <rect fill="#00CCFF" x="967.46" y="740.88" width="12.89" height="12.75"/>
                    <rect fill="#00CCFF" x="984.54" y="740.88" width="12.89" height="12.75"/>
                    <rect fill="#00CCFF" x="1002.42" y="740.88" width="12.89" height="12.75"/>
                    <rect fill="#00CCFF" x="1019.51" y="740.88" width="12.89" height="12.75"/>
                    <rect fill="#00CCFF" x="1037.38" y="740.88" width="12.89" height="12.75"/>
                    <rect fill="#00CCFF" x="1054.47" y="740.88" width="12.89" height="12.75"/>
                    <rect fill="#00CCFF" x="1072.34" y="740.88" width="12.01" height="12.75"/>
                    <rect fill="#00CCFF" x="1089.38" y="740.88" width="12.99" height="12.75"/>
                    <rect fill="#00CCFF" x="1106.37" y="740.88" width="12.99" height="12.75"/>
                    <rect fill="#00CCFF" x="1124.34" y="740.88" width="12.99" height="12.75"/>
                    <rect fill="#00CCFF" x="1141.33" y="740.88" width="12.99" height="12.75"/>
                    <rect fill="#0A9DBB" x="949.82" y="740.88" width="12.89" height="12.75"/>
                    <rect fill="#0A9DBB" x="967.46" y="740.88" width="10.73" height="12.75"/>
                    <rect fill="#0A9DBB" x="1143.52" y="740.88" width="10.8" height="12.75"/>
                    <rect fill="#00CCFF" x="967.46" y="757.77" width="12.89" height="12.75"/>
                    <rect fill="#00CCFF" x="984.54" y="757.77" width="12.89" height="12.75"/>
                    <rect fill="#00CCFF" x="1002.42" y="757.77" width="12.89" height="12.75"/>
                    <rect fill="#00CCFF" x="1019.51" y="757.77" width="12.89" height="12.75"/>
                    <rect fill="#00CCFF" x="1037.38" y="757.77" width="12.89" height="12.75"/>
                    <rect fill="#00CCFF" x="1054.47" y="757.77" width="12.89" height="12.75"/>
                    <rect fill="#00CCFF" x="1072.34" y="757.77" width="12.01" height="12.75"/>
                    <rect fill="#00CCFF" x="1089.38" y="757.77" width="12.99" height="12.75"/>
                    <rect fill="#00CCFF" x="1106.37" y="757.77" width="12.99" height="12.75"/>
                    <rect fill="#00CCFF" x="1124.34" y="757.77" width="12.99" height="12.75"/>
                    <rect fill="#00CCFF" x="1141.33" y="757.77" width="12.99" height="12.75"/>
                    <rect fill="#0A9DBB" x="949.82" y="757.77" width="12.89" height="12.75"/>
                    <rect fill="#0A9DBB" x="967.46" y="757.77" width="10.73" height="12.75"/>
                    <rect fill="#0A9DBB" x="1143.52" y="757.77" width="10.8" height="12.75"/>
                    <rect fill="#00CCFF" x="967.46" y="775.64" width="12.89" height="11.95"/>
                    <rect fill="#00CCFF" x="984.54" y="775.64" width="12.89" height="11.95"/>
                    <rect fill="#00CCFF" x="1002.42" y="775.64" width="12.89" height="11.95"/>
                    <rect fill="#00CCFF" x="1019.51" y="775.64" width="12.89" height="11.95"/>
                    <rect fill="#00CCFF" x="1037.38" y="775.64" width="12.89" height="11.95"/>
                    <rect fill="#00CCFF" x="1054.47" y="775.64" width="12.89" height="11.95"/>
                    <rect fill="#00CCFF" x="1072.34" y="775.64" width="12.01" height="11.95"/>
                    <rect fill="#00CCFF" x="1089.38" y="775.64" width="12.99" height="11.95"/>
                    <rect fill="#00CCFF" x="1106.37" y="775.64" width="12.99" height="11.95"/>
                    <rect fill="#00CCFF" x="1124.34" y="775.64" width="12.99" height="11.95"/>
                    <rect fill="#00CCFF" x="1141.33" y="775.64" width="12.99" height="11.95"/>
                    <rect fill="#0A9DBB" x="949.82" y="775.64" width="12.89" height="11.95"/>
                    <rect fill="#0A9DBB" x="967.46" y="775.64" width="10.73" height="11.95"/>
                    <rect fill="#0A9DBB" x="1143.52" y="775.64" width="10.8" height="11.95"/>
                  </g>
                  <g class="tower-4">
                    <polygon fill="#414042" points="861.25,528.22 909,528.22 908.93,496.32 913.98,496.31 914.1,528.22 960.46,528.22 960.46,792.09 861.25,792.09 "/>
                    <path fill="#fff" d="M866.68 533.62l89.08 0 0 230.91 -89.08 0 0 -230.91zm4.5 9.05l79.59 0 0 4.69 -79.59 0 0 -4.69zm0 7.91l79.59 0 0 4.69 -79.59 0 0 -4.69zm0 8.11l79.59 0 0 3.61 -79.59 0 0 -3.61zm0 7.08l79.59 0 0 4.34 -79.59 0 0 -4.34zm0 8.22l79.59 0 0 4.35 -79.59 0 0 -4.35zm0 7.72l79.59 0 0 3.54 -79.59 0 0 -3.54zm0 6.92l79.59 0 0 4.43 -79.59 0 0 -4.43zm0 8.18l79.59 0 0 4.43 -79.59 0 0 -4.43zm0 7.81l79.59 0 0 3.58 -79.59 0 0 -3.58zm0 7.28l79.59 0 0 4.27 -79.59 0 0 -4.27zm0 7.95l79.59 0 0 4.27 -79.59 0 0 -4.27zm0 7.61l79.59 0 0 3.85 -79.59 0 0 -3.85zm0 7.65l79.59 0 0 4.27 -79.59 0 0 -4.27zm0 7.85l79.59 0 0 4.52 -79.59 0 0 -4.52zm0 7.33l79.59 0 0 4.27 -79.59 0 0 -4.27zm0 7.69l79.59 0 0 4.59 -79.59 0 0 -4.59zm0 7.76l79.59 0 0 4.58 -79.59 0 0 -4.58zm0 8l79.59 0 0 3.69 -79.59 0 0 -3.69zm0 6.88l79.59 0 0 4.29 -79.59 0 0 -4.29zm0 8.12l79.59 0 0 4.28 -79.59 0 0 -4.28zm0 8.1l79.59 0 0 3.59 -79.59 0 0 -3.59zm0 6.99l79.59 0 0 4.28 -79.59 0 0 -4.28zm0 8.2l79.59 0 0 4.29 -79.59 0 0 -4.29zm0 7.62l79.59 0 0 3.66 -79.59 0 0 -3.66zm0 6.99l79.59 0 0 4.29 -79.59 0 0 -4.29zm0 8.2l79.59 0 0 4.29 -79.59 0 0 -4.29zm0 7.74l79.59 0 0 3.66 -79.59 0 0 -3.66zm0 7.11l79.59 0 0 4.28 -79.59 0 0 -4.28zm0 8.1l79.59 0 0 4.29 -79.59 0 0 -4.29z"/>
                    <path fill="#fff" d="M866.68 769.36l89.08 0 0 18.36 -89.08 0 0 -18.36zm28.52 1.37l27.74 0 0 16.99 -3.47 0 -0.03 -12.2 -8.46 0.01 -0.01 12.19 -3.61 0 0.02 -12.22 -8.61 -0.01 0.04 12.23 -3.61 0 0 -16.99z"/>
                  </g>
                  <g class="tower-3">
                    <polygon fill="#414042" points="875.58,680.36 840.91,654.87 804.29,680.36 804.29,792.27 875.58,792.27 "/>
                    <polygon fill="#383637" points="804.29,680.36 827.73,664.05 827.73,792.27 804.29,792.27 "/>
                    <polygon fill="#E6E7E8" points="841.01,661.07 867.13,679.63 814.49,679.63 "/>
                    <polygon fill="#9C9C9D" points="827.74,670.35 827.72,679.63 814.48,679.63 "/>
                    <rect fill="#E6E7E8" x="808.7" y="683.34" width="61.91" height="103.91"/>
                    <rect fill="#9C9C9D" x="808.7" y="683.34" width="19.03" height="103.91"/>
                    <rect fill="#414042" x="845.71" y="695.06" width="16.11" height="16.41" rx="1.61" ry="1.61"/>
                    <rect fill="#FFB836" x="849.58" y="699.28" width="7.37" height="7.23" rx="1.07" ry="1"/>
                    <rect fill="#414042" x="819.67" y="695.06" width="16.11" height="16.41" rx="1.61" ry="1.61"/>
                    <path fill="#383637" d="M820.48 695.06l7.25 0 0 16.41 -7.25 0c-0.45,0 -0.81,-0.37 -0.81,-0.81l0 -14.79c0,-0.45 0.36,-0.81 0.81,-0.81z"/>
                    <rect fill="#FFB836" x="823.53" y="699.28" width="7.37" height="7.23" rx="1.07" ry="1"/>
                    <rect fill="#414042" x="845.71" y="717.08" width="16.11" height="16.41" rx="1.61" ry="1.61"/>
                    <rect fill="#FFB836" x="849.58" y="721.31" width="7.37" height="7.23" rx="1.07" ry="1"/>
                    <rect fill="#414042" x="819.67" y="717.08" width="16.11" height="16.41" rx="1.61" ry="1.61"/>
                    <rect fill="#FFB836" x="823.53" y="721.31" width="7.37" height="7.23" rx="1.07" ry="1"/>
                    <rect fill="#414042" x="845.71" y="738.27" width="16.11" height="16.41" rx="1.61" ry="1.61"/>
                    <rect fill="#FFB836" x="849.58" y="742.5" width="7.37" height="7.23" rx="1.07" ry="1"/>
                    <rect fill="#414042" x="819.67" y="738.27" width="16.11" height="16.41" rx="1.61" ry="1.61"/>
                    <rect fill="#FFB836" x="823.53" y="742.5" width="7.37" height="7.23" rx="1.07" ry="1"/>
                    <rect fill="#414042" x="845.71" y="760.34" width="16.11" height="16.41" rx="1.61" ry="1.61"/>
                    <rect fill="#FFB836" x="849.58" y="764.57" width="7.37" height="7.23" rx="1.07" ry="1"/>
                    <rect fill="#414042" x="819.67" y="760.34" width="16.11" height="16.41" rx="1.61" ry="1.61"/>
                    <rect fill="#FFB836" x="823.53" y="764.57" width="7.37" height="7.23" rx="1.07" ry="1"/>
                    <path fill="#BC8A2F" d="M824.14 699.28l3.59 0 0 7.23 -3.59 0c-0.33,0 -0.61,-0.27 -0.61,-0.6l0 -6.02c0,-0.33 0.28,-0.61 0.61,-0.61z"/>
                    <path fill="#383637" d="M820.48 717.08l7.25 0 0 16.41 -7.25 0c-0.45,0 -0.81,-0.37 -0.81,-0.81l0 -14.79c0,-0.45 0.36,-0.81 0.81,-0.81z"/>
                    <path fill="#BC8A2F" d="M824.14 721.31l3.59 0 0 7.22 -3.59 0c-0.33,0 -0.61,-0.27 -0.61,-0.6l0 -6.02c0,-0.33 0.28,-0.6 0.61,-0.6z"/>
                    <path fill="#383637" d="M820.48 738.27l7.25 0 0 16.41 -7.25 0c-0.45,0 -0.81,-0.36 -0.81,-0.81l0 -14.79c0,-0.44 0.36,-0.81 0.81,-0.81z"/>
                    <path fill="#BC8A2F" d="M824.14 742.5l3.59 0 0 7.22 -3.59 0c-0.33,0 -0.61,-0.27 -0.61,-0.6l0 -6.02c0,-0.33 0.28,-0.6 0.61,-0.6z"/>
                    <path fill="#383637" d="M820.48 760.34l7.25 0 0 16.41 -7.25 0c-0.45,0 -0.81,-0.36 -0.81,-0.81l0 -14.79c0,-0.44 0.36,-0.81 0.81,-0.81z"/><path fill="#BC8A2F" d="M824.14 764.57l3.59 0 0 7.22 -3.59 0c-0.33,0 -0.61,-0.27 -0.61,-0.6l0 -6.02c0,-0.33 0.28,-0.6 0.61,-0.6z"/>
                  </g>
                  <g class="tower-2">
                    <rect fill="#00D3FF" x="728.25" y="631.94" width="84.28" height="156.09"/>
                    <rect fill="#07AFD2" x="745.36" y="636.79" width="52.83" height="151.23"/>
                    <path fill="#414042" d="M816.98 792.28l-92.38 0 0 -160.54 -8.08 0 3.97 -33.84 27.85 -0.07 -0.01 -7.07 8.04 0.01 0.07 -23 4.81 0 0.18 23.01 2.94 0 -0.16 -14.2 5.17 -0.01 0.12 14.22 22 0.04 0.1 6.93 28.65 -0.04 4.04 34 -7.31 0.03 0 160.53zm-88.73 -160.34l84.28 0 0 8 -84.28 0 0 -8zm0 12.82l84.28 0 0 1.85 -84.28 0 0 -1.85zm0 6.2l84.28 0 0 1.85 -84.28 0 0 -1.85zm0 6.93l84.28 0 0 1.86 -84.28 0 0 -1.86zm0 7.03l84.28 0 0 1.86 -84.28 0 0 -1.86zm0 5.96l84.28 0 0 1.86 -84.28 0 0 -1.86zm0 7.13l84.28 0 0 1.85 -84.28 0 0 -1.85zm0 5.86l84.28 0 0 2.98 -84.28 0 0 -2.98zm0 7.13l84.28 0 0 1.85 -84.28 0 0 -1.85zm0 7.03l84.28 0 0 1.85 -84.28 0 0 -1.85zm0 5.96l84.28 0 0 1.85 -84.28 0 0 -1.85zm0 6.93l84.28 0 0 1.86 -84.28 0 0 -1.86zm0 6.05l84.28 0 0 3.08 -84.28 0 0 -3.08zm0 6.84l84.28 0 0 1.86 -84.28 0 0 -1.86zm0 7.23l84.28 0 0 1.85 -84.28 0 0 -1.85zm0 5.95l84.28 0 0 1.86 -84.28 0 0 -1.86zm0 6.94l84.28 0 0 1.85 -84.28 0 0 -1.85zm0 5.95l84.28 0 0 3.08 -84.28 0 0 -3.08zm0 7.04l84.28 0 0 1.85 -84.28 0 0 -1.85zm0 7.12l84.28 0 0 1.86 -84.28 0 0 -1.86zm0 5.86l84.28 0 0 1.86 -84.28 0 0 -1.86zm0 7.04l84.28 0 0 1.85 -84.28 0 0 -1.85zm0 5.86l84.28 0 0 5.22 -84.28 0 0 -5.22z"/>
                    <rect fill="#E6E7E8" x="753.11" y="594.4" width="33.45" height="3.71"/>
                    <polygon fill="#E6E7E8" points="724.55,602.61 816.25,602.61 818.82,626.83 721.64,626.83 "/>
                    <rect fill="#3B393B" x="745.36" y="639.94" width="52.83" height="4.81"/>
                    <rect fill="#3B393B" x="745.36" y="646.61" width="52.83" height="4.35"/>
                    <rect fill="#3B393B" x="745.36" y="652.81" width="52.83" height="5.08"/>
                    <rect fill="#3B393B" x="745.36" y="659.75" width="52.83" height="5.17"/>
                    <rect fill="#3B393B" x="745.36" y="666.78" width="52.83" height="4.1"/>
                    <rect fill="#3B393B" x="745.36" y="672.74" width="52.83" height="5.27"/>
                    <rect fill="#3B393B" x="745.36" y="679.86" width="52.83" height="4"/>
                    <rect fill="#3B393B" x="745.36" y="686.85" width="52.83" height="4.15"/>
                    <rect fill="#3B393B" x="745.36" y="692.85" width="52.83" height="5.17"/>
                    <rect fill="#3B393B" x="745.36" y="699.88" width="52.83" height="4.1"/>
                    <rect fill="#3B393B" x="745.36" y="705.84" width="52.83" height="5.08"/>
                    <rect fill="#3B393B" x="745.36" y="712.77" width="52.83" height="4.2"/>
                    <rect fill="#3B393B" x="745.36" y="720.05" width="52.83" height="3.76"/>
                    <rect fill="#3B393B" x="745.36" y="725.67" width="52.83" height="5.37"/>
                    <rect fill="#3B393B" x="745.36" y="732.89" width="52.83" height="4.1"/>
                    <rect fill="#3B393B" x="745.36" y="738.85" width="52.83" height="5.08"/>
                    <rect fill="#3B393B" x="745.36" y="745.78" width="52.83" height="4.1"/>
                    <rect fill="#3B393B" x="745.36" y="752.96" width="52.83" height="3.95"/>
                    <rect fill="#3B393B" x="745.36" y="758.77" width="52.83" height="5.27"/>
                    <rect fill="#3B393B" x="745.36" y="765.9" width="52.83" height="4"/>
                    <rect fill="#3B393B" x="745.36" y="771.76" width="52.83" height="5.18"/>
                    <rect fill="#3B393B" x="745.36" y="778.79" width="52.83" height="4"/>
                    <rect fill="#414042" x="750.14" y="635.48" width="43.36" height="152.54"/>
                    <rect fill="#fff" x="754.24" y="639.94" width="34.77" height="148.08"/>
                    <rect fill="#414042" x="756.67" y="644.75" width="29.49" height="11.87"/>
                    <rect fill="#fff" x="761.26" y="648.57" width="21.05" height="4.24"/>
                    <rect fill="#414042" x="756.67" y="660.27" width="29.49" height="11.87"/>
                    <rect fill="#fff" x="761.26" y="664.08" width="21.05" height="4.24"/>
                    <rect fill="#414042" x="756.67" y="675.99" width="29.49" height="11.87"/>
                    <rect fill="#fff" x="761.26" y="679.8" width="21.05" height="4.24"/>
                    <rect fill="#414042" x="756.67" y="692.09" width="29.49" height="11.87"/>
                    <rect fill="#fff" x="761.26" y="695.91" width="21.05" height="4.24"/>
                    <rect fill="#414042" x="756.67" y="707.34" width="29.49" height="11.87"/>
                    <rect fill="#fff" x="761.26" y="711.15" width="21.05" height="4.24"/>
                    <rect fill="#414042" x="756.67" y="722.96" width="29.49" height="11.87"/>
                    <rect fill="#fff" x="761.26" y="726.78" width="21.05" height="4.24"/>
                    <rect fill="#414042" x="756.67" y="738.78" width="29.49" height="11.87"/>
                    <rect fill="#fff" x="761.26" y="742.6" width="21.05" height="4.24"/>
                    <rect fill="#414042" x="756.67" y="754.31" width="29.49" height="11.87"/>
                    <rect fill="#fff" x="761.26" y="758.13" width="21.05" height="4.24"/>
                    <rect fill="#414042" x="756.67" y="769.84" width="29.49" height="11.87"/>
                    <rect fill="#fff" x="761.26" y="773.65" width="21.05" height="4.24"/>
                  </g>
                  <g class="tower-7">
                    <polygon fill="#414042" points="1480.26,792.09 1271.66,792.09 1271.66,678.63 1261.89,678.59 1261.89,663.18 1271.66,663.05 1271.66,654.03 1309.38,653.96 1309.42,646.34 1439.38,646.34 1439.29,654.25 1478.45,654.35 1478.48,662.4 1488.61,662.4 1488.66,677.2 1480.26,677.3 "/>
                    <rect fill="#fff" x="1314.42" y="650.15" width="121.09" height="4.49"/>
                    <rect fill="#fff" x="1276.31" y="659.33" width="197.09" height="3.32"/>
                    <rect fill="#FFB836" x="1285.81" y="667.14" width="197.56" height="6.45"/>
                    <rect fill="#BC8A2F" x="1268.01" y="667.14" width="23.68" height="6.45"/>
                    <rect fill="#ABABAB" x="1276.31" y="659.33" width="15.38" height="3.32"/>
                    <rect fill="#E6E7E8" x="1275.87" y="677.25" width="200.78" height="110.75"/>
                    <rect fill="#ABABAB" x="1275.87" y="677.25" width="15.82" height="110.74"/>
                    <rect fill="#414042" x="1291.64" y="684.34" width="30.42" height="39.89"/>
                    <rect fill="#66E4FF" x="1296.57" y="689.29" width="21.78" height="29.88"/>
                    <rect fill="#414042" x="1285.8" y="725.72" width="42.22" height="3.22"/>
                    <rect fill="#383637" x="1285.8" y="725.72" width="5.89" height="3.22"/>
                    <rect fill="#414042" x="1291.64" y="733.75" width="30.42" height="39.89"/>
                    <rect fill="#66E4FF" x="1296.57" y="738.71" width="21.78" height="29.88"/>
                    <rect fill="#414042" x="1285.8" y="775.13" width="42.22" height="3.22"/>
                    <rect fill="#383637" x="1285.8" y="775.13" width="5.89" height="3.22"/>
                    <rect fill="#414042" x="1359.42" y="733.75" width="30.42" height="39.89"/>
                    <rect fill="#66E4FF" x="1364.35" y="738.71" width="21.78" height="29.88"/>
                    <rect fill="#414042" x="1353.57" y="775.13" width="42.22" height="3.22"/>
                    <rect fill="#414042" x="1359.42" y="684.53" width="30.42" height="39.89"/>
                    <rect fill="#66E4FF" x="1364.35" y="689.49" width="21.78" height="29.88"/>
                    <rect fill="#414042" x="1353.57" y="725.91" width="42.22" height="3.22"/>
                    <rect fill="#414042" x="1425.83" y="684.53" width="30.42" height="39.89"/>
                    <rect fill="#66E4FF" x="1430.75" y="689.49" width="21.78" height="29.88"/>
                    <rect fill="#414042" x="1419.98" y="725.91" width="42.22" height="3.22"/>
                    <rect fill="#414042" x="1425.83" y="733.95" width="30.42" height="39.89"/>
                    <rect fill="#66E4FF" x="1430.75" y="738.9" width="21.78" height="29.88"/>
                    <rect fill="#414042" x="1419.98" y="775.33" width="42.22" height="3.22"/>
                  </g>
                  <g class="tower-6">
                    <polygon fill="#414042" points="1162.43,487.35 1162.44,476.64 1273.27,476.64 1273.32,487.48 1292.27,487.51 1292.31,507.41 1280.01,507.46 1280.01,741.44 1291.49,741.44 1291.44,758.32 1280.01,758.34 1280.01,792.27 1154.4,792.27 1154.4,758.24 1141.11,758.34 1141.17,741.65 1154.4,741.54 1154.4,507.46 1142.51,507.38 1142.58,487.37 "/>
                    <rect fill="#66E4FF" x="1158.26" y="672.42" width="25.78" height="69.21"/>
                    <rect fill="#66E4FF" x="1189.5" y="672.42" width="25.78" height="69.21"/>
                    <rect fill="#66E4FF" x="1219.39" y="672.42" width="25.78" height="69.21"/>
                    <rect fill="#66E4FF" x="1250.64" y="672.42" width="25.78" height="69.21"/>
                    <rect fill="#fff" x="1166.26" y="480.14" width="102.05" height="7.52"/>
                    <rect fill="#fff" x="1146.24" y="746.45" width="140.82" height="8.2"/>
                    <rect fill="#FFC65E" x="1189.21" y="769.3" width="26.27" height="18.16"/>
                    <rect fill="#FFC65E" x="1220.31" y="769.3" width="26.27" height="18.16"/>
                    <polygon fill="#FFC65E" points="1157.96,758.27 1276.22,758.27 1276.22,787.76 1251.2,787.76 1251.24,764.61 1184.5,764.76 1184.53,787.76 1157.96,787.76 "/>
                    <rect fill="#66E4FF" x="1158.26" y="507.33" width="25.78" height="72.32"/>
                    <rect fill="#66E4FF" x="1189.5" y="507.33" width="25.78" height="72.32"/>
                    <rect fill="#66E4FF" x="1219.39" y="507.33" width="25.78" height="72.32"/>
                    <rect fill="#66E4FF" x="1250.64" y="507.33" width="25.78" height="72.32"/>
                    <rect fill="#66E4FF" x="1158.26" y="585.07" width="25.78" height="83.15"/>
                    <rect fill="#66E4FF" x="1189.5" y="585.07" width="25.78" height="83.15"/>
                    <rect fill="#66E4FF" x="1219.39" y="585.07" width="25.78" height="83.15"/>
                    <rect fill="#66E4FF" x="1250.64" y="585.07" width="25.78" height="83.15"/>
                    <rect fill="#fff" x="1146.36" y="491.71" width="141.9" height="10.79"/>
                  </g>
                  <g class="street-light-1">
                    <path fill="#414042" d="M1515.07 694.18c7.49,-9.93 23.22,-7.84 28.67,0.49 8.48,12.98 -0.38,28.5 -12.58,28.54l0.17 55.15 5.42 0.05 0 15.38 -15.72 0 0 -15.53 5.81 0 0.29 -55.1c-14.86,-0.87 -20.87,-17.3 -12.06,-28.98z"/>
                    <rect fill="#fff" x="1525.9" y="782.08" width="7.37" height="7.47"/>
                    <ellipse fill="#66E4FF" cx="1529.06" cy="705.63" rx="13.98" ry="14.2"/>
                  </g>
                  <g class="street-light-2">
                    <path fill="#414042" d="M1637 694.45c7.49,-9.93 23.22,-7.84 28.66,0.49 8.49,12.98 -0.37,28.5 -12.57,28.55l0.17 55.15 5.42 0.05 0 15.37 -15.72 0 0 -15.52 5.81 0 0.29 -55.1c-14.86,-0.88 -20.87,-17.3 -12.06,-28.99z"/>
                    <rect fill="#fff" x="1647.83" y="782.35" width="7.37" height="7.47"/>
                    <ellipse fill="#66E4FF" cx="1650.98" cy="705.9" rx="13.98" ry="14.2"/>
                  </g>
                  <g class="street-light-3">
                    <polygon fill="#383637" points="1556.91,741.92 1627.23,741.92 1627.23,756.15 1618.13,756.18 1618.11,758.29 1627.23,758.27 1627.23,773.09 1618.09,773 1618.06,774.15 1632.04,774.31 1632.04,778.23 1621.96,778.15 1622,792.4 1616.97,792.4 1617.03,778.33 1566.06,778.32 1566.14,792.4 1561.09,792.4 1561.07,778.19 1551.15,778.12 1551.15,774.25 1565.04,774.31 1565.03,773.09 1556.91,773.04 1556.91,758.4 1565.01,758.42 1565.02,756.12 1556.91,756.15 "/>
                    <rect fill="#FFB836" x="1561.13" y="746.13" width="61.13" height="5.84"/>
                    <rect fill="#FFB836" x="1561.13" y="763.38" width="61.13" height="4.7"/>
                    <rect fill="#fff" x="1570.19" y="756.09" width="43.75" height="2.15"/>
                    <rect fill="#fff" x="1570.19" y="773.04" width="43.75" height="1.37"/>
                  </g>
                  <g class="car">
                    <path fill="#43556B" d="M1718.64 777.85l14.12 -0.01c4.47,21.87 38.44,18.55 38.61,-2.94l63.59 0.12c2.57,23.78 36.35,22.56 37.6,2.88l5.26 -0.05c7.3,-0.07 13.28,-5.97 13.28,-13.28l0 -29c0,-23.26 -19.03,-42.29 -42.29,-42.29l-2.2 0 -0.64 -5.56 -18.65 0 -0.68 5.56 -87.3 0c-11.39,0 -20.7,9.32 -20.7,20.7l0 63.87z"/>
                    <path fill="#BEDEFF" d="M1876.82 765.53l9.69 0c-0.3,4.67 -4.31,7.83 -9.69,9.03l0 -9.03z"/>
                    <rect fill="#BEDEFF" x="1724.1" y="765.68" width="5.18" height="8.45"/>
                    <circle fill="#fff" cx="1752.08" cy="772.66" r="10.16"/>
                    <circle fill="#fff" cx="1854.04" cy="772.66" r="10.16"/>
                    <rect fill="#CCCCCC" x="1749" y="786.63" width="6.25" height="1.66" rx="0.83" ry="0.83" stroke="#CCCCCC" stroke-width="0.9" stroke-miterlimit="22.9256"/>
                    <rect fill="#CCCCCC" x="1850.84" y="786.63" width="6.25" height="1.66" rx="0.83" ry="0.83" stroke="#CCCCCC" stroke-width="0.9" stroke-miterlimit="22.9256"/>
                    <circle fill="#E6E6E6" cx="1868.54" cy="768.58" r="0.49" strok="#43556B" stroke-width="2" stroke-miterlimit="22.9256"/>
                    <circle fill="#CCCCCC" cx="1868.64" cy="776.59" r="0.49" stroke="#666666" stroke-width="2" stroke-miterlimit="22.9256"/>
                    <circle fill="#E6E6E6" cx="1839.54" cy="769.46" r="0.49" stroke="#666666" stroke-width="2" stroke-miterlimit="22.9256"/>
                    <circle fill="#B3B3B3" cx="1839.59" cy="775.42" r="0.49" stroke="#666666" stroke-width="2" stroke-miterlimit="22.9256"/>
                    <rect fill="#CCCCCC" transform="matrix(2.64845E-14 -1 1 2.64845E-14 1723.73 757.599)" width="6.25" height="1.66" rx="0.83" ry="0.83" stroke="#CCCCCC" stroke-width="0.9" stroke-miterlimit="22.9256"/>
                    <circle fill="#CCCCCC" cx="1756.59" cy="758.48" r="0.49" stroke="#666666" stroke-width="2" stroke-miterlimit="22.9256"/>
                    <circle fill="#CCCCCC" cx="1766.94" cy="769.71" r="0.49" stroke="#666666" stroke-width="2" stroke-miterlimit="22.9256"/>
                    <circle fill="#CCCCCC" cx="1737.84" cy="768.05" r="0.49" stroke="#666666" stroke-width="2" stroke-miterlimit="22.9256"/>
                    <circle fill="#CCCCCC" cx="1737.55" cy="776.64" r="0.49" stroke="#666666" stroke-width="2" stroke-miterlimit="22.9256"/>
                    <path fill="#BEDEFF" d="M1742.92 703.41l26.95 0c4.89,0 8.89,4 8.89,8.89l0 19.54c0,4.89 -4,8.89 -8.89,8.89l-26.95 0c-4.89,0 -8.89,-4 -8.89,-8.89l0 -19.54c0,-4.89 4,-8.89 8.89,-8.89zm53.03 0l21.19 0c4.89,0 8.89,4 8.89,8.89l0 19.54c0,4.89 -4,8.89 -8.89,8.89l-21.19 0c-4.89,0 -8.89,-4 -8.89,-8.89l0 -19.54c0,-4.89 4,-8.89 8.89,-8.89zm36.03 -0.49l15.02 0c18.82,0 34.01,17.31 34.01,35.81l0 2.2 -49.03 0 0 -38.01zm-7.71 38.64l0 12.51c-3.06,0.39 -5.87,-2.96 -5.37,-6.01 0.53,-3.24 2.26,-5.36 5.37,-6.5zm-93.81 6.64l0.01 13.47c4.77,-15.14 39.42,-21.34 45.74,8.32l53.94 0.02c5.43,-27.94 36.98,-26.13 44.79,-9.06l11.85 0 0 -24.31c0,-21.51 -19.14,-39.11 -40.87,-39.11l-102.27 0c-13.47,0 -19.34,7.4 -19.34,19.15l0 31.66 6.15 -0.14z"/>
                    <rect fill="#fff" x="1739.42" y="707.9" width="33.96" height="28.32" rx="6.75" ry="6.75"/>
                    <rect fill="#fff" x="1791.36" y="708.19" width="30.18" height="28.32" rx="6" ry="6.75"/>
                    <path fill="#fff" d="M1837.16 707.9l12.49 0c11.41,0 26.04,14.09 26.04,27.32l0 1.68 -38.53 0 0 -29z"/>
                    <rect fill="#43556B" transform="matrix(0.923101 -0.384557 0.384557 0.923101 1822.99 676.65)" width="1.27" height="8.79"/>
                    <rect fill="#43556B" transform="matrix(0.985421 -0.170132 0.170132 0.985421 1828.73 675.947)" width="1.27" height="8.79"/>
                    <rect fill="#43556B" transform="matrix(0.995806 -0.0914949 0.0914949 0.995806 1833.35 675.653)" width="1.27" height="8.79"/>
                    <rect fill="#43556B" transform="matrix(0.989858 0.142062 -0.142062 0.989858 1842.94 675.826)" width="1.27" height="8.79"/>
                    <rect fill="#43556B" transform="matrix(0.96748 0.252947 -0.252947 0.96748 1847.64 676.207)" width="1.27" height="8.79"/>
                    <rect fill="#43556B" transform="matrix(0.995345 0.0963783 -0.0963783 0.995345 1838.65 675.544)" width="1.27" height="8.79"/>
                    <g>
                      <circle fill="#009FD7" cx="1756.4" cy="722.06" r="11.91"/>
                      <polygon fill="#fff" points="1754.49,715.15 1758.3,715.15 1758.3,720.39 1763.07,720.39 1763.07,724.2 1758.3,724.23 1758.3,728.97 1754.49,728.97 1754.49,724.2 1749.72,724.2 1749.72,720.39 1754.49,720.31 "/>
                    </g>
                  </g>
                </g>
              </svg>