<svg width="62" height="64" xmlns="http://www.w3.org/2000/svg" viewBox="0 0 62 64">
	<path fill="#CFE7F7" d="m31.06142,0.944567c-0.121548,0 -0.243095,0.040516 -0.263353,0.162064c-0.58748,2.187858 -0.810318,5.408872 -1.154703,7.718278c-0.68877,4.679586 -2.451212,12.13451 -5.692483,15.578361c-2.896886,3.079208 -8.062663,4.841649 -12.13451,5.53042c-2.228374,0.384901 -4.456748,0.830576 -6.70538,1.093929c-1.276251,0.162064 -2.552501,0.324127 -3.828752,0.526707c-0.344385,0.060774 -0.68877,0.121548 -1.033155,0.202579c-0.10129,0.020258 -0.324127,0.121548 -0.303869,0.263353c0.020258,0.10129 0.263353,0.222837 0.364643,0.243095c0.58748,0.162064 1.154703,0.202579 1.762441,0.283611c6.604091,0.89135 16.449453,1.802957 21.41265,6.563575c1.58012,1.519346 2.815855,3.443851 3.605915,5.489904c1.154703,2.977918 1.863731,6.198932 2.349922,9.379429c0.344385,2.208116 0.668512,4.456748 0.972381,6.685123c0.081032,0.567223 0.141806,1.174961 0.263353,1.742183c0.040516,0.182322 0.081032,0.648254 0.324127,0.648254c0.020258,0 0.10129,0 0.162064,-0.081032c0.222837,-0.405159 0.243095,-0.992639 0.324127,-1.458572c0.911608,-6.01661 1.316767,-12.256058 3.828752,-17.887767c0.931866,-2.086569 2.410696,-3.889526 4.152879,-5.348098c3.221014,-2.734823 9.460461,-4.031331 13.633598,-4.760618c2.734823,-0.465933 5.672225,-0.648254 8.326016,-1.195219c0.162064,-0.020258 0.364643,-0.081032 0.526707,-0.141806c0.10129,-0.040516 0.10129,-0.081032 0.10129,-0.182322c0,-0.081032 -0.081032,-0.182322 -0.162064,-0.202579c-1.458572,-0.384901 -3.443851,-0.546965 -4.963197,-0.749544c-2.755081,-0.384901 -5.489904,-0.810318 -8.204469,-1.418056c-2.26889,-0.486191 -4.618812,-1.215477 -6.685123,-2.289148c-1.418056,-0.729286 -2.775339,-1.721925 -3.909784,-2.836113c-1.823215,-1.823215 -3.180498,-4.558038 -3.909784,-6.988992c-1.235735,-4.112363 -1.904247,-8.48808 -2.430954,-12.742249c-0.141806,-1.053413 -0.243095,-2.674049 -0.546965,-3.666688c-0.040516,-0.10129 -0.081032,-0.162064 -0.182322,-0.162064z"/>
</svg>